<svg id="Layer_1" enable-background="new 0 0 468 468" height="512" viewBox="0 0 468 468" width="512" xmlns="http://www.w3.org/2000/svg"><g><g><g><g><g><path d="m381.747 14.227h-361.322c-3.417 0-6.188 2.77-6.188 6.188v249.711c0 3.417 2.77 6.188 6.188 6.188h361.322c3.417 0 6.188-2.77 6.188-6.188v-249.711c-.001-3.417-2.771-6.188-6.188-6.188z" fill="#192f5c"/></g></g></g><g><g><g><path d="m26.613 26.603h348.947v237.335h-348.947z" fill="#f0e8f9"/></g></g></g><path d="m325.981 50.711-27.309-1.193c-1.099-.023-2.1.832-2.15 1.971-.049 1.138.833 2.101 1.971 2.15l21.078.921-44.849 31.866-41.673-32.798c-.711-.56-1.701-.588-2.444-.08l-76.94 52.89-32.855-26.201c-.716-.569-1.717-.602-2.465-.08l-79.8 55.617c-2.224 1.501.198 4.947 2.359 3.384l78.538-54.737 32.847 26.193c.712.566 1.707.602 2.454.088l76.948-52.895 41.692 32.813c.721.567 1.725.59 2.47.061l45.999-32.681-7.029 19.85c-.926 2.504 3.016 3.922 3.89 1.378l9.124-25.767c.233-1.512-1.202-2.722-1.856-2.75z" fill="#192f5c"/><g><g><g><g><path d="m48.214 166.102h38.828v97.836h-38.828z" fill="#ffc31a"/></g></g></g><g><g><g><path d="m48.214 166.102h11.633v97.836h-11.633z" fill="#ffaf00"/></g></g></g></g><g><g><g><g><g><path d="m121.018 136.981h38.828v126.957h-38.828z" fill="#865acc"/></g></g></g></g><g><g><g><path d="m121.018 136.981h11.633v126.957h-11.633z" fill="#6a42ba"/></g></g></g></g><g><g><g><g><path d="m193.823 156.395h38.828v107.543h-38.828z" fill="#ff8f33"/></g></g></g><g><g><g><path d="m193.823 156.395h11.633v107.543h-11.633z" fill="#ff740d"/></g></g></g></g><g><g><g><g><path d="m266.628 175.809h38.828v88.129h-38.828z" fill="#f955af"/></g></g></g><g><g><g><path d="m266.628 175.809h11.633v88.129h-11.633z" fill="#ef009f"/></g></g></g></g><g><g><g><g><path d="m250.512 218.488-15.237-9.01c-5.098-3.678-12.078 3.896-6.998 8.232l3.057 2.61-2.699 1.094s-12.168 4.31-10.033 13.994c0 0 1.141 17.993 25.851 8.75 0 0 16.349-8.512 17.287-8.363l-2.002-18.023c-2.107.128-7.057.525-9.226.716z" fill="#ffc0b3"/></g></g></g><g><g><g><path d="m364.34 415.297v39.254c0 7.398-5.991 13.398-13.389 13.409l-25.494.04c-7.298.011-9.826-9.699-3.449-13.248l17.688-9.845v-35.441" fill="#ffc0b3"/></g></g></g><g><g><g><path d="m430.429 415.297v39.254c0 7.398-5.991 13.398-13.389 13.409l-25.493.04c-7.298.011-9.826-9.699-3.449-13.248l17.688-9.845v-35.441" fill="#ffc0b3"/></g></g></g><g><g><g><path d="m337.169 260.001v173.459h29.436s14.707-98.25 17.213-122.327h.011c2.506 24.077 19.129 122.327 19.129 122.327h30.103v-173.459z" fill="#131c46"/></g></g></g><g><g><g><path d="m337.169 260.001h11.633v173.459h-11.633z" fill="#0b1226"/></g></g></g><path d="m466.256 196.936c-8.838-25.194-19.043-72.53-59.542-75.726-.85-.067-7.403-.63-7.403-.63l.021.061-12.066-1.146h-21.274c-3.316 1.132-9.164 2.91-15.479 4.774-15.408 4.55-27.64 16.071-33.175 30.901l-11.756 30.488c-4.573 11.295-14.208 19.769-25.994 22.862l-22.875 6.004 1.695 26.737 33.076-5.498c22.72-3.777 40.902-21.256 45.036-43.914.37-2.026.576-3.81.649-5.262v73.432h96.431l.286-1.345 3.229 2.176 25.547-37.071c5.42-7.86 6.755-17.831 3.594-26.843z" fill="#865acc"/><g><g><g><path d="m365.992 119.496c-3.316 1.132-9.164 2.91-15.479 4.774-15.408 4.55-27.64 16.071-33.174 30.901l-11.756 30.488c-4.573 11.295-14.209 19.768-25.995 22.862l-22.874 6.004.689 10.871 31.88-8.15c11.786-3.094 21.421-11.568 25.995-22.862l11.756-30.488c5.534-14.831 17.766-26.351 33.174-30.901 6.315-1.865 12.163-3.642 15.479-4.774l11.579-8.725z" fill="#6a42ba"/></g></g></g><g><g><g><path d="m377.256 140.111h-.825c-7.277 0-13.177-5.9-13.177-13.177v-18.716h27.179v18.716c0 7.277-5.9 13.177-13.177 13.177z" fill="#f9a395"/></g></g></g><g><g><g><path d="m377.622 117.677h-1.557c-13.733 0-24.866-11.133-24.866-24.866v-37.792c0-.3.243-.544.544-.544h50.201c.3 0 .544.243.544.544v37.792c0 13.733-11.133 24.866-24.866 24.866z" fill="#ffc0b3"/></g></g></g><g><g><g><path d="m354.49 42.945c-.723-1.376-2.527-1.716-3.695-.698-18.521 16.142 1.099 42.167 1.099 42.167 0-.45-1.83-19.126 5.222-23.867 0 0 6.718 8.266 16.394 6.165 0 0-1.805-4.064-1.21-6.165 0 0 9.676 8.406 27.839 2.552 0 0 3.259 14.132 2.542 23.266 0 0 18.365-29.37.016-46.258-6.343-5.838-16.75-9.517-25.325-9.049-7.287.398-17.339 3.902-22.882 11.887z" fill="#333"/></g></g></g><g><g><g><path d="m359.52 44.186c1.168-1.018 2.973-.679 3.695.698 5.543-7.985 15.595-11.489 22.883-11.886 1.443-.079 2.94-.031 4.458.116-4.374-1.517-8.996-2.284-13.183-2.055-7.287.397-17.339 3.901-22.883 11.886-.722-1.376-2.527-1.716-3.695-.698-18.521 16.142 1.099 42.167 1.099 42.167 0-.294-.779-8.358.643-15.239-1.982-8.099-1.515-17.584 6.983-24.989z" fill="#212121"/></g></g></g><g><g><g><g><path d="m399.731 82.677s4.358-6.88 6.934-4.622c6.413 5.622-.865 20.822-6.341 17.213" fill="#ffc0b3"/></g></g></g><g><g><g><path d="m353.955 82.677s-4.358-6.88-6.934-4.622c-6.413 5.622.865 20.822 6.341 17.213" fill="#ffc0b3"/></g></g></g></g><g><g><g><g><path d="m415.146 253.502-16.644 4.468c-5.033.504-5.551 8.115.913 8.169l3.89.033-1.32 2.482s-6.34 10.732 1.267 16.566c0 0 11.467 10.2 24.038-11.956 0 0 7.121-13.23 7.91-13.702l-16.598-12.478c-1.639 2.607-1.965 4.932-3.456 6.418z" fill="#ffc0b3"/></g></g></g><g><g><g><path d="m417.508 247.601c-1.508.037-2.569-1.708-1.819-3.032l17.432-32.727-17.964-37.626c-.49-1.027-.055-2.259.973-2.749 1.022-.491 2.258-.055 2.749.973l18.413 38.565c.282.59.267 1.28-.04 1.858l-17.922 33.646c-.371.695-1.084 1.092-1.822 1.092z" fill="#6a42ba"/></g></g></g></g></g></g><g><g><g><g><path d="m240.972 385.187v-20.311l-13.312-1.933c-.989-3.555-2.402-6.931-4.183-10.074l8.045-10.765-14.388-14.362-10.784 8.031c-3.149-1.778-6.532-3.188-10.093-4.176l-1.936-13.288h-20.348l-1.936 13.288c-3.561.987-6.944 2.397-10.093 4.176l-10.784-8.031-14.388 14.362 8.045 10.765c-1.782 3.143-3.194 6.52-4.183 10.074l-13.312 1.933v20.311l13.312 1.933c.989 3.555 2.402 6.931 4.183 10.074l-8.045 10.765 14.388 14.362 10.784-8.031c3.149 1.778 6.532 3.188 10.093 4.176l1.936 13.288h20.348l1.936-13.288c3.561-.987 6.944-2.397 10.093-4.176l10.784 8.031 14.388-14.362-8.045-10.765c1.782-3.143 3.194-6.52 4.183-10.074z" fill="#ff740d"/></g></g></g><g><g><g><g><ellipse cx="183.87" cy="375.032" fill="#ffc31a" rx="32.61" ry="32.61" transform="matrix(1 -.003 .003 1 -1.067 .525)"/></g></g></g><g><g><g><g><path d="m161.73 375.125c-.046-16.257 11.812-29.765 27.367-32.28-1.732-.279-3.508-.429-5.32-.423-18.01.051-32.569 14.693-32.517 32.703.051 18.01 14.693 32.569 32.703 32.517 1.753-.005 3.473-.152 5.15-.423-15.486-2.496-27.337-15.896-27.383-32.094z" fill="#ffaf00"/></g></g></g></g><path d="m194.654 382.222c.175-5.062-4.507-9.264-9.528-9.233l-2.444-.039c-2.8.02-5.552-2.199-5.471-5.036.047-2.698 2.524-4.858 5.544-4.858.034 0 .07 0 .105.001l8.283.135h.034c1.123 0 2.042-.901 2.062-2.029.018-1.139-.89-2.077-2.029-2.096l-4.995-.081.07-3.984c.019-1.139-.887-2.079-2.026-2.099-1.183-.023-2.079.887-2.099 2.026l-.071 4.034c-4.953.319-8.919 4.144-9.003 8.88-.175 5.062 4.507 9.264 9.528 9.233l2.444.039c2.8-.02 5.552 2.199 5.471 5.036-.046 2.698-2.524 4.859-5.544 4.859-.034 0-8.385-.137-8.385-.137-.012 0-.023 0-.035 0-1.123 0-2.042.901-2.062 2.028-.018 1.139.889 2.078 2.028 2.097l4.995.082-.07 3.984c-.019 1.139.887 2.079 2.026 2.099h.037c1.122 0 2.041-.899 2.062-2.026l.071-4.033c4.953-.32 8.92-4.146 9.002-8.882z" fill="#fff"/></g></g><g><g><g><g><path d="m.059 72.191 16.425-18.616h104.68v-53.575h-121.105z" fill="#61ceac"/></g></g></g><g><g><g><path d="m121.164 40.339h-74.782c-18.274 0-33.088-14.814-33.088-33.088v-7.251h-13.235v72.191l16.544-18.616h104.561z" fill="#52c1a1"/></g></g></g><g><g><g><circle cx="60.611" cy="26.726" fill="#fff" r="10.313"/></g></g></g><g><g><g><circle cx="95.677" cy="26.726" fill="#fff" r="10.313"/></g></g></g><g><g><g><circle cx="25.546" cy="26.726" fill="#fff" r="10.313"/></g></g></g></g></g></svg>