<svg width="50" height="60" viewBox="0 0 50 60" fill="none" xmlns="http://www.w3.org/2000/svg">
<g id="android">
<g id="Group">
<path id="Vector" d="M31.25 59.8732C33.2519 59.8732 34.9977 58.1274 34.9977 56.1255V47.373H37.5001C39.0017 47.373 40.0025 46.3719 40.0025 44.8706V19.8723H9.9975V44.8709C9.9975 46.3722 10.9985 47.3733 12.4999 47.3733H15.0025V56.1258C15.0025 58.1277 16.7479 59.8735 18.7502 59.8735C20.7519 59.8735 22.4976 58.1277 22.4976 56.1258V47.3733H27.5025V56.1258C27.5023 58.1274 29.2481 59.8732 31.25 59.8732Z" fill="#ABA5CE"/>
<path id="Vector_2" d="M46.2526 44.8709C48.2545 44.8709 50 43.1253 50 41.1232V23.6184C50 21.627 48.2547 19.8723 46.2526 19.8723C44.2505 19.8723 42.5049 21.6271 42.5049 23.6184V41.1232C42.5049 43.1251 44.2504 44.8709 46.2526 44.8709Z" fill="#ABA5CE"/>
<path id="Vector_3" d="M3.74735 44.8709C5.74948 44.8709 7.49505 43.1253 7.49505 41.1232V23.6184C7.49505 21.627 5.74972 19.8723 3.74735 19.8723C1.74545 19.8723 0 21.6271 0 23.6184V41.1232C0.00011694 43.1251 1.74545 44.8709 3.74735 44.8709Z" fill="#ABA5CE"/>
<path id="Vector_4" d="M36.9993 0.377571C36.499 -0.125857 35.7542 -0.125857 35.254 0.377571L31.8976 3.72264L31.7428 3.87724C29.7527 2.88067 27.5214 2.38298 25.0367 2.37818C25.0245 2.37818 25.0124 2.37783 25.0003 2.37783H24.9999C24.9873 2.37783 24.9757 2.37818 24.9632 2.37818C22.4786 2.38298 20.2474 2.88067 18.2574 3.87724L18.1022 3.72264L14.7459 0.377571C14.2453 -0.125857 13.5009 -0.125857 13.0006 0.377571C12.5 0.878192 12.5 1.62123 13.0006 2.1215L16.2472 5.36869C15.201 6.06718 14.2524 6.92189 13.4275 7.89951C11.4526 10.2404 10.1928 13.2871 10.0197 16.5881C10.018 16.6224 10.0146 16.6563 10.0131 16.6907C10.0025 16.9155 9.99756 17.1414 9.99756 17.3683H40.0024C40.0024 17.1415 39.997 16.9156 39.9869 16.6907C39.9852 16.6563 39.9818 16.6224 39.9799 16.5881C39.807 13.2871 38.547 10.2403 36.572 7.89975C35.7474 6.92213 34.7985 6.06741 33.7523 5.36893L36.9993 2.12173C37.5 1.62123 37.5 0.878308 36.9993 0.377571ZM18.7454 12.999C17.7101 12.999 16.8707 12.1598 16.8707 11.1244C16.8707 10.089 17.71 9.24971 18.7454 9.24971C19.7807 9.24971 20.6201 10.089 20.6201 11.1244C20.6201 12.1598 19.7807 12.999 18.7454 12.999ZM31.2545 12.999C30.2192 12.999 29.3798 12.1598 29.3798 11.1244C29.3798 10.089 30.2191 9.24971 31.2545 9.24971C32.2897 9.24971 33.1291 10.089 33.1291 11.1244C33.1291 12.1598 32.2899 12.999 31.2545 12.999Z" fill="#ABA5CE"/>
</g>
</g>
</svg>
