<svg id="Layer_1" enable-background="new 0 0 512 512" height="512" viewBox="0 0 512 512" width="512" xmlns="http://www.w3.org/2000/svg"><g clip-rule="evenodd" fill-rule="evenodd"><g><path d="m145.17 268.637h233.309l117.521 39.29v42.427l-92.098 60.329-162.719-4.149-110.663-79.573c-3.318-2.386-4.146-6.671-4.146-10.81v-28.718c-.001-10.338 8.458-18.796 18.796-18.796z" fill="#fe646f"/><path d="m252.929 344.373h243.071v66.311h-243.071c-10.338 0-18.796-8.458-18.796-18.797v-28.718c0-10.338 8.458-18.796 18.796-18.796z" fill="#fd4755"/><path d="m496 402.684v-50.312h-243.071c-5.922 0-10.797 4.874-10.797 10.797v28.718c0 5.922 4.874 10.797 10.797 10.797z" fill="#eceff1"/><path d="m145.17 202.326h233.309l117.521 75.735-1.206 56.584-253.611 5.578-110.663-79.573c-3.318-2.386-4.146-6.671-4.146-10.81v-28.717c-.001-10.339 8.458-18.797 18.796-18.797z" fill="#ffe177"/><path d="m252.929 278.062h243.071v66.311h-243.071c-10.338 0-18.796-8.458-18.796-18.796v-28.718c0-10.339 8.458-18.797 18.796-18.797z" fill="#ffd064"/><path d="m496 336.373v-50.312h-243.071c-5.922 0-10.797 4.875-10.797 10.797v28.718c0 5.922 4.874 10.797 10.797 10.797z" fill="#eceff1"/><path d="m145.17 136.015h233.309l117.521 39.29v42.427l-92.098 60.329-162.719-4.149-110.663-79.573c-3.318-2.386-4.146-6.671-4.146-10.81v-28.718c-.001-10.338 8.458-18.796 18.796-18.796z" fill="#00e499"/><path d="m252.929 211.75h243.071v66.311h-243.071c-10.338 0-18.796-8.458-18.796-18.797v-28.718c0-10.337 8.458-18.796 18.796-18.796z" fill="#00cf8a"/><path d="m496 270.062v-50.312h-243.071c-5.922 0-10.797 4.874-10.797 10.797v28.718c0 5.923 4.874 10.797 10.797 10.797z" fill="#eceff1"/><path d="m145.17 69.704h233.309l117.521 75.735-1.206 56.584-253.611 5.578-110.663-79.574c-3.318-2.386-4.146-6.671-4.146-10.81v-28.717c-.001-10.338 8.458-18.796 18.796-18.796z" fill="#60b7ff"/><path d="m145.17 69.704h233.309l117.521 75.735h-243.071z" fill="#8ac9fe"/><path d="m252.929 145.439h243.071v66.311h-243.071c-10.338 0-18.796-8.458-18.796-18.797v-28.718c0-10.337 8.458-18.796 18.796-18.796z" fill="#41a8fc"/><path d="m496 203.751v-50.312h-243.071c-5.922 0-10.797 4.874-10.797 10.797v28.718c0 5.922 4.874 10.797 10.797 10.797z" fill="#eceff1"/></g><g><circle cx="111.225" cy="347.071" fill="#a79ba7" r="95.225"/><path d="m111.225 251.846c52.592 0 95.225 42.634 95.225 95.225 0 52.592-42.634 95.225-95.225 95.225-1.677 0-3.344-.044-5-.13 50.267-2.6 90.225-44.181 90.225-95.095s-39.958-92.494-90.225-95.095c1.656-.086 3.323-.13 5-.13z" fill="#837683"/><path d="m124.877 289.872c6.053 1.441 11.835 3.841 17.133 7.103l11.133-4.945 13.122 13.122-4.943 11.13c3.264 5.299 5.664 11.083 7.104 17.138l11.359 4.372v18.557l-11.361 4.373c-1.441 6.053-3.841 11.835-7.103 17.133l4.945 11.133-13.121 13.122-11.13-4.943c-5.299 3.263-11.083 5.664-17.138 7.104l-4.372 11.359h-18.557l-4.374-11.361c-6.053-1.44-11.835-3.841-17.133-7.103l-11.133 4.944-13.123-13.12 4.943-11.13c-3.264-5.299-5.663-11.083-7.104-17.138l-11.359-4.372v-18.557l11.36-4.373c1.44-6.054 3.84-11.836 7.103-17.135l-4.944-11.132 13.121-13.122 11.134 4.945c5.299-3.262 11.08-5.662 17.133-7.103l4.373-11.362h18.557z" fill="#ffe177"/><path d="m124.877 289.872c6.053 1.441 11.835 3.841 17.133 7.103l-3.258 1.447c-5.298-3.262-13.564-7.109-19.618-8.55l-4.373-11.362h5.743zm24.29 3.925 3.976-1.766 13.122 13.122-4.943 11.13c3.264 5.299 5.664 11.083 7.104 17.138l11.359 4.372v18.557l-11.361 4.373c-1.441 6.053-3.841 11.835-7.103 17.133l4.945 11.133-13.121 13.122-3.977-1.766 11.356-11.356-4.945-11.133c3.262-5.298 5.662-11.08 7.103-17.133l11.361-4.373v-18.557l-11.358-4.372c-1.441-6.055-3.841-11.839-7.104-17.138l4.943-11.13zm-7.153 103.371c-5.299 3.263-11.083 5.664-17.138 7.104l-4.372 11.359h-5.742l4.372-11.359c6.054-1.441 14.323-5.288 19.622-8.551zm-61.573-.002-11.134 4.944-1.766-1.766 10.415-4.626c.817.504 1.646.987 2.485 1.448zm-12.9-103.369 1.766-1.766 11.134 4.945c-.839.462-1.668.944-2.485 1.447z" fill="#ffd064"/><ellipse cx="111.225" cy="347.071" fill="#eceff1" rx="35.192" ry="35.192" transform="matrix(.997 -.083 .083 .997 -28.247 10.356)"/><path d="m111.225 311.879c-19.438 0-35.192 15.754-35.192 35.192s15.754 35.192 35.192 35.192c.962 0 1.916-.04 2.858-.116-18.1-1.455-32.333-16.6-32.333-35.076 0-18.475 14.233-33.621 32.333-35.076-.942-.076-1.895-.116-2.858-.116z" fill="#d1d1d6"/></g></g></svg>