<svg width="131" height="131" viewBox="0 0 131 131" fill="none" xmlns="http://www.w3.org/2000/svg">
<g id="cricket-betting-app-development">
<circle id="Ellipse 9" cx="65.5" cy="65.5" r="65.5" fill="#FFEFE6"/>
<g id="Coding">
<g id="Group">
<g id="Group_2">
<g id="Group_3">
<g id="Group_4">
<g id="Group_5">
<path id="Vector" d="M75.3902 45.5689V91.7344C75.3902 92.9862 74.3763 94.0001 73.1246 94.0001H42.2656C41.0139 94.0001 40 92.9862 40 91.7344V77.9051L41.015 76.1968L40 75.1319V66.9576L41.7513 59.9092L40 52.8608V45.5689L59.14 42.2L75.3902 45.5689Z" fill="#CBE1FF"/>
<path id="Vector_2" d="M57.6956 36H42.2656C41.0143 36 40 37.0143 40 38.2656V45.5685H57.6956L59.1401 40.7843L57.6956 36Z" fill="#7CBAF7"/>
<path id="Vector_3" d="M73.1252 36H57.6953V45.5685H75.3909V38.2656C75.3909 37.0143 74.3764 36 73.1252 36Z" fill="#48ACFF"/>
</g>
<g id="Group_6">
<path id="Vector_4" d="M44.9492 42.2001C45.7313 42.2001 46.3652 41.5661 46.3652 40.7841C46.3652 40.002 45.7313 39.368 44.9492 39.368C44.1672 39.368 43.5332 40.002 43.5332 40.7841C43.5332 41.5661 44.1672 42.2001 44.9492 42.2001Z" fill="#F91ED0"/>
<path id="Vector_5" d="M49.0576 42.2001C49.8397 42.2001 50.4736 41.5661 50.4736 40.7841C50.4736 40.002 49.8397 39.368 49.0576 39.368C48.2756 39.368 47.6416 40.002 47.6416 40.7841C47.6416 41.5661 48.2756 42.2001 49.0576 42.2001Z" fill="#FFE059"/>
<path id="Vector_6" d="M53.166 42.2001C53.9481 42.2001 54.582 41.5661 54.582 40.7841C54.582 40.002 53.9481 39.368 53.166 39.368C52.384 39.368 51.75 40.002 51.75 40.7841C51.75 41.5661 52.384 42.2001 53.166 42.2001Z" fill="#31FFD7"/>
</g>
<g id="Group_7">
<path id="Vector_7" d="M70.2557 42.2001H62.3652C61.5831 42.2001 60.9492 41.5662 60.9492 40.7841C60.9492 40.002 61.5831 39.368 62.3652 39.368H70.2557C71.0378 39.368 71.6717 40.002 71.6717 40.7841C71.6717 41.5662 71.0377 42.2001 70.2557 42.2001Z" fill="#037CFF"/>
</g>
</g>
<path id="Vector_8" d="M45.6641 77.9076V75.1305C45.6641 73.5664 44.3961 72.2985 42.832 72.2985C41.268 72.2985 40 73.5664 40 75.1305V77.9076C40 79.4717 41.268 80.7396 42.832 80.7396C44.3961 80.7396 45.6641 79.4717 45.6641 77.9076Z" fill="#E3F0FF"/>
<g id="Group_8">
<path id="Vector_9" d="M45.6641 66.9619V52.8568C45.6641 51.2927 44.3961 50.0248 42.832 50.0248C41.268 50.0248 40 51.2927 40 52.8568V66.962C40 68.5261 41.268 69.7941 42.832 69.7941C44.3961 69.7939 45.6641 68.526 45.6641 66.9619Z" fill="#E3F0FF"/>
<path id="Vector_10" d="M40 56.4298V61.5377C40 63.1017 41.268 64.3697 42.832 64.3697C44.3961 64.3697 45.6641 63.1017 45.6641 61.5377V56.4298C45.6641 54.8657 44.3961 53.5978 42.832 53.5978C41.268 53.5978 40 54.8657 40 56.4298Z" fill="#F5FAFF"/>
</g>
<path id="Vector_11" d="M75.3913 53.4181H47.3633C46.4249 53.4181 45.6641 54.1789 45.6641 55.1173V83.3674C45.6641 84.3058 46.4249 85.0666 47.3633 85.0666H68.8215C69.3219 85.0666 69.7277 85.4724 69.7277 85.9729V88.3359H63.8252C62.2374 88.3359 60.8998 89.6352 60.93 91.2227C60.9592 92.7615 62.2157 94 63.7614 94H73.1262C74.3768 94 75.3918 92.9861 75.3918 91.7343V68.9782C75.3918 68.9718 75.3913 53.4181 75.3913 53.4181Z" fill="#A9CFFC"/>
<path id="Vector_12" d="M55.5436 88.3359H52.7864C51.1986 88.3359 49.861 89.6353 49.8911 91.2227C49.9202 92.7615 51.1769 94 52.7226 94H55.5436C57.1077 94 58.3757 92.732 58.3757 91.168C58.3757 89.6039 57.1077 88.3359 55.5436 88.3359Z" fill="#A9CFFC"/>
<g id="Group_9">
<path id="Vector_13" d="M75.3916 75.8725V73.2583C75.3916 71.6942 74.1236 70.4263 72.5596 70.4263C70.9955 70.4263 69.7275 71.6942 69.7275 73.2583V75.8725C69.7275 77.4366 70.9955 78.7045 72.5596 78.7045C74.1236 78.7045 75.3916 77.4366 75.3916 75.8725Z" fill="#7CBAF7"/>
<path id="Vector_14" d="M69.7269 87.0896V88.336H67.8213C66.2572 88.336 64.9893 89.604 64.9893 91.1681C64.9893 92.7321 66.2572 94.0001 67.8213 94.0001H73.1253C74.376 94.0001 75.391 92.9862 75.391 91.7345V87.0896C75.391 85.5255 74.123 84.2576 72.5589 84.2576C70.9949 84.2576 69.7269 85.5255 69.7269 87.0896Z" fill="#7CBAF7"/>
</g>
</g>
</g>
<g id="Group_10">
<g id="Group_11">
<g id="Group_12">
<g id="Group_13">
<path id="Vector_15" d="M90.7907 63.9918L88.6928 64.3701L90.7907 65.8541V73.2072L87.6166 78.374L72.2126 81.8608H64.0314L60.5254 79.8262L58.6404 81.8608H50.8398C49.9019 81.8608 49.1406 81.1006 49.1406 80.1615V51.9126C49.1406 50.9746 49.9019 50.2134 50.8398 50.2134H55.1207L59.8842 53.0454L67.5511 50.2134H75.5782L77.6762 52.2694L78.8656 50.2134H89.0915C90.0295 50.2134 90.7907 50.9746 90.7907 51.9126V63.9918Z" fill="#FFAF40"/>
<g id="Group_14">
<path id="Vector_16" d="M72.2129 76.1965H77.3185V81.8606H72.2129C71.4301 81.8606 70.7232 81.5434 70.2101 81.0314C69.698 80.5193 69.3809 79.8102 69.3809 79.0286C69.3809 77.4642 70.6485 76.1965 72.2129 76.1965Z" fill="#F97C15"/>
<path id="Vector_17" d="M90.7913 73.2073V80.1616C90.7913 81.1007 90.03 81.8608 89.0921 81.8608H82.7109V76.1968H85.1272V73.2073C85.1272 72.4245 85.4444 71.7176 85.9564 71.2045C86.4696 70.6924 87.1765 70.3752 87.9593 70.3752C89.5237 70.3752 90.7913 71.6429 90.7913 73.2073Z" fill="#F97C15"/>
<path id="Vector_18" d="M90.791 65.8542V63.9923C90.791 62.4045 89.4917 61.0669 87.9043 61.0971C86.3655 61.1263 85.127 62.3828 85.127 63.9285V65.8542C85.127 67.4183 86.3949 68.6862 87.959 68.6862C89.5231 68.6862 90.791 67.4183 90.791 65.8542Z" fill="#F97C15"/>
</g>
<path id="Vector_19" d="M82.7112 76.1967H77.3193C75.7553 76.1967 74.4873 77.4646 74.4873 79.0287C74.4873 80.5928 75.7553 81.8607 77.3193 81.8607H82.7112C84.2753 81.8607 85.5432 80.5928 85.5432 79.0287C85.5432 77.4645 84.2753 76.1967 82.7112 76.1967Z" fill="#E86300"/>
<path id="Vector_20" d="M64.0325 76.1967H58.6406C57.0766 76.1967 55.8086 77.4646 55.8086 79.0287C55.8086 80.5928 57.0766 81.8607 58.6406 81.8607H64.0325C65.5965 81.8607 66.8645 80.5928 66.8645 79.0287C66.8645 77.4645 65.5967 76.1967 64.0325 76.1967Z" fill="#F97C15"/>
</g>
</g>
<path id="Vector_21" d="M52.29 53.0459C52.29 54.61 53.558 55.8779 55.1221 55.8779H67.5516C69.1157 55.8779 70.3837 54.61 70.3837 53.0459C70.3837 51.4818 69.1157 50.2139 67.5516 50.2139H55.1221C53.558 50.2139 52.29 51.4818 52.29 53.0459Z" fill="#FFC751"/>
<path id="Vector_22" d="M61.529 50.2139H58.2412C56.6771 50.2139 55.4092 51.4818 55.4092 53.0459C55.4092 54.61 56.6771 55.8779 58.2412 55.8779H61.529C63.093 55.8779 64.361 54.61 64.361 53.0459C64.361 51.4818 63.093 50.2139 61.529 50.2139Z" fill="#FFE059"/>
<path id="Vector_23" d="M78.8659 50.2139H75.5781C74.0141 50.2139 72.7461 51.4818 72.7461 53.0459C72.7461 54.61 74.0141 55.8779 75.5781 55.8779H78.8659C80.43 55.8779 81.6979 54.61 81.6979 53.0459C81.6979 51.4818 80.43 50.2139 78.8659 50.2139Z" fill="#FFC751"/>
</g>
<g id="Group_15">
<g id="Group_16">
<path id="Vector_24" d="M62.4981 72.9898L55.2345 66.5707C54.914 66.2875 54.914 65.7876 55.2345 65.5043L62.4981 59.0851C62.7925 58.8249 63.2422 58.8526 63.5024 59.1471L64.5795 60.3659C64.8397 60.6604 64.812 61.11 64.5176 61.3703L59.2363 66.0376L64.5174 70.7048C64.8119 70.965 64.8397 71.4147 64.5794 71.7092L63.5024 72.9278C63.2422 73.2223 62.7925 73.25 62.4981 72.9898Z" fill="#F8FFFC"/>
</g>
<g id="Group_17">
<path id="Vector_25" d="M77.4326 72.9898L84.6962 66.5707C85.0167 66.2875 85.0167 65.7876 84.6962 65.5043L77.4326 59.0851C77.1382 58.8249 76.6885 58.8526 76.4283 59.1471L75.3512 60.3659C75.091 60.6604 75.1188 61.11 75.4132 61.3703L80.6945 66.0376L75.4133 70.7048C75.1189 70.965 75.091 71.4147 75.3513 71.7092L76.4283 72.9278C76.6885 73.2223 77.1381 73.25 77.4326 72.9898Z" fill="#F8FFFC"/>
</g>
</g>
<path id="Vector_26" d="M71.118 57.7484L65.9233 73.3643C65.7992 73.7372 66.001 74.1401 66.3739 74.2641L67.9173 74.7775C68.2902 74.9015 68.693 74.6998 68.8171 74.3269L74.0118 58.711C74.1358 58.3381 73.9341 57.9353 73.5612 57.8112L72.0178 57.2979C71.6449 57.1737 71.2421 57.3755 71.118 57.7484Z" fill="#F8FFFC"/>
</g>
</g>
</g>
</g>
</svg>
