<svg width="131" height="131" viewBox="0 0 131 131" fill="none" xmlns="http://www.w3.org/2000/svg">
<g id="cricket-betting-website-development">
<circle id="Ellipse 11" cx="65.5" cy="65.5" r="65.5" fill="#D9FBFF"/>
<g id="World wide web">
<path id="Vector" d="M90.6485 74.7847C83.7682 89.2128 73.181 92.3301 65.4994 92.3301C56.8491 92.3301 48.6999 88.0105 43.6901 80.9635C38.6472 73.8496 37.4446 64.832 40.3503 56.2151L40.8848 55.1131C44.9593 45.394 54.8453 38.6699 65.4994 38.6699C74.1497 38.6699 82.2989 42.9895 87.3087 50.0365C92.3516 57.1504 93.5542 66.168 90.6485 74.7847Z" fill="#65B1FC"/>
<path id="Vector_2" d="M90.6491 74.7847C83.7688 89.2128 73.1816 92.3301 65.5 92.3301V38.6699C74.1503 38.6699 82.2995 42.9895 87.3093 50.0365C92.3522 57.1504 93.5548 66.168 90.6491 74.7847Z" fill="#1689FC"/>
<path id="Vector_3" d="M88.6785 49.0679C83.3349 41.5866 74.6846 37 65.5 37C54.0444 37 43.5572 44.1918 39.2488 54.779L38.681 55.948C35.6144 65.2858 36.8084 74.1305 42.3215 81.9319C47.6651 89.4132 56.3155 94 65.5 94C76.8221 94 87.1756 86.9752 91.6176 76.6216L92.1185 75.6196C95.4567 66.1212 94.2874 56.9965 88.6785 49.0679ZM45.0602 79.9948C40.3177 73.3151 39.2155 64.8654 41.9541 56.7496L42.3883 55.8477C45.0936 49.3684 50.4707 44.3477 56.8831 41.9429C52.842 47.2199 50.4038 57.4843 50.7045 60.8241C50.6711 60.9244 50.6376 61.0245 50.6376 61.1582C49.7692 72.3466 52.3075 83.1455 57.0835 89.1906C52.3076 87.4538 48.0661 84.2365 45.0602 79.9948ZM63.8301 90.3595C62.6613 89.9587 61.4922 89.0793 60.3899 87.9102C55.7143 82.8672 53.1426 72.2131 53.9776 61.4253V61.1248C53.9776 61.0245 54.011 60.891 54.011 60.7907C54.9794 50.4038 59.0541 42.2102 63.8301 40.6403V90.3595ZM67.1699 90.3261V40.6403C72.3132 42.3436 76.6218 51.8065 77.1226 63.0952C77.5901 73.5155 74.9852 83.3013 70.4763 88.0439C69.4075 89.146 68.3056 89.9587 67.1699 90.3261ZM89.0459 74.2504C85.3053 82.1324 80.0283 86.9862 73.9165 89.1572C78.3918 83.5129 80.9301 73.4488 80.4624 62.9617C80.0616 54.0776 77.5567 46.4185 73.9164 41.8094C78.6924 43.546 82.9339 46.7635 85.9398 51.005C90.6823 57.6847 91.7846 66.1346 89.0459 74.2504Z" fill="#96EBE6"/>
<path id="Vector_4" d="M88.6785 49.0679C83.3349 41.5866 74.6846 37 65.5 37V94C76.8221 94 87.1756 86.9752 91.6176 76.6216L92.1184 75.6196C95.4567 66.1212 94.2873 56.9965 88.6785 49.0679ZM67.1699 90.3261V40.6403C72.3132 42.3436 76.6218 51.8065 77.1225 63.0952C77.5901 73.5155 74.9852 83.3013 70.4763 88.0439C69.4075 89.146 68.3056 89.9587 67.1699 90.3261ZM89.0459 74.2504C85.3053 82.1324 80.0283 86.9862 73.9165 89.1572C78.3918 83.5129 80.9301 73.4488 80.4624 62.9617C80.0616 54.0776 77.5567 46.4185 73.9164 41.8094C78.6924 43.546 82.9339 46.7635 85.9397 51.005C90.6823 57.6847 91.7846 66.1346 89.0459 74.2504Z" fill="#00C8C8"/>
<path id="Vector_5" d="M88.8789 53.8105H42.1211C39.3489 53.8105 37 56.0481 37 58.8203V72.1797C37 74.9516 39.3489 77.1895 42.1211 77.1895H88.8789C91.6511 77.1895 94 74.9516 94 72.1797V58.8203C94 56.0481 91.6511 53.8105 88.8789 53.8105Z" fill="#0053BF"/>
<path id="Vector_6" d="M94 58.8203V72.1797C94 74.9516 91.6511 77.1895 88.8789 77.1895H65.5V53.8105H88.8789C91.6511 53.8105 94 56.0481 94 58.8203Z" fill="#05377F"/>
<path id="Vector_7" d="M73.6828 62.8947L70.343 69.5744C70.0424 70.1423 69.4746 70.5096 68.84 70.5096C68.2055 70.5096 67.6377 70.1423 67.3371 69.5744L65.5002 65.9007L63.6633 69.5744C63.0956 70.71 61.2251 70.71 60.6573 69.5744L57.3175 62.8947C56.9167 62.0931 57.2508 61.0913 58.0857 60.6571C58.8873 60.2563 59.8891 60.5902 60.3233 61.4251L62.1603 65.0991L63.9973 61.4251C64.2979 60.8575 64.8991 60.5568 65.5002 60.5568C66.1012 60.5568 66.7025 60.8575 67.0031 61.4251L68.84 65.0991L70.6769 61.4251C71.1111 60.5902 72.1131 60.2563 72.9145 60.6571C73.7495 61.0913 74.0836 62.0931 73.6828 62.8947Z" fill="#E1F1FA"/>
<path id="Vector_8" d="M85.5393 70.5098C84.9065 70.5098 84.3293 70.1526 84.0455 69.5867L82.1994 65.8947L80.3534 69.5867C79.7858 70.7185 77.9333 70.7185 77.3658 69.5867L74.1662 63.1859C73.9592 62.9315 73.8253 62.6168 73.8025 62.271C73.7438 61.3512 74.3912 60.5604 75.3109 60.5C76.0089 60.4838 76.7134 60.8132 77.0134 61.4133L78.8596 65.1053L80.7056 61.4133C81.2732 60.2815 83.1257 60.2815 83.6932 61.4133L85.5393 65.1053L87.3853 61.4133C87.7996 60.5864 88.8024 60.2587 89.626 60.6664C90.4512 61.0789 90.7855 62.0819 90.3729 62.9071L87.0331 69.5867C86.7493 70.1526 86.1721 70.5098 85.5393 70.5098Z" fill="#BFE1FF"/>
<path id="Vector_9" d="M55.5888 60.4935C54.9316 60.4869 54.2874 60.8131 53.9873 61.4133L52.1413 65.1053L50.2952 61.4133C49.6937 60.2144 47.9025 60.2234 47.3076 61.4133L45.4616 65.1053L43.6155 61.4133C43.2013 60.5864 42.1968 60.2587 41.3748 60.6664C40.5497 61.0789 40.2153 62.0819 40.6279 62.9071L43.9678 69.5867C44.2515 70.1526 44.8288 70.5098 45.4616 70.5098C46.0944 70.5098 46.6716 70.1526 46.9554 69.5867L48.8014 65.8947L50.6475 69.5867C50.9312 70.1526 51.5085 70.5098 52.1413 70.5098C52.774 70.5098 53.3513 70.1526 53.6351 69.5867L56.7809 63.2951C57.019 63.0244 57.1723 62.6673 57.1983 62.271C57.257 61.3512 56.5085 60.5538 55.5888 60.4935Z" fill="#E1F1FA"/>
<path id="Vector_10" d="M73.6826 62.8947L70.3428 69.5744C70.0422 70.1423 69.4744 70.5096 68.8398 70.5096C68.2053 70.5096 67.6375 70.1423 67.3369 69.5744L65.5 65.9007V60.5568C66.1012 60.5568 66.7023 60.8575 67.0029 61.4251L68.8398 65.0991L70.6768 61.4251C71.1109 60.5902 72.1129 60.2563 72.9143 60.6571C73.7493 61.0913 74.0834 62.0931 73.6826 62.8947Z" fill="#BFE1FF"/>
</g>
</g>
</svg>
