<svg width="131" height="131" viewBox="0 0 131 131" fill="none" xmlns="http://www.w3.org/2000/svg">
<g id="cricket-betting-ap-consultation">
<circle id="Ellipse 9" cx="65.5" cy="65.5" r="65.5" fill="#E5EDFF"/>
<g id="Consulting">
<path id="Vector" d="M75.0771 95H38.1788C37.5279 95 37 94.4721 37 93.8212V88.87C37 88.2191 37.5279 87.6912 38.1788 87.6912H75.0771V95Z" fill="#FF933B"/>
<path id="Vector_2" d="M72.4836 87.6912C71.9508 88.8788 71.6588 90.1864 71.6588 91.5436V91.5812C71.6588 92.1021 71.2366 92.5242 70.7158 92.5242H37V93.8212C37 94.4721 37.5279 95 38.1788 95H75.0771V87.6912H72.4836Z" fill="#F27D27"/>
<path id="Vector_3" d="M89.459 77.4348C89.459 74.7006 87.2421 72.4836 84.5078 72.4836C81.7731 72.4836 79.5566 74.7006 79.5566 77.4348V79.7929C79.5566 82.5272 81.7731 84.7441 84.5078 84.7441C87.2421 84.7441 89.459 82.5272 89.459 79.7929V77.4348Z" fill="#FECCC1"/>
<path id="Vector_4" d="M84.5081 72.4836C84.1647 72.4836 83.8298 72.519 83.5059 72.5854C85.76 73.0487 87.4552 75.044 87.4552 77.4348V79.7929C87.4552 82.1838 85.76 84.179 83.5059 84.6423C83.8298 84.7087 84.1647 84.7441 84.5081 84.7441C87.2424 84.7441 89.4593 82.5272 89.4593 79.7929V77.4348C89.4593 74.7006 87.2424 72.4836 84.5081 72.4836Z" fill="#F9B3A7"/>
<path id="Vector_5" d="M95.0002 93.8211V91.5435C95.0002 88.5314 93.0925 85.8498 90.2472 84.8617L87.7227 83.9856C86.9214 83.7072 86.0793 83.5652 85.231 83.5652H83.7858C82.9375 83.5652 82.095 83.7072 81.294 83.9856L78.7695 84.8617C75.9242 85.8498 74.0166 88.5314 74.0166 91.5435V95H93.8214C94.4723 95 95.0002 94.472 95.0002 93.8211Z" fill="#636363"/>
<path id="Vector_6" d="M90.247 84.8617L89.5859 84.6321C91.329 85.9441 92.4065 88.0208 92.4065 90.2846V95H93.8212C94.4721 95 95 94.4721 95 93.8211V91.5436C95 88.5314 93.0923 85.8499 90.247 84.8617Z" fill="#494949"/>
<path id="Vector_7" d="M62.5431 77.5529L60.8125 76.952V76.9635L56.8043 83.9188L52.7961 76.9635L52.7948 76.9525L51.0654 77.5529C48.2201 78.5411 46.3125 81.2226 46.3125 84.2348V87.6912H67.2961V84.2348C67.2961 81.2226 65.3889 78.5411 62.5431 77.5529Z" fill="#636363"/>
<path id="Vector_8" d="M62.5439 77.5529L61.8828 77.3232C63.6258 78.6353 64.7038 80.7119 64.7038 82.9758V87.6911H67.2969V84.2347C67.2969 81.2226 65.3897 78.541 62.5439 77.5529Z" fill="#494949"/>
<path id="Vector_9" d="M52.7962 76.9635L56.8045 83.9188L60.8127 76.9635V76.952L58.8086 76.256H54.8004L52.7949 76.9525L52.7962 76.9635Z" fill="#DDF5FF"/>
<path id="Vector_10" d="M61.7559 70.1259C61.7559 67.3916 59.5394 65.1747 56.8047 65.1747C54.0705 65.1747 51.8535 67.3916 51.8535 70.1259V72.4835C51.8535 75.2182 54.0705 77.4347 56.8047 77.4347C59.5394 77.4347 61.7559 75.2182 61.7559 72.4835V70.1259Z" fill="#FECCC1"/>
<path id="Vector_11" d="M56.8046 65.1747C56.4616 65.1747 56.1262 65.2096 55.8027 65.276C58.0569 65.7393 59.7516 67.7346 59.7516 70.1259V72.4835C59.7516 74.8748 58.0569 76.8701 55.8027 77.3334C56.1262 77.3998 56.4612 77.4347 56.8046 77.4347C59.5392 77.4347 61.7558 75.2182 61.7558 72.4835V70.1259C61.7558 67.3916 59.5392 65.1747 56.8046 65.1747Z" fill="#F9B3A7"/>
<path id="Vector_12" d="M66.943 37H41.7153C39.1112 37 37 39.1112 37 41.7153V53.9758C37 56.58 39.1112 58.6911 41.7153 58.6911H44.3089L48.5932 62.9755C49.1875 63.5698 50.2035 63.1489 50.2035 62.3086V58.6911H66.943C69.5471 58.6911 71.6583 56.58 71.6583 53.9758V41.7153C71.6583 39.1112 69.5476 37 66.943 37Z" fill="#8DB0FF"/>
<path id="Vector_13" d="M66.943 37H41.7153C39.1112 37 37 39.1112 37 41.7153V53.9758C37 56.58 39.1112 58.6911 41.7153 58.6911H44.3089L48.5932 62.9755C49.1875 63.5698 50.2035 63.1489 50.2035 62.3086V58.6911H66.943C69.5471 58.6911 71.6583 56.58 71.6583 53.9758V41.7153C71.6583 39.1112 69.5476 37 66.943 37Z" fill="#8DB0FF"/>
<path id="Vector_14" d="M41.7153 56.3335C39.1112 56.3335 37 54.2223 37 51.6177V53.9758C37 56.5799 39.1112 58.6911 41.7153 58.6911H44.3089L48.5932 62.9754C49.1875 63.5697 50.2035 63.1489 50.2035 62.3086V62.2276L44.9996 57.0238C44.5575 56.5817 43.9575 56.3335 43.3322 56.3335H41.7153Z" fill="#669AF7"/>
<path id="Vector_15" d="M66.9426 37H63.9956C65.6735 37 67.1462 37.8762 67.9821 39.1962C68.4795 39.982 67.9166 41.0082 66.9869 41.0082H65.0567C61.1503 41.0082 57.9832 44.1748 57.9832 48.0812V55.1546C57.9832 55.8056 57.4558 56.3335 56.8044 56.3335H52.5608C51.2585 56.3335 50.2031 57.3889 50.2031 58.6911H66.9426C69.5468 58.6911 71.658 56.58 71.658 53.9758V41.7153C71.658 39.1112 69.5472 37 66.9426 37Z" fill="#669AF7"/>
<path id="Vector_16" d="M65.0571 43.3658H90.2848C92.8889 43.3658 95.0001 45.477 95.0001 48.0812V60.3417C95.0001 62.9458 92.8889 65.057 90.2848 65.057H78.1424V68.6745C78.1424 69.5148 77.1264 69.9352 76.5326 69.3413L72.2483 65.057H65.0571C62.453 65.057 60.3418 62.9458 60.3418 60.3417V48.0812C60.3418 45.477 62.4525 43.3658 65.0571 43.3658Z" fill="#FFD664"/>
<g id="Group">
<path id="Vector_17" d="M65.0571 62.4635C62.453 62.4635 60.3418 60.3523 60.3418 57.7477V60.3412C60.3418 62.9453 62.453 65.057 65.0571 65.057H72.2483L76.5326 69.3413C77.1264 69.9352 78.1424 69.5143 78.1424 68.6745V68.3576L72.9386 63.1538C72.4965 62.7117 71.8969 62.4635 71.2712 62.4635H65.0571Z" fill="#F9C646"/>
<path id="Vector_18" d="M90.2849 43.3658H87.3378C89.942 43.3658 92.0532 45.477 92.0532 48.0812V60.1058C92.0532 61.4077 90.9973 62.4635 89.6955 62.4635H80.5002C79.198 62.4635 78.1426 63.5188 78.1426 64.8211V65.057H90.2849C92.8891 65.057 95.0002 62.9454 95.0002 60.3412V48.0812C95.0002 45.477 92.8891 43.3658 90.2849 43.3658Z" fill="#F9C646"/>
</g>
</g>
</g>
</svg>
