<svg width="131" height="131" viewBox="0 0 131 131" fill="none" xmlns="http://www.w3.org/2000/svg">
<g id="cricket-betting-software-development">
<circle id="Ellipse 10" cx="65.5" cy="65.5" r="65.5" fill="#D3ECFF"/>
<g id="Layers">
<g id="Group">
<g id="Group_2">
<g id="Group_3">
<path id="Vector" d="M95.9604 64.405L86.1608 58.9675C85.5807 58.6775 84.9282 58.6775 84.3483 58.9675L80.4333 61.1794V46.0625H51.4333V61.1794L47.5182 58.9675C46.9383 58.6775 46.2858 58.6775 45.7057 58.9675L35.9062 64.405C35.3624 64.7311 35 65.3475 35 66C35 66.6525 35.3624 67.2686 35.9062 67.595L42.8783 71.4375L61.4021 87.5325H70.4646L88.9883 71.4375L95.9604 67.595C96.5043 67.2686 96.8667 66.6525 96.8667 66C96.8667 65.3475 96.5043 64.7311 95.9604 64.405ZM65.9333 69.3712L56.7579 64.1875H75.1087L65.9333 69.3712Z" fill="url(#paint0_linear_701_3)"/>
</g>
</g>
<g id="Group_4">
<g id="Group_5">
<path id="Vector_2" d="M95.9604 75.28L88.9883 71.4375L66.8396 83.9075C66.5496 84.0524 66.2233 84.125 65.9333 84.125C65.6433 84.125 65.3171 84.0524 65.0271 83.9075L42.8783 71.4375L35.9062 75.28C35.3624 75.6061 35 76.2225 35 76.875C35 77.5275 35.3624 78.1436 35.9062 78.47L65.0271 94.7825C65.3171 94.9274 65.6433 95 65.9333 95C66.2233 95 66.5496 94.9274 66.8396 94.7825L95.9604 78.47C96.5043 78.1436 96.8667 77.5275 96.8667 76.875C96.8667 76.2225 96.5043 75.6061 95.9604 75.28ZM35.9062 56.72L65.0271 73.0325C65.3171 73.1774 65.6433 73.25 65.9333 73.25C66.2233 73.25 66.5496 73.1774 66.8396 73.0325L95.9604 56.72C96.5043 56.3936 96.8667 55.7775 96.8667 55.125C96.8667 54.4725 96.5043 53.8561 95.9604 53.53L66.8396 37.2175C66.2597 36.9275 65.607 36.9275 65.0271 37.2175L35.9062 53.53C35.3624 53.8561 35 54.4725 35 55.125C35 55.7775 35.3624 56.3936 35.9062 56.72ZM71.9147 52.7686C71.1897 52.0799 71.1897 50.9199 71.9147 50.2311C72.6035 49.5062 73.7633 49.5062 74.4521 50.2311L78.0771 53.8561C78.8021 54.5449 78.8021 55.7049 78.0771 56.3936L74.4521 60.0186C73.8001 60.7436 72.5671 60.7439 71.9147 60.0186C71.1897 59.3299 71.1897 58.1699 71.9147 57.4811L74.2345 55.125L71.9147 52.7686ZM63.2508 58.315L65.0633 51.065C65.3171 50.0861 66.2957 49.5062 67.2746 49.7598C68.2535 49.9773 68.8333 50.9561 68.6158 51.9349L66.8033 59.1849C66.4945 60.3689 65.1569 60.7726 64.5921 60.4899C63.6133 60.2725 63.0333 59.2936 63.2508 58.315ZM53.7897 53.8561L57.4147 50.2311C58.1035 49.5062 59.2633 49.5062 59.9521 50.2311C60.6771 50.9199 60.6771 52.0799 59.9521 52.7686L57.6322 55.125L59.952 57.4811C60.677 58.1699 60.677 59.3299 59.952 60.0186C59.2999 60.7436 58.067 60.7439 57.4146 60.0186L53.7896 56.3936C53.0646 55.7049 53.0646 54.5449 53.7897 53.8561Z" fill="url(#paint1_linear_701_3)"/>
</g>
</g>
</g>
</g>
</g>
<defs>
<linearGradient id="paint0_linear_701_3" x1="65.9333" y1="87.5325" x2="65.9333" y2="46.0625" gradientUnits="userSpaceOnUse">
<stop stop-color="#ADDCFF"/>
<stop offset="0.5028" stop-color="#EAF6FF"/>
<stop offset="1" stop-color="#EAF6FF"/>
</linearGradient>
<linearGradient id="paint1_linear_701_3" x1="65.9333" y1="95" x2="65.9333" y2="37" gradientUnits="userSpaceOnUse">
<stop stop-color="#5558FF"/>
<stop offset="1" stop-color="#00C0FF"/>
</linearGradient>
</defs>
</svg>
