<svg width="51" height="65" viewBox="0 0 51 65" fill="none" xmlns="http://www.w3.org/2000/svg">
<path d="M12.0005 42.0544L12.0403 42.0376M12.457 41.8381L49.2474 5V41.8381H12.457Z" stroke="#00B7AF" stroke-width="3.42857"/>
<path d="M20.4713 36.962C19.0274 36.962 17.675 37.5334 16.6512 38.5776C15.6323 39.622 15.0672 41.0013 15.0672 42.4742C15.0672 43.9471 15.6323 45.3263 16.6512 46.3707C17.675 47.4101 19.0274 47.9864 20.4713 47.9864C21.9152 47.9864 23.2675 47.4101 24.2913 46.3707C25.3103 45.3263 25.8754 43.9471 25.8754 42.4742C25.8754 41.0013 25.3103 39.622 24.2913 38.5776C23.7912 38.0637 23.1961 37.6561 22.5403 37.3788C21.8845 37.1014 21.1812 36.9598 20.4713 36.962ZM40.3828 48.5627L37.2244 45.8091C37.3741 44.8731 37.4514 43.9175 37.4514 42.9667C37.4514 42.0161 37.3741 41.0554 37.2244 40.1245L40.3828 37.3708C40.6213 37.1625 40.7921 36.885 40.8724 36.5752C40.9527 36.2656 40.9385 35.9382 40.8319 35.6369L40.7885 35.5087C39.9193 33.0295 38.6168 30.7313 36.9442 28.7256L36.8573 28.6222C36.6542 28.3787 36.3835 28.2035 36.0809 28.1199C35.7784 28.0364 35.4581 28.0484 35.1623 28.1542L31.2407 29.5778C29.7919 28.3661 28.1789 27.4104 26.4307 26.7454L25.6725 22.5631C25.6153 22.2481 25.4655 21.9582 25.2429 21.7321C25.0203 21.5059 24.7356 21.3544 24.4266 21.2972L24.2961 21.2725C21.7849 20.8096 19.1383 20.8096 16.6272 21.2725L16.4967 21.2972C16.1877 21.3544 15.9029 21.5059 15.6803 21.7321C15.4578 21.9582 15.3079 22.2481 15.2508 22.5631L14.4876 26.765C12.756 27.4355 11.1428 28.3887 9.71147 29.5877L5.76109 28.1542C5.46531 28.0475 5.14467 28.0352 4.84197 28.1188C4.53911 28.2024 4.26852 28.3779 4.06593 28.6222L3.97904 28.7256C2.30938 30.7334 1.00728 33.0309 0.13475 35.5087L0.0913037 35.6369C-0.125986 36.2527 0.0527384 36.9423 0.540397 37.3708L3.73757 40.1539C3.58787 41.0801 3.51531 42.0259 3.51531 42.9618C3.51531 43.9077 3.58787 44.8534 3.73757 45.7697L0.550157 48.5529C0.311522 48.7612 0.140731 49.0387 0.0606089 49.3485C-0.0196864 49.6583 -0.0055815 49.9855 0.101064 50.2868L0.144509 50.4149C1.01861 52.8927 2.30796 55.1834 3.98864 57.1981L4.07553 57.3015C4.27859 57.5452 4.54934 57.7202 4.85188 57.8038C5.15458 57.8872 5.47491 57.8753 5.77069 57.7695L9.72107 56.3361C11.1603 57.543 12.7637 58.4986 14.4974 59.1586L15.2604 63.3606C15.3177 63.6755 15.4674 63.9655 15.6899 64.1915C15.9125 64.4177 16.1973 64.5695 16.5064 64.6265L16.6368 64.6512C19.1728 65.1166 21.7698 65.1166 24.3058 64.6512L24.4362 64.6265C24.7453 64.5695 25.0301 64.4177 25.2526 64.1915C25.4751 63.9655 25.6249 63.6755 25.6822 63.3606L26.4403 59.1783C28.1887 58.5084 29.8017 57.5576 31.2505 56.3459L35.1719 57.7695C35.4677 57.8762 35.7882 57.8885 36.0909 57.8049C36.3937 57.7213 36.6645 57.5458 36.8671 57.3015L36.9539 57.1981C38.6345 55.1735 39.924 52.8927 40.7981 50.4149L40.8415 50.2868C41.0491 49.676 40.8705 48.9913 40.3828 48.5627ZM20.4713 51.1341C15.782 51.1341 11.9812 47.2574 11.9812 42.4742C11.9812 37.6909 15.782 33.8142 20.4713 33.8142C25.1606 33.8142 28.9613 37.6909 28.9613 42.4742C28.9613 47.2574 25.1606 51.1341 20.4713 51.1341Z" fill="#1D1068"/>
</svg>
