<svg viewBox="0 0 64 64" xmlns="http://www.w3.org/2000/svg"><g id="Asset_Management" data-name="Asset Management"><path d="m36 8a.99943.99943 0 0 0 -1 1v7a.99943.99943 0 0 0 1 1 19 19 0 1 1 -19 19 .99943.99943 0 0 0 -1-1h-7a.99943.99943 0 0 0 -1 1 28 28 0 1 0 28-28z" fill="#ff884d"/><path d="m36 55v9a28.03075 28.03075 0 0 1 -28-28 1.003 1.003 0 0 1 1-1h7a1.003 1.003 0 0 1 1 1 19.01722 19.01722 0 0 0 19 19z" fill="#7188ea"/><path d="m64 36h-9a19.01718 19.01718 0 0 0 -19-19 1.003 1.003 0 0 1 -1-1v-7a1.003 1.003 0 0 1 1-1 28.03075 28.03075 0 0 1 28 28z" fill="#f95858"/><path d="m46.60156 38.208a12.2672 12.2672 0 0 0 -5.14447-8.60059c1.21381-1.94812 3.48249-6.23285 1.98627-9.07324a1.001 1.001 0 0 0 -1.31348-.4375c-4.01465 1.90527-5.42968.9502-5.43945.95117a1.00027 1.00027 0 0 0 -1.63477.39356l-.18164.51953-.6582-.92578a1.00054 1.00054 0 0 0 -1.19043-.34668 2.82387 2.82387 0 0 1 -2.89551-.41309.978.978 0 0 0 -.85058-.26172.99763.99763 0 0 0 -.72266.52051c-1.49622 2.84039.77246 7.12518 1.98627 9.07324a12.2675 12.2675 0 0 0 -5.14447 8.60059c-.54785 3.331-.834 7.05273 1.19629 9.40527 1.38476 1.6045 3.65627 2.38673 6.92285 2.38673q.16992 0 .34277-.00293h4.2627c3.48047.05273 5.84961-.72363 7.28222-2.38379 2.03028-2.35254 1.74414-6.07422 1.19629-9.40528z" fill="#fcd163"/><g fill="#efb745"><path d="m37 39.07007v-2.00165c.74683.1297.98138.41058 1 .5351a.97824.97824 0 0 0 1.01758.96875 1.00019 1.00019 0 0 0 .98242-1.01758c-.00439-.24127-.13959-2.18238-3-2.50556v-.04913a1 1 0 0 0 -2 0v.0722c-1.97113.30677-3.00085 1.62848-3 2.92878a3.16444 3.16444 0 0 0 3 2.929v2.004c-.75677-.12976-.98633-.41461-1-.5238a1.0187 1.0187 0 0 0 -1.01758-.98243 1.00019 1.00019 0 0 0 -.98242 1.01756c.00446.24121.13916 2.16 3 2.49854v.05615a1 1 0 0 0 2 0v-.0722c1.97113-.30677 3.00085-1.62848 3-2.92878a3.16444 3.16444 0 0 0 -3-2.92895zm-3-1.07007c0-.357.34247-.719 1-.89233v1.7854c-.657-.17347-1-.53577-1-.89307zm3 4.89233v-1.7854c.6571.17353 1 .53577 1 .89307 0 .357-.34247.719-1 .89233z"/><path d="m43.44336 20.53418a1.001 1.001 0 0 0 -1.31348-.4375c-4.01465 1.90527-5.42968.9502-5.43945.95117a1.00027 1.00027 0 0 0 -1.63477.39356l-.18164.51953-.6582-.92578a1.00054 1.00054 0 0 0 -1.19043-.34668 2.82387 2.82387 0 0 1 -2.89551-.41309.978.978 0 0 0 -.85058-.26172.99763.99763 0 0 0 -.72266.52051c-1.49622 2.84039.77246 7.12518 1.98627 9.07324h10.91418c1.21381-1.94812 3.48249-6.23285 1.98627-9.07324z"/><path d="m39.48 32.88a1.0347 1.0347 0 0 1 -.48.12 1.009 1.009 0 0 1 -.88-.52l-1.57-2.87h2.28l1.05 1.91a1.01509 1.01509 0 0 1 -.4 1.36z"/><path d="m35.45 29.61-1.57 2.87a1.009 1.009 0 0 1 -.88.52 1.0347 1.0347 0 0 1 -.48-.12 1.01509 1.01509 0 0 1 -.4-1.36l1.05-1.91z"/></g><path d="m39.44727 26.10547a1.00053 1.00053 0 0 0 -1.3418.44726l-1.527 3.05469h2.23623l1.07983-2.16015a1 1 0 0 0 -.44726-1.3418z" fill="#e29e30"/><path d="m33.89453 26.55273a1.00012 1.00012 0 0 0 -1.78906.89454l1.08008 2.16015h2.23633z" fill="#e29e30"/><path d="m32 4a28.03146 28.03146 0 0 0 -28 28 .99943.99943 0 0 0 1 1h11a.99943.99943 0 0 0 1-1 15.01641 15.01641 0 0 1 15-15 .99943.99943 0 0 0 1-1v-11a.99943.99943 0 0 0 -1-1z" fill="#5fddb9"/><g fill="#42c1a0"><path d="m16 18a.99676.99676 0 0 1 -.707-.293l-7.70706-7.707h-6.58594a1 1 0 0 1 0-2h7a.99927.99927 0 0 1 .707.293l8 8a1 1 0 0 1 -.707 1.707z"/><path d="m7.78418 6h-6.78418a1 1 0 0 1 0-2h6.78418a1 1 0 0 1 0 2z"/><path d="m7.78418 2h-6.78418a1 1 0 0 1 0-2h6.78418a1 1 0 0 1 0 2z"/></g></g></svg>