<svg width="131" height="131" viewBox="0 0 131 131" fill="none" xmlns="http://www.w3.org/2000/svg">
<g id="front-end-development">
<circle id="Ellipse 12" cx="65.5" cy="65.5" r="65.5" fill="#FFD3BD"/>
<g id="Settings">
<g id="Group">
<g id="Group_2">
<g id="Group_3">
<path id="Vector" d="M92.6062 58.992C92.5133 59.0849 92.3896 59.1361 92.2581 59.1361C92.1265 59.1361 92.003 59.0849 91.91 58.992L90.3935 57.4756C90.255 57.337 90.0702 57.2606 89.8731 57.2606C89.7543 57.2606 89.6353 57.2895 89.5289 57.3442C89.1425 57.5426 88.7386 57.7105 88.3283 57.843C88.019 57.9429 87.8112 58.2257 87.8112 58.5467V60.6898C87.8112 60.9613 87.5904 61.182 87.319 61.182H84.3763C84.1049 61.182 83.8841 60.9613 83.8841 60.6898V58.5467C83.8841 58.2257 83.6763 57.9428 83.367 57.843C82.9567 57.7106 82.5528 57.5428 82.1663 57.3442C82.0598 57.2895 81.9408 57.2606 81.8221 57.2606C81.625 57.2606 81.4402 57.3369 81.3016 57.4756L79.7852 58.992C79.6923 59.0849 79.5686 59.1361 79.4371 59.1361C79.3055 59.1361 79.182 59.0849 79.089 58.992L77.0083 56.9112C76.8163 56.7192 76.8163 56.4069 77.0083 56.2151L77.5011 55.7224H50.1619L50.0352 55.8042V91.3639L50.1619 92.0495H91.0995C92.1495 92.0495 93.0009 91.1982 93.0009 90.1481V58.5972L92.6062 58.992Z" fill="#E8EDF2"/>
</g>
<path id="Vector_2" d="M55.8714 90.148V55.8455H50.1611V92.0494H57.7728C56.7226 92.0494 55.8714 91.1981 55.8714 90.148Z" fill="#D9E7EC"/>
<path id="Vector_3" d="M50.162 79.4331V55.7222H35.0541L34 55.8453V79.31L34.5221 79.4331H50.162Z" fill="#B6C4CF"/>
<g id="Group_4">
<path id="Vector_4" d="M34 55.8455H39.8943V79.3101H34V55.8455Z" fill="#9FACBA"/>
</g>
<g id="Group_5">
<path id="Vector_5" d="M50.162 92.0491H35.9014C34.8512 92.0491 34 91.1977 34 90.1477V79.3098H50.162V92.0491Z" fill="#596C76"/>
</g>
<g id="Group_6">
<path id="Vector_6" d="M39.8943 90.1477V79.3098H34V90.1477C34 91.1977 34.8512 92.0491 35.9014 92.0491H41.7958C40.7457 92.0491 39.8943 91.1977 39.8943 90.1477Z" fill="#465A61"/>
</g>
<g id="Group_7">
<path id="Vector_7" d="M46.1059 60.585H38.0566C37.547 60.585 37.1338 60.1718 37.1338 59.6621C37.1338 59.1524 37.547 58.7393 38.0566 58.7393H46.106C46.6157 58.7393 47.0289 59.1524 47.0289 59.6621C47.0289 60.1718 46.6155 60.585 46.1059 60.585Z" fill="#596C76"/>
</g>
<g id="Group_8">
<path id="Vector_8" d="M46.1059 64.0076H38.0566C37.547 64.0076 37.1338 63.5944 37.1338 63.0847C37.1338 62.5751 37.547 62.1619 38.0566 62.1619H46.106C46.6157 62.1619 47.0289 62.5751 47.0289 63.0847C47.0289 63.5944 46.6155 64.0076 46.1059 64.0076Z" fill="#596C76"/>
</g>
<g id="Group_9">
<path id="Vector_9" d="M46.1059 67.4302H38.0566C37.547 67.4302 37.1338 67.017 37.1338 66.5073C37.1338 65.9977 37.547 65.5845 38.0566 65.5845H46.106C46.6157 65.5845 47.0289 65.9977 47.0289 66.5073C47.0289 67.017 46.6155 67.4302 46.1059 67.4302Z" fill="#596C76"/>
</g>
<g id="Group_10">
<g id="Group_11">
<path id="Vector_10" d="M46.1059 73.1343H38.0566C37.547 73.1343 37.1338 72.7211 37.1338 72.2114C37.1338 71.7018 37.547 71.2886 38.0566 71.2886H46.106C46.6157 71.2886 47.0289 71.7018 47.0289 72.2114C47.0289 72.7211 46.6155 73.1343 46.1059 73.1343Z" fill="#596C76"/>
</g>
<g id="Group_12">
<path id="Vector_11" d="M46.1059 76.5569H38.0566C37.547 76.5569 37.1338 76.1437 37.1338 75.634C37.1338 75.1244 37.547 74.7112 38.0566 74.7112H46.106C46.6157 74.7112 47.0289 75.1244 47.0289 75.634C47.0289 76.1437 46.6155 76.5569 46.1059 76.5569Z" fill="#596C76"/>
</g>
</g>
<g id="Group_13">
<g id="Group_14">
<path id="Vector_12" d="M87.2398 85.8381H55.2856C54.4105 85.8381 53.7012 85.1288 53.7012 84.2537C53.7012 83.3786 54.4105 82.6692 55.2856 82.6692H87.2398C88.1149 82.6692 88.8243 83.3786 88.8243 84.2537C88.8243 85.1288 88.1149 85.8381 87.2398 85.8381Z" fill="#00C27A"/>
</g>
</g>
<g id="Group_15">
<path id="Vector_13" d="M57.6308 84.2537C57.6308 83.3786 58.3402 82.6692 59.2153 82.6692H55.2856C54.4105 82.6692 53.7012 83.3786 53.7012 84.2537C53.7012 85.1288 54.4105 85.8381 55.2856 85.8381H59.2153C58.3402 85.8381 57.6308 85.1288 57.6308 84.2537Z" fill="#08B865"/>
</g>
<g id="Group_16">
<g id="Group_17">
<path id="Vector_14" d="M74.7546 76.937H53.9658C53.4562 76.937 53.043 76.5238 53.043 76.0142C53.043 75.5045 53.4562 75.0913 53.9658 75.0913H74.7546C75.2642 75.0913 75.6774 75.5045 75.6774 76.0142C75.6774 76.5238 75.2642 76.937 74.7546 76.937Z" fill="#7A8C98"/>
</g>
</g>
<g id="Group_18">
<g id="Group_19">
<path id="Vector_15" d="M38.1738 84.606C38.6835 84.606 39.0967 84.1928 39.0967 83.6831C39.0967 83.1734 38.6835 82.7603 38.1738 82.7603C37.6642 82.7603 37.251 83.1734 37.251 83.6831C37.251 84.1928 37.6642 84.606 38.1738 84.606Z" fill="#7A8C98"/>
</g>
<g id="Group_20">
<path id="Vector_16" d="M45.9873 84.606C46.497 84.606 46.9102 84.1928 46.9102 83.6831C46.9102 83.1734 46.497 82.7603 45.9873 82.7603C45.4776 82.7603 45.0645 83.1734 45.0645 83.6831C45.0645 84.1928 45.4776 84.606 45.9873 84.606Z" fill="#7A8C98"/>
</g>
</g>
<g id="Group_21">
<g id="Group_22">
<path id="Vector_17" d="M38.1738 88.4089C38.6835 88.4089 39.0967 87.9958 39.0967 87.4861C39.0967 86.9764 38.6835 86.5632 38.1738 86.5632C37.6642 86.5632 37.251 86.9764 37.251 87.4861C37.251 87.9958 37.6642 88.4089 38.1738 88.4089Z" fill="#7A8C98"/>
</g>
<g id="Group_23">
<path id="Vector_18" d="M45.9873 88.4089C46.497 88.4089 46.9102 87.9958 46.9102 87.4861C46.9102 86.9764 46.497 86.5632 45.9873 86.5632C45.4776 86.5632 45.0645 86.9764 45.0645 87.4861C45.0645 87.9958 45.4776 88.4089 45.9873 88.4089Z" fill="#7A8C98"/>
</g>
</g>
<g id="Group_24">
<g id="Group_25">
<path id="Vector_19" d="M74.7546 69.585H53.9658C53.4562 69.585 53.043 69.1718 53.043 68.6621C53.043 68.1524 53.4562 67.7393 53.9658 67.7393H74.7546C75.2642 67.7393 75.6774 68.1524 75.6774 68.6621C75.6774 69.1718 75.2642 69.585 74.7546 69.585Z" fill="#7A8C98"/>
</g>
</g>
<g id="Group_26">
<g id="Group_27">
<path id="Vector_20" d="M85.1436 75.6341C85.1436 74.6535 85.9413 73.8557 86.922 73.8557V73.7327H81.8516C80.8016 73.7327 79.9502 74.5839 79.9502 75.6341C79.9502 76.6843 80.8014 77.5356 81.8516 77.5356H86.922V77.4125C85.9413 77.4124 85.1436 76.6147 85.1436 75.6341Z" fill="#00C27A"/>
<g id="Group_28">
<path id="Vector_21" d="M82.6122 75.6341C82.6122 74.584 83.4634 73.7327 84.5136 73.7327H81.8516C80.8016 73.7327 79.9502 74.584 79.9502 75.6341C79.9502 76.6842 80.8014 77.5356 81.8516 77.5356H84.5136C83.4636 77.5354 82.6122 76.6842 82.6122 75.6341Z" fill="#08B865"/>
</g>
<g id="Group_29">
<path id="Vector_22" d="M86.921 77.5358C87.9711 77.5358 88.8224 76.6845 88.8224 75.6344C88.8224 74.5842 87.9711 73.7329 86.921 73.7329C85.8708 73.7329 85.0195 74.5842 85.0195 75.6344C85.0195 76.6845 85.8708 77.5358 86.921 77.5358Z" fill="#7A8C98"/>
</g>
<path id="Vector_23" d="M86.3954 75.6341C86.3954 74.8269 86.8992 74.139 87.6088 73.863C87.3957 73.7797 87.1646 73.7327 86.922 73.7327C85.8719 73.7327 85.0205 74.584 85.0205 75.6341C85.0205 76.6842 85.8717 77.5356 86.922 77.5356C87.1646 77.5356 87.3957 77.4886 87.6088 77.4052C86.8992 77.1293 86.3954 76.4413 86.3954 75.6341Z" fill="#596C76"/>
</g>
<g id="Group_30">
<path id="Vector_24" d="M88.8234 68.2818C88.8234 67.2317 87.9722 66.3804 86.922 66.3804H81.8516V66.5034C82.8321 66.5034 83.63 67.3011 83.63 68.2818C83.63 69.2625 82.8322 70.0602 81.8516 70.0602V70.1833H86.922C87.9722 70.1833 88.8234 69.332 88.8234 68.2818Z" fill="#00C27A"/>
<g id="Group_31">
<path id="Vector_25" d="M81.8516 70.1833C82.9018 70.1833 83.7531 69.332 83.7531 68.2818C83.7531 67.2317 82.9018 66.3804 81.8516 66.3804C80.8015 66.3804 79.9502 67.2317 79.9502 68.2818C79.9502 69.332 80.8015 70.1833 81.8516 70.1833Z" fill="#7A8C98"/>
</g>
<path id="Vector_26" d="M81.3251 68.2818C81.3251 67.4746 81.8289 66.7867 82.5385 66.5107C82.3254 66.4274 82.0943 66.3804 81.8516 66.3804C80.8016 66.3804 79.9502 67.2317 79.9502 68.2818C79.9502 69.3319 80.8014 70.1833 81.8516 70.1833C82.0943 70.1833 82.3254 70.1363 82.5385 70.0529C81.8289 69.777 81.3251 69.089 81.3251 68.2818Z" fill="#596C76"/>
</g>
</g>
<g id="Group_32">
<g id="Group_33">
<path id="Vector_27" d="M65.2475 62.2329H53.9658C53.4562 62.2329 53.043 61.8197 53.043 61.3101C53.043 60.8004 53.4562 60.3872 53.9658 60.3872H65.2475C65.7572 60.3872 66.1703 60.8004 66.1703 61.3101C66.1703 61.8197 65.7573 62.2329 65.2475 62.2329Z" fill="#7A8C98"/>
</g>
</g>
<g id="Group_34">
<path id="Vector_28" d="M63.3442 86.2817H60.4287C60.0787 86.2817 59.7949 85.998 59.7949 85.6479V82.7324C59.7949 82.3824 60.0787 82.0986 60.4287 82.0986H63.3442C63.6943 82.0986 63.978 82.3824 63.978 82.7324V85.6479C63.978 85.998 63.6943 86.2817 63.3442 86.2817Z" fill="#7A8C98"/>
</g>
<g id="Group_35">
<path id="Vector_29" d="M61.6964 85.6479V82.7324C61.6964 82.3824 61.9801 82.0986 62.3302 82.0986H60.4287C60.0787 82.0986 59.7949 82.3824 59.7949 82.7324V85.6479C59.7949 85.998 60.0787 86.2817 60.4287 86.2817H62.3302C61.9801 86.2817 61.6964 85.998 61.6964 85.6479Z" fill="#596C76"/>
</g>
<g id="Group_36">
<g id="Group_37">
<path id="Vector_30" d="M42.0801 84.6062C42.5898 84.6062 43.0029 84.193 43.0029 83.6833C43.0029 83.1737 42.5898 82.7605 42.0801 82.7605C41.5704 82.7605 41.1572 83.1737 41.1572 83.6833C41.1572 84.193 41.5704 84.6062 42.0801 84.6062Z" fill="#7A8C98"/>
</g>
<g id="Group_38">
<path id="Vector_31" d="M42.0801 88.4092C42.5898 88.4092 43.0029 87.996 43.0029 87.4863C43.0029 86.9767 42.5898 86.5635 42.0801 86.5635C41.5704 86.5635 41.1572 86.9767 41.1572 87.4863C41.1572 87.996 41.5704 88.4092 42.0801 88.4092Z" fill="#7A8C98"/>
</g>
</g>
</g>
<g id="Group_39">
<path id="Vector_32" d="M78.5248 54.6986C78.7523 54.4712 78.8049 54.1237 78.656 53.8338C78.4577 53.4476 78.2897 53.0436 78.1572 52.6332C78.0573 52.3239 77.7745 52.1161 77.4535 52.1161H75.3104C75.039 52.1161 74.8182 51.8953 74.8182 51.6239V48.6812C74.8182 48.6575 74.8219 48.6347 74.8252 48.6118H35.9014C34.8512 48.6118 34 49.4631 34 50.5131V55.8451H77.378L78.5248 54.6986Z" fill="#FD4755"/>
<g id="Group_40">
<path id="Vector_33" d="M41.7958 48.6118H35.9014C34.8512 48.6118 34 49.4631 34 50.5131V55.8452H39.8943V50.5131C39.8943 49.4631 40.7457 48.6118 41.7958 48.6118Z" fill="#FB2B3A"/>
</g>
<g id="Group_41">
<g id="Group_42">
<path id="Vector_34" d="M37.8984 53.1514C38.4081 53.1514 38.8213 52.7382 38.8213 52.2285C38.8213 51.7188 38.4081 51.3057 37.8984 51.3057C37.3888 51.3057 36.9756 51.7188 36.9756 52.2285C36.9756 52.7382 37.3888 53.1514 37.8984 53.1514Z" fill="#FE646F"/>
</g>
<g id="Group_43">
<path id="Vector_35" d="M41.0977 53.1514C41.6073 53.1514 42.0205 52.7382 42.0205 52.2285C42.0205 51.7188 41.6073 51.3057 41.0977 51.3057C40.588 51.3057 40.1748 51.7188 40.1748 52.2285C40.1748 52.7382 40.588 53.1514 41.0977 53.1514Z" fill="#FED402"/>
</g>
<g id="Group_44">
<path id="Vector_36" d="M44.2969 53.1514C44.8066 53.1514 45.2197 52.7382 45.2197 52.2285C45.2197 51.7188 44.8066 51.3057 44.2969 51.3057C43.7872 51.3057 43.374 51.7188 43.374 52.2285C43.374 52.7382 43.7872 53.1514 44.2969 53.1514Z" fill="#00C27A"/>
</g>
</g>
</g>
<g id="Group_45">
<g id="Group_46">
<path id="Vector_37" d="M97 51.6237V48.6811C97 48.3413 96.7245 48.0658 96.3848 48.0658H94.2418C93.9727 48.0658 93.7378 47.89 93.6551 47.634C93.5187 47.2115 93.3487 46.8042 93.1487 46.4148C93.0255 46.175 93.0669 45.884 93.2575 45.6934L94.774 44.177C95.0143 43.9366 95.0143 43.5472 94.774 43.3069L92.6933 41.226C92.4529 40.9857 92.0635 40.9857 91.8232 41.226L90.3066 42.7425C90.116 42.9331 89.825 42.9745 89.5852 42.8514C89.1959 42.6513 88.7886 42.4814 88.3661 42.3449C88.11 42.2622 87.9342 42.0273 87.9342 41.7582V39.6152C87.9342 39.2755 87.6587 39 87.3189 39H84.3763C84.0365 39 83.761 39.2755 83.761 39.6152V41.7582C83.761 42.0273 83.5852 42.2622 83.3291 42.3449C82.9067 42.4814 82.4994 42.6513 82.11 42.8514C81.8702 42.9745 81.5792 42.9331 81.3886 42.7425L79.8721 41.226C79.6318 40.9857 79.2424 40.9857 79.0021 41.226L76.9214 43.3069C76.681 43.5472 76.681 43.9366 76.9214 44.177L78.4378 45.6934C78.6284 45.884 78.6698 46.175 78.5467 46.4148C78.3466 46.8042 78.1767 47.2115 78.0402 47.634C77.9575 47.89 77.7226 48.0658 77.4535 48.0658H75.3105C74.9708 48.0658 74.6953 48.3413 74.6953 48.6811V51.6237C74.6953 51.9635 74.9708 52.239 75.3105 52.239H77.4537C77.7228 52.239 77.9577 52.4148 78.0403 52.6709C78.1768 53.0933 78.3467 53.5006 78.5468 53.89C78.67 54.1298 78.6285 54.4208 78.4379 54.6114L76.9215 56.1278C76.6812 56.3681 76.6812 56.7575 76.9215 56.9978L79.0022 59.0787C79.2425 59.319 79.632 59.319 79.8723 59.0787L81.3887 57.5622C81.5793 57.3716 81.8703 57.3302 82.1101 57.4533C82.4994 57.6534 82.9067 57.8233 83.3293 57.9598C83.5853 58.0425 83.7612 58.2774 83.7612 58.5465V60.6896C83.7612 61.0293 84.0367 61.3048 84.3764 61.3048H87.3191C87.6588 61.3048 87.9343 61.0293 87.9343 60.6896V58.5465C87.9343 58.2774 88.1101 58.0425 88.3662 57.9598C88.7886 57.8233 89.1959 57.6534 89.5853 57.4533C89.8252 57.3302 90.1162 57.3716 90.3068 57.5622L91.8232 59.0787C92.0635 59.319 92.4529 59.319 92.6933 59.0787L94.774 56.9978C95.0143 56.7575 95.0143 56.3681 94.774 56.1278L93.2575 54.6114C93.0669 54.4208 93.0255 54.1297 93.1487 53.89C93.3487 53.5007 93.5187 53.0934 93.6551 52.6709C93.7378 52.4148 93.9727 52.239 94.2418 52.239H96.3848C96.7245 52.239 97 51.9636 97 51.6237Z" fill="#B6C4CF"/>
</g>
<path id="Vector_38" d="M81.7443 52.7158C81.2789 51.9723 81.009 51.0942 81.009 50.1524C81.009 49.2106 81.2789 48.3324 81.7443 47.5889C82.6513 44.7567 85.0203 42.5791 87.9636 41.9432C87.9449 41.8845 87.9342 41.8223 87.9342 41.7581V39.6152C87.9342 39.2755 87.6587 39 87.3189 39H84.3763C84.0365 39 83.761 39.2755 83.761 39.6152V41.7582C83.761 42.0273 83.5852 42.2622 83.3291 42.3449C82.9067 42.4814 82.4994 42.6513 82.11 42.8514C81.8702 42.9745 81.5792 42.9331 81.3886 42.7425L79.8721 41.226C79.6318 40.9857 79.2423 40.9857 79.0021 41.226L76.9214 43.3069C76.681 43.5472 76.681 43.9366 76.9214 44.177L78.4378 45.6934C78.6284 45.884 78.6698 46.175 78.5467 46.4148C78.3466 46.8042 78.1767 47.2115 78.0402 47.634C77.9575 47.89 77.7226 48.0658 77.4535 48.0658H75.3105C74.9708 48.0658 74.6953 48.3413 74.6953 48.6811V51.6237C74.6953 51.9635 74.9708 52.239 75.3105 52.239H77.4537C77.7228 52.239 77.9577 52.4148 78.0403 52.6709C78.1768 53.0933 78.3467 53.5006 78.5468 53.8899C78.67 54.1297 78.6285 54.4207 78.4379 54.6113L76.9215 56.1276C76.6812 56.3679 76.6812 56.7574 76.9215 56.9977L79.0022 59.0785C79.2425 59.3189 79.632 59.3189 79.8723 59.0785L81.3887 57.5621C81.5793 57.3715 81.8703 57.33 82.1101 57.4532C82.4994 57.6533 82.9067 57.8232 83.3293 57.9597C83.5853 58.0424 83.7612 58.2773 83.7612 58.5464V60.6895C83.7612 61.0292 84.0367 61.3047 84.3764 61.3047H87.3191C87.6588 61.3047 87.9343 61.0292 87.9343 60.6895V58.5464C87.9343 58.4821 87.9449 58.4201 87.9636 58.3614C85.0202 57.7256 82.6513 55.548 81.7443 52.7158Z" fill="#9FACBA"/>
<g id="Group_47">
<path id="Vector_39" d="M85.8485 54.9914C88.5208 54.9914 90.6872 52.825 90.6872 50.1527C90.6872 47.4803 88.5208 45.314 85.8485 45.314C83.1761 45.314 81.0098 47.4803 81.0098 50.1527C81.0098 52.825 83.1761 54.9914 85.8485 54.9914Z" fill="#8D9CA8"/>
</g>
<g id="Group_48">
<path id="Vector_40" d="M83.584 50.1527C83.584 47.9262 85.0883 46.0522 87.1357 45.4884C86.7257 45.3755 86.2944 45.314 85.8485 45.314C83.1761 45.314 81.0098 47.4803 81.0098 50.1527C81.0098 52.825 83.1761 54.9914 85.8485 54.9914C86.2944 54.9914 86.7257 54.9298 87.1357 54.8169C85.0883 54.2531 83.584 52.3791 83.584 50.1527Z" fill="#7A8C98"/>
</g>
<g id="Group_49">
<path id="Vector_41" d="M85.8489 51.7864C86.7514 51.7864 87.483 51.0548 87.483 50.1524C87.483 49.2499 86.7514 48.5183 85.8489 48.5183C84.9464 48.5183 84.2148 49.2499 84.2148 50.1524C84.2148 51.0548 84.9464 51.7864 85.8489 51.7864Z" fill="#465A61"/>
</g>
</g>
</g>
</g>
</g>
</svg>
