<svg id="Layer_1" enable-background="new 0 0 68 68" height="512" viewBox="0 0 68 68" width="512" xmlns="http://www.w3.org/2000/svg"><g><g><circle cx="34" cy="34" fill="#8fc8f5" r="32"/></g><g><path d="m61.2843971 17.039978c-5.6901436 9.0300293-15.783535 15.0300293-27.2843971 15.0300293s-21.5942535-6-27.2843971-15.0300293c5.6800813-9.0299682 15.783535-15.039978 27.2843971-15.039978s21.6043167 6.0100098 27.2843971 15.039978z" fill="#d0f6ff"/></g><g><g><g><g><path d="m52.0463943 49.2681046c-2.571701.505352-4.7281494-.6586761-6.6140785-2.8875999-3.1219902-4.3490257-6.7222404-7.2908173-11.4323235-7.0017929-4.7100868-.2890244-8.3103352 2.6527672-11.4323273 7.0017929-1.8859291 2.2289238-4.0423775 3.392952-6.6140785 2.8875999-4.9356651-1.2182198-2.8602839-9.9435883-.1804199-19.4721413.8390961-2.9774799 3.555088-5.035017 6.6499863-5.035017h23.1536751c3.0948982 0 5.8108902 2.0575371 6.6502075 5.035017 2.6796417 9.528553 4.755024 18.2539215-.1806412 19.4721413z" fill="#313b5a"/></g><g><path d="m49.9139709 34.0347137c0 2.6114273-2.1067772 4.7182808-4.7055779 4.7182808s-4.7182045-2.1068535-4.7182045-4.7182808c0-2.5988026 2.1194038-4.7055798 4.7182045-4.7055798s4.7055779 2.1067773 4.7055779 4.7055798z" fill="#fff"/></g><g><path d="m27.5051155 34.0347137c0 2.6114273-2.1067753 4.7182808-4.7055779 4.7182808s-4.7182045-2.1068535-4.7182045-4.7182808c0-2.5988026 2.1194038-4.7055798 4.7182045-4.7055798s4.7055779 2.1067773 4.7055779 4.7055798z" fill="#fff"/></g><g><path d="m33.2681465 30.0211926v1.0375805c0 .1625748-.1262283.2890244-.2888031.2890244h-2.9415741c-.1533241 0-.2795506-.1264496-.2795506-.2890244v-1.0375805c0-.1625767.1262264-.2797718.2795506-.2797718h2.9415741c.1625748-.0000001.2888031.1171951.2888031.2797718z" fill="#20273a"/></g><g><path d="m35.3613701 30.0211926v1.0375805c0 .1625748.1262283.2890244.2888031.2890244h2.9415741c.1533241 0 .2795525-.1264496.2795525-.2890244v-1.0375805c0-.1625767-.1262283-.2797718-.2795525-.2797718h-2.9415741c-.1625748-.0000001-.2888031.1171951-.2888031.2797718z" fill="#20273a"/></g><g><g><path d="m25.9041615 33.4819374v1.1180725c0 .1264572-.107336.2337914-.2399616.2337914h-2.0782242v2.0782242c0 .1326256-.107336.2399635-.2336388.2399635h-1.1180706c-.1263046 0-.2337933-.107338-.2337933-.2399635v-2.0782242h-2.0780697c-.1327801 0-.2401161-.1073341-.2401161-.2337914v-1.1180725c0-.1261482.107336-.2334824.2401161-.2334824h2.0843925v-2.078226c0-.1326256.1011658-.2402687.2274704-.2402687h1.1180706c.1263027 0 .2336388.1076431.2336388.2402687v2.0843945h2.0782242c.1326256-.0000001.2399617.1011657.2399617.2273139z" fill="#ff3445"/></g></g><g><g><path d="m32.9533768 29.7064247v1.0375786c0 .1625767-.1262245.2890244-.2888031.2890244h-2.9415722c-.1533241 0-.2795525-.1264477-.2795525-.2890244v-1.0375786c0-.1625767.1262283-.2797737.2795525-.2797737h2.9415722c.1625786 0 .2888031.117197.2888031.2797737z" fill="#fff"/></g><g><path d="m35.0466042 29.7064247v1.0375786c0 .1625767.1262245.2890244.2888031.2890244h2.9415703c.1533241 0 .2795525-.1264477.2795525-.2890244v-1.0375786c0-.1625767-.1262283-.2797737-.2795525-.2797737h-2.9415703c-.1625786 0-.2888031.117197-.2888031.2797737z" fill="#fff"/></g></g><g><g><g><path d="m44.1289635 31.9611092c0-.6002636.4778786-1.0778942 1.0776443-1.0778942.5898399 0 1.0778961.4776306 1.0778961 1.0778942 0 .5898399-.4880562 1.0778961-1.0778961 1.0778961-.5997658 0-1.0776443-.4880562-1.0776443-1.0778961z" fill="#fed110"/></g><g><path d="m46.2845039 36.1247292c0 .5898399-.4880562 1.0778961-1.0778961 1.0778961-.5997658 0-1.0776443-.4880562-1.0776443-1.0778961 0-.5997658.4778786-1.0778923 1.0776443-1.0778923.58984 0 1.0778961.4781265 1.0778961 1.0778923z" fill="#ff3445"/></g></g><g><g><path d="m43.1250877 35.1205254c-.6002617 0-1.0779533-.477951-1.0780296-1.0778084-.0000763-.5899239.4774933-1.0780525 1.0777588-1.0780525.5898361-.0000038 1.0779533.4881287 1.0780296 1.0780525.0000763.5998573-.4879188 1.0778084-1.0777588 1.0778084z" fill="#65b2ff"/></g><g><path d="m47.2884369 32.9646606c.5898361 0 1.0779533.4881287 1.0780296 1.0780563.0000763.5998573-.4879189 1.0778046-1.0777588 1.0778046-.5997658.0000038-1.0779533-.4779472-1.0780296-1.0778046-.0000763-.5899276.4779892-1.0780563 1.0777588-1.0780563z" fill="#b5e237"/></g></g></g><g><g><g><path d="m30.7856503 33.5875854c0 .2018929-.1766357.3785286-.3911552.3785286-.2018166 0-.3784523-.1766357-.3784523-.3785286 0-.2144432.1766357-.3910789.3784523-.3910789.2145194 0 .3911552.1766357.3911552.3910789z" fill="#20273a"/></g><g><path d="m32.2253075 33.5875854c0 .2018929-.1766357.3785286-.3911552.3785286-.2018147 0-.3784523-.1766357-.3784523-.3785286 0-.2144432.1766376-.3910789.3784523-.3910789.2145194 0 .3911552.1766357.3911552.3910789z" fill="#20273a"/></g><g><path d="m33.6649666 33.5875854c0 .2018929-.1766357.3785286-.3911591.3785286-.2018127 0-.3784485-.1766357-.3784485-.3785286 0-.2144432.1766357-.3910789.3784485-.3910789.2145233 0 .3911591.1766357.3911591.3910789z" fill="#20273a"/></g><g><path d="m35.1046219 33.5875854c0 .2018929-.1766357.3785286-.3911552.3785286-.2018166 0-.3784523-.1766357-.3784523-.3785286 0-.2144432.1766357-.3910789.3784523-.3910789.2145194 0 .3911552.1766357.3911552.3910789z" fill="#20273a"/></g><g><path d="m36.544281 33.5875854c0 .2018929-.1766357.3785286-.3911552.3785286-.2018166 0-.3784523-.1766357-.3784523-.3785286 0-.2144432.1766357-.3910789.3784523-.3910789.2145195 0 .3911552.1766357.3911552.3910789z" fill="#20273a"/></g><g><path d="m37.9839401 33.5875854c0 .2018929-.1766396.3785286-.3911591.3785286-.2018127 0-.3784485-.1766357-.3784485-.3785286 0-.2144432.1766357-.3910789.3784485-.3910789.2145196 0 .3911591.1766357.3911591.3910789z" fill="#20273a"/></g></g><g><g><path d="m30.7856503 34.976593c0 .2018929-.1766357.3785286-.3911552.3785286-.2018166 0-.3784523-.1766357-.3784523-.3785286 0-.2144432.1766357-.3910789.3784523-.3910789.2145194 0 .3911552.1766357.3911552.3910789z" fill="#20273a"/></g><g><path d="m32.2253075 34.976593c0 .2018929-.1766357.3785286-.3911552.3785286-.2018147 0-.3784523-.1766357-.3784523-.3785286 0-.2144432.1766376-.3910789.3784523-.3910789.2145194 0 .3911552.1766357.3911552.3910789z" fill="#20273a"/></g><g><path d="m33.6649666 34.976593c0 .2018929-.1766357.3785286-.3911591.3785286-.2018127 0-.3784485-.1766357-.3784485-.3785286 0-.2144432.1766357-.3910789.3784485-.3910789.2145233 0 .3911591.1766357.3911591.3910789z" fill="#20273a"/></g><g><path d="m35.1046219 34.976593c0 .2018929-.1766357.3785286-.3911552.3785286-.2018166 0-.3784523-.1766357-.3784523-.3785286 0-.2144432.1766357-.3910789.3784523-.3910789.2145194 0 .3911552.1766357.3911552.3910789z" fill="#20273a"/></g><g><path d="m36.544281 34.976593c0 .2018929-.1766357.3785286-.3911552.3785286-.2018166 0-.3784523-.1766357-.3784523-.3785286 0-.2144432.1766357-.3910789.3784523-.3910789.2145195 0 .3911552.1766357.3911552.3910789z" fill="#20273a"/></g><g><path d="m37.9839401 34.976593c0 .2018929-.1766396.3785286-.3911591.3785286-.2018127 0-.3784485-.1766357-.3784485-.3785286 0-.2144432.1766357-.3910789.3784485-.3910789.2145196 0 .3911591.1766357.3911591.3910789z" fill="#20273a"/></g></g><g><g><path d="m30.7856503 36.3656044c0 .201889-.1766357.3785248-.3911552.3785248-.2018166 0-.3784523-.1766357-.3784523-.3785248 0-.2144432.1766357-.3910789.3784523-.3910789.2145194 0 .3911552.1766357.3911552.3910789z" fill="#20273a"/></g><g><path d="m32.2253075 36.3656044c0 .201889-.1766357.3785248-.3911552.3785248-.2018147 0-.3784523-.1766357-.3784523-.3785248 0-.2144432.1766376-.3910789.3784523-.3910789.2145194 0 .3911552.1766357.3911552.3910789z" fill="#20273a"/></g><g><path d="m33.6649666 36.3656044c0 .201889-.1766357.3785248-.3911591.3785248-.2018127 0-.3784485-.1766357-.3784485-.3785248 0-.2144432.1766357-.3910789.3784485-.3910789.2145233 0 .3911591.1766357.3911591.3910789z" fill="#20273a"/></g><g><path d="m35.1046219 36.3656044c0 .201889-.1766357.3785248-.3911552.3785248-.2018166 0-.3784523-.1766357-.3784523-.3785248 0-.2144432.1766357-.3910789.3784523-.3910789.2145194 0 .3911552.1766357.3911552.3910789z" fill="#20273a"/></g><g><path d="m36.544281 36.3656044c0 .201889-.1766357.3785248-.3911552.3785248-.2018166 0-.3784523-.1766357-.3784523-.3785248 0-.2144432.1766357-.3910789.3784523-.3910789.2145195 0 .3911552.1766357.3911552.3910789z" fill="#20273a"/></g><g><path d="m37.9839401 36.3656044c0 .201889-.1766396.3785248-.3911591.3785248-.2018127 0-.3784485-.1766357-.3784485-.3785248 0-.2144432.1766357-.3910789.3784485-.3910789.2145196 0 .3911591.1766357.3911591.3910789z" fill="#20273a"/></g></g></g></g><g opacity=".14"><g><path d="m56.1111107 53.1360435c0 .7342339-9.901268 1.3298378-22.1111107 1.3298378s-22.1111107-.5956039-22.1111107-1.3298378c0-.7342873 9.9012661-1.3216743 22.1111107-1.3216743s22.1111107.5873871 22.1111107 1.3216743z"/></g></g></g><g><g><path d="m52.0463943 49.2681046c-2.571701.505352-4.7281494-.6586761-6.6140785-2.8875999-3.1219902-4.3490257-6.7222404-7.2908173-11.4323235-7.0017929-4.7100868-.2890244-8.3103352 2.6527672-11.4323273 7.0017929-1.8859291 2.2289238-4.0423775 3.392952-6.6140785 2.8875999-4.9356651-1.2182198-2.8602839-9.9435883-.1804199-19.4721413.8390961-2.9774799 3.555088-5.035017 6.6499863-5.035017h23.1536751c3.0948982 0 5.8108902 2.0575371 6.6502075 5.035017 2.6796417 9.528553 4.755024 18.2539215-.1806412 19.4721413z" fill="#313b5a"/></g><g><path d="m49.9139709 34.0347137c0 2.6114273-2.1067772 4.7182808-4.7055779 4.7182808s-4.7182045-2.1068535-4.7182045-4.7182808c0-2.5988026 2.1194038-4.7055798 4.7182045-4.7055798s4.7055779 2.1067773 4.7055779 4.7055798z" fill="#fff"/></g><g><path d="m27.5051155 34.0347137c0 2.6114273-2.1067753 4.7182808-4.7055779 4.7182808s-4.7182045-2.1068535-4.7182045-4.7182808c0-2.5988026 2.1194038-4.7055798 4.7182045-4.7055798s4.7055779 2.1067773 4.7055779 4.7055798z" fill="#fff"/></g><g><path d="m33.2681465 30.0211926v1.0375805c0 .1625748-.1262283.2890244-.2888031.2890244h-2.9415741c-.1533241 0-.2795506-.1264496-.2795506-.2890244v-1.0375805c0-.1625767.1262264-.2797718.2795506-.2797718h2.9415741c.1625748-.0000001.2888031.1171951.2888031.2797718z" fill="#20273a"/></g><g><path d="m35.3613701 30.0211926v1.0375805c0 .1625748.1262283.2890244.2888031.2890244h2.9415741c.1533241 0 .2795525-.1264496.2795525-.2890244v-1.0375805c0-.1625767-.1262283-.2797718-.2795525-.2797718h-2.9415741c-.1625748-.0000001-.2888031.1171951-.2888031.2797718z" fill="#20273a"/></g><g><g><path d="m25.9041615 33.4819374v1.1180725c0 .1264572-.107336.2337914-.2399616.2337914h-2.0782242v2.0782242c0 .1326256-.107336.2399635-.2336388.2399635h-1.1180706c-.1263046 0-.2337933-.107338-.2337933-.2399635v-2.0782242h-2.0780697c-.1327801 0-.2401161-.1073341-.2401161-.2337914v-1.1180725c0-.1261482.107336-.2334824.2401161-.2334824h2.0843925v-2.078226c0-.1326256.1011658-.2402687.2274704-.2402687h1.1180706c.1263027 0 .2336388.1076431.2336388.2402687v2.0843945h2.0782242c.1326256-.0000001.2399617.1011657.2399617.2273139z" fill="#ff3445"/></g></g><g><g><path d="m32.9533768 29.7064247v1.0375786c0 .1625767-.1262245.2890244-.2888031.2890244h-2.9415722c-.1533241 0-.2795525-.1264477-.2795525-.2890244v-1.0375786c0-.1625767.1262283-.2797737.2795525-.2797737h2.9415722c.1625786 0 .2888031.117197.2888031.2797737z" fill="#fff"/></g><g><path d="m35.0466042 29.7064247v1.0375786c0 .1625767.1262245.2890244.2888031.2890244h2.9415703c.1533241 0 .2795525-.1264477.2795525-.2890244v-1.0375786c0-.1625767-.1262283-.2797737-.2795525-.2797737h-2.9415703c-.1625786 0-.2888031.117197-.2888031.2797737z" fill="#fff"/></g></g><g><g><g><path d="m44.1289635 31.9611092c0-.6002636.4778786-1.0778942 1.0776443-1.0778942.5898399 0 1.0778961.4776306 1.0778961 1.0778942 0 .5898399-.4880562 1.0778961-1.0778961 1.0778961-.5997658 0-1.0776443-.4880562-1.0776443-1.0778961z" fill="#fed110"/></g><g><path d="m46.2845039 36.1247292c0 .5898399-.4880562 1.0778961-1.0778961 1.0778961-.5997658 0-1.0776443-.4880562-1.0776443-1.0778961 0-.5997658.4778786-1.0778923 1.0776443-1.0778923.58984 0 1.0778961.4781265 1.0778961 1.0778923z" fill="#ff3445"/></g></g><g><g><path d="m43.1250877 35.1205254c-.6002617 0-1.0779533-.477951-1.0780296-1.0778084-.0000763-.5899239.4774933-1.0780525 1.0777588-1.0780525.5898361-.0000038 1.0779533.4881287 1.0780296 1.0780525.0000763.5998573-.4879188 1.0778084-1.0777588 1.0778084z" fill="#65b2ff"/></g><g><path d="m47.2884369 32.9646606c.5898361 0 1.0779533.4881287 1.0780296 1.0780563.0000763.5998573-.4879189 1.0778046-1.0777588 1.0778046-.5997658.0000038-1.0779533-.4779472-1.0780296-1.0778046-.0000763-.5899276.4779892-1.0780563 1.0777588-1.0780563z" fill="#b5e237"/></g></g></g><g><g><g><path d="m30.7856503 33.5875854c0 .2018929-.1766357.3785286-.3911552.3785286-.2018166 0-.3784523-.1766357-.3784523-.3785286 0-.2144432.1766357-.3910789.3784523-.3910789.2145194 0 .3911552.1766357.3911552.3910789z" fill="#20273a"/></g><g><path d="m32.2253075 33.5875854c0 .2018929-.1766357.3785286-.3911552.3785286-.2018147 0-.3784523-.1766357-.3784523-.3785286 0-.2144432.1766376-.3910789.3784523-.3910789.2145194 0 .3911552.1766357.3911552.3910789z" fill="#20273a"/></g><g><path d="m33.6649666 33.5875854c0 .2018929-.1766357.3785286-.3911591.3785286-.2018127 0-.3784485-.1766357-.3784485-.3785286 0-.2144432.1766357-.3910789.3784485-.3910789.2145233 0 .3911591.1766357.3911591.3910789z" fill="#20273a"/></g><g><path d="m35.1046219 33.5875854c0 .2018929-.1766357.3785286-.3911552.3785286-.2018166 0-.3784523-.1766357-.3784523-.3785286 0-.2144432.1766357-.3910789.3784523-.3910789.2145194 0 .3911552.1766357.3911552.3910789z" fill="#20273a"/></g><g><path d="m36.544281 33.5875854c0 .2018929-.1766357.3785286-.3911552.3785286-.2018166 0-.3784523-.1766357-.3784523-.3785286 0-.2144432.1766357-.3910789.3784523-.3910789.2145195 0 .3911552.1766357.3911552.3910789z" fill="#20273a"/></g><g><path d="m37.9839401 33.5875854c0 .2018929-.1766396.3785286-.3911591.3785286-.2018127 0-.3784485-.1766357-.3784485-.3785286 0-.2144432.1766357-.3910789.3784485-.3910789.2145196 0 .3911591.1766357.3911591.3910789z" fill="#20273a"/></g></g><g><g><path d="m30.7856503 34.976593c0 .2018929-.1766357.3785286-.3911552.3785286-.2018166 0-.3784523-.1766357-.3784523-.3785286 0-.2144432.1766357-.3910789.3784523-.3910789.2145194 0 .3911552.1766357.3911552.3910789z" fill="#20273a"/></g><g><path d="m32.2253075 34.976593c0 .2018929-.1766357.3785286-.3911552.3785286-.2018147 0-.3784523-.1766357-.3784523-.3785286 0-.2144432.1766376-.3910789.3784523-.3910789.2145194 0 .3911552.1766357.3911552.3910789z" fill="#20273a"/></g><g><path d="m33.6649666 34.976593c0 .2018929-.1766357.3785286-.3911591.3785286-.2018127 0-.3784485-.1766357-.3784485-.3785286 0-.2144432.1766357-.3910789.3784485-.3910789.2145233 0 .3911591.1766357.3911591.3910789z" fill="#20273a"/></g><g><path d="m35.1046219 34.976593c0 .2018929-.1766357.3785286-.3911552.3785286-.2018166 0-.3784523-.1766357-.3784523-.3785286 0-.2144432.1766357-.3910789.3784523-.3910789.2145194 0 .3911552.1766357.3911552.3910789z" fill="#20273a"/></g><g><path d="m36.544281 34.976593c0 .2018929-.1766357.3785286-.3911552.3785286-.2018166 0-.3784523-.1766357-.3784523-.3785286 0-.2144432.1766357-.3910789.3784523-.3910789.2145195 0 .3911552.1766357.3911552.3910789z" fill="#20273a"/></g><g><path d="m37.9839401 34.976593c0 .2018929-.1766396.3785286-.3911591.3785286-.2018127 0-.3784485-.1766357-.3784485-.3785286 0-.2144432.1766357-.3910789.3784485-.3910789.2145196 0 .3911591.1766357.3911591.3910789z" fill="#20273a"/></g></g><g><g><path d="m30.7856503 36.3656044c0 .201889-.1766357.3785248-.3911552.3785248-.2018166 0-.3784523-.1766357-.3784523-.3785248 0-.2144432.1766357-.3910789.3784523-.3910789.2145194 0 .3911552.1766357.3911552.3910789z" fill="#20273a"/></g><g><path d="m32.2253075 36.3656044c0 .201889-.1766357.3785248-.3911552.3785248-.2018147 0-.3784523-.1766357-.3784523-.3785248 0-.2144432.1766376-.3910789.3784523-.3910789.2145194 0 .3911552.1766357.3911552.3910789z" fill="#20273a"/></g><g><path d="m33.6649666 36.3656044c0 .201889-.1766357.3785248-.3911591.3785248-.2018127 0-.3784485-.1766357-.3784485-.3785248 0-.2144432.1766357-.3910789.3784485-.3910789.2145233 0 .3911591.1766357.3911591.3910789z" fill="#20273a"/></g><g><path d="m35.1046219 36.3656044c0 .201889-.1766357.3785248-.3911552.3785248-.2018166 0-.3784523-.1766357-.3784523-.3785248 0-.2144432.1766357-.3910789.3784523-.3910789.2145194 0 .3911552.1766357.3911552.3910789z" fill="#20273a"/></g><g><path d="m36.544281 36.3656044c0 .201889-.1766357.3785248-.3911552.3785248-.2018166 0-.3784523-.1766357-.3784523-.3785248 0-.2144432.1766357-.3910789.3784523-.3910789.2145195 0 .3911552.1766357.3911552.3910789z" fill="#20273a"/></g><g><path d="m37.9839401 36.3656044c0 .201889-.1766396.3785248-.3911591.3785248-.2018127 0-.3784485-.1766357-.3784485-.3785248 0-.2144432.1766357-.3910789.3784485-.3910789.2145196 0 .3911591.1766357.3911591.3910789z" fill="#20273a"/></g></g></g></g></g><g><g><path d="m45.775074 24.7609482-23.550148.0000019v-1.7786942l1.8228416-.7497349c.2426147-.9702797.6248417-1.8816986 1.1246071-2.7195435l-.7570934-1.8228397 2.5138092-2.513895 1.8228416.7570934c.8379364-.4997644 1.7419987-.8819895 2.7122803-1.1246042l.7570934-1.8228388 3.5573959-.000001.7497368 1.8228388c.9702797.2426147 1.8816986.6248398 2.719635 1.1246042l1.8228416-.7570944 2.5138092 2.513895-.7570953 1.8228397c.4997635.8378448.8819885 1.7492638 1.1246033 2.7195415l1.8228416.7497368v1.7786944z" fill="#ff3445"/></g><g><path d="m40.10532 24.7609482-12.2179985.0000019c.0000019-3.3770294 2.7357407-6.1050282 6.1128693-6.1050301 3.3693923 0 6.105133 2.7279988 6.1051292 6.1050282z" fill="#20273a"/></g><g><path d="m39.0026207 24.7609482-10.012598.0000019c0-2.7674599 2.2419281-5.0030441 5.00947-5.003046 2.7612037 0 5.003128 2.2355842 5.003128 5.0030441z" fill="#fff"/></g></g></g></svg>