<svg id="Layer_1" height="512" viewBox="0 0 100 100" width="512" xmlns="http://www.w3.org/2000/svg"><path d="m40.017 33c-.003.111-.017.221-.017.333 0 14.022 6.019 23.329 10 23.329 3.979 0 10-9.307 10-23.329h-16.666c-1.136 0-2.244-.116-3.317-.333z" fill="#eeeae8"/><path d="m50.001 56.662c-3.982 0-10-9.307-10-23.329 0-.112.013-.222.017-.333-2.345-.475-4.503-1.452-6.38-2.799-.193 1.014-.303 2.061-.303 3.131 0 16.569 7.46 29.997 16.667 29.997 9.208 0 16.665-13.428 16.665-29.997h-6.665c-.001 14.023-6.022 23.33-10.001 23.33z" fill="#c3996b"/><path d="m59.83 37.333h6.685c.097-1.309.151-2.644.151-4h-6.665c0 1.382-.062 2.715-.171 4z" fill="#a87c4f"/><path d="m40 33.333c0-.112.013-.222.017-.333-2.345-.475-4.503-1.452-6.38-2.799-.193 1.014-.303 2.061-.303 3.131 0 .476.008.952.02 1.424 2.074 1.148 4.364 1.953 6.794 2.33-.096-1.209-.148-2.46-.148-3.753z" fill="#a87c4f"/><path d="m56.666 10c-3.906 0-16.096 3.333-19.998 3.333-3.617-.005-7.237-1.111-10.001-3.333v6.666c0 9.198 7.465 16.667 16.667 16.667h23.332v-13.333c0-5.527-4.478-10-10-10zm3.335 16.667h-16.667c-4.404 0-8.154-2.866-9.486-6.83.924.105 1.865.163 2.81.163 2.467 0 5.94-.684 11.366-1.81 2.936-.605 7.376-1.525 8.646-1.525 1.836 0 3.331 1.492 3.331 3.334z" fill="#ffc00e"/><path d="m30.001 31.528c-1.56-1.4-2.9-3.04-3.961-4.861h-1.039c-1.833 0-3.333 1.495-3.333 3.331v13.333c0 1.831 1.501 3.335 3.333 3.335h6.617c-1.038-4.071-1.618-8.568-1.618-13.333v-1.805z" fill="#2cabe1"/><path d="m21.668 39.331c0 1.831 1.501 3.335 3.333 3.335h5.777c.233 1.373.51 2.709.84 4h-6.617c-1.833 0-3.333-1.505-3.333-3.335z" fill="#0077bd"/><path d="m68.396 46.666c-.488 1.923-1.074 3.776-1.781 5.52-6.063-.703-11.637-2.662-15.913-5.618l-2.368 3.43c5.426 3.75 12.747 6.165 20.872 6.583 1.461-2.955 2.611-6.301 3.45-9.914h-4.26z" fill="#bdbcbc"/><path d="m67.163 50.666h4.381c.411-1.296.791-2.62 1.111-4h-4.26c-.349 1.382-.773 2.708-1.232 4z" fill="#9d9d9d"/><path d="m43.334 26.667c-4.404 0-8.154-2.866-9.486-6.83.924.105 1.865.163 2.81.163 2.467 0 5.94-.684 11.366-1.81 2.936-.605 7.376-1.525 8.646-1.525 1.836 0 3.331 1.492 3.331 3.334v6.667h-16.667z" fill="#fff8e1"/><path d="m60.001 26.667v-6.667c0-1.843-1.495-3.334-3.331-3.334-1.27 0-5.71.919-8.646 1.525-5.426 1.125-8.899 1.809-11.366 1.809-.944 0-1.885-.059-2.81-.163.541 1.609 1.484 3.03 2.703 4.158.035 0 .072.005.107.005 2.851 0 6.503-.716 12.174-1.892l.105-.021c1.712-.354 5.385-1.111 7.064-1.349v5.93h4z" fill="#ffebb2"/><path d="m60.001 33.333h-16.667c-1.136 0-2.244-.116-3.317-.333-.003.111-.017.221-.017.333 0 14.022 6.019 23.329 10 23.329.626 0 1.303-.229 2-.673-3.292-2.096-7.003-8.947-7.828-18.656h15.658c.109-1.285.171-2.618.171-4z" fill="#d7ccc8"/><path d="m68.396 46.666c1.049-4.126 1.604-8.618 1.604-13.333v-6.666h5c1.833 0 3.333 1.495 3.333 3.331v13.333c0 1.831-1.5 3.335-3.333 3.335z" fill="#2cabe1"/><path d="m78.332 39.331c0 1.831-1.5 3.335-3.333 3.335h-5.776c-.234 1.373-.511 2.709-.841 4h6.617c1.833 0 3.333-1.505 3.333-3.335z" fill="#0077bd"/><path d="m54.619 53.385c-1.07 1.45-2.186 2.454-3.235 2.938 2.281 1.069 4.727 1.952 7.286 2.636.918-1.009 1.776-2.177 2.565-3.478-2.331-.533-4.547-1.237-6.616-2.096z" fill="#a87c4f"/><path d="m10 89.999v-13.332c0-3.666 2.847-7.617 6.325-8.776l18.565-6.19c4.013 5.227 9.241 8.3 15.108 8.3 5.866 0 11.096-3.073 15.111-8.3l18.562 6.19c3.484 1.159 6.329 5.11 6.329 8.776v13.332h-6.667v-13.332c0-.802-1.009-2.202-1.771-2.455l-14.421-4.804c-4.908 4.713-10.859 7.259-17.143 7.259-6.285 0-12.237-2.546-17.143-7.259l-14.423 4.804c-.757.253-1.766 1.653-1.766 2.455v13.332z" fill="#7cb342"/><path d="m83.333 89.999v-13.332c0-.802-1.009-2.202-1.771-2.455l-14.421-4.804c-4.908 4.713-10.859 7.259-17.143 7.259-6.285 0-12.237-2.546-17.143-7.259l-14.423 4.804c-.757.253-1.766 1.653-1.766 2.455v13.332z" fill="#f1f7e9"/><path d="m16.667 89.999v-13.332c0-.802 1.008-2.202 1.766-2.455l14.423-4.804c4.906 4.713 10.858 7.259 17.143 7.259 6.283 0 12.234-2.546 17.143-7.259l14.421 4.804c.762.253 1.771 1.653 1.771 2.455v2.352l-15.259-5.083c-5.319 4.412-11.521 6.731-18.075 6.731-6.556 0-12.759-2.319-18.077-6.731l-11.255 3.748v12.315z" fill="#dbebc7"/><path d="m75 80.826c0 2.304-2.988 4.173-6.673 4.173-3.675 0-6.659-1.869-6.659-4.173 0-2.299 2.984-4.159 6.659-4.159 3.685 0 6.673 1.86 6.673 4.159z" fill="#ffc00e"/><path d="m65.668 80.826c0-1.865 1.961-3.438 4.661-3.969-.632-.123-1.305-.19-2.002-.19-3.675 0-6.659 1.86-6.659 4.159 0 2.304 2.984 4.173 6.659 4.173.697 0 1.37-.066 2.002-.191-2.7-.533-4.661-2.113-4.661-3.982z" fill="#f68e1e"/></svg>