<svg id="Capa_1" enable-background="new 0 0 512 512" height="512" viewBox="0 0 512 512" width="512" xmlns="http://www.w3.org/2000/svg"><g><path d="m305.548 256c0 10.118-3.033 19.528-8.239 27.37-8.874 13.367-24.063 16.13-41.309 16.13-27.365 0-42.167-16.135-42.167-43.5 0-17.265 1.449-32.468 14.839-41.338 7.833-5.189 17.227-8.211 27.327-8.211 27.366.001 49.549 22.184 49.549 49.549z" fill="#e5646e"/><path d="m269.935 291.613c-27.365 0-49.548-22.183-49.548-49.548 0-10.118 3.08-19.56 8.286-27.402-13.367 8.874-22.221 24.091-22.221 41.338 0 27.365 22.183 49.548 49.548 49.548 17.247 0 32.435-8.811 41.309-22.178-7.841 5.205-17.256 8.242-27.374 8.242z" fill="#db4655"/><path d="m86.661 70.145c4.226 0 8.452 1.613 11.677 4.839.151.151.298.304.442.459l-9.114 22.896c-42.112 42.113-65.306 98.105-65.306 157.661s23.194 115.548 65.306 157.661l9.119 22.89c-.146.157-.295.312-.447.465-6.444 6.452-16.903 6.452-23.355 0-48.354-48.351-74.983-112.637-74.983-181.016s26.629-132.665 74.984-181.016c3.222-3.226 7.451-4.839 11.677-4.839z" fill="#ffe6e7"/><path d="m180.089 163.573c4.226 0 8.456 1.613 11.677 4.839.328.328.639.665.933 1.013l-11.199 22.341c-35.415 35.419-35.415 93.048 0 128.468l11.221 22.317c-.301.356-.619.702-.955 1.038-6.444 6.452-16.911 6.452-23.355 0-48.298-48.294-48.298-126.883 0-175.177 3.222-3.227 7.452-4.839 11.678-4.839z" fill="#ff9a9f"/><path d="m133.371 116.859c4.226 0 8.452 1.613 11.677 4.839.188.188.37.378.547.573l-14.095 22.781c-61.169 61.177-61.169 160.718 0 221.895l14.107 22.769c-.18.199-.366.394-.558.585-6.452 6.452-16.903 6.452-23.355 0-74.048-74.052-74.048-194.552 0-268.605 3.225-3.224 7.451-4.837 11.677-4.837z" fill="#ffcccf"/><path d="m148.645 256c0 35.559 17.446 67.014 44.076 86.551 5.49-6.487 5.165-16.201-.955-22.317-35.415-35.419-35.415-93.048 0-128.468 6.12-6.116 6.423-15.855.933-22.342-26.629 19.536-44.054 51.017-44.054 86.576z" fill="#ff8086"/><path d="m82.581 256c0 53.806 24.568 101.908 63.026 133.717 5.892-6.48 5.703-16.512-.558-22.769-61.169-61.177-61.169-160.718 0-221.895 6.261-6.257 6.438-16.302.547-22.782-38.459 31.808-63.015 79.923-63.015 133.729z" fill="#ff9a9f"/><path d="m16.516 256c0 72.054 31.915 136.648 82.27 180.552 6.004-6.476 5.853-16.594-.447-22.89-42.113-42.114-65.307-98.106-65.307-157.662s23.194-115.548 65.307-157.661c6.3-6.296 6.446-16.42.442-22.896-50.355 43.903-82.265 108.503-82.265 180.557z" fill="#ffcccf"/><path d="m425.339 441.855c-4.226 0-8.452-1.613-11.677-4.839-.151-.151-.298-.304-.442-.459l9.114-22.896c42.112-42.113 65.306-98.105 65.306-157.661s-23.194-115.548-65.306-157.661l-9.119-22.89c.146-.157.295-.312.447-.465 6.444-6.452 16.903-6.452 23.355 0 48.354 48.351 74.983 112.637 74.983 181.016s-26.629 132.665-74.984 181.016c-3.222 3.226-7.451 4.839-11.677 4.839z" fill="#ffe6e7"/><path d="m331.911 348.427c-4.226 0-8.456-1.613-11.677-4.839-.328-.328-.639-.665-.933-1.013l11.199-22.342c35.415-35.419 35.415-93.048 0-128.468l-11.221-22.317c.301-.356.619-.702.955-1.038 6.444-6.452 16.911-6.452 23.355 0 48.298 48.294 48.298 126.883 0 175.177-3.222 3.228-7.452 4.84-11.678 4.84z" fill="#ff9a9f"/><path d="m378.629 395.141c-4.226 0-8.452-1.613-11.677-4.839-.188-.188-.37-.378-.547-.573l14.095-22.782c61.169-61.177 61.169-160.718 0-221.895l-14.107-22.769c.18-.199.366-.394.558-.585 6.452-6.452 16.903-6.452 23.355 0 74.048 74.052 74.048 194.552 0 268.605-3.225 3.225-7.451 4.838-11.677 4.838z" fill="#ffcccf"/><path d="m363.355 256c0-35.559-17.446-67.015-44.076-86.551-5.49 6.487-5.165 16.201.955 22.317 35.415 35.419 35.415 93.048 0 128.468-6.12 6.116-6.423 15.855-.933 22.342 26.629-19.536 44.054-51.017 44.054-86.576z" fill="#ff8086"/><path d="m429.419 256c0-53.806-24.568-101.908-63.026-133.717-5.892 6.48-5.703 16.512.558 22.769 61.169 61.177 61.169 160.718 0 221.895-6.261 6.257-6.438 16.302-.547 22.782 38.459-31.808 63.015-79.923 63.015-133.729z" fill="#ff9a9f"/><path d="m495.484 256c0-72.054-31.915-136.648-82.27-180.552-6.004 6.476-5.853 16.594.447 22.89 42.113 42.113 65.306 98.105 65.306 157.661s-23.194 115.548-65.306 157.661c-6.3 6.296-6.446 16.42-.442 22.896 50.355-43.902 82.265-108.502 82.265-180.556z" fill="#ffcccf"/></g></svg>