<svg width="131" height="131" viewBox="0 0 131 131" fill="none" xmlns="http://www.w3.org/2000/svg">
<g id="live-match-integration-service">
<circle id="Ellipse 13" cx="65.5" cy="65.5" r="65.5" fill="#FFD3BD"/>
<g id="Football">
<g id="Group">
<g id="Group_2">
<path id="Vector" d="M89.1395 53.6424C84.8158 44.9634 75.8552 39 65.5002 39C55.3421 39 49.0847 44.7298 49.0674 44.7394C49.0674 44.7394 48.8073 45.0642 48.7586 45.28C48.3634 47.0344 47.9941 49.3857 47.9941 51.1015C47.9941 65.6799 60.288 77.4951 74.8664 77.4951C79.7358 77.4951 85.0798 75.4703 89.1396 72.8223V53.6424H89.1395Z" fill="#FFD23C"/>
<path id="Vector_2" d="M74.8642 76.75C60.2858 76.75 48.4677 64.932 48.4677 50.3536C48.4677 48.4266 48.6756 46.5491 49.0676 44.7395C45.9732 47.2046 43.4466 50.3515 41.7109 53.9514V76.8489C43.7434 81.063 46.8625 84.6546 50.7048 87.2599L54.1048 87.7812L55.1151 89.6716C58.3025 91.0371 61.8131 91.793 65.5003 91.793C69.2147 91.793 72.7637 91.0214 75.9867 89.6241L77.1668 87.7812L80.4119 87.1771C84.0999 84.6489 87.1223 81.204 89.1398 77.1516V72.5585C85.0239 75.2103 80.1242 76.75 74.8642 76.75Z" fill="#FFA50A"/>
</g>
<g id="Group_3">
<path id="Vector_3" d="M71.9215 83.0514V81.8461L65.6425 80L59.6417 81.8461V82.9163L50.7041 87.2598C52.0862 88.1969 53.562 89.0065 55.1144 89.6715L65.6425 86.9763L75.9861 89.6243C77.5433 88.9492 79.0244 88.1281 80.4115 87.1775L71.9215 83.0514Z" fill="#373C41"/>
<g id="Group_4">
<path id="Vector_4" d="M59.6416 78.564H71.9213V81.846H59.6416V78.564Z" fill="#1A1B1C"/>
</g>
<g id="Group_5">
<path id="Vector_5" d="M86.7053 78.4182H44.2962C42.4941 78.4182 41.0332 76.9573 41.0332 75.1552V48.5365C41.0332 46.7344 42.4941 45.2734 44.2962 45.2734H86.7053C88.5074 45.2734 89.9683 46.7344 89.9683 48.5365V75.1553C89.9683 76.9574 88.5074 78.4182 86.7053 78.4182Z" fill="#9DC63D"/>
</g>
<g id="Group_6">
<path id="Vector_6" d="M86.7053 45.2734H44.2962C42.4941 45.2734 41.0332 46.7344 41.0332 48.5365V67.0845C41.0332 68.8866 53.1829 58.5979 54.985 58.5979H90.0134L89.9683 48.5364C89.9684 46.7342 88.5074 45.2734 86.7053 45.2734Z" fill="#AFE6FF"/>
</g>
<g id="Group_7">
<path id="Vector_7" d="M54.985 58.5979L41.0332 48.5364V75.1552C41.0332 76.9573 42.4941 78.4182 44.2962 78.4182H54.9865L54.985 58.5979Z" fill="#69B76B"/>
</g>
<g id="Group_8">
<path id="Vector_8" d="M44.2962 45.2734C42.4941 45.2734 41.0332 46.7344 41.0332 48.5365V67.0845C41.0332 68.8866 53.1829 58.5979 54.985 58.5979H54.9864" fill="#73C8F0"/>
</g>
<g id="Group_9">
<path id="Vector_9" d="M41.0431 68.5923L39.6982 66.3813L54.3116 57.4924C54.5143 57.3692 54.7469 57.304 54.9841 57.304H90.0124V59.8918H55.3467L41.0431 68.5923Z" fill="white"/>
</g>
<g id="Group_10">
<path id="Vector_10" d="M88.4665 43.8967H51.7373V47.0022H88.4665C88.7028 47.0022 88.8951 47.1944 88.8951 47.4308V76.2607C88.8951 76.497 88.7028 76.6892 88.4665 76.6892H84.7304V79.7947H88.4665C90.4183 79.7947 92.0005 78.2125 92.0005 76.2607V47.4308C92.0005 45.479 90.4183 43.8967 88.4665 43.8967Z" fill="#373C41"/>
</g>
<g id="Group_11">
<path id="Vector_11" d="M84.9348 76.6892H42.534C42.2977 76.6892 42.1055 76.497 42.1055 76.2607V47.4308C42.1055 47.1944 42.2977 47.0022 42.534 47.0022H51.977V43.8967H42.534C40.5822 43.8967 39 45.479 39 47.4308V76.2607C39 78.2125 40.5822 79.7947 42.534 79.7947H84.9348V76.6892Z" fill="#1A1B1C"/>
</g>
<g id="Group_12">
<path id="Vector_12" d="M55.8165 64.4377C53.602 64.4377 51.5525 63.332 50.334 61.4801L52.4959 60.0576C53.2343 61.1798 54.4756 61.8498 55.8166 61.8498C57.7927 61.8498 59.4841 60.3765 59.7509 58.4226L62.3151 58.7728C61.8739 62.0023 59.0802 64.4377 55.8165 64.4377Z" fill="white"/>
</g>
<g id="Group_13">
<g id="Group_14">
<g id="Group_15">
<path id="Vector_13" d="M69.4014 59.0585L69.492 59.8014L72.8721 61.1909L75.2875 59.2816C74.3035 58.8424 73.2134 58.5979 72.0663 58.5979C71.1301 58.598 70.2349 58.76 69.4014 59.0585Z" fill="#C8E6EB"/>
</g>
</g>
<g id="Group_16">
<g id="Group_17">
<path id="Vector_14" d="M74.6438 73.9911L74.4036 72.0051L70.9754 70.6135L68.0977 72.9007L68.1611 73.3917C70.1746 74.5345 72.5544 74.7104 74.6438 73.9911Z" fill="#1A1B1C"/>
</g>
</g>
<g id="Group_18">
<g id="Group_19">
<g id="Group_20">
<path id="Vector_15" d="M73.3519 64.7625L70.4648 67.0342L70.9846 70.6524L74.3717 72.0284L77.2651 69.7766L76.7712 66.149L73.3519 64.7625Z" fill="white"/>
</g>
</g>
<g id="Group_21">
<g id="Group_22">
<path id="Vector_16" d="M69.5053 59.7908L66.5957 62.0336L67.0977 65.6549L70.481 67.034L73.3584 64.7946L72.868 61.1642L69.5053 59.7908Z" fill="#373C41"/>
</g>
</g>
</g>
<g id="Group_23">
<g id="Group_24">
<path id="Vector_17" d="M76.7559 66.1618L77.266 69.7767L78.9242 70.4549C79.5922 69.2944 79.976 67.9449 79.976 66.5098C79.976 65.6243 79.8305 64.7728 79.5622 63.9778L76.7559 66.1618Z" fill="#373C41"/>
</g>
</g>
<g id="Group_25">
<g id="Group_26">
<path id="Vector_18" d="M78.9246 70.4547L77.2664 69.7698L74.373 72.0284L74.643 73.9912C76.4581 73.3653 77.979 72.0931 78.9246 70.4547Z" fill="#B4D7DC"/>
</g>
</g>
<g id="Group_27">
<g id="Group_28">
<path id="Vector_19" d="M68.1384 72.8683L66.7227 72.345C67.1543 72.7384 67.6492 73.1007 68.1602 73.3917L68.1384 72.8683Z" fill="#A5C8CD"/>
</g>
</g>
<g id="Group_29">
<path id="Vector_20" d="M70.4809 67.034L67.0938 65.658L70.9828 70.6553L70.4809 67.034Z" fill="#E4F2F6"/>
</g>
<g id="Group_30">
<g id="Group_31">
<path id="Vector_21" d="M75.2861 59.2817L72.8672 61.1643L73.3575 64.7947L76.7564 66.1616L79.5627 63.9776C78.8544 61.8799 77.2904 60.1763 75.2861 59.2817Z" fill="#E4F2F6"/>
</g>
</g>
<g id="Group_32">
<g id="Group_33">
<path id="Vector_22" d="M67.1329 65.6693L66.6009 62.0296L65.7826 61.7019C64.3987 63.5105 63.9074 65.7498 64.2688 67.8564L67.1329 65.6693Z" fill="#A5C8CD"/>
</g>
</g>
<g id="Group_34">
<g id="Group_35">
<path id="Vector_23" d="M69.3194 66.5622L67.0935 65.658L64.2686 67.8564C64.39 68.3232 64.6776 70.4676 66.7233 72.3449C66.7231 72.3447 66.7235 72.3451 66.7233 72.3449L68.1391 72.8682L70.9865 70.6523L70.5811 67.728C70.1213 67.3867 69.6951 66.9933 69.3194 66.5622Z" fill="#C8E6EB"/>
</g>
</g>
<g id="Group_36">
<g id="Group_37">
<path id="Vector_24" d="M69.3134 66.5553C68.1182 65.1801 67.3904 63.3881 67.3762 61.4265L66.5957 62.0339L67.0938 65.6582L69.3134 66.5553Z" fill="#1A1B1C"/>
</g>
</g>
<g id="Group_38">
<g id="Group_39">
<path id="Vector_25" d="M77.166 69.0544L77.2661 69.7767L78.9243 70.4548C79.3916 69.643 79.7138 68.7435 79.8679 67.8184C79.0654 68.3892 78.1519 68.8141 77.166 69.0544Z" fill="#1A1B1C"/>
</g>
</g>
<g id="Group_40">
<g id="Group_41">
<path id="Vector_26" d="M70.5771 67.7246L70.9872 70.6524L74.3743 72.0284L77.2677 69.7766L77.1589 69.0566C76.5589 69.2022 75.9322 69.2794 75.2874 69.2794C73.5248 69.2794 71.8923 68.6992 70.5771 67.7246Z" fill="#E4F2F6"/>
</g>
</g>
<g id="Group_42">
<g id="Group_43">
<path id="Vector_27" d="M65.7832 61.702L66.5962 62.0337L69.5059 59.7909L69.4015 59.0586C67.9543 59.5756 66.7014 60.5055 65.7832 61.702Z" fill="#E4F2F6"/>
</g>
</g>
</g>
<g id="Group_44">
<path id="Vector_28" d="M54.1035 47.0022H55.8633V58.5979H54.1035V47.0022Z" fill="white"/>
</g>
<g id="Group_45">
<path id="Vector_29" d="M69.0371 47.0022H88.894V54.4926H69.0371V47.0022Z" fill="#2477F9"/>
</g>
<g id="Group_46">
<path id="Vector_30" d="M61.9668 47.0022H69.4572V54.4926H61.9668V47.0022Z" fill="#0540E5"/>
</g>
</g>
</g>
</g>
</g>
</svg>
