<svg id="Layer_1" viewBox="0 0 512 512" xmlns="http://www.w3.org/2000/svg" data-name="Layer 1"><path d="m434.029 321.841h-36.829c23.019 0 37.3-17.862 43.618-38.183l30.709-6.524a8 8 0 0 0 6.338-7.825v-71.347a8 8 0 0 0 -6.339-7.825l-40.071-8.508-14.242-34.4 22.314-34.37a8 8 0 0 0 -1.055-10.014l-50.459-50.427a8 8 0 0 0 -10.013-1.052l-34.367 22.313-34.375-14.24-8.534-40.1a8 8 0 0 0 -7.824-6.339h-71.348a8 8 0 0 0 -7.826 6.34l-8.507 40.1-34.4 14.241-34.369-22.315a8 8 0 0 0 -10.014 1.053l-50.427 50.427a8 8 0 0 0 -1.053 10.013l22.313 34.37-14.24 34.4-40.1 8.507a8 8 0 0 0 -6.34 7.826v71.347a8 8 0 0 0 6.339 7.825l28.072 5.958c6.223 20.556 20.551 38.748 43.8 38.749h-36.857c-27.971 0-50.861 21.261-50.861 47.244v64.474h100.95v65.441h255.936v-65.441h100.95v-64.474c0-25.985-22.89-47.244-50.889-47.244zm-80.049-82.654a47.218 47.218 0 0 0 -4.251 19.615c0 1.695.062 3.435.181 5.206a98.048 98.048 0 0 1 -187.842-.074c.116-1.745.175-3.461.175-5.132a47.254 47.254 0 0 0 -4.221-19.558c-.039-1.135-.066-2.272-.066-3.415a98.044 98.044 0 1 1 196.088 0c0 1.124-.026 2.243-.064 3.358z" fill="#484868"/><path d="m484.918 369.085c0-25.983-22.89-47.244-50.889-47.244h-73.7a52.959 52.959 0 0 0 -34.045 12.2l-.016.042a79.2 79.2 0 0 0 -16.524-1.754h-107.519a79.069 79.069 0 0 0 -16.445 1.739l-.067-.027a52.959 52.959 0 0 0 -34.045-12.2h-73.725c-27.971 0-50.861 21.261-50.861 47.244v64.474h100.95v65.441h255.936v-65.441h100.95z" fill="#eae8e8"/><path d="m309.747 332.333h-19.783c40.811 0 74.221 30.981 74.221 68.893v97.774h19.783v-97.774c0-37.912-33.41-68.893-74.221-68.893z" fill="#ddd7d7"/><path d="m194.382 499v-83.333a7.537 7.537 0 1 0 -15.073 0v83.333z" fill="#ddd7d7"/><path d="m332.663 499v-83.333a7.537 7.537 0 1 0 -15.073 0v83.333z" fill="#ddd7d7"/><path d="m397.2 211.365a47.448 47.448 0 0 1 47.432 47.435c0 27.806-15.1 63.039-47.437 63.039-33.356 0-47.466-36.835-47.466-63.039a47.455 47.455 0 0 1 47.471-47.435z" fill="#ffddab"/><path d="m114.805 211.365a47.43 47.43 0 0 0 -47.437 47.435c0 27.806 15.076 63.039 47.437 63.039 33.356 0 47.438-36.835 47.438-63.039a47.431 47.431 0 0 0 -47.438-47.437z" fill="#ffddab"/><path d="m397.2 211.365a47.71 47.71 0 0 0 -8.483.77 47.454 47.454 0 0 1 38.958 46.665c0 25.26-12.468 56.644-38.992 62.179a41.659 41.659 0 0 0 8.512.86c32.333 0 47.437-35.233 47.437-63.039a47.448 47.448 0 0 0 -47.432-47.435z" fill="#f9ce95"/><path d="m114.805 211.365a47.653 47.653 0 0 0 -8.478.77 47.434 47.434 0 0 1 38.959 46.665c0 23.855-11.673 56.514-38.929 62.18a41.3 41.3 0 0 0 8.448.859c33.356 0 47.438-36.835 47.438-63.039a47.431 47.431 0 0 0 -47.438-47.435z" fill="#f9ce95"/><path d="m255.986 499-25.928-26.48 15.933-112.22a17.023 17.023 0 0 1 -6.876-7.7c-1.546-3.369-1.27-12.315.746-15.436a10.541 10.541 0 0 1 9-4.832h14.249a10.475 10.475 0 0 1 9 4.832c2.043 3.121 2.319 12.067.773 15.436a17.237 17.237 0 0 1 -6.9 7.7l15.96 112.216z" fill="#ad1e1e"/><path d="m255.986 332.333c24.133 0 45.008-20.736 55.114-50.889 16.871-1.739 27.695-42.329 14.055-46.554a8.887 8.887 0 0 0 -7.677.939c11.625-49.067 2.126-57.847-13.2-64.336-13.226-14.662-32.141-23-48.294-23-32.969 0-77.479 34.708-61.492 87.337a8.864 8.864 0 0 0 -7.676-.939c-13.613 4.225-2.817 44.815 14.082 46.554 10.078 30.153 30.981 50.889 55.086 50.889z" fill="#ffddab"/><path d="m434.029 321.841h-73.7a52.959 52.959 0 0 0 -34.045 12.2l-.016.042c32.928 7.02 57.7 34.5 57.7 67.139v32.333h100.95v-64.47c0-25.985-22.89-47.244-50.889-47.244z" fill="#7da8ff"/><path d="m128.032 401.226c0-32.64 24.787-60.156 57.748-67.154l-.067-.027a52.959 52.959 0 0 0 -34.045-12.2h-73.725c-27.971 0-50.861 21.261-50.861 47.244v64.474h100.95z" fill="#7da8ff"/><path d="m128.032 433.559v-32.333c0-32.64 24.787-60.156 57.748-67.154l-.067-.027c-.7-.591-1.434-1.157-2.175-1.712h-1.1c-40.81 0-74.194 31.009-74.194 68.893v32.333z" fill="#5090ef"/><path d="m383.968 433.559v-32.333c0-32.64-24.788-60.156-57.748-67.154l.067-.027c.705-.591 1.434-1.157 2.174-1.712h1.1c40.81 0 74.193 31.009 74.193 68.893v32.333z" fill="#5090ef"/><path d="m272.885 352.6c1.546-3.369 1.27-12.315-.773-15.436a10.475 10.475 0 0 0 -9-4.832h-14.25a10.541 10.541 0 0 0 -9 4.832c-2.016 3.121-2.292 12.067-.746 15.436a17.023 17.023 0 0 0 6.876 7.7h19.991a17.237 17.237 0 0 0 6.902-7.7z" fill="#d22e2e"/><path d="m304.28 171.493c-13.226-14.662-32.141-23-48.294-23-32.969 0-77.479 34.708-61.492 87.337 25.016-32.439 79.306-13.312 101.606-36.83 4.339 18.923 12.111 28.635 21.379 36.832 11.621-49.07 2.126-57.851-13.199-64.339z" fill="#7c6359"/><path d="m325.155 234.89a9.7 9.7 0 0 0 -4.734-.287c-.959.445-1.937.859-2.943 1.226a66.748 66.748 0 0 1 -11.425-12.692c.458 18.535-2.328 39.464-10.026 58.307-9.036 26.962-26.686 46.382-47.574 50.193a41.871 41.871 0 0 0 7.533.7c24.133 0 45.008-20.736 55.114-50.889 16.871-1.743 27.7-42.333 14.055-46.558z" fill="#f9ce95"/><path d="m317.478 235.829c1.006-.367 1.984-.781 2.943-1.226a7.774 7.774 0 0 0 -2.943 1.226z" fill="#604c42"/><path d="m304.28 171.493c-13.226-14.662-32.141-23-48.294-23a51.545 51.545 0 0 0 -7.6.585c14.261 2.1 29.59 9.965 40.821 22.416 8.994 3.808 16.195 25.31 16.846 51.644a66.748 66.748 0 0 0 11.425 12.692c11.622-49.068 2.127-57.849-13.198-64.337z" fill="#604c42"/><g fill="#3d3d54"><path d="m280.959 19.335 8.534 40.1 46.441 19.238 7.7-5-34.375-14.24-8.534-40.1a8 8 0 0 0 -7.825-6.333h-19.766a8 8 0 0 1 7.825 6.335z"/><path d="m471.522 190.137-40.071-8.508-14.242-34.4 22.314-34.37a8 8 0 0 0 -1.055-10.014l-50.455-50.427a8 8 0 0 0 -10.013-1.052l-6.55 4.253 47.25 47.226a8 8 0 0 1 1.055 10.014l-22.313 34.37 14.241 34.4 40.071 8.508a8 8 0 0 1 6.339 7.825v71.347a8 8 0 0 1 -6.338 7.825l-9.695 2.06c-.382 1.518-.8 3.029-1.27 4.527l.021-.063 30.709-6.524a8 8 0 0 0 6.338-7.825v-71.347a8 8 0 0 0 -6.336-7.825z"/><path d="m354.044 235.829c0 1.135-.038 2.261-.077 3.387a47.621 47.621 0 0 1 15.061-18.591 114.046 114.046 0 0 0 -226.057.007 47.581 47.581 0 0 1 15.063 18.637c-.04-1.144-.078-2.287-.078-3.44a98.044 98.044 0 1 1 196.088 0z"/><path d="m162.072 263.89a85.385 85.385 0 0 1 -6.133 26.58 114.905 114.905 0 0 0 39.8 42.136c2.139-.178 4.3-.273 6.49-.273h36.413a98.351 98.351 0 0 1 -76.57-68.443z"/><path d="m349.907 263.961a98.352 98.352 0 0 1 -76.544 68.372h36.384q3.294 0 6.515.274a114.912 114.912 0 0 0 39.789-42.117 85.272 85.272 0 0 1 -6.144-26.529z"/></g></svg>