<svg width="60" height="60" viewBox="0 0 60 60" fill="none" xmlns="http://www.w3.org/2000/svg">
<mask id="mask0_151_36" style="mask-type:luminance" maskUnits="userSpaceOnUse" x="0" y="0" width="60" height="60">
<path d="M60 0H0V60H60V0Z" fill="white"/>
</mask>
<g mask="url(#mask0_151_36)">
<path d="M12.301 59.9944C8.85242 59.9944 5.94008 58.7977 3.56405 56.4042C1.18801 54.0106 0 51.1002 0 47.6731C0 44.2459 1.1948 41.3356 3.58441 38.9419C5.97403 36.5484 8.89315 35.3516 12.3418 35.3516C15.7633 35.3516 18.6688 36.5484 21.0584 38.9419C23.448 41.3356 24.6429 44.2459 24.6429 47.6731C24.6429 51.1274 23.4413 54.0446 21.038 56.4246C18.6349 58.8044 15.7225 59.9944 12.301 59.9944ZM12.301 54.9353C14.3105 54.9353 16.0213 54.2213 17.4333 52.7934C18.8453 51.3654 19.5514 49.6586 19.5514 47.6731C19.5514 45.6603 18.8522 43.9467 17.4537 42.5323C16.0552 41.1179 14.3377 40.4108 12.301 40.4108C10.2916 40.4108 8.58766 41.1112 7.1892 42.5119C5.79073 43.9127 5.0915 45.6331 5.0915 47.6731C5.0915 49.6858 5.79073 51.3994 7.1892 52.8138C8.58766 54.2282 10.2916 54.9353 12.301 54.9353Z" fill="#00B7AF"/>
<path d="M51.0168 23.9996C50.3468 23.9996 49.7502 23.7381 49.2267 23.2151C48.7033 22.6921 48.4415 22.0959 48.4415 21.4265C48.4415 20.757 48.7033 20.1712 49.2267 19.6693C49.7502 19.1671 50.3468 18.9161 51.0168 18.9161H57.4237C58.1355 18.9161 58.7427 19.1671 59.2452 19.6693C59.7477 20.1712 59.9989 20.757 59.9989 21.4265C59.9989 22.0959 59.7477 22.6921 59.2452 23.2151C58.7427 23.7381 58.1355 23.9996 57.4237 23.9996H51.0168ZM51.0168 41.3215L45.8034 37.4304C45.259 37.0956 44.9345 36.5621 44.8299 35.83C44.7252 35.0977 44.8822 34.4387 45.3009 33.853C45.6778 33.2673 46.2222 32.943 46.934 32.8802C47.6459 32.8175 48.295 32.9953 48.8813 33.4137L54.0947 37.1793C54.5972 37.5978 54.9007 38.1521 55.0054 38.8425C55.11 39.5329 54.953 40.1709 54.5343 40.7566C54.1574 41.3424 53.613 41.6771 52.9012 41.7607C52.1893 41.8445 51.5612 41.698 51.0168 41.3215ZM49.0697 9.37651C48.5253 9.79491 47.8972 9.97274 47.1853 9.90998C46.4734 9.84721 45.9082 9.50204 45.4894 8.87443C45.0707 8.33051 44.8927 7.7029 44.9555 6.99162C45.0183 6.28034 45.3638 5.7155 45.9919 5.2971L51.0168 1.53148C51.5612 1.15492 52.1893 1.00848 52.9012 1.09216C53.613 1.17584 54.1574 1.48964 54.5343 2.03356C54.953 2.66116 55.1205 3.32015 55.0368 4.01051C54.953 4.70088 54.639 5.23434 54.0947 5.6109L49.0697 9.37651ZM12.4503 40.4429V30.464H9.43526C7.92777 30.2966 6.69247 29.6585 5.72934 28.5497C4.76623 27.441 4.28467 26.1335 4.28467 24.6272V18.2257C4.28467 16.6357 4.84998 15.255 5.98059 14.0835C7.11122 12.912 8.51402 12.3262 10.189 12.3262H20.6158L30.7914 6.30126C31.7545 5.7155 32.7175 5.70504 33.6807 6.26988C34.6438 6.83473 35.1254 7.66106 35.1254 8.74891V34.0412C35.1254 35.171 34.6438 36.0182 33.6807 36.5831C32.7175 37.1479 31.7545 37.1165 30.7914 36.489L20.6158 30.464H18.6058V40.4429H12.4503ZM37.3867 31.3426V11.4476C38.8942 12.5355 40.1294 13.9475 41.0925 15.6839C42.0557 17.4202 42.5372 19.3345 42.5372 21.4265C42.5372 23.5185 42.0557 25.4326 41.0925 27.169C40.1294 28.9054 38.8942 30.2966 37.3867 31.3426Z" fill="#1D1068"/>
</g>
</svg>
