<svg id="Layer_1" enable-background="new 0 0 468 468" height="512" viewBox="0 0 468 468" width="512" xmlns="http://www.w3.org/2000/svg" xmlns:xlink="http://www.w3.org/1999/xlink"><clipPath id="SVGID_2_"><path id="SVGID_1_" d="m3.42 74.063 104.478 56.885-.361-113.1z"/></clipPath><g><g><g><g><g><path d="m89.063 76.73c-1.067 0-1.953-.842-1.997-1.917-.046-1.104.812-2.035 1.915-2.081 2.979-.124 6.018-.224 9.03-.296.017-.001.033-.001.05-.001 1.082 0 1.972.864 1.998 1.951.027 1.104-.847 2.021-1.95 2.048-2.991.073-6.006.172-8.962.294-.028.001-.056.002-.084.002z" fill="#c2ace5"/></g></g></g><g><g><g><path d="m453.986 392.968c-.224 0-.451-.038-.674-.118-1.04-.372-1.581-1.517-1.209-2.557 2.004-5.603 3.837-11.217 5.447-16.688.313-1.06 1.428-1.662 2.483-1.354 1.06.313 1.666 1.424 1.354 2.483-1.632 5.544-3.489 11.232-5.52 16.906-.29.818-1.059 1.328-1.881 1.328zm9.932-33.899c-.146 0-.293-.016-.44-.049-1.078-.242-1.755-1.312-1.513-2.39 1.303-5.8 2.387-11.594 3.22-17.222.162-1.092 1.18-1.846 2.271-1.686 1.093.162 1.848 1.179 1.686 2.271-.848 5.725-1.949 11.617-3.274 17.513-.21.932-1.035 1.563-1.95 1.563zm5.116-34.935c-.043 0-.085-.001-.128-.004-1.103-.069-1.939-1.02-1.87-2.122.255-4.028.384-8.063.384-11.991-.001-1.834-.029-3.68-.084-5.484-.033-1.104.834-2.026 1.938-2.06 1.104-.055 2.025.834 2.06 1.938.056 1.844.085 3.729.086 5.604 0 4.014-.132 8.133-.392 12.244-.067 1.06-.947 1.875-1.994 1.875zm-1.133-35.267c-.986 0-1.845-.729-1.979-1.733-.778-5.795-1.874-11.56-3.259-17.134-.266-1.072.388-2.157 1.459-2.424 1.068-.264 2.156.387 2.424 1.459 1.419 5.717 2.543 11.626 3.341 17.565.146 1.095-.621 2.102-1.716 2.249-.091.012-.181.018-.27.018zm-8.52-34.22c-.811 0-1.573-.497-1.874-1.302-2.018-5.403-4.378-10.77-7.018-15.949-.501-.984-.109-2.188.874-2.69.986-.505 2.188-.109 2.69.874 2.708 5.315 5.13 10.821 7.201 16.367.386 1.034-.14 2.187-1.175 2.573-.229.086-.466.127-.698.127zm-15.979-31.425c-.651 0-1.29-.317-1.674-.902-3.142-4.787-6.614-9.525-10.322-14.083-.696-.856-.567-2.116.29-2.813.855-.697 2.116-.567 2.813.29 3.793 4.662 7.347 9.512 10.563 14.411.606.924.349 2.164-.574 2.77-.339.22-.72.327-1.096.327zm-22.488-27.266c-.511 0-1.021-.194-1.411-.582-3.987-3.969-8.3-8.02-12.818-12.039-.825-.734-.899-1.998-.165-2.823.732-.825 1.998-.899 2.823-.165 4.574 4.069 8.942 8.171 12.982 12.191.782.779.785 2.046.007 2.829-.392.393-.904.589-1.418.589zm-26.401-23.547c-.441 0-.886-.146-1.255-.443-4.495-3.629-9.185-7.241-13.94-10.739-.891-.654-1.081-1.906-.427-2.796.655-.889 1.906-1.082 2.796-.427 4.805 3.533 9.543 7.184 14.083 10.849.86.694.994 1.953.301 2.813-.396.489-.975.743-1.558.743zm-28.482-20.964c-.383 0-.771-.109-1.112-.34-4.839-3.247-9.823-6.444-14.814-9.5-.942-.577-1.238-1.809-.662-2.75.578-.942 1.813-1.237 2.75-.662 5.039 3.086 10.071 6.313 14.955 9.592.918.615 1.162 1.857.546 2.774-.386.576-1.018.886-1.663.886zm-30.15-18.464c-.329 0-.663-.081-.972-.253-5.097-2.839-10.326-5.613-15.544-8.247-.986-.497-1.382-1.7-.884-2.687.497-.985 1.7-1.383 2.687-.884 5.266 2.657 10.544 5.458 15.688 8.323.965.537 1.312 1.755.773 2.721-.364.657-1.046 1.027-1.748 1.027zm-31.553-15.928c-.277 0-.559-.058-.827-.18-5.313-2.417-10.749-4.76-16.158-6.963-1.022-.417-1.514-1.584-1.098-2.607.417-1.022 1.583-1.517 2.607-1.098 5.458 2.224 10.943 4.588 16.305 7.027 1.006.457 1.45 1.644.992 2.648-.335.738-1.061 1.173-1.821 1.173zm-32.726-13.334c-.226 0-.455-.039-.68-.12-5.479-1.98-11.084-3.882-16.66-5.652-1.053-.334-1.635-1.459-1.301-2.512.335-1.054 1.459-1.632 2.512-1.301 5.626 1.786 11.281 3.705 16.809 5.703 1.039.376 1.577 1.522 1.201 2.561-.295.814-1.063 1.321-1.881 1.321zm-33.676-10.692c-.176 0-.354-.023-.531-.072-5.62-1.545-11.357-3.002-17.051-4.331-1.075-.251-1.743-1.326-1.492-2.402.25-1.075 1.322-1.746 2.402-1.492 5.743 1.34 11.53 2.811 17.201 4.368 1.064.293 1.69 1.394 1.398 2.459-.244.887-1.049 1.47-1.927 1.47zm-34.405-8.036c-.126 0-.253-.012-.381-.036-5.73-1.107-11.563-2.121-17.333-3.013-1.092-.169-1.84-1.19-1.671-2.282s1.192-1.833 2.282-1.671c5.819.899 11.701 1.922 17.479 3.038 1.085.21 1.794 1.259 1.585 2.344-.184.956-1.022 1.62-1.961 1.62zm-34.912-5.396c-.078 0-.156-.004-.234-.014-5.778-.674-11.669-1.253-17.509-1.721-1.102-.088-1.923-1.052-1.834-2.152.087-1.102 1.055-1.932 2.152-1.834 5.889.471 11.828 1.055 17.653 1.734 1.098.128 1.883 1.121 1.755 2.218-.117 1.019-.983 1.769-1.983 1.769zm-35.213-2.822c-.03 0-.061-.001-.091-.002-5.799-.257-11.717-.415-17.588-.471-1.104-.011-1.992-.914-1.981-2.019.011-1.099.904-1.981 2-1.981h.019c5.918.057 11.883.216 17.729.475 1.104.049 1.958.983 1.909 2.087-.049 1.074-.934 1.911-1.997 1.911z" fill="#c2ace5"/></g></g></g><g><g><g><path d="m444.081 417.657c-.271 0-.546-.056-.809-.172-1.01-.447-1.467-1.629-1.02-2.639 1.229-2.774 2.417-5.543 3.533-8.229.424-1.02 1.595-1.504 2.614-1.079 1.02.424 1.503 1.594 1.079 2.614-1.127 2.715-2.328 5.512-3.568 8.313-.33.748-1.061 1.192-1.829 1.192z" fill="#c2ace5"/></g></g></g></g><g><g><g><g><path d="m3.42 74.063 104.478 56.885-.361-113.1z" fill="#f955af"/></g></g></g><g><g><g><path d="m3.42 74.063 104.116-56.215.042 12.949-92.196 49.779z" fill="#ef009f"/></g></g></g><g><g><g><path d="m94.06 97.297c-.002 0-.004 0-.007 0l-25.771-.083c-1.104-.004-1.997-.902-1.993-2.007.004-1.102.898-1.993 2-1.993h.007l25.771.083c1.104.004 1.997.902 1.993 2.007-.004 1.101-.899 1.993-2 1.993z" fill="#fff"/></g></g></g><g><g><g><path d="m93.717 55.604c-.002 0-.004 0-.007 0l-25.082-.081c-1.104-.004-1.997-.902-1.993-2.007.004-1.102.898-1.993 2-1.993h.007l25.082.081c1.104.004 1.997.902 1.993 2.007-.004 1.101-.899 1.993-2 1.993z" fill="#fff"/></g></g></g><g><g clip-path="url(#SVGID_2_)"><g><g><path d="m108.516 76.4c-.002 0-.004 0-.007 0l-106.516-.341c-1.104-.004-1.997-.902-1.993-2.007.004-1.102.898-1.993 2-1.993h.007l106.515.341c1.104.004 1.997.901 1.993 2.007-.003 1.102-.898 1.993-1.999 1.993z" fill="#fff"/></g></g></g></g></g><g><g><g><g><g><path d="m436.082 453.113h-272.318c-4.418 0-8-3.582-8-8v-398.62c0-4.418 3.582-8 8-8h272.318c4.418 0 8 3.582 8 8v398.62c0 4.418-3.582 8-8 8z" fill="#131c46"/></g></g></g><g><g><g><path d="m104.649 113.679h390.547v264.247h-390.547z" fill="#fff" transform="matrix(0 1 -1 0 545.726 -54.12)"/></g></g></g><g><g><g><g><g><path d="m249.137 369.626h36.935v71.542h-36.935z" fill="#f955af"/></g></g></g><g><g><g><path d="m249.137 369.626h11.315v71.542h-11.315z" fill="#ef009f"/></g></g></g></g><g><g><g><path d="m184.501 350.723h36.935v90.445h-36.935z" fill="#ffc31a"/></g></g></g><g><g><g><path d="m184.501 350.723h11.315v90.445h-11.315z" fill="#ffaf00"/></g></g></g><g><g><g><path d="m378.409 341.314h36.935v99.855h-36.935z" fill="#865acc"/></g></g></g><g><g><g><g><path d="m378.409 341.314h11.315v99.854h-11.315z" fill="#6a42ba"/></g></g></g></g><g><g><g><path d="m313.773 322.406h36.935v118.763h-36.935z" fill="#61ceac"/></g></g></g><g><g><g><path d="m313.773 322.406h11.315v118.763h-11.315z" fill="#52c1a1"/></g></g></g><path d="m416.526 259.739-21.962-.96c-.029-.001-.059-.002-.089-.002-1.063 0-1.949.839-1.996 1.913-.048 1.104.808 2.037 1.911 2.085l16.318.713-35.726 25.384-33.881-26.666c-.689-.542-1.649-.57-2.37-.077l-62.702 43.104-26.675-21.272c-.693-.552-1.664-.584-2.391-.077l-65.232 45.464c-.906.632-1.129 1.878-.497 2.784.389.558 1.011.856 1.643.856.395 0 .793-.116 1.142-.359l64.009-44.61 26.667 21.266c.688.548 1.654.583 2.38.085l62.71-43.108 33.899 26.681c.698.55 1.673.572 2.396.059l36.793-26.143-5.415 15.292c-.833 2.486 2.84 3.806 3.771 1.336l7.458-21.063c.414-1.881-1.419-2.708-2.161-2.685z" fill="#131c46"/></g><g><g><g><path d="m226.43 11.887h146.986v52.764h-146.986z" fill="#61ceac"/></g></g></g><g><g><g><g><path d="m237.745 11.888h-11.315v52.764h146.985v-11.315h-107.383c-15.623 0-28.287-12.665-28.287-28.287z" fill="#52c1a1"/></g></g></g></g><g><g><g><g><g><path d="m212.371 146.259h-.15c-13.807 0-25-11.193-25-25v-.15c0-13.807 11.193-25 25-25h.15c13.807 0 25 11.193 25 25v.15c0 13.807-11.192 25-25 25z" fill="#e2d2f7"/></g></g></g><g><g><g><path d="m415.815 104.34h-146.986c-1.104 0-2-.896-2-2s.896-2 2-2h146.986c1.104 0 2 .896 2 2s-.895 2-2 2z" fill="#e2d2f7"/></g></g></g><g><g><g><path d="m415.815 142.028h-146.986c-1.104 0-2-.896-2-2s.896-2 2-2h146.986c1.104 0 2 .896 2 2s-.895 2-2 2z" fill="#e2d2f7"/></g></g></g></g><g><g><g><g><path d="m212.371 231.059h-.15c-13.807 0-25-11.193-25-25v-.15c0-13.807 11.193-25 25-25h.15c13.807 0 25 11.193 25 25v.15c0 13.807-11.192 25-25 25z" fill="#e2d2f7"/></g></g></g><g><g><g><path d="m415.815 189.14h-146.986c-1.104 0-2-.896-2-2s.896-2 2-2h146.986c1.104 0 2 .896 2 2s-.895 2-2 2z" fill="#e2d2f7"/></g></g></g><g><g><g><path d="m415.815 226.828h-146.986c-1.104 0-2-.896-2-2s.896-2 2-2h146.986c1.104 0 2 .896 2 2s-.895 2-2 2z" fill="#e2d2f7"/></g></g></g></g></g></g><g><g><g><g><g><g><g><g><path d="m164.658 424.118c1.134-41.19-7.18-84.969-7.18-84.969l-49.126-1.134s-5.668 25.319-3.401 48.353c1.358 13.794 10.126 44.402 16.943 69.744h42.266c.026-10.345.163-19.835.498-31.994z" fill="#131c46"/></g></g></g></g><g><g><g><g><path d="m98.782 338.016-49.126 1.134s-8.314 43.778-7.18 84.969c.335 12.159.471 21.65.498 28.995h42.266c6.817-22.342 15.585-52.95 16.943-66.744 2.267-23.035-3.401-48.354-3.401-48.354z" fill="#131c46"/></g></g></g></g><g><g><g><g><path d="m60.97 339.149 37.868-.874c-.036-.166-.057-.26-.057-.26l-49.126 1.134s-8.314 43.778-7.18 84.969c.335 12.159.471 21.65.498 28.995h11.315c-.027-7.345-.164-16.836-.498-28.995-1.133-41.19 7.18-84.969 7.18-84.969z" fill="#0b1226"/></g></g></g></g></g></g><g><g><g><path d="m150.104 283.56s-101.519-8.42-98.391 13.953c3.127 22.373-7.217 63.99-7.217 63.99s59.4 31.033 118.799 0c0 0-10.344-41.618-7.217-63.99 3.127-22.373-98.391-23.382-98.391-23.382" fill="#865acc"/></g></g></g><g><g><g><path d="m143.928 203.978h-78.225c-6.674 0-12.085 5.411-12.085 12.085v57.682c0 6.674 5.411 12.085 12.085 12.085h78.225c6.674 0 12.085-5.411 12.085-12.085v-57.682c0-6.674-5.41-12.085-12.085-12.085z" fill="#865acc"/></g></g></g><g><g><g><path d="m147.418 244.688s-4.09 24.057 0 32.236l-46.189 7.698-16.358 5.052c22.777 14.425 52.891 19.566 64.586 21.093 2.896.378 5.764.9 8.635 1.438 35.554 6.652 23.91-51.395 14.743-84.031-3.66-13.031-14.021-23.094-27.152-26.375l-30.54-7.629h-8.62" fill="#865acc"/></g></g></g><g><g><g><g><path d="m65.465 246.582v23.094s38.491-2.566 59.66-8.019c20.36-5.244 25.266 1.453 24.185 13.957-.076.88-.74 1.596-1.615 1.716-1.983.271-5.74.802-9.702 1.448-4.601.751-9.014 2.361-13.027 4.734-6.556 3.877-22.651 11.224-60.785 21.127-40.754 10.582-37.094-40.792-31.293-72.355 2.581-14.043 12.868-25.419 26.582-29.393l28.547-8.271 18.637-.422" fill="#865acc"/></g></g></g></g><g><g><g><path d="m135.339 273.14c-6.556 3.877-22.651 11.224-60.785 21.126-40.754 10.583-37.094-40.791-31.293-72.354.945-5.143 2.933-9.922 5.735-14.117-8.32 5.574-14.239 14.325-16.107 24.489-5.801 31.563-9.46 82.937 31.293 72.355 38.134-9.902 54.229-17.25 60.785-21.126 4.013-2.373 8.425-3.983 13.027-4.734 3.962-.647 7.719-1.177 9.702-1.448.875-.12 1.539-.836 1.615-1.715.237-2.74.186-5.202-.252-7.319-.231.037-.46.073-.693.111-4.602.749-9.014 2.359-13.027 4.732z" fill="#6a42ba"/></g></g></g></g><g><g><g><g><path d="m102.201 213.651h-.087c-8.014 0-14.51-6.497-14.51-14.51v-19.178c0-.259.21-.468.468-.468h28.172c.259 0 .468.21.468.468v19.178c0 8.013-6.497 14.51-14.511 14.51z" fill="#f9a395"/></g></g></g><g><g><g><path d="m74.694 111.714v50.447c0 15.168 12.296 27.465 27.464 27.465 15.168 0 27.464-12.297 27.464-27.465v-50.447z" fill="#ffc0b3"/></g></g></g><g><g><g><path d="m74.776 133.811s.532-10.645 10.645-10.512c2.541.034 5.538.582 8.27 1.246 6.073 1.476 12.429 1.428 18.459-.217 2.066-.564 4.239-.996 6.748-1.029 10.112-.133 10.645 10.512 10.645 10.512v14.137l6.707 1.819c5.137-10.988 12.871-33.978-3.285-48.848-7.557-6.955-19.957-11.338-30.174-10.781-8.682.473-20.659 4.648-27.264 14.162-.861-1.639-3.011-2.044-4.403-.831-16.71 14.563-7.364 35.875-1.841 45.366l5.494-.886v-14.138z" fill="#333"/></g></g></g><g><g><g><path d="m81.152 105.473c1.392-1.213 3.542-.808 4.403.832 6.605-9.514 18.581-13.688 27.264-14.162 1.482-.081 3.013-.046 4.566.074-4.878-1.56-9.96-2.333-14.596-2.08-8.682.474-20.659 4.648-27.264 14.162-.861-1.639-3.011-2.044-4.403-.832-16.71 14.563-7.364 35.875-1.841 45.366l5.494-.886v-6.534c-4.077-10.647-6.009-25.145 6.377-35.94z" fill="#212121"/></g></g></g><g><g><g><g><path d="m126.67 152.141s4.667-7.368 7.426-4.95c6.868 6.021-.926 22.3-6.791 18.435" fill="#ffc0b3"/></g></g></g><g><g><g><path d="m77.646 152.141s-4.667-7.368-7.426-4.95c-6.868 6.021.926 22.3 6.791 18.435" fill="#ffc0b3"/></g></g></g></g></g><g><g><g><path d="m143.887 271.633c-1.031 0-1.906-.792-1.991-1.837-.854-10.451 1.562-24.836 1.665-25.443.186-1.089 1.221-1.821 2.307-1.637 1.089.185 1.821 1.218 1.637 2.307-.024.144-2.434 14.503-1.622 24.447.09 1.102-.729 2.066-1.83 2.156-.057.005-.112.007-.166.007z" fill="#6a42ba"/></g></g></g><g><g><g><g><path d="m125.125 261.628c-13.017 3.353-32.579 5.614-45.719 6.858s-5.25 15.486 2.409 31.286c25.698-7.469 37.713-13.074 43.151-16.29 4.013-2.373 8.425-3.983 13.027-4.734 3.962-.647 7.719-1.177 9.702-1.448.875-.12 1.539-.836 1.615-1.715 1.081-12.504-3.825-19.201-24.185-13.957z" fill="#ffc0b3"/></g></g></g></g><g><g><g><path d="m124.966 283.482c4.013-2.373 8.425-3.983 13.027-4.734 3.962-.647 7.719-1.177 9.702-1.448 3.12-1.222 1.447-6.369 1.363-9.005-.231.037-.46.073-.693.111-4.601.75-9.014 2.36-13.027 4.734-6.278 3.713-21.319 10.61-56.072 19.884.621 2.214 1.448 4.477 2.549 6.749 25.698-7.469 37.714-13.075 43.151-16.291z" fill="#f9a395"/></g></g></g><g><g><g><path d="m147.418 244.688s-4.09 24.057 0 32.236c0 0-15.663 3.137-18.456 4.509s-15.312 8.654-33.428 14.127c0 0 25.147 11.339 49.038 14.737 3.746.533 7.469 1.191 11.177 1.943 8.92 1.811 28.189 2.183 26.504-29.053-2.171-40.254-13.447-64.316-13.447-64.316" fill="#865acc"/></g></g></g><g><g><g><path d="m65.465 271.647c-1.072.022-2.022-.926-2-2v-23.095c0-1.104.896-2 2-2s2 .896 2 2v20.942c2.193-.165 5.795-.445 9.488-.771 1.114-.083 2.071.717 2.168 1.816.098 1.1-.716 2.07-1.816 2.168-5.938.524-11.642.931-11.698.935-.048.004-.095.005-.142.005z" fill="#6a42ba"/></g></g></g><g><g><g><g><path d="m135.664 279.49c-3.015.724-5.696 1.448-6.702 1.942-2.793 1.371-15.312 8.654-33.428 14.127 0 0 18.011 8.12 38.028 12.676 7.801-8.851 2.102-28.745 2.102-28.745z" fill="#ffc0b3"/></g></g></g></g></g></g></g></svg>