<svg width="60" height="60" viewBox="0 0 60 60" fill="none" xmlns="http://www.w3.org/2000/svg">
<mask id="mask0_151_98" style="mask-type:luminance" maskUnits="userSpaceOnUse" x="0" y="0" width="60" height="60">
<path d="M60 0H0V60H60V0Z" fill="white"/>
</mask>
<g mask="url(#mask0_151_98)">
<path d="M33.3526 35.3548C32.4768 35.3548 31.6611 35.1114 30.906 34.6248C30.1509 34.1381 29.6525 33.4386 29.4109 32.5261L23.7928 15.3722C23.4908 14.5206 23.4983 13.6614 23.8155 12.7946C24.1326 11.9277 24.6536 11.2206 25.3785 10.6731L39.4691 0.727512C39.8014 0.484195 40.1714 0.301706 40.5791 0.180048C40.9869 0.0583879 41.3871 -0.00244141 41.7799 -0.00244141C42.1725 -0.00244141 42.5728 0.0583879 42.9805 0.180048C43.3883 0.301706 43.7885 0.484195 44.1811 0.727512L58.2264 10.6731C58.9211 11.2206 59.427 11.9277 59.7441 12.7946C60.0614 13.6614 60.084 14.5206 59.8121 15.3722L54.194 32.5261C53.9223 33.4386 53.4163 34.1381 52.6763 34.6248C51.9363 35.1114 51.1283 35.3548 50.2523 35.3548H33.3526Z" fill="#00B7AF"/>
<path d="M24.75 50L12.375 42.7812V28.3437L19.5938 24.1156V36.5937H29.9062V24.1156L37.125 28.3437V42.7812L24.75 50ZM7.21875 27.3125L0 23.1875V14.9375L7.21875 10.8125L14.4375 14.9375V23.1875L7.21875 27.3125ZM22.6875 33.5V8.75H41.25L37.125 14.9375L41.25 21.125H26.8125V33.5H22.6875Z" fill="#1D1068"/>
</g>
</svg>
