<svg enable-background="new 0 0 64 64" height="512" viewBox="0 0 64 64" width="512" xmlns="http://www.w3.org/2000/svg"><g id="Icons"><g><g><path d="m48 26v-4.859c-4.273-1.884-6.649-6.384-5.84-10.955.135-.761.36-1.493.66-2.186h-26.82c-2.209 0-4 1.791-4 4v40 4c0 2.209 1.791 4 4 4h32c2.209 0 4-1.791 4-4v-26c-2.206 0-4-1.794-4-4z" fill="#fa6450"/></g><g><path d="m16 56v-4-40c0-2.209 1.791-4 4-4h-4c-2.209 0-4 1.791-4 4v40 4c0 2.209 1.791 4 4 4h4c-2.209 0-4-1.791-4-4z" fill="#dc4632"/></g><g><path d="m48 52h-31c-1.657 0-3 1.343-3 3s1.343 3 3 3h31c2.209 0 4-1.791 4-4v-6c0 2.209-1.791 4-4 4z" fill="#f0f0f0"/></g><g><path d="m48 54h-33.816c-.112.314-.184.647-.184 1s.072.686.184 1h33.816c2.209 0 4-1.791 4-4v-2c0 2.209-1.791 4-4 4z" fill="#d2d2d2"/></g><g><path d="m60 12c0-4.945-4.487-8.842-9.611-7.843-3.166.618-5.695 3.202-6.259 6.378-.686 3.868 1.411 7.339 4.621 8.767.741.33 1.249 1.028 1.249 1.838v2.86h4v-2.861c0-.81.508-1.507 1.248-1.836 2.799-1.245 4.752-4.042 4.752-7.303z" fill="#fab400"/></g><g><path d="m50.751 19.302c-3.21-1.427-5.307-4.898-4.621-8.767.563-3.176 3.092-5.76 6.258-6.378.21-.041.418-.061.625-.086-.842-.107-1.723-.09-2.625.086-3.166.617-5.695 3.202-6.258 6.378-.686 3.868 1.411 7.339 4.621 8.767.741.33 1.249 1.028 1.249 1.839v2.859h2v-2.859c0-.811-.508-1.509-1.249-1.839z" fill="#dc9600"/></g><g><path d="m54 24h-4v2c0 1.105.895 2 2 2s2-.895 2-2z" fill="#f0f0f0"/></g><g><path d="m52 26v-2h-2v2c0 1.105.895 2 2 2 .366 0 .705-.106 1-.277-.595-.347-1-.985-1-1.723z" fill="#d2d2d2"/></g><g><path d="m50 22h4v2h-4z" fill="#505050"/></g><g><path d="m50 22h2v2h-2z" fill="#3c3c3c"/></g><g><path d="m52 15.143-3.103 1.632.593-3.455-2.51-2.447 3.469-.504 1.551-3.144 1.551 3.144 3.469.504-2.51 2.447.593 3.455z" fill="#f0f0f0"/></g><g><path d="m32 44c-6.627 0-12-5.373-12-12s5.373-12 12-12 12 5.373 12 12-5.373 12-12 12z" fill="#3cc8b4"/></g><g><path d="m22 32c0-6.29 4.842-11.44 11-11.95-.331-.027-.662-.05-1-.05-6.627 0-12 5.373-12 12s5.373 12 12 12c.338 0 .669-.023 1-.05-6.158-.51-11-5.66-11-11.95z" fill="#1eaa96"/></g><g><path d="m34 38v-8h-6v2h2v6h-2v2h8v-2z" fill="#f0f0f0"/></g><g><path d="m32 28c-1.105 0-2-.895-2-2s.895-2 2-2 2 .895 2 2-.895 2-2 2z" fill="#f0f0f0"/></g></g></g></svg>