<svg width="54" height="62" viewBox="0 0 54 62" fill="none" xmlns="http://www.w3.org/2000/svg">
<path d="M22.0293 33.7789L22.0609 33.7655M22.3918 33.6072L51.607 4.354V33.6072H22.3918Z" stroke="#00B7AF" stroke-width="3.42857"/>
<path d="M1.83454 58.2223C2.41008 58.2223 2.8687 58.4112 3.21044 58.7888C3.55216 59.1666 3.72303 59.6252 3.72303 60.1648C3.72303 60.6683 3.53418 61.1001 3.15648 61.4597C2.77878 61.8195 2.33813 61.9993 1.83454 61.9993C1.25899 61.9993 0.809353 61.8105 0.485611 61.4328C0.16187 61.0551 0 60.6145 0 60.1108C0 59.6072 0.179856 59.1666 0.539569 58.7888C0.89928 58.4112 1.33094 58.2223 1.83454 58.2223ZM11.3309 58.2223C11.8705 58.2223 12.3112 58.4112 12.6529 58.7888C12.9946 59.1666 13.1655 59.6252 13.1655 60.1648C13.1655 60.6683 12.9856 61.1001 12.6259 61.4597C12.2662 61.8195 11.8345 61.9993 11.3309 61.9993C10.7914 61.9993 10.3417 61.8105 9.98201 61.4328C9.6223 61.0551 9.44245 60.6145 9.44245 60.1108C9.44245 59.6072 9.6223 59.1666 9.98201 58.7888C10.3417 58.4112 10.7914 58.2223 11.3309 58.2223ZM20.7734 58.2223C21.313 58.2223 21.7626 58.4112 22.1222 58.7888C22.482 59.1666 22.6619 59.6072 22.6619 60.1108C22.6619 60.6505 22.473 61.1001 22.0954 61.4597C21.7176 61.8195 21.259 61.9993 20.7194 61.9993C20.2159 61.9993 19.7931 61.8105 19.4515 61.4328C19.1098 61.0551 18.9389 60.6145 18.9389 60.1108C18.9389 59.6072 19.1187 59.1666 19.4784 58.7888C19.8381 58.4112 20.2698 58.2223 20.7734 58.2223ZM30.2697 58.2223C30.8094 58.2223 31.25 58.4112 31.5917 58.7888C31.9335 59.1666 32.1044 59.6072 32.1044 60.1108C32.1044 60.6505 31.9245 61.1001 31.5648 61.4597C31.205 61.8195 30.7554 61.9993 30.2159 61.9993C29.7123 61.9993 29.2806 61.8105 28.9209 61.4328C28.5611 61.0551 28.3812 60.6145 28.3812 60.1108C28.3812 59.6072 28.5611 59.1666 28.9209 58.7888C29.2806 58.4112 29.7302 58.2223 30.2697 58.2223ZM39.7123 58.2223C40.2518 58.2223 40.7014 58.4112 41.0611 58.7888C41.4209 59.1666 41.6008 59.6072 41.6008 60.1108C41.6008 60.6505 41.4119 61.1001 41.0341 61.4597C40.6565 61.8195 40.2159 61.9993 39.7123 61.9993C39.1726 61.9993 38.723 61.8105 38.3632 61.4328C38.0036 61.0551 37.8238 60.6145 37.8238 60.1108C37.8238 59.6072 38.0036 59.1666 38.3632 58.7888C38.723 58.4112 39.1726 58.2223 39.7123 58.2223ZM9.71223 50.5066C10.3597 50.5066 10.9353 50.7673 11.4389 51.2888C11.9425 51.8105 12.1942 52.431 12.1942 53.1505C12.1942 53.8698 11.9514 54.4633 11.4658 54.931C10.9802 55.3986 10.3777 55.6325 9.65828 55.6325H2.48201C1.79856 55.6325 1.21403 55.3806 0.728417 54.8771C0.242806 54.3735 0 53.78 0 53.0965C0 52.3771 0.242806 51.7655 0.728417 51.262C1.21403 50.7583 1.81655 50.5066 2.53597 50.5066H9.71223ZM24.3885 50.5066C25.072 50.5066 25.6565 50.7673 26.1421 51.2888C26.6278 51.8105 26.8705 52.431 26.8705 53.1505C26.8705 53.8698 26.6278 54.4633 26.1421 54.931C25.6565 55.3986 25.054 55.6325 24.3345 55.6325H17.1582C16.4749 55.6325 15.8902 55.3806 15.4046 54.8771C14.9191 54.3735 14.6763 53.78 14.6763 53.0965C14.6763 52.3771 14.9191 51.7655 15.4046 51.262C15.8902 50.7583 16.4928 50.5066 17.2123 50.5066H24.3885ZM39.0648 50.5066C39.7483 50.5066 40.3418 50.7673 40.8454 51.2888C41.3489 51.8105 41.6008 52.431 41.6008 53.1505C41.6008 53.8698 41.3489 54.4633 40.8454 54.931C40.3418 55.3986 39.7302 55.6325 39.0107 55.6325H31.8885C31.205 55.6325 30.6115 55.3806 30.1079 54.8771C29.6044 54.3735 29.3525 53.78 29.3525 53.0965C29.3525 52.3771 29.5954 51.7655 30.0809 51.262C30.5665 50.7583 31.187 50.5066 31.9425 50.5066H39.0648ZM16.7266 42.8447C17.3381 42.8447 17.8956 43.1055 18.3993 43.6271C18.9029 44.1486 19.1546 44.7331 19.1546 45.3806C19.1546 46.1001 18.9119 46.7026 18.4263 47.1882C17.9406 47.6738 17.3561 47.9166 16.6726 47.9166H2.48201C1.79856 47.9166 1.21403 47.6648 0.728417 47.1612C0.242806 46.6576 0 46.0281 0 45.2727C0 44.6252 0.242806 44.0587 0.728417 43.5731C1.21403 43.0875 1.81655 42.8447 2.53597 42.8447H16.7266ZM39.1188 42.8447C39.7303 42.8447 40.2968 43.1055 40.8184 43.6271C41.3399 44.1486 41.6008 44.7331 41.6008 45.3806C41.6008 46.1001 41.3399 46.7026 40.8184 47.1882C40.2968 47.6738 39.7123 47.9166 39.0648 47.9166H24.8741C24.1906 47.9166 23.6061 47.6648 23.1205 47.1612C22.6349 46.6576 22.3921 46.0281 22.3921 45.2727C22.3921 44.6252 22.6349 44.0587 23.1205 43.5731C23.6061 43.0875 24.2086 42.8447 24.928 42.8447H39.1188ZM39.0648 21.4238C39.7841 21.4238 40.3867 21.6576 40.8722 22.1252C41.3579 22.5928 41.6008 23.1683 41.6008 23.8518V37.1792C41.6008 37.8626 41.3579 38.4382 40.8722 38.9058C40.3867 39.3735 39.7841 39.6072 39.0648 39.6072H2.48201C1.76259 39.6072 1.16907 39.3735 0.701439 38.9058C0.233813 38.4382 0 37.8626 0 37.1792V23.8518C0 23.1683 0.233813 22.5928 0.701439 22.1252C1.16907 21.6576 1.76259 21.4238 2.48201 21.4238H39.0648Z" fill="#1D1068"/>
</svg>
