<svg width="60" height="60" viewBox="0 0 60 60" fill="none" xmlns="http://www.w3.org/2000/svg">
<mask id="mask0_151_47" style="mask-type:luminance" maskUnits="userSpaceOnUse" x="0" y="0" width="60" height="60">
<path d="M60 0H0V60H60V0Z" fill="white"/>
</mask>
<g mask="url(#mask0_151_47)">
<path d="M24.1197 21.1916C23.4592 20.5311 23.1289 19.7402 23.1289 18.8191C23.1289 17.8979 23.4592 17.107 24.1197 16.4465L39.2417 1.32444C39.9195 0.64656 40.7192 0.307617 41.6404 0.307617C42.5615 0.307617 43.3524 0.637868 44.0129 1.29837L59.135 16.4204C59.8129 17.0982 60.1518 17.8979 60.1518 18.8191C60.1518 19.7402 59.8129 20.5399 59.135 21.2177L44.0129 36.3397C43.3524 37.0002 42.5615 37.3305 41.6404 37.3305C40.7192 37.3305 39.9195 36.9916 39.2417 36.3137L24.1197 21.1916Z" fill="#00B7AF"/>
<path d="M1.83453 56.2223C2.41007 56.2223 2.8687 56.4112 3.21043 56.7888C3.55215 57.1666 3.72302 57.6252 3.72302 58.1648C3.72302 58.6683 3.53417 59.1001 3.15648 59.4597C2.77878 59.8195 2.33813 59.9993 1.83453 59.9993C1.25899 59.9993 0.809355 59.8105 0.485618 59.4328C0.16187 59.0551 0 58.6145 0 58.1108C0 57.6072 0.179856 57.1666 0.539567 56.7888C0.89928 56.4112 1.33093 56.2223 1.83453 56.2223ZM11.3309 56.2223C11.8706 56.2223 12.3112 56.4112 12.6529 56.7888C12.9946 57.1666 13.1654 57.6252 13.1654 58.1648C13.1654 58.6683 12.9856 59.1001 12.6259 59.4597C12.2662 59.8195 11.8346 59.9993 11.3309 59.9993C10.7914 59.9993 10.3417 59.8105 9.98202 59.4328C9.6223 59.0551 9.44244 58.6145 9.44244 58.1108C9.44244 57.6072 9.6223 57.1666 9.98202 56.7888C10.3417 56.4112 10.7914 56.2223 11.3309 56.2223ZM20.7734 56.2223C21.3129 56.2223 21.7626 56.4112 22.1223 56.7888C22.4821 57.1666 22.6619 57.6072 22.6619 58.1108C22.6619 58.6505 22.4731 59.1001 22.0953 59.4597C21.7177 59.8195 21.2591 59.9993 20.7194 59.9993C20.2158 59.9993 19.7932 59.8105 19.4514 59.4328C19.1097 59.0551 18.9388 58.6145 18.9388 58.1108C18.9388 57.6072 19.1187 57.1666 19.4784 56.7888C19.8382 56.4112 20.2698 56.2223 20.7734 56.2223ZM30.2698 56.2223C30.8093 56.2223 31.2501 56.4112 31.5917 56.7888C31.9334 57.1666 32.1043 57.6072 32.1043 58.1108C32.1043 58.6505 31.9244 59.1001 31.5648 59.4597C31.2051 59.8195 30.7554 59.9993 30.2158 59.9993C29.7122 59.9993 29.2806 59.8105 28.9208 59.4328C28.5612 59.0551 28.3813 58.6145 28.3813 58.1108C28.3813 57.6072 28.5612 57.1666 28.9208 56.7888C29.2806 56.4112 29.7302 56.2223 30.2698 56.2223ZM39.7122 56.2223C40.2518 56.2223 40.7014 56.4112 41.0612 56.7888C41.4208 57.1666 41.6007 57.6072 41.6007 58.1108C41.6007 58.6505 41.4119 59.1001 41.0342 59.4597C40.6564 59.8195 40.2158 59.9993 39.7122 59.9993C39.1727 59.9993 38.7231 59.8105 38.3633 59.4328C38.0036 59.0551 37.8237 58.6145 37.8237 58.1108C37.8237 57.6072 38.0036 57.1666 38.3633 56.7888C38.7231 56.4112 39.1727 56.2223 39.7122 56.2223ZM9.71223 48.5066C10.3597 48.5066 10.9353 48.7673 11.4389 49.2888C11.9424 49.8105 12.1943 50.431 12.1943 51.1505C12.1943 51.8698 11.9514 52.4633 11.4658 52.931C10.9802 53.3986 10.3777 53.6325 9.65827 53.6325H2.48202C1.79857 53.6325 1.21403 53.3806 0.728418 52.8771C0.242806 52.3735 0 51.78 0 51.0965C0 50.3771 0.242806 49.7655 0.728418 49.262C1.21403 48.7583 1.81654 48.5066 2.53597 48.5066H9.71223ZM24.3884 48.5066C25.0719 48.5066 25.6564 48.7673 26.1421 49.2888C26.6277 49.8105 26.8706 50.431 26.8706 51.1505C26.8706 51.8698 26.6277 52.4633 26.1421 52.931C25.6564 53.3986 25.0539 53.6325 24.3346 53.6325H17.1583C16.4748 53.6325 15.8903 53.3806 15.4047 52.8771C14.9191 52.3735 14.6763 51.78 14.6763 51.0965C14.6763 50.3771 14.9191 49.7655 15.4047 49.262C15.8903 48.7583 16.4928 48.5066 17.2122 48.5066H24.3884ZM39.0648 48.5066C39.7482 48.5066 40.3417 48.7673 40.8453 49.2888C41.3489 49.8105 41.6007 50.431 41.6007 51.1505C41.6007 51.8698 41.3489 52.4633 40.8453 52.931C40.3417 53.3986 39.7302 53.6325 39.0108 53.6325H31.8884C31.2051 53.6325 30.6116 53.3806 30.1079 52.8771C29.6043 52.3735 29.3526 51.78 29.3526 51.0965C29.3526 50.3771 29.5953 49.7655 30.0809 49.262C30.5666 48.7583 31.1871 48.5066 31.9424 48.5066H39.0648ZM16.7267 40.8447C17.3382 40.8447 17.8957 41.1055 18.3993 41.6271C18.9029 42.1486 19.1547 42.7331 19.1547 43.3806C19.1547 44.1001 18.9119 44.7026 18.4263 45.1882C17.9407 45.6738 17.3561 45.9166 16.6727 45.9166H2.48202C1.79857 45.9166 1.21403 45.6648 0.728418 45.1612C0.242806 44.6576 0 44.0281 0 43.2727C0 42.6252 0.242806 42.0587 0.728418 41.5731C1.21403 41.0875 1.81654 40.8447 2.53597 40.8447H16.7267ZM39.1187 40.8447C39.7302 40.8447 40.2968 41.1055 40.8183 41.6271C41.3399 42.1486 41.6007 42.7331 41.6007 43.3806C41.6007 44.1001 41.3399 44.7026 40.8183 45.1882C40.2968 45.6738 39.7122 45.9166 39.0648 45.9166H24.8741C24.1907 45.9166 23.6061 45.6648 23.1206 45.1612C22.6349 44.6576 22.3921 44.0281 22.3921 43.2727C22.3921 42.6252 22.6349 42.0587 23.1206 41.5731C23.6061 41.0875 24.2087 40.8447 24.9281 40.8447H39.1187ZM39.0648 19.4238C39.7842 19.4238 40.3867 19.6576 40.8723 20.1252C41.3579 20.5928 41.6007 21.1683 41.6007 21.8518V35.1792C41.6007 35.8626 41.3579 36.4382 40.8723 36.9058C40.3867 37.3735 39.7842 37.6072 39.0648 37.6072H2.48202C1.76259 37.6072 1.16907 37.3735 0.701442 36.9058C0.233814 36.4382 0 35.8626 0 35.1792V21.8518C0 21.1683 0.233814 20.5928 0.701442 20.1252C1.16907 19.6576 1.76259 19.4238 2.48202 19.4238H39.0648Z" fill="#1D1068"/>
</g>
</svg>
