<svg width="62" height="62" viewBox="0 0 62 62" fill="none" xmlns="http://www.w3.org/2000/svg">
<g id="Baseball">
<g id="Group">
<path id="Vector" d="M42.1344 25.044L46.4432 19.6325C47.7559 17.9839 49.1606 16.4108 50.6507 14.9207L55.3137 10.2578C56.1618 9.40962 57.1492 8.71333 58.2329 8.19917C59.3166 7.685 60.304 6.98859 61.1521 6.14045L61.6347 5.65789C62.1218 5.17073 62.1218 4.38084 61.6347 3.89368L58.1061 0.365126C57.6189 -0.122034 56.8291 -0.122034 56.3419 0.365126L55.8593 0.847685C55.0112 1.69583 54.3149 2.68322 53.8007 3.76689C53.2866 4.85056 52.5902 5.83796 51.742 6.6861L47.0791 11.3491C45.589 12.8391 44.0159 14.2439 42.3673 15.5566L36.9558 19.8653C30.8161 24.7539 24.9573 29.9855 19.4078 35.5351L0.504234 54.4387C-0.168078 55.111 -0.168078 56.201 0.504234 56.8732L5.12663 61.4956C5.79894 62.1679 6.8889 62.1679 7.56109 61.4956L13.2507 55.806C18.8002 50.2565 37.2459 31.1837 42.1344 25.044Z" fill="#B3DAFE"/>
<path id="Vector_2" d="M42.1347 25.0444L46.4434 19.6329C47.7561 17.9843 49.1608 16.4112 50.651 14.9211L55.3139 10.2581C56.1621 9.41001 57.1495 8.71372 58.2331 8.19955C59.3168 7.68539 60.3042 6.98898 61.1523 6.14084L61.6349 5.65828C62.122 5.17112 62.122 4.38122 61.6349 3.89406L58.9886 1.2478C59.4758 1.73496 59.4758 2.52486 58.9886 3.01202L58.5061 3.49458C57.6579 4.34272 54.1242 7.37212 53.276 8.22026L48.6131 12.8832C47.123 14.3733 39.4884 22.3982 39.4884 22.3982C34.5997 28.5379 16.1541 47.6105 10.6045 53.1601L4.91494 58.8497C4.24262 59.522 3.15266 59.522 2.48047 58.8497L5.12673 61.4959C5.79904 62.1683 6.88901 62.1683 7.5612 61.4959L13.2508 55.8064C18.8004 50.2569 37.2461 31.1841 42.1347 25.0444Z" fill="#8AC9FE"/>
<path id="Vector_3" d="M15.1198 27.9262C22.1472 27.9262 27.8441 22.2294 27.8441 15.202C27.8441 8.17452 22.1472 2.47766 15.1198 2.47766C8.09237 2.47766 2.39551 8.17452 2.39551 15.202C2.39551 22.2294 8.09237 27.9262 15.1198 27.9262Z" fill="#F9F7F8"/>
<g id="Group_2">
<path id="Vector_4" d="M15.1199 2.47766V7.11168C13.6462 7.11168 12.2643 7.50547 11.0743 8.19462L8.75684 4.18072C10.6288 3.09778 12.802 2.47766 15.1199 2.47766Z" fill="#FD8087"/>
<path id="Vector_5" d="M21.4829 26.2232C19.6109 27.3062 17.4377 27.9263 15.1196 27.9263V23.2923C16.5933 23.2923 17.9753 22.8985 19.1652 22.2094L21.4829 26.2232Z" fill="#FD8087"/>
<path id="Vector_6" d="M8.11246 11.1562C7.4232 12.3462 7.02952 13.7283 7.02952 15.2019H2.39551C2.39551 12.8839 3.01563 10.7107 4.09857 8.83862L8.11246 11.1562Z" fill="#FD8087"/>
<path id="Vector_7" d="M27.8439 15.202C27.8439 17.52 27.2238 19.6932 26.1408 21.5653L22.127 19.2478C22.8162 18.0578 23.2099 16.6757 23.2099 15.2021L27.8439 15.202Z" fill="#FD8087"/>
<path id="Vector_8" d="M11.0737 22.2095L8.75626 26.2234C6.8253 25.1061 5.21548 23.4963 4.09814 21.5653L8.11204 19.2478C8.82225 20.4757 9.84586 21.4993 11.0737 22.2095Z" fill="#FD8087"/>
<path id="Vector_9" d="M26.1406 8.8389L22.1267 11.1564C21.4165 9.9285 20.3929 8.9049 19.165 8.19468L21.4825 4.18079C23.4135 5.29812 25.0233 6.90794 26.1406 8.8389Z" fill="#FD8087"/>
</g>
<path id="Vector_10" d="M15.1196 23.2922C19.5877 23.2922 23.2098 19.6701 23.2098 15.202C23.2098 10.7338 19.5877 7.11169 15.1196 7.11169C10.6514 7.11169 7.0293 10.7338 7.0293 15.202C7.0293 19.6701 10.6514 23.2922 15.1196 23.2922Z" fill="#FFE177"/>
<path id="Vector_11" d="M15.1198 7.11169C14.4755 7.11169 13.8495 7.18932 13.2485 7.3316C16.814 8.17623 19.4677 11.3782 19.4677 15.202C19.4677 19.0257 16.8141 22.2277 13.2485 23.0723C13.8494 23.2147 14.4753 23.2922 15.1198 23.2922C19.5879 23.2922 23.2102 19.6701 23.2102 15.202C23.2102 10.7339 19.588 7.11169 15.1198 7.11169Z" fill="#FFD15B"/>
<path id="Vector_12" d="M46.4431 19.6329C47.7557 17.9843 49.1604 16.4112 50.6506 14.9211L55.3136 10.2582C55.5913 9.98039 55.8855 9.72065 56.1917 9.47652L52.5237 5.80847C52.2795 6.1146 52.0198 6.40873 51.742 6.68652L47.0791 11.3495C45.589 12.8395 44.0159 14.2443 42.3673 15.557L37.7339 19.2462L42.754 24.2663L46.4431 19.6329Z" fill="#D7D0D6"/>
<path id="Vector_13" d="M46.4433 19.633C47.756 17.9844 49.1606 16.4113 50.6508 14.9212L55.3138 10.2582C55.5916 9.98045 55.8857 9.7207 56.192 9.47658L54.1354 7.42004C53.7615 7.75777 53.4571 8.03907 53.2758 8.22023L48.6128 12.8832C47.395 14.101 42.0742 19.6824 40.1699 21.6821L42.7542 24.2664L46.4433 19.633Z" fill="#C9BFC8"/>
</g>
</g>
</svg>
