<svg width="131" height="131" viewBox="0 0 131 131" fill="none" xmlns="http://www.w3.org/2000/svg">
<circle cx="65.5" cy="65.5" r="65.5" fill="#150281" fill-opacity="0.85"/>
<path d="M48.2955 75.408C47.9173 75.408 47.5326 75.3155 47.1791 75.1175C46.0652 74.5005 45.6649 73.0967 46.2837 71.9845L55.3019 55.5966C55.9189 54.4869 57.3228 54.0776 58.4349 54.7012C59.5488 55.3176 59.9497 56.722 59.331 57.8341L50.3121 74.222C49.8913 74.98 49.1063 75.408 48.2955 75.408Z" fill="#A8EBFA"/>
<path d="M82.3713 75.408C81.561 75.408 80.7754 74.98 80.3546 74.222L71.3358 57.8341C70.717 56.722 71.1179 55.3176 72.2318 54.7012C73.3458 54.0776 74.7478 54.4869 75.3648 55.5966L84.3831 71.9845C85.0018 73.0961 84.6015 74.5005 83.4876 75.1175C83.1341 75.3155 82.7494 75.408 82.3713 75.408Z" fill="#76E2F8"/>
<path d="M76.8569 83.9246C76.8569 85.2149 75.8432 86.2292 74.5523 86.2292H56.1147C54.8238 86.2292 53.8101 85.2149 53.8101 83.9246C53.8101 82.6336 54.8238 81.6199 56.1147 81.6199H74.5523C75.8432 81.6199 76.8569 82.6336 76.8569 83.9246Z" fill="#A8EBFA"/>
<path d="M76.8569 83.9246C76.8569 85.2149 75.8432 86.2292 74.5522 86.2292H65.3335V81.6199H74.5522C75.8432 81.6199 76.8569 82.6336 76.8569 83.9246Z" fill="#76E2F8"/>
<path d="M104.344 77.1948L96.4468 77.0105L88.3804 86.2293L83.771 95.2175L88.3804 104.667C88.7951 104.667 89.1636 104.574 89.5327 104.344L103.561 96.1394C103.653 96.0932 103.745 96.0014 103.837 95.9552C104.344 95.4942 104.667 94.8028 104.667 94.1576V78.3471C104.667 77.9324 104.574 77.5176 104.344 77.1948Z" fill="#5A69E6"/>
<path d="M80.314 77.0105L72.5705 77.1948C72.34 77.5639 72.2476 77.9324 72.2476 78.3471V94.157C72.2476 94.8028 72.5705 95.4942 73.077 95.9552C73.1694 96.0008 87.228 104.344 87.228 104.344C87.5971 104.574 87.9657 104.667 88.3804 104.667V86.2293L80.314 77.0105Z" fill="#7984EB"/>
<path d="M104.344 77.1948L88.3802 86.2293L72.5703 77.1948C72.6159 77.1491 72.6621 77.0567 72.7084 77.0105C72.8926 76.7338 73.1231 76.5496 73.3998 76.3653L87.2279 68.1146C87.597 67.8842 88.0111 67.7917 88.3802 67.7917C88.7493 67.7917 89.1635 67.8842 89.5326 68.1146L103.514 76.3653C103.791 76.5496 104.022 76.78 104.206 77.0105C104.252 77.0567 104.298 77.1491 104.344 77.1948Z" fill="#979FEF"/>
<path d="M58.0965 77.1948L50.353 77.0105L42.2866 86.2293L37.6772 95.2175L42.2866 104.667C42.7013 104.667 43.0699 104.574 43.439 104.344L57.3133 96.1394C57.4057 96.0932 57.4976 96.0014 57.59 95.9552C58.0965 95.4942 58.4194 94.8028 58.4194 94.1576V78.3471C58.4194 77.9324 58.327 77.5176 58.0965 77.1948Z" fill="#5A69E6"/>
<path d="M34.2201 77.0105L26.3229 77.1948C26.0924 77.5639 26 77.9324 26 78.3471V94.157C26 94.8028 26.3229 95.4942 26.8294 95.9552C26.9219 96.0008 41.1341 104.344 41.1341 104.344C41.5032 104.574 41.8717 104.667 42.2865 104.667V86.2293L34.2201 77.0105Z" fill="#7984EB"/>
<path d="M58.0962 77.1948L42.2863 86.2293L26.3228 77.1948C26.3684 77.1491 26.4146 77.0567 26.4608 77.0105C26.6451 76.7338 26.8755 76.5496 27.1522 76.3653L41.134 68.1146C41.5031 67.8842 41.9172 67.7917 42.2863 67.7917C42.6554 67.7917 43.0696 67.8842 43.4387 68.1146L57.2668 76.3653C57.5435 76.5496 57.7739 76.78 57.9582 77.0105C58.0044 77.0567 58.05 77.1491 58.0962 77.1948Z" fill="#B5BAF3"/>
<path d="M81.1434 35.5566L73.3999 35.3723L65.3335 44.5911L60.7241 53.5794L65.3335 63.0286C65.7482 63.0286 66.1167 62.9361 66.4858 62.7057L80.3602 54.5012C80.4526 54.455 80.5444 54.3632 80.6369 54.317C81.1434 53.856 81.4663 53.1646 81.4663 52.5194V36.7089C81.4663 36.2942 81.3739 35.8795 81.1434 35.5566Z" fill="#5A69E6"/>
<path d="M57.2671 35.3723L49.5236 35.5566C49.2931 35.9257 49.2007 36.2942 49.2007 36.7089V52.5188C49.2007 53.1646 49.5236 53.856 50.0301 54.317C50.1226 54.3626 64.1812 62.7057 64.1812 62.7057C64.5503 62.9361 64.9188 63.0286 65.3335 63.0286V44.5911L57.2671 35.3723Z" fill="#7984EB"/>
<path d="M81.1433 35.5567L65.3334 44.5912L49.5234 35.5567C49.5691 35.511 49.6153 35.4186 49.6615 35.3724C49.8457 35.0957 50.0762 34.9115 50.3529 34.7272L64.181 26.3229C64.5501 26.0924 64.9642 26 65.3334 26C65.7025 26 66.1166 26.0924 66.4857 26.3229L80.3138 34.7272C80.5905 34.9115 80.821 35.1419 81.0052 35.3724C81.0515 35.4186 81.0971 35.511 81.1433 35.5567Z" fill="#B5BAF3"/>
<path d="M81.1434 35.5567L65.3335 44.5912V26C65.7026 26 66.1167 26.0924 66.4858 26.3229L80.314 34.7272C80.5907 34.9115 80.8211 35.1419 81.0054 35.3724C81.0516 35.4186 81.0972 35.511 81.1434 35.5567Z" fill="#979FEF"/>
</svg>
