<svg width="51" height="58" viewBox="0 0 51 58" fill="none" xmlns="http://www.w3.org/2000/svg">
<g id="compliance-and-security">
<path id="Vector" d="M48.7547 6.85938C42.3813 6.85938 30.7846 5.56151 27.1521 0.778476C26.5348 -0.191495 25.1838 -0.277784 24.4462 0.647937C20.1694 5.43009 8.54565 6.85938 1.69922 6.85938C0.760666 6.85938 0 7.6227 0 8.56479V35.855C0 48.1464 14.1487 55.6548 24.867 57.9895C26.2512 58.2904 50.454 52.1595 50.454 35.855V8.56479C50.454 7.62314 49.6933 6.85938 48.7547 6.85938ZM47.0555 35.855C47.0555 48.6641 28.0982 53.8578 25.2268 54.5698C22.3553 53.8578 3.39844 48.6641 3.39844 35.855V10.2512C16.52 9.94806 23.0638 6.16863 25.6653 4.11983C30.9072 8.75595 40.0741 10.0928 47.0555 10.2516V35.855Z" fill="#1D1068"/>
<path id="Vector_2" d="M16.7362 22.1534V27.3272H15.0312C14.0931 27.3272 13.332 28.091 13.332 29.0326V42.6777C13.332 43.6198 14.0931 44.3836 15.0312 44.3836H35.4219C36.3604 44.3836 37.1211 43.6198 37.1211 42.6777V29.0326C37.1211 28.091 36.3604 27.3272 35.4219 27.3272H20.1347V22.1534C20.1347 19.4878 22.2339 17.0934 25.2779 17.0934C28.0577 17.0934 30.3189 19.363 30.3189 22.1534C30.3189 23.0951 31.08 23.8589 32.0181 23.8589C32.9567 23.8589 33.7173 23.0951 33.7173 22.1534C33.7173 17.4824 29.9317 13.6821 25.2779 13.6821C20.3302 13.6821 16.7362 17.6364 16.7362 22.1534ZM33.7227 40.9723H16.7305V30.7385H33.7227V40.9723Z" fill="#00B7AF"/>
<path id="Vector_3" d="M26.9258 35.8553C26.9258 34.9132 26.1651 34.1499 25.2266 34.1499C24.2885 34.1499 23.5273 34.9132 23.5273 35.8553C23.5273 36.7974 24.2885 37.5612 25.2266 37.5612C26.1651 37.5612 26.9258 36.7974 26.9258 35.8553Z" fill="#1D1068"/>
</g>
</svg>
