<svg width="58" height="58" viewBox="0 0 58 58" fill="none" xmlns="http://www.w3.org/2000/svg">
<g id="competitive-pricing">
<g id="Group">
<path id="Vector" d="M23.0588 39.0822L31.0689 15.0515C31.3656 14.1612 30.8845 13.1989 29.9942 12.9021C29.104 12.6054 28.1416 13.0865 27.8448 13.9768L19.8347 38.0075C19.538 38.8977 20.0191 39.8601 20.9094 40.1569C21.0876 40.2162 21.2688 40.2444 21.4469 40.2444C22.1583 40.2445 22.8214 39.7943 23.0588 39.0822Z" fill="#00B7AF"/>
<path id="Vector_2" d="M35.064 31.6289C37.8748 31.6289 40.1616 29.3421 40.1616 26.5312C40.1616 23.7204 37.8748 21.4336 35.064 21.4336C32.2531 21.4336 29.9663 23.7204 29.9663 26.5312C29.9663 29.3421 32.2531 31.6289 35.064 31.6289ZM35.064 24.832C36.0009 24.832 36.7632 25.5943 36.7632 26.5312C36.7632 27.4682 36.0009 28.2305 35.064 28.2305C34.127 28.2305 33.3647 27.4682 33.3647 26.5312C33.3647 25.5943 34.127 24.832 35.064 24.832Z" fill="#00B7AF"/>
<path id="Vector_3" d="M15.8389 21.4336C13.028 21.4336 10.7412 23.7204 10.7412 26.5312C10.7412 29.3421 13.028 31.6289 15.8389 31.6289C18.6497 31.6289 20.9365 29.3421 20.9365 26.5312C20.9365 23.7204 18.6498 21.4336 15.8389 21.4336ZM15.8389 28.2305C14.9019 28.2305 14.1396 27.4682 14.1396 26.5312C14.1396 25.5943 14.9019 24.832 15.8389 24.832C16.7758 24.832 17.5381 25.5943 17.5381 26.5312C17.5381 27.4682 16.7759 28.2305 15.8389 28.2305Z" fill="#00B7AF"/>
<path id="Vector_4" d="M57.6601 21.0703L51.7347 13.1697L51.9659 11.5517C52.0415 11.0222 51.8635 10.488 51.4853 10.1099L47.8807 6.50526L51.4852 2.90065C52.1488 2.23716 52.1488 1.16122 51.4852 0.497616C50.8217 -0.165872 49.7457 -0.165872 49.0821 0.497616L45.4776 4.10223L41.873 0.497616C41.4949 0.11937 40.9607 -0.0580283 40.4312 0.0169638L23.6097 2.42C23.2457 2.472 22.9085 2.64067 22.6485 2.90065L1.82199 23.7272C-0.607329 26.1564 -0.607329 30.1092 1.82199 32.5384L19.4444 50.1609C19.8048 50.5214 20.1995 50.8271 20.6172 51.0805V51.7695C20.6172 55.205 23.4121 58 26.8476 58H51.7695C55.205 58 58 55.205 58 51.7695V22.0898C58 21.7222 57.8807 21.3644 57.6601 21.0703ZM4.22502 30.1354C3.12076 29.0311 3.12076 27.2345 4.22502 26.1302L24.651 5.70425L40.0706 3.5015L43.0745 6.50537L40.6715 8.90841L39.4699 7.70683C38.8064 7.04335 37.7304 7.04335 37.0668 7.70683C36.4032 8.37032 36.4032 9.44627 37.0668 10.1099L41.873 14.9161C42.2048 15.2479 42.6397 15.4138 43.0745 15.4138C43.5093 15.4138 43.9443 15.2479 44.276 14.9161C44.9396 14.2526 44.9396 13.1766 44.276 12.513L43.0744 11.3114L45.4774 8.90841L48.4813 11.9123L46.2784 27.3319L25.8526 47.7579C25.3177 48.2928 24.6065 48.5873 23.85 48.5873C23.0935 48.5873 22.3823 48.2927 21.8474 47.7579L4.22502 30.1354ZM54.6015 51.7695C54.6015 53.3311 53.3311 54.6015 51.7695 54.6015H26.8476C25.3564 54.6015 24.1316 53.4429 24.0241 51.9786C25.561 51.936 27.0852 51.3313 28.2555 50.1609L49.082 29.3344C49.342 29.0744 49.5107 28.7372 49.5627 28.3732L51.0549 17.9275L54.6015 22.6562V51.7695Z" fill="#1D1068"/>
</g>
</g>
</svg>
