<svg width="58" height="58" viewBox="0 0 58 58" fill="none" xmlns="http://www.w3.org/2000/svg">
<g id="conceptual 1">
<path id="Vector" d="M20.2999 16.7234C20.2864 18.3779 20.7307 20.0038 21.5837 21.4215C22.4367 22.8392 23.6651 23.9934 25.1332 24.7564V27.0667C25.1354 27.4721 25.2225 27.8726 25.389 28.2422C25.5556 28.6118 25.7977 28.9425 26.0999 29.2127V30.0441C26.1024 30.7936 26.402 31.5115 26.9329 32.0406C27.4638 32.5697 28.1827 32.8667 28.9322 32.8667H29.0676C29.8171 32.8667 30.536 32.5697 31.0669 32.0406C31.5978 31.5115 31.8973 30.7936 31.8999 30.0441V29.2127C32.2021 28.9425 32.4442 28.6118 32.6107 28.2422C32.7772 27.8726 32.8644 27.4721 32.8666 27.0667V24.7564C34.3346 23.9934 35.5631 22.8392 36.4161 21.4215C37.2691 20.0038 37.7134 18.3779 37.6999 16.7234C37.7361 14.3782 36.8403 12.1145 35.2093 10.429C33.5782 8.74355 31.345 7.77409 28.9999 7.7334C26.6548 7.77409 24.4216 8.74355 22.7905 10.429C21.1594 12.1145 20.2637 14.3782 20.2999 16.7234ZM29.9666 30.0441C29.9666 30.1617 29.9432 30.2781 29.8979 30.3866C29.8526 30.4952 29.7863 30.5937 29.7027 30.6764C29.6191 30.7591 29.5199 30.8244 29.4109 30.8685C29.3018 30.9126 29.1852 30.9347 29.0676 30.9334H28.9322C28.8146 30.9347 28.6979 30.9126 28.5889 30.8685C28.4799 30.8244 28.3807 30.7591 28.2971 30.6764C28.2135 30.5937 28.1471 30.4952 28.1018 30.3866C28.0565 30.2781 28.0332 30.1617 28.0332 30.0441V29.9667H29.9666V30.0441ZM30.9332 27.0667C30.9332 27.3231 30.8314 27.569 30.6501 27.7503C30.4688 27.9316 30.2229 28.0334 29.9666 28.0334H28.0332C27.7768 28.0334 27.531 27.9316 27.3497 27.7503C27.1684 27.569 27.0666 27.3231 27.0666 27.0667V25.1334H30.9332V27.0667ZM28.0332 16.4914C28.0332 16.3002 28.0899 16.1133 28.1961 15.9543C28.3023 15.7954 28.4533 15.6715 28.63 15.5983C28.8066 15.5252 29.001 15.506 29.1885 15.5433C29.376 15.5806 29.5482 15.6727 29.6834 15.8079C29.8186 15.9431 29.9107 16.1153 29.948 16.3028C29.9853 16.4903 29.9661 16.6847 29.893 16.8613C29.8198 17.038 29.6959 17.1889 29.5369 17.2952C29.378 17.4014 29.1911 17.4581 28.9999 17.4581C28.7435 17.4581 28.4976 17.3562 28.3163 17.1749C28.1351 16.9937 28.0332 16.7478 28.0332 16.4914ZM28.9999 9.66673C30.8323 9.70733 32.5737 10.4731 33.8423 11.796C35.1108 13.1189 35.8028 14.8909 35.7666 16.7234C35.782 18.0823 35.4043 19.4167 34.6788 20.5658C33.9533 21.7149 32.911 22.6297 31.6776 23.2001H29.9666V19.2077C30.6115 18.9797 31.1551 18.531 31.5013 17.9409C31.8474 17.3509 31.9738 16.6574 31.8581 15.9832C31.7424 15.3089 31.3921 14.6973 30.8691 14.2564C30.3461 13.8154 29.684 13.5736 28.9999 13.5736C28.3158 13.5736 27.6537 13.8154 27.1307 14.2564C26.6076 14.6973 26.2573 15.3089 26.1416 15.9832C26.026 16.6574 26.1524 17.3509 26.4985 17.9409C26.8446 18.531 27.3882 18.9797 28.0332 19.2077V23.2001H26.3222C25.0887 22.6297 24.0465 21.7149 23.321 20.5658C22.5955 19.4167 22.2177 18.0823 22.2332 16.7234C22.1969 14.8909 22.889 13.1189 24.1575 11.796C25.426 10.4731 27.1675 9.70733 28.9999 9.66673Z" fill="#00B7AF"/>
<path id="Vector_2" d="M39.6333 16.4335C39.6333 16.6898 39.7351 16.9357 39.9164 17.117C40.0977 17.2983 40.3436 17.4001 40.6 17.4001H44.4666C44.723 17.4001 44.9689 17.2983 45.1502 17.117C45.3315 16.9357 45.4333 16.6898 45.4333 16.4335C45.4333 16.1771 45.3315 15.9312 45.1502 15.7499C44.9689 15.5686 44.723 15.4668 44.4666 15.4668H40.6C40.3436 15.4668 40.0977 15.5686 39.9164 15.7499C39.7351 15.9312 39.6333 16.1771 39.6333 16.4335Z" fill="#1D1068"/>
<path id="Vector_3" d="M12.5669 16.4335C12.5669 16.6898 12.6687 16.9357 12.85 17.117C13.0313 17.2983 13.2772 17.4001 13.5336 17.4001H17.4002C17.6566 17.4001 17.9025 17.2983 18.0838 17.117C18.2651 16.9357 18.3669 16.6898 18.3669 16.4335C18.3669 16.1771 18.2651 15.9312 18.0838 15.7499C17.9025 15.5686 17.6566 15.4668 17.4002 15.4668H13.5336C13.2772 15.4668 13.0313 15.5686 12.85 15.7499C12.6687 15.9312 12.5669 16.1771 12.5669 16.4335Z" fill="#1D1068"/>
<path id="Vector_4" d="M39.256 4.83344L36.5204 7.54977C36.3403 7.73089 36.2393 7.97589 36.2393 8.23127C36.2393 8.48665 36.3403 8.73166 36.5204 8.91277C36.7015 9.09282 36.9465 9.19387 37.2019 9.19387C37.4572 9.19387 37.7022 9.09282 37.8834 8.91277L40.5997 6.17711C40.727 5.99103 40.7853 5.76629 40.7644 5.54178C40.7436 5.31727 40.6449 5.10712 40.4854 4.94768C40.326 4.78825 40.1159 4.68956 39.8914 4.6687C39.6668 4.64784 39.4421 4.70611 39.256 4.83344Z" fill="#1D1068"/>
<path id="Vector_5" d="M18.7435 4.83344C18.5574 4.70611 18.3327 4.64784 18.1082 4.6687C17.8837 4.68956 17.6735 4.78825 17.5141 4.94768C17.3547 5.10712 17.256 5.31727 17.2351 5.54178C17.2142 5.76629 17.2725 5.99103 17.3998 6.17711L20.1355 8.91277C20.3166 9.09282 20.5616 9.19387 20.817 9.19387C21.0724 9.19387 21.3174 9.09282 21.4985 8.91277C21.6786 8.73166 21.7796 8.48665 21.7796 8.23127C21.7796 7.97589 21.6786 7.73089 21.4985 7.54977L18.7435 4.83344Z" fill="#1D1068"/>
<path id="Vector_6" d="M29.9665 4.83333V0.966667C29.9665 0.710291 29.8647 0.464415 29.6834 0.28313C29.5021 0.101845 29.2562 0 28.9999 0C28.7435 0 28.4976 0.101845 28.3163 0.28313C28.135 0.464415 28.0332 0.710291 28.0332 0.966667V4.83333C28.0332 5.08971 28.135 5.33558 28.3163 5.51687C28.4976 5.69815 28.7435 5.8 28.9999 5.8C29.2562 5.8 29.5021 5.69815 29.6834 5.51687C29.8647 5.33558 29.9665 5.08971 29.9665 4.83333Z" fill="#1D1068"/>
<path id="Vector_7" d="M32.8666 46.3999C32.8666 45.6351 32.6399 44.8875 32.215 44.2517C31.7901 43.6158 31.1862 43.1202 30.4797 42.8275C29.7731 42.5349 28.9957 42.4583 28.2456 42.6075C27.4956 42.7567 26.8066 43.125 26.2658 43.6657C25.7251 44.2065 25.3568 44.8955 25.2076 45.6455C25.0584 46.3956 25.135 47.173 25.4276 47.8796C25.7203 48.5861 26.2159 49.19 26.8518 49.6149C27.4876 50.0398 28.2352 50.2665 29 50.2665C30.0255 50.2665 31.009 49.8592 31.7341 49.134C32.4593 48.4089 32.8666 47.4254 32.8666 46.3999ZM29 48.3332C28.6176 48.3332 28.2438 48.2198 27.9259 48.0074C27.6079 47.7949 27.3601 47.493 27.2138 47.1397C27.0675 46.7865 27.0292 46.3977 27.1038 46.0227C27.1784 45.6477 27.3625 45.3032 27.6329 45.0328C27.9033 44.7624 28.2478 44.5783 28.6228 44.5037C28.9978 44.4291 29.3866 44.4674 29.7398 44.6137C30.0931 44.76 30.395 45.0078 30.6075 45.3258C30.8199 45.6437 30.9333 46.0175 30.9333 46.3999C30.9333 46.9126 30.7296 47.4044 30.367 47.7669C30.0045 48.1295 29.5127 48.3332 29 48.3332Z" fill="#00B7AF"/>
<path id="Vector_8" d="M21.2666 55.8733V57.0333C21.2666 57.2896 21.3684 57.5355 21.5497 57.7168C21.731 57.8981 21.9769 57.9999 22.2333 57.9999H35.7666C36.023 57.9999 36.2689 57.8981 36.4501 57.7168C36.6314 57.5355 36.7333 57.2896 36.7333 57.0333V55.8733C36.7333 52.7799 33.8333 50.2666 30.3533 50.2666H27.6466C24.1666 50.2666 21.2666 52.7799 21.2666 55.8733ZM30.3533 52.1999C32.8086 52.1999 34.7999 53.8433 34.7999 55.8733V56.0666H23.1999V55.8733C23.1999 53.8433 25.1913 52.1999 27.6466 52.1999H30.3533Z" fill="#00B7AF"/>
<path id="Vector_9" d="M4.83337 40.6003H18.3667C18.6231 40.6003 18.869 40.4985 19.0502 40.3172C19.2315 40.1359 19.3334 39.89 19.3334 39.6337C19.3334 39.3773 19.2315 39.1314 19.0502 38.9501C18.869 38.7688 18.6231 38.667 18.3667 38.667H4.83337C4.57699 38.667 4.33111 38.7688 4.14983 38.9501C3.96854 39.1314 3.8667 39.3773 3.8667 39.6337C3.8667 39.89 3.96854 40.1359 4.14983 40.3172C4.33111 40.4985 4.57699 40.6003 4.83337 40.6003Z" fill="#1D1068"/>
<path id="Vector_10" d="M4.83337 34.8H18.3667C18.6231 34.8 18.869 34.6982 19.0502 34.5169C19.2315 34.3356 19.3334 34.0897 19.3334 33.8334C19.3334 33.577 19.2315 33.3311 19.0502 33.1498C18.869 32.9685 18.6231 32.8667 18.3667 32.8667H4.83337C4.57699 32.8667 4.33111 32.9685 4.14983 33.1498C3.96854 33.3311 3.8667 33.577 3.8667 33.8334C3.8667 34.0897 3.96854 34.3356 4.14983 34.5169C4.33111 34.6982 4.57699 34.8 4.83337 34.8Z" fill="#1D1068"/>
<path id="Vector_11" d="M4.83337 46.4001H18.3667C18.6231 46.4001 18.869 46.2983 19.0502 46.117C19.2315 45.9357 19.3334 45.6898 19.3334 45.4335C19.3334 45.1771 19.2315 44.9312 19.0502 44.7499C18.869 44.5686 18.6231 44.4668 18.3667 44.4668H4.83337C4.57699 44.4668 4.33111 44.5686 4.14983 44.7499C3.96854 44.9312 3.8667 45.1771 3.8667 45.4335C3.8667 45.6898 3.96854 45.9357 4.14983 46.117C4.33111 46.2983 4.57699 46.4001 4.83337 46.4001Z" fill="#1D1068"/>
<path id="Vector_12" d="M2.03967 58.0001H14.5C14.6293 57.9977 14.7571 57.9715 14.877 57.9228C14.9922 57.8756 15.0973 57.8067 15.1863 57.7198L22.9197 49.9864C23.0066 49.8973 23.0756 49.7923 23.1227 49.6771C23.1714 49.5572 23.1976 49.4294 23.2 49.3001V30.9914C23.1924 30.4573 22.9735 29.9479 22.5912 29.5747C22.209 29.2015 21.6945 28.9949 21.1603 29.0001H2.03967C1.50549 28.9949 0.991006 29.2015 0.608766 29.5747C0.226526 29.9479 0.007643 30.4573 0 30.9914V56.0088C0.007643 56.5429 0.226526 57.0523 0.608766 57.4255C0.991006 57.7987 1.50549 58.0053 2.03967 58.0001ZM15.4667 54.7038V50.2668H19.9037L15.4667 54.7038ZM1.93333 30.9914C1.93333 30.9914 1.93333 30.9334 2.03967 30.9334H21.1603C21.228 30.9334 21.2667 30.9334 21.2667 30.9914V48.3334H14.5C14.2436 48.3334 13.9977 48.4353 13.8165 48.6166C13.6352 48.7978 13.5333 49.0437 13.5333 49.3001V50.2668H4.83333C4.57696 50.2668 4.33108 50.3686 4.1498 50.5499C3.96851 50.7312 3.86667 50.9771 3.86667 51.2334C3.86667 51.4898 3.96851 51.7357 4.1498 51.917C4.33108 52.0983 4.57696 52.2001 4.83333 52.2001H13.5333V56.0668H2.03967C1.93333 56.0668 1.93333 56.0668 1.93333 56.0088V30.9914Z" fill="#1D1068"/>
<path id="Vector_13" d="M55.9601 29.0001H36.8395C36.3053 28.9949 35.7908 29.2015 35.4086 29.5747C35.0263 29.9479 34.8074 30.4573 34.7998 30.9914V49.3001C34.8022 49.4294 34.8284 49.5572 34.8771 49.6771C34.9243 49.7923 34.9932 49.8973 35.0801 49.9864L42.8135 57.7198C42.9026 57.8067 43.0076 57.8756 43.1228 57.9228C43.2427 57.9715 43.3705 57.9977 43.4998 58.0001H55.9601C56.4943 58.0053 57.0088 57.7987 57.391 57.4255C57.7733 57.0523 57.9922 56.5429 57.9998 56.0088V30.9914C57.9922 30.4573 57.7733 29.9479 57.391 29.5747C57.0088 29.2015 56.4943 28.9949 55.9601 29.0001ZM42.5331 54.7038L38.0961 50.2668H42.5331V54.7038ZM56.0665 56.0088C56.0665 56.0088 56.0665 56.0668 55.9601 56.0668H44.4665V52.2001H53.1665C53.4228 52.2001 53.6687 52.0983 53.85 51.917C54.0313 51.7357 54.1331 51.4898 54.1331 51.2334C54.1331 50.9771 54.0313 50.7312 53.85 50.5499C53.6687 50.3686 53.4228 50.2668 53.1665 50.2668H44.4665V49.3001C44.4665 49.0437 44.3646 48.7978 44.1833 48.6166C44.0021 48.4353 43.7562 48.3334 43.4998 48.3334H36.7331V30.9914C36.7331 30.9914 36.7331 30.9334 36.8395 30.9334H55.9601C56.0278 30.9334 56.0665 30.9334 56.0665 30.9914V56.0088Z" fill="#1D1068"/>
<path id="Vector_14" d="M53.167 38.667H39.6337C39.3773 38.667 39.1314 38.7688 38.9501 38.9501C38.7688 39.1314 38.667 39.3773 38.667 39.6337C38.667 39.89 38.7688 40.1359 38.9501 40.3172C39.1314 40.4985 39.3773 40.6003 39.6337 40.6003H53.167C53.4234 40.6003 53.6692 40.4985 53.8505 40.3172C54.0318 40.1359 54.1337 39.89 54.1337 39.6337C54.1337 39.3773 54.0318 39.1314 53.8505 38.9501C53.6692 38.7688 53.4234 38.667 53.167 38.667Z" fill="#1D1068"/>
<path id="Vector_15" d="M53.167 32.8667H39.6337C39.3773 32.8667 39.1314 32.9685 38.9501 33.1498C38.7688 33.3311 38.667 33.577 38.667 33.8334C38.667 34.0897 38.7688 34.3356 38.9501 34.5169C39.1314 34.6982 39.3773 34.8 39.6337 34.8H53.167C53.4234 34.8 53.6692 34.6982 53.8505 34.5169C54.0318 34.3356 54.1337 34.0897 54.1337 33.8334C54.1337 33.577 54.0318 33.3311 53.8505 33.1498C53.6692 32.9685 53.4234 32.8667 53.167 32.8667Z" fill="#1D1068"/>
<path id="Vector_16" d="M53.167 44.4668H39.6337C39.3773 44.4668 39.1314 44.5686 38.9501 44.7499C38.7688 44.9312 38.667 45.1771 38.667 45.4335C38.667 45.6898 38.7688 45.9357 38.9501 46.117C39.1314 46.2983 39.3773 46.4001 39.6337 46.4001H53.167C53.4234 46.4001 53.6692 46.2983 53.8505 46.117C54.0318 45.9357 54.1337 45.6898 54.1337 45.4335C54.1337 45.1771 54.0318 44.9312 53.8505 44.7499C53.6692 44.5686 53.4234 44.4668 53.167 44.4668Z" fill="#1D1068"/>
</g>
</svg>
