<svg width="62" height="62" viewBox="0 0 62 62" fill="none" xmlns="http://www.w3.org/2000/svg">
<path d="M61.4959 5.78998L60.8136 6.47222C60.2667 7.0192 59.5492 7.36262 58.7801 7.44545C58.011 7.5284 57.2936 7.87182 56.7466 8.41868L47.2123 17.953L44.0474 14.7881L53.5817 5.25377C54.1287 4.70679 54.4721 3.98931 54.5549 3.22025C54.6379 2.45118 54.9813 1.7337 55.5281 1.18672L56.2104 0.504476C56.8832 -0.168321 57.974 -0.168321 58.6468 0.504476L61.4958 3.35345C62.1687 4.02637 62.1687 5.11718 61.4959 5.78998Z" fill="#A79BA7"/>
<path d="M61.4959 5.78998L60.8136 6.47222C60.2667 7.0192 59.5492 7.36262 58.7801 7.44545C58.011 7.5284 57.2936 7.87182 56.7466 8.41868L47.2123 17.953L44.0474 14.7881L53.5817 5.25377C54.1287 4.70679 54.4721 3.98931 54.5549 3.22025C54.6379 2.45118 54.9813 1.7337 55.5281 1.18672L56.2104 0.504476C56.8832 -0.168321 57.974 -0.168321 58.6468 0.504476L61.4958 3.35345C62.1687 4.02637 62.1687 5.11718 61.4959 5.78998Z" fill="#A79BA7"/>
<path d="M61.4959 3.35338L58.6469 0.504405C58.5918 0.449308 58.5331 0.400386 58.4728 0.35437C58.9894 1.02983 58.9404 1.99894 58.3227 2.61664L57.6405 3.29889C57.0936 3.84575 56.376 4.18917 55.607 4.27212C54.8833 4.3501 54.2071 4.66119 53.674 5.15307C53.6431 5.18649 53.614 5.22125 53.5817 5.25358L44.0474 14.7879L47.2123 17.9528L56.7466 8.41849C57.2936 7.87151 58.011 7.52808 58.78 7.44526C59.5491 7.36231 60.2665 7.01889 60.8134 6.47203L61.4956 5.78978C62.1687 5.11699 62.1687 4.02618 61.4959 3.35338Z" fill="#918291"/>
<path d="M46.8119 23.9795L38.0205 15.1881L40.9529 12.2557C41.6194 11.5892 42.7001 11.5892 43.3667 12.2557L49.7443 18.6334C50.4108 19.2999 50.4108 20.3805 49.7443 21.0471L46.8119 23.9795Z" fill="#FFE177"/>
<path d="M49.7446 18.6333L47.1072 15.9958C47.7737 16.6623 47.7737 17.743 47.1072 18.4096L44.1748 21.342L46.8122 23.9794L49.7446 21.047C50.4111 20.3804 50.4111 19.2998 49.7446 18.6333Z" fill="#FFD15B"/>
<path d="M11.6709 61.6058L0.393935 50.3288C-0.144084 49.7908 -0.129069 48.912 0.427115 48.3864L37.1895 13.22C37.7239 12.7151 38.5605 12.7245 39.0775 13.2413L48.7584 22.9223C49.2752 23.4391 49.2848 24.2759 48.7797 24.8103L13.6135 61.5725C13.0877 62.1288 12.2091 62.1438 11.6709 61.6058Z" fill="#B3DAFE"/>
<path d="M48.7795 24.8105C49.2844 24.2761 49.275 23.4395 48.7582 22.9225L46.1119 20.2762C46.6287 20.7931 46.6383 21.6298 46.1332 22.1642L10.9667 58.9266C10.4411 59.4829 9.56229 59.4979 9.02427 58.9598L0.393555 50.3292L11.6705 61.6061C12.2085 62.1442 13.0873 62.1292 13.613 61.573L48.7795 24.8105Z" fill="#8AC9FE"/>
<path d="M39.5221 55.9453C46.5496 55.9453 52.2464 50.2484 52.2464 43.221C52.2464 36.1936 46.5496 30.4967 39.5221 30.4967C32.4947 30.4967 26.7979 36.1936 26.7979 43.221C26.7979 50.2484 32.4947 55.9453 39.5221 55.9453Z" fill="#F9F7F8"/>
<path d="M39.5218 30.4966V35.1306C38.0481 35.1306 36.6662 35.5244 35.4762 36.2135L33.1587 32.1996C35.0307 31.1167 37.2037 30.4966 39.5218 30.4966Z" fill="#FD8087"/>
<path d="M45.8851 54.242C44.0131 55.325 41.8399 55.9451 39.522 55.9451V51.3111C40.9957 51.3111 42.3776 50.9173 43.5676 50.2281L45.8851 54.242Z" fill="#FD8087"/>
<path d="M32.5148 39.1749C31.8255 40.3649 31.4319 41.7469 31.4319 43.2205H26.7979C26.7979 40.9026 27.418 38.7294 28.5009 36.8573L32.5148 39.1749Z" fill="#FD8087"/>
<path d="M52.2467 43.2207C52.2467 45.5387 51.6266 47.7118 50.5437 49.5839L46.5298 47.2664C47.2191 46.0765 47.6127 44.6944 47.6127 43.2208H52.2467V43.2207Z" fill="#FD8087"/>
<path d="M35.4756 50.2283L33.1581 54.2422C31.2271 53.1249 29.6173 51.5151 28.5 49.5841L32.5139 47.2666C33.2242 48.4945 34.2477 49.5181 35.4756 50.2283Z" fill="#FD8087"/>
<path d="M50.5425 36.8577L46.5286 39.1752C45.8184 37.9473 44.7948 36.9237 43.5669 36.2135L45.8844 32.1996C47.8153 33.3169 49.4253 34.9267 50.5425 36.8577Z" fill="#FD8087"/>
<path d="M39.5229 51.3113C43.991 51.3113 47.6132 47.6891 47.6132 43.221C47.6132 38.7529 43.991 35.1307 39.5229 35.1307C35.0548 35.1307 31.4326 38.7529 31.4326 43.221C31.4326 47.6891 35.0548 51.3113 39.5229 51.3113Z" fill="#FFE177"/>
<path d="M39.5221 35.1306C38.8778 35.1306 38.2519 35.2082 37.6509 35.3505C41.2164 36.1952 43.87 39.3971 43.87 43.2209C43.87 47.0447 41.2165 50.2466 37.6509 51.0913C38.2517 51.2337 38.8777 51.3112 39.5221 51.3112C43.9903 51.3112 47.6125 47.689 47.6125 43.2209C47.6125 38.7528 43.9903 35.1306 39.5221 35.1306Z" fill="#FFD15B"/>
</svg>
