<svg width="58" height="58" viewBox="0 0 58 58" fill="none" xmlns="http://www.w3.org/2000/svg">
<g id="deployment">
<g id="Group">
<g id="Group_2">
<path id="Vector" d="M1.13961 57.831C1.769 57.831 2.27922 57.3208 2.27922 56.6914C2.27922 56.062 1.769 55.5518 1.13961 55.5518C0.510222 55.5518 0 56.062 0 56.6914C0 57.3208 0.510222 57.831 1.13961 57.831Z" fill="#1D1068"/>
</g>
</g>
<g id="Group_3">
<g id="Group_4">
<path id="Vector_2" d="M30.2467 28.9261C30.8749 28.9261 31.3841 28.4169 31.3841 27.7887C31.3841 27.1606 30.8749 26.6514 30.2467 26.6514C29.6186 26.6514 29.1094 27.1606 29.1094 27.7887C29.1094 28.4169 29.6186 28.9261 30.2467 28.9261Z" fill="#1D1068"/>
</g>
</g>
<g id="Group_5">
<g id="Group_6">
<path id="Vector_3" d="M45.1403 13.371C44.226 12.4565 43.0104 11.9531 41.7174 11.9531C40.4244 11.9531 39.2086 12.4568 38.2944 13.371C36.4071 15.2585 36.4071 18.3295 38.2944 20.2169C39.2383 21.1606 40.4776 21.6323 41.7174 21.6323C42.9568 21.6323 44.1966 21.1604 45.1403 20.2169C47.0277 18.3294 47.0277 15.2583 45.1403 13.371ZM43.532 18.6084C42.5314 19.6089 40.9032 19.6089 39.9028 18.6084C38.9022 17.6079 38.9022 15.9798 39.9028 14.9792C40.3875 14.4945 41.0319 14.2276 41.7174 14.2276C42.4028 14.2276 43.0472 14.4945 43.5319 14.9792C44.5325 15.9798 44.5325 17.6079 43.532 18.6084Z" fill="#00B7AF"/>
</g>
</g>
<g id="Group_7">
<g id="Group_8">
<path id="Vector_4" d="M14.2064 46.6096C13.6441 46.3296 12.9614 46.5585 12.6814 47.1207L11.3268 49.8412C10.7377 51.024 9.55303 51.8149 8.23466 51.9051L6.65914 52.0129C6.39282 52.0307 6.21768 51.898 6.13669 51.817C6.05569 51.736 5.9227 51.5606 5.94082 51.2945L6.04867 49.7191C6.13895 48.4008 6.92988 47.216 8.11254 46.6269L10.8329 45.2723C11.3952 44.9923 11.624 44.3095 11.344 43.7473C11.0641 43.1851 10.3813 42.9562 9.81901 43.2362L7.09867 44.5908C5.19645 45.5381 3.92453 47.4435 3.7793 49.5636L3.67145 51.1391C3.61323 51.9895 3.92543 52.8228 4.52809 53.4254C5.08294 53.9803 5.83343 54.2891 6.61281 54.2891C6.67976 54.2891 6.74716 54.2868 6.81445 54.2822L8.38997 54.1743C10.5101 54.0292 12.4155 52.7574 13.3628 50.8549L14.7174 48.1346C14.9974 47.5723 14.7686 46.8896 14.2064 46.6096Z" fill="#00B7AF"/>
</g>
</g>
<g id="Group_9">
<g id="Group_10">
<path id="Vector_5" d="M57.215 0.926527C56.6813 0.400788 55.9461 0.125854 55.1994 0.174451L54.1404 0.241967C44.6453 0.848136 35.7591 5.43139 29.7606 12.8167L27.2679 15.8853L20.7448 15.6938C20.7337 15.6934 20.7225 15.6933 20.7115 15.6933C15.5382 15.6933 10.6744 17.7079 7.01624 21.366L0.335126 28.0472C0.0173714 28.365 -0.0835624 28.8402 0.0777504 29.2596C0.239063 29.6791 0.63215 29.9643 1.08097 29.9872L15.2235 30.7138L14.6469 31.4237C14.3563 31.7816 14.3103 32.2793 14.5307 32.6842C14.7522 33.0916 14.9845 33.4925 15.2267 33.8869L11.8728 37.8684C11.5861 38.2088 11.5244 38.6853 11.7146 39.0877C12.4472 40.6356 13.4195 42.0265 14.6049 43.2216C15.819 44.446 17.2388 45.4472 18.8245 46.1977C18.9794 46.2711 19.1456 46.307 19.3108 46.307C19.5669 46.307 19.8209 46.2204 20.0275 46.0529C20.75 45.4668 21.583 44.7716 22.3886 44.0993C22.9629 43.6202 23.5504 43.13 24.0994 42.678C24.4272 42.8752 24.759 43.0664 25.0957 43.2496C25.2661 43.3423 25.4529 43.3879 25.639 43.3879C25.8867 43.3879 26.1327 43.3073 26.3364 43.1491L27.1116 42.5476L27.8413 56.7497C27.8645 57.1985 28.1496 57.5916 28.5689 57.7529C28.7017 57.8039 28.8397 57.8288 28.9768 57.8288C29.273 57.8288 29.5639 57.7129 29.7812 57.4956L36.4624 50.8143C40.1206 47.1561 42.1351 42.2925 42.1351 37.119V30.8891L44.7708 28.8438C52.6698 22.7142 57.4805 13.4711 57.9695 3.48442L57.9965 2.93093C58.0335 2.18282 57.7484 1.45238 57.215 0.926527ZM3.75215 27.847L8.62461 22.9745C11.8492 19.7499 16.1355 17.9723 20.6951 17.9679L25.4625 18.1079L16.9993 28.5276L3.75215 27.847ZM20.9314 42.3529C20.3377 42.8481 19.729 43.3561 19.1642 43.8207C18.0717 43.229 17.0835 42.4907 16.2198 41.6198C15.3833 40.7765 14.6713 39.8162 14.0972 38.7583L16.5527 35.8433C17.2952 36.8394 18.1079 37.7829 18.9858 38.6668C18.9865 38.6675 18.9871 38.6681 18.9878 38.6687C18.9881 38.669 18.9883 38.6693 18.9885 38.6695C18.9888 38.6699 18.9892 38.6701 18.9895 38.6704C19.963 39.6501 21.01 40.5491 22.1207 41.3621C21.7286 41.6877 21.3267 42.023 20.9314 42.3529ZM39.8608 37.119C39.8608 41.6849 38.0829 45.9773 34.8543 49.206L29.9818 54.0784L29.3019 40.848L39.8607 32.6544V37.119H39.8608ZM55.6979 3.37329C55.2415 12.696 50.7506 21.3247 43.3767 27.0469L25.5393 40.8886C24.0601 40.0243 22.6814 39.0037 21.4195 37.8475L27.4332 31.8338C27.8773 31.3897 27.8773 30.6695 27.4332 30.2253C26.989 29.7811 26.2689 29.7811 25.8247 30.2253L19.8167 36.2333C18.7121 35.0104 17.7338 33.6798 16.9008 32.2567L31.5262 14.2507C37.1259 7.3565 45.4213 3.07786 54.2852 2.51213L55.3442 2.44461C55.4829 2.436 55.5758 2.50488 55.6186 2.54702C55.6613 2.58905 55.7319 2.68046 55.7251 2.81991L55.6979 3.37329Z" fill="#1D1068"/>
</g>
</g>
</g>
</svg>
