<svg width="58" height="58" viewBox="0 0 58 58" fill="none" xmlns="http://www.w3.org/2000/svg">
<g id="design-phase">
<path id="Vector" d="M50.1305 9.00851H56.8672C57.4929 9.00851 58 8.5014 58 7.8757V1.13281C58 0.507111 57.4929 0 56.8672 0H50.1305C49.5048 0 48.9977 0.507111 48.9977 1.13281V3.37144H33.5012V1.13281C33.5012 0.507111 32.994 0 32.3683 0H25.6317C25.006 0 24.4988 0.507111 24.4988 1.13281V3.37144H9.00232V1.13281C9.00232 0.507111 8.49521 0 7.86951 0H1.13281C0.507111 0 0 0.507111 0 1.13281V7.8757C0 8.5014 0.507111 9.00851 1.13281 9.00851H7.86951C8.49521 9.00851 9.00232 8.5014 9.00232 7.8757V5.63707H18.4259C15.1076 7.14159 12.1158 9.35146 9.67802 12.1459C5.85567 16.5276 3.6458 22.0721 3.39047 27.8672H1.13281C0.507111 27.8672 0 28.3743 0 29V35.7429C0 36.3686 0.507111 36.8757 1.13281 36.8757H7.86951C8.49521 36.8757 9.00232 36.3686 9.00232 35.7429V29C9.00232 28.3743 8.49521 27.8672 7.86951 27.8672H5.65875C6.18091 17.1918 14.034 8.10138 24.4988 6.05789V7.87614C24.4988 8.50185 25.006 9.00896 25.6317 9.00896H32.3683C32.994 9.00896 33.5012 8.50185 33.5012 7.87614V6.05789C43.966 8.10138 51.8191 17.1918 52.3412 27.8672H50.1305C49.5048 27.8672 48.9977 28.3743 48.9977 29V35.7429C48.9977 36.3686 49.5048 36.8757 50.1305 36.8757H56.8672C57.4929 36.8757 58 36.3686 58 35.7429V29C58 28.3743 57.4929 27.8672 56.8672 27.8672H54.6095C54.3542 22.0721 52.1443 16.5276 48.322 12.1459C45.8842 9.35146 42.8924 7.14159 39.5741 5.63707H48.9977V7.87614C48.9977 8.5014 49.5048 9.00851 50.1305 9.00851ZM6.73669 6.74289H2.26562V2.26562H6.73669V6.74289ZM6.73669 34.6101H2.26562V30.1328H6.73669V34.6101ZM55.7344 34.6101H51.2633V30.1328H55.7344V34.6101ZM31.2355 6.74289H26.7645V2.26562H31.2355V6.74289ZM51.2633 2.26562H55.7344V6.74289H51.2633V2.26562Z" fill="#1D1068"/>
<path id="Vector_2" d="M29.9923 12.4809C29.7931 12.1193 29.413 11.8945 29.0002 11.8945C28.5873 11.8945 28.2072 12.1193 28.0081 12.4809L23.3029 21.023C23.0011 21.5712 23.2007 22.2602 23.749 22.5616C24.2963 22.8633 24.9858 22.6642 25.2876 22.116L27.8674 17.432V25.7861C26.2947 26.2711 25.1486 27.738 25.1486 29.4677C25.1486 31.5913 26.8766 33.3193 29.0002 33.3193C31.1237 33.3193 32.8517 31.5913 32.8517 29.4677C32.8517 27.738 31.7056 26.2711 30.133 25.7861V17.432L37.9047 31.5426C35.3514 34.1251 33.6111 37.4377 32.9349 41.0078H25.0654C24.3888 37.4377 22.6485 34.1251 20.0956 31.5426L21.394 29.1854C21.6957 28.6376 21.4962 27.9486 20.9484 27.6468C20.4005 27.345 19.7111 27.5442 19.4093 28.0924L17.6924 31.2103C17.4402 31.6679 17.534 32.2391 17.9194 32.5923C20.3589 34.8265 22.0528 37.7859 22.7538 41.0078H21.6988C19.8248 41.0078 18.3004 42.5327 18.3004 44.4062C18.3004 45.7285 19.0593 46.8754 20.1642 47.437V56.8672C20.1642 57.4929 20.6713 58 21.297 58C21.9227 58 22.4299 57.4929 22.4299 56.8672V47.8047H35.5705V56.8672C35.5705 57.4929 36.0776 58 36.7033 58C37.329 58 37.8361 57.4929 37.8361 56.8672V47.437C38.941 46.8754 39.6999 45.728 39.6999 44.4062C39.6999 42.5322 38.1755 41.0078 36.3015 41.0078H35.2466C35.9475 37.7855 37.6414 34.8265 40.0809 32.5918C40.4664 32.2387 40.5602 31.6679 40.3079 31.2099L29.9923 12.4809ZM29.0002 31.0537C28.1258 31.0537 27.4142 30.3421 27.4142 29.4677C27.4142 28.5929 28.1258 27.8818 29.0002 27.8818C29.8746 27.8818 30.5861 28.5929 30.5861 29.4677C30.5861 30.3421 29.8746 31.0537 29.0002 31.0537ZM37.4343 44.4062C37.4343 45.0311 36.9263 45.5391 36.3015 45.5391H21.6988C21.074 45.5391 20.566 45.0311 20.566 44.4062C20.566 43.7814 21.074 43.2734 21.6988 43.2734H36.3015C36.9263 43.2734 37.4343 43.7814 37.4343 44.4062Z" fill="#00B7AF"/>
<path id="Vector_3" d="M22.2744 26.2949C22.5727 26.2949 22.8647 26.1746 23.0753 25.9639C23.286 25.752 23.4072 25.4612 23.4072 25.1621C23.4072 24.8639 23.286 24.5731 23.0753 24.3612C22.8647 24.1505 22.5727 24.0293 22.2744 24.0293C21.9753 24.0293 21.6832 24.1505 21.4726 24.3612C21.262 24.5731 21.1416 24.8639 21.1416 25.1621C21.1416 25.4612 21.262 25.752 21.4726 25.9639C21.6832 26.1746 21.9753 26.2949 22.2744 26.2949Z" fill="#1D1068"/>
</g>
</svg>
