<svg width="58" height="58" viewBox="0 0 58 58" fill="none" xmlns="http://www.w3.org/2000/svg">
<g id="discussion-and-planning">
<g id="Group">
<path id="Vector" d="M54.9246 8.09746C55.54 7.2551 55.9043 6.21835 55.9043 5.09766C55.9043 2.28681 53.6175 0 50.8066 0C47.9958 0 45.709 2.28681 45.709 5.09766C45.709 6.21835 46.0733 7.2551 46.6886 8.09746C44.8312 9.39951 43.6133 11.5547 43.6133 13.9902V15.6328C43.6133 16.5712 44.3741 17.332 45.3125 17.332H56.3008C57.2392 17.332 58 16.5712 58 15.6328V13.9902C58 11.5547 56.7821 9.39951 54.9246 8.09746ZM49.1074 5.09766C49.1074 4.16071 49.8697 3.39844 50.8066 3.39844C51.7436 3.39844 52.5059 4.16071 52.5059 5.09766C52.5059 6.03461 51.7436 6.79688 50.8066 6.79688C49.8697 6.79688 49.1074 6.03461 49.1074 5.09766ZM47.0122 13.9336C47.0425 11.867 48.733 10.1953 50.8066 10.1953C52.8803 10.1953 54.5709 11.867 54.6011 13.9336H47.0122Z" fill="#1D1068"/>
<path id="Vector_2" d="M1.69922 17.332H12.6875C13.6259 17.332 14.3867 16.5712 14.3867 15.6328V13.9902C14.3867 11.5547 13.1688 9.3994 11.3114 8.09746C11.9267 7.2551 12.291 6.21835 12.291 5.09766C12.291 2.28681 10.0042 0 7.19336 0C4.38251 0 2.0957 2.28681 2.0957 5.09766C2.0957 6.21835 2.46002 7.2551 3.07536 8.09746C1.21789 9.3994 0 11.5547 0 13.9902V15.6328C0 16.5712 0.760797 17.332 1.69922 17.332ZM3.39889 13.9336C3.42925 11.867 5.11975 10.1953 7.19336 10.1953C9.26697 10.1953 10.9575 11.867 10.9878 13.9336H3.39889ZM5.49414 5.09766C5.49414 4.16071 6.25641 3.39844 7.19336 3.39844C8.13031 3.39844 8.89258 4.16071 8.89258 5.09766C8.89258 6.03461 8.13031 6.79688 7.19336 6.79688C6.25641 6.79688 5.49414 6.03461 5.49414 5.09766Z" fill="#1D1068"/>
<path id="Vector_3" d="M11.3114 48.7654C11.9267 47.9231 12.291 46.8863 12.291 45.7656C12.291 42.9548 10.0042 40.668 7.19336 40.668C4.38251 40.668 2.0957 42.9548 2.0957 45.7656C2.0957 46.8863 2.46002 47.9231 3.07536 48.7654C1.21789 50.0674 0 52.2227 0 54.6582V56.3008C0 57.2392 0.760797 58 1.69922 58H12.6875C13.6259 58 14.3867 57.2392 14.3867 56.3008V54.6582C14.3867 52.2227 13.1688 50.0674 11.3114 48.7654ZM5.49414 45.7656C5.49414 44.8287 6.25641 44.0664 7.19336 44.0664C8.13031 44.0664 8.89258 44.8287 8.89258 45.7656C8.89258 46.7026 8.13031 47.4648 7.19336 47.4648C6.25641 47.4648 5.49414 46.7026 5.49414 45.7656ZM3.39889 54.6016C3.42925 52.535 5.11975 50.8633 7.19336 50.8633C9.26697 50.8633 10.9575 52.535 10.9878 54.6016H3.39889Z" fill="#1D1068"/>
<path id="Vector_4" d="M54.9246 48.7654C55.54 47.9231 55.9043 46.8863 55.9043 45.7656C55.9043 42.9548 53.6175 40.668 50.8066 40.668C47.9958 40.668 45.709 42.9548 45.709 45.7656C45.709 46.8863 46.0733 47.9231 46.6886 48.7654C44.8312 50.0674 43.6133 52.2227 43.6133 54.6582V56.3008C43.6133 57.2392 44.3741 58 45.3125 58H56.3008C57.2392 58 58 57.2392 58 56.3008V54.6582C58 52.2227 56.7821 50.0674 54.9246 48.7654ZM49.1074 45.7656C49.1074 44.8287 49.8697 44.0664 50.8066 44.0664C51.7436 44.0664 52.5059 44.8287 52.5059 45.7656C52.5059 46.7026 51.7436 47.4648 50.8066 47.4648C49.8697 47.4648 49.1074 46.7026 49.1074 45.7656ZM47.0122 54.6016C47.0425 52.535 48.733 50.8633 50.8066 50.8633C52.8803 50.8633 54.5709 52.535 54.6011 54.6016H47.0122Z" fill="#1D1068"/>
<path id="Vector_5" d="M52.7402 37.4908C52.8947 37.5346 53.0503 37.5554 53.2034 37.5554C53.9446 37.5554 54.6261 37.0665 54.8377 36.318C55.5078 33.9476 55.8476 31.4855 55.8476 29C55.8476 26.6198 55.5359 24.2599 54.9209 21.986C54.676 21.0801 53.7434 20.5443 52.837 20.7893C51.9312 21.0344 51.3952 21.9672 51.6404 22.8733C52.1771 24.8579 52.4492 26.9193 52.4492 29C52.4492 31.1728 52.1525 33.3239 51.5674 35.3934C51.3122 36.2965 51.8373 37.2356 52.7402 37.4908Z" fill="#1D1068"/>
<path id="Vector_6" d="M5.16291 20.7893C4.25711 20.5445 3.32412 21.0801 3.07898 21.986C2.46409 24.2599 2.15234 26.6197 2.15234 28.9999C2.15234 31.4854 2.49219 33.9476 3.16236 36.318C3.37397 37.0665 4.05524 37.5553 4.79655 37.5553C4.9496 37.5553 5.10525 37.5345 5.25976 37.4908C6.16284 37.2354 6.6879 36.2964 6.43256 35.3934C5.84746 33.3238 5.55078 31.1728 5.55078 28.9999C5.55078 26.9193 5.82288 24.8579 6.35961 22.8732C6.60464 21.9672 6.06882 21.0343 5.16291 20.7893Z" fill="#1D1068"/>
<path id="Vector_7" d="M17.2553 8.45792C17.5233 8.45792 17.7953 8.39425 18.0487 8.26024C21.3977 6.48773 25.1846 5.55078 28.9999 5.55078C32.8152 5.55078 36.602 6.48773 39.9513 8.26024C40.7808 8.69921 41.809 8.3827 42.2479 7.55325C42.6869 6.72381 42.3704 5.69555 41.5409 5.25659C37.7039 3.2258 33.3672 2.15234 28.9999 2.15234C24.6326 2.15234 20.296 3.2258 16.4589 5.25648C15.6294 5.69544 15.3129 6.72381 15.7519 7.55314C16.0569 8.12929 16.6459 8.45792 17.2553 8.45792Z" fill="#1D1068"/>
<path id="Vector_8" d="M38.1088 50.6142C35.224 51.8318 32.1595 52.4492 29.0002 52.4492C25.8409 52.4492 22.7764 51.8318 19.8916 50.6142C19.0271 50.2492 18.0303 50.6543 17.6654 51.5189C17.3005 52.3834 17.7055 53.3802 18.5701 53.7451C21.8753 55.1402 25.3846 55.8477 29.0002 55.8477C32.6159 55.8477 36.1252 55.1402 39.4304 53.7451C40.295 53.3801 40.7 52.3833 40.335 51.5189C39.97 50.6544 38.9736 50.2492 38.1088 50.6142Z" fill="#1D1068"/>
<g id="Group_2">
<path id="Vector_9" d="M29 23.9023C26.1892 23.9023 23.9023 26.1892 23.9023 29C23.9023 31.8108 26.1892 34.0977 29 34.0977C31.8108 34.0977 34.0977 31.8108 34.0977 29C34.0977 26.1892 31.8108 23.9023 29 23.9023ZM29 30.6992C28.0631 30.6992 27.3008 29.9369 27.3008 29C27.3008 28.0631 28.0631 27.3008 29 27.3008C29.9369 27.3008 30.6992 28.0631 30.6992 29C30.6992 29.9369 29.9369 30.6992 29 30.6992Z" fill="#00B7AF"/>
<path id="Vector_10" d="M43.1114 24.6754L39.9806 24.4518L42.0363 22.0799C42.6201 21.4062 42.5841 20.3958 41.9537 19.7654L38.2347 16.0464C37.6045 15.416 36.594 15.38 35.9202 15.9638L33.5484 18.0195L33.3246 14.8887C33.2611 13.9994 32.5211 13.3105 31.6297 13.3105H26.3703C25.4788 13.3105 24.7389 13.9995 24.6754 14.8887L24.4518 18.0195L22.0799 15.9638C21.4062 15.3801 20.3958 15.416 19.7654 16.0464L16.0464 19.7654C15.416 20.3957 15.38 21.4061 15.9638 22.0798L18.0195 24.4518L14.8887 24.6754C13.9994 24.7389 13.3105 25.4788 13.3105 26.3703V31.6298C13.3105 32.5213 13.9995 33.2612 14.8887 33.3247L18.0195 33.5484L15.9638 35.9202C15.38 36.5939 15.416 37.6043 16.0464 38.2347L19.7654 41.9537C20.3957 42.5841 21.4061 42.6201 22.0799 42.0363L24.4518 39.9806L24.6754 43.1114C24.7389 44.0007 25.4788 44.6896 26.3703 44.6896H31.6297C32.5211 44.6896 33.2611 44.0006 33.3246 43.1114L33.5484 39.9806L35.9202 42.0363C36.594 42.6203 37.6043 42.584 38.2347 41.9537L41.9537 38.2347C42.584 37.6044 42.6201 36.5939 42.0363 35.9202L39.9807 33.5484L43.1114 33.3247C44.0007 33.2612 44.6897 32.5213 44.6897 31.6298V26.3703C44.6897 25.4788 44.0007 24.7388 43.1114 24.6754ZM41.2912 30.0476L37.8648 30.2924C37.1789 30.3415 36.5903 30.7989 36.3734 31.4513C36.2568 31.8021 36.1134 32.1477 35.9473 32.4784C35.6384 33.0934 35.7311 33.8339 36.1817 34.3539L38.432 36.9503L36.9505 38.4318L34.354 36.1815C33.8338 35.7307 33.0935 35.6384 32.4786 35.947C32.1474 36.1133 31.8018 36.2566 31.4516 36.373C30.799 36.5898 30.3415 37.1786 30.2925 37.8645L30.0477 41.291H27.9526L27.7078 37.8645C27.6588 37.1786 27.2012 36.5898 26.5487 36.373C26.1986 36.2567 25.8529 36.1134 25.5214 35.9469C24.9064 35.6384 24.1662 35.7309 23.6462 36.1815L21.0498 38.4317L19.5683 36.9502L21.8185 34.3538C22.2692 33.8338 22.3617 33.0935 22.0531 32.4786C21.8867 32.1471 21.7433 31.8014 21.627 31.4513C21.4102 30.7988 20.8214 30.3413 20.1355 30.2922L16.709 30.0474V27.9523L20.1355 27.7075C20.8214 27.6584 21.4102 27.2009 21.627 26.5484C21.7433 26.1982 21.8866 25.8526 22.0531 25.521C22.3617 24.9061 22.2692 24.1658 21.8185 23.6459L19.5683 21.0494L21.0498 19.5679L23.6462 21.8182C24.1662 22.2688 24.9065 22.3614 25.5214 22.0528C25.8529 21.8864 26.1986 21.743 26.5487 21.6266C27.2012 21.4098 27.6588 20.8211 27.7078 20.1352L27.9526 16.7086H30.0477L30.2925 20.1352C30.3416 20.8211 30.7991 21.4098 31.4516 21.6266C31.8019 21.743 32.1475 21.8863 32.4786 22.0527C33.0939 22.3616 33.8342 22.2688 34.354 21.8182L36.9505 19.5679L38.432 21.0494L36.1817 23.6458C35.7309 24.1657 35.6384 24.9062 35.9473 25.5212C36.1134 25.8519 36.2567 26.1975 36.3734 26.5484C36.5903 27.2009 37.1789 27.6583 37.8648 27.7072L41.2912 27.952V30.0476Z" fill="#00B7AF"/>
</g>
</g>
</g>
</svg>
