<?xml version="1.0" encoding="UTF-8" standalone="no"?>
<!-- Created with Inkscape (http://www.inkscape.org/) -->

<svg
   version="1.1"
   id="svg6330"
   xml:space="preserve"
   width="682.66669"
   height="682.66669"
   viewBox="0 0 682.66669 682.66669"
   xmlns="http://www.w3.org/2000/svg"
   xmlns:svg="http://www.w3.org/2000/svg"><defs
     id="defs6334"><clipPath
       clipPathUnits="userSpaceOnUse"
       id="clipPath6344"><path
         d="M 0,512 H 512 V 0 H 0 Z"
         id="path6342" /></clipPath></defs><g
     id="g6336"
     transform="matrix(1.3333333,0,0,-1.3333333,0,682.66667)"><g
       id="g6338"><g
         id="g6340"
         clip-path="url(#clipPath6344)"><g
           id="g6346"
           transform="translate(366.0234)"><path
             d="m 0,0 h -321.989 c -16.102,0 -29.155,13.053 -29.155,29.154 v 453.692 c 0,16.101 13.053,29.154 29.155,29.154 H 0 c 16.101,0 29.154,-13.053 29.154,-29.154 V 29.154 C 29.154,13.053 16.101,0 0,0"
             style="fill:#ffe8d2;fill-opacity:1;fill-rule:nonzero;stroke:none"
             id="path6348" /></g><g
           id="g6350"
           transform="translate(366.0166,512)"><path
             d="m 0,0 h -26.89 v -132.607 c 0,-176.035 -142.765,-318.739 -318.875,-318.739 h -5.372 v -31.507 c 0,-16.097 13.056,-29.147 29.16,-29.147 H 0 c 16.104,0 29.16,13.05 29.16,29.147 V -29.147 C 29.16,-13.05 16.104,0 0,0"
             style="fill:#f7d4ad;fill-opacity:1;fill-rule:nonzero;stroke:none"
             id="path6352" /></g><g
           id="g6354"
           transform="translate(353.1611,158.2021)"><path
             d="m 0,0 h -269.91 c -4.285,0 -7.759,3.472 -7.759,7.755 0,4.284 3.474,7.755 7.759,7.755 H 0 c 4.285,0 7.759,-3.471 7.759,-7.755 C 7.759,3.472 4.285,0 0,0"
             style="fill:#e2a876;fill-opacity:1;fill-rule:nonzero;stroke:none"
             id="path6356" /></g><g
           id="g6358"
           transform="translate(353.1611,116.542)"><path
             d="m 0,0 h -269.91 c -4.285,0 -7.759,3.472 -7.759,7.755 0,4.283 3.474,7.755 7.759,7.755 H 0 c 4.285,0 7.759,-3.472 7.759,-7.755 C 7.759,3.472 4.285,0 0,0"
             style="fill:#e2a876;fill-opacity:1;fill-rule:nonzero;stroke:none"
             id="path6360" /></g><g
           id="g6362"
           transform="translate(353.1611,74.8809)"><path
             d="m 0,0 h -269.91 c -4.285,0 -7.759,3.472 -7.759,7.755 0,4.283 3.474,7.755 7.759,7.755 H 0 c 4.285,0 7.759,-3.472 7.759,-7.755 C 7.759,3.472 4.285,0 0,0"
             style="fill:#e2a876;fill-opacity:1;fill-rule:nonzero;stroke:none"
             id="path6364" /></g><g
           id="g6366"
           transform="translate(353.1611,33.2207)"><path
             d="m 0,0 h -269.91 c -4.285,0 -7.759,3.471 -7.759,7.755 0,4.283 3.474,7.755 7.759,7.755 H 0 c 4.285,0 7.759,-3.472 7.759,-7.755 C 7.759,3.471 4.285,0 0,0"
             style="fill:#e2a876;fill-opacity:1;fill-rule:nonzero;stroke:none"
             id="path6368" /></g><g
           id="g6370"
           transform="translate(353.1611,241.5234)"><path
             d="m 0,0 h -269.91 c -4.285,0 -7.759,3.472 -7.759,7.756 0,4.283 3.474,7.755 7.759,7.755 H 0 c 4.285,0 7.759,-3.472 7.759,-7.755 C 7.759,3.472 4.285,0 0,0"
             style="fill:#e2a876;fill-opacity:1;fill-rule:nonzero;stroke:none"
             id="path6372" /></g><g
           id="g6374"
           transform="translate(353.1611,199.8633)"><path
             d="m 0,0 h -269.91 c -4.285,0 -7.759,3.472 -7.759,7.755 0,4.284 3.474,7.756 7.759,7.756 H 0 c 4.285,0 7.759,-3.472 7.759,-7.756 C 7.759,3.472 4.285,0 0,0"
             style="fill:#e2a876;fill-opacity:1;fill-rule:nonzero;stroke:none"
             id="path6376" /></g><g
           id="g6378"
           transform="translate(62.4697,165.958)"><path
             d="m 0,0 c 0,-4.283 -3.474,-7.756 -7.758,-7.756 -4.285,0 -7.759,3.473 -7.759,7.756 0,4.282 3.474,7.755 7.759,7.755 C -3.474,7.755 0,4.282 0,0"
             style="fill:#e2a876;fill-opacity:1;fill-rule:nonzero;stroke:none"
             id="path6380" /></g><g
           id="g6382"
           transform="translate(62.4697,249.2793)"><path
             d="m 0,0 c 0,-4.283 -3.474,-7.756 -7.758,-7.756 -4.285,0 -7.759,3.473 -7.759,7.756 0,4.282 3.474,7.755 7.759,7.755 C -3.474,7.755 0,4.282 0,0"
             style="fill:#e2a876;fill-opacity:1;fill-rule:nonzero;stroke:none"
             id="path6384" /></g><g
           id="g6386"
           transform="translate(62.4697,207.6182)"><path
             d="m 0,0 c 0,-4.283 -3.474,-7.755 -7.758,-7.755 -4.285,0 -7.759,3.472 -7.759,7.755 0,4.283 3.474,7.755 7.759,7.755 C -3.474,7.755 0,4.283 0,0"
             style="fill:#e2a876;fill-opacity:1;fill-rule:nonzero;stroke:none"
             id="path6388" /></g><g
           id="g6390"
           transform="translate(62.4697,124.2969)"><path
             d="m 0,0 c 0,-4.283 -3.474,-7.755 -7.758,-7.755 -4.285,0 -7.759,3.472 -7.759,7.755 0,4.283 3.474,7.755 7.759,7.755 C -3.474,7.755 0,4.283 0,0"
             style="fill:#e2a876;fill-opacity:1;fill-rule:nonzero;stroke:none"
             id="path6392" /></g><g
           id="g6394"
           transform="translate(62.4697,82.6357)"><path
             d="m 0,0 c 0,-4.282 -3.474,-7.755 -7.758,-7.755 -4.285,0 -7.759,3.473 -7.759,7.755 0,4.283 3.474,7.756 7.759,7.756 C -3.474,7.756 0,4.283 0,0"
             style="fill:#e2a876;fill-opacity:1;fill-rule:nonzero;stroke:none"
             id="path6396" /></g><g
           id="g6398"
           transform="translate(62.4697,40.9756)"><path
             d="m 0,0 c 0,-4.283 -3.474,-7.755 -7.758,-7.755 -4.285,0 -7.759,3.472 -7.759,7.755 0,4.283 3.474,7.755 7.759,7.755 C -3.474,7.755 0,4.283 0,0"
             style="fill:#e2a876;fill-opacity:1;fill-rule:nonzero;stroke:none"
             id="path6400" /></g><g
           id="g6402"
           transform="translate(243.5205,298.2373)"><path
             d="m 0,0 h -77.348 c -11.949,0 -20.945,10.877 -18.696,22.604 l 3.038,15.869 c 0.873,4.551 2.64,8.796 5.148,12.523 3.96,5.941 9.77,10.583 16.712,13.104 L -38.454,75.953 -6.014,64.19 C 0.964,61.656 6.795,56.979 10.762,50.989 v -0.007 c 2.542,-3.818 4.316,-8.161 5.154,-12.824 L 18.737,22.381 C 20.826,10.716 11.858,0 0,0"
             style="fill:#b8b6ff;fill-opacity:1;fill-rule:nonzero;stroke:none"
             id="path6404" /></g><g
           id="g6406"
           transform="translate(222.9561,367.6582)"><path
             d="M 0,0 -18.291,-15.96 -36.57,0 V 24.5 H 0 Z"
             style="fill:#ecbd83;fill-opacity:1;fill-rule:nonzero;stroke:none"
             id="path6408" /></g><g
           id="g6410"
           transform="translate(233.7148,435.375)"><path
             d="M 0,0 V -20.765 C 0,-37.048 -13.332,-50.762 -29.619,-50.447 -45.403,-50.144 -58.1,-37.26 -58.1,-21.414 V 0 c 0,16.037 13.006,24.406 29.05,24.406 C -13.006,24.406 0,16.037 0,0"
             style="fill:#f7d4ad;fill-opacity:1;fill-rule:nonzero;stroke:none"
             id="path6412" /></g><g
           id="g6414"
           transform="translate(174.4697,326.2734)"><path
             d="m 0,0 v -28.036 h -8.297 c -11.949,0 -20.945,10.877 -18.696,22.604 l 3.038,15.869 c 0.873,4.551 2.64,8.795 5.147,12.523 C -8.073,20.817 0,11.351 0,0"
             style="fill:#a09eef;fill-opacity:1;fill-rule:nonzero;stroke:none"
             id="path6416" /></g><g
           id="g6418"
           transform="translate(243.5205,298.2373)"><path
             d="m 0,0 h -7.997 v 28.036 c 0,11.33 8.053,20.789 18.759,22.946 2.542,-3.818 4.316,-8.161 5.154,-12.824 L 18.737,22.381 C 20.826,10.716 11.858,0 0,0"
             style="fill:#a09eef;fill-opacity:1;fill-rule:nonzero;stroke:none"
             id="path6420" /></g><g
           id="g6422"
           transform="translate(233.7148,436.791)"><path
             d="m 0,0 c -1.088,-0.834 -1.897,-1.433 -1.897,-1.433 -2.058,-1.188 -4.293,-2.275 -6.688,-3.236 -10.894,-4.357 -21.545,-4.518 -26.696,-0.91 0,0 -5.38,4.012 -7.396,6.574 -2.014,2.563 -8.424,3.211 -13.736,-2.428 -0.557,-0.589 -1.121,-0.977 -1.687,-1.205 v 1.205 c 0,16.049 13.012,29.054 29.067,29.054 8.027,0 15.297,-3.253 20.55,-8.513 C -3.534,14.169 -0.363,7.46 0,0"
             style="fill:#6e4848;fill-opacity:1;fill-rule:nonzero;stroke:none"
             id="path6424" /></g><g
           id="g6426"
           transform="translate(424.1016,163.4443)"><path
             d="m 0,0 -26.37,20.637 c -1.5,1.175 -3.609,1.175 -5.109,0 L -57.849,0 c -2.719,-2.128 -6.698,-0.191 -6.698,3.262 v 147.959 c 0,2.287 1.856,4.141 4.144,4.141 H 2.555 c 2.288,0 4.143,-1.854 4.143,-4.141 V 3.262 C 6.698,-0.191 2.72,-2.128 0,0"
             style="fill:#ff445c;fill-opacity:1;fill-rule:nonzero;stroke:none"
             id="path6428" /></g><g
           id="g6430"
           transform="translate(497.1201,371.8564)"><path
             d="m 0,0 c 0,-13.006 -14.132,-23.107 -18.824,-34.417 -4.864,-11.722 -2.204,-28.814 -11.043,-37.647 -8.837,-8.832 -25.929,-6.162 -37.654,-11.021 -11.311,-4.687 -21.416,-18.817 -34.421,-18.817 -13.007,0 -23.112,14.13 -34.422,18.817 -11.726,4.859 -28.818,2.189 -37.656,11.021 -8.838,8.834 -6.177,25.925 -11.042,37.648 -4.692,11.309 -18.824,21.41 -18.824,34.416 0,13.006 14.132,23.107 18.824,34.416 4.865,11.723 2.205,28.815 11.043,37.648 8.838,8.832 25.929,6.162 37.655,11.021 11.31,4.687 21.415,18.816 34.422,18.816 13.005,0 23.11,-14.129 34.421,-18.816 11.725,-4.859 28.817,-2.189 37.655,-11.022 8.839,-8.833 6.178,-25.925 11.042,-37.647 C -14.132,23.107 0,13.006 0,0"
             style="fill:#ff8b59;fill-opacity:1;fill-rule:nonzero;stroke:none"
             id="path6432" /></g><g
           id="g6434"
           transform="translate(396.8672,422.2549)"><path
             d="m 0,0 16.372,-24.445 c 0.269,-0.402 0.671,-0.694 1.136,-0.826 l 28.318,-8.009 c 1.393,-0.395 1.94,-2.076 1.044,-3.213 L 28.671,-59.611 c -0.299,-0.38 -0.452,-0.853 -0.434,-1.335 l 1.129,-29.396 c 0.056,-1.446 -1.376,-2.485 -2.734,-1.985 L -0.987,-82.17 c -0.454,0.166 -0.951,0.166 -1.406,0 l -27.619,-10.157 c -1.358,-0.5 -2.79,0.539 -2.734,1.985 l 1.129,29.396 c 0.018,0.482 -0.135,0.955 -0.434,1.335 l -18.199,23.118 c -0.896,1.137 -0.349,2.818 1.045,3.213 l 28.317,8.009 c 0.465,0.132 0.867,0.424 1.136,0.826 L -3.38,0 C -2.574,1.202 -0.806,1.202 0,0"
             style="fill:#fee07d;fill-opacity:1;fill-rule:nonzero;stroke:none"
             id="path6436" /></g></g></g></g></svg>
