<svg id="Capa_1" enable-background="new 0 0 512 512" height="512" viewBox="0 0 512 512" width="512" xmlns="http://www.w3.org/2000/svg"><path d="m402 306.667 12.347-107.556h-32.508l-44.839 187.889 159.471-9.095 13.066-48.762z" fill="#ffa95f"/><path d="m379.505 329.143h-32.508l-17.421 65.016h146.286c8.977 0 18.204-7.277 20.609-16.254h-113.778c-8.977 0-14.304-7.277-11.899-16.254z" fill="#ff8b5a"/><path d="m507.27 308.154-27.479-19.646-31.29-20.383 31.018-36.506-.098-20.531c-.034-7.071-5.142-11.977-12.472-11.977h-52.601l-34.842 130.032h130.032l1.889-7.051c1.529-5.71-.049-11.001-4.157-13.938z" fill="#ffc269"/><path d="m323.956 182.857h70.365c4.488 0 7.152 3.639 5.949 8.127l-50.085 186.921-234.519 13.762c-4.488 0-6.203-2.178-5-6.667l44.834-168.5z" fill="#e5646e"/><path d="m130.757 377.905c-4.489 0-7.152-3.639-5.949-8.127l11.872-44.306c1.239-4.624 6.217-7.266 10.664-5.494 14.765 5.883 30.836 9.166 47.704 9.166 71.814 0 130.032-58.217 130.032-130.032 0-5.517-.456-10.918-1.123-16.254h-157.19c-4.489 0-9.102 3.638-10.305 8.127l-52.263 195.048c-1.203 4.488 1.461 8.127 5.949 8.127h235.682l4.355-16.254h-219.428z" fill="#db4655"/><ellipse cx="435.227" cy="394.159" fill="#5d5360" rx="37.154" ry="28.443" transform="matrix(.753 -.659 .659 .753 -151.87 384.11)"/><ellipse cx="435.227" cy="394.159" fill="#dad8db" rx="18.577" ry="14.222" transform="matrix(.753 -.659 .659 .753 -151.87 384.11)"/><ellipse cx="183.291" cy="394.159" fill="#5d5360" rx="37.154" ry="28.443" transform="matrix(.753 -.659 .659 .753 -214.201 218.213)"/><ellipse cx="183.291" cy="394.159" fill="#dad8db" rx="18.577" ry="14.222" transform="matrix(.753 -.659 .659 .753 -214.201 218.213)"/><path d="m479.518 231.619h-41.373l-14.395 16.254 5.625 35.377 50.415-10.996z" fill="#dbeaff"/><path d="m443.51 272.254c-8.977 0-14.304-7.277-11.899-16.254l6.533-24.381c-8.977 0-18.204 7.277-20.609 16.254l-6.533 24.381c-2.405 8.977 2.922 16.254 11.899 16.254h56.889l-.078-16.254z" fill="#c3ddff"/><circle cx="195.048" cy="199.111" fill="#eceaec" r="113.778"/><circle cx="195.048" cy="199.111" fill="#fff" r="97.524"/><g fill="#c8c5c9"><path d="m195.048 134.095c-4.492 0-8.127-3.639-8.127-8.127v-8.127c0-4.488 3.635-8.127 8.127-8.127s8.127 3.639 8.127 8.127v8.127c0 4.488-3.635 8.127-8.127 8.127z"/><path d="m195.048 288.508c-4.492 0-8.127-3.639-8.127-8.127v-8.127c0-4.488 3.635-8.127 8.127-8.127s8.127 3.639 8.127 8.127v8.127c0 4.488-3.635 8.127-8.127 8.127z"/><path d="m276.317 207.238h-8.127c-4.492 0-8.127-3.639-8.127-8.127s3.635-8.127 8.127-8.127h8.127c4.492 0 8.127 3.639 8.127 8.127s-3.634 8.127-8.127 8.127z"/><path d="m121.905 207.238h-8.127c-4.492 0-8.127-3.639-8.127-8.127s3.635-8.127 8.127-8.127h8.127c4.492 0 8.127 3.639 8.127 8.127s-3.635 8.127-8.127 8.127z"/></g><path d="m89.397 312.889h-81.27c-4.492 0-8.127-3.639-8.127-8.127s3.635-8.127 8.127-8.127h81.27c4.492 0 8.127 3.639 8.127 8.127s-3.635 8.127-8.127 8.127z" fill="#f9eac7"/><path d="m81.27 345.397h-48.762c-4.492 0-8.127-3.639-8.127-8.127s3.635-8.127 8.127-8.127h48.762c4.492 0 8.127 3.639 8.127 8.127s-3.635 8.127-8.127 8.127z" fill="#f9eac7"/><path d="m73.143 377.905h-16.254c-4.492 0-8.127-3.639-8.127-8.127s3.635-8.127 8.127-8.127h16.254c4.492 0 8.127 3.639 8.127 8.127s-3.635 8.127-8.127 8.127z" fill="#f9eac7"/><path d="m170.667 231.619c-2.079 0-4.159-.794-5.746-2.381-3.175-3.175-3.175-8.317 0-11.492l77.206-77.206c3.175-3.175 8.317-3.175 11.492 0s3.175 8.317 0 11.492l-77.206 77.206c-1.588 1.587-3.667 2.381-5.746 2.381z" fill="#e5646e"/><circle cx="195.048" cy="199.111" fill="#5d5360" r="16.254"/></svg>