<svg width="62" height="60" viewBox="0 0 62 60" fill="none" xmlns="http://www.w3.org/2000/svg">
<g id="Horse">
<g id="Group">
<path id="Vector" d="M50.6779 1.55806L49.652 0.53223C49.3113 0.19158 48.8492 0.000244141 48.3676 0.000244141C47.8857 0.000244141 47.4238 0.191701 47.0832 0.532352L46.0574 1.55818C44.2741 3.34148 43.292 5.71247 43.292 8.23435C43.292 10.7562 44.2741 13.1272 46.0574 14.9105C46.3981 15.2512 46.86 15.4425 47.3418 15.4425H49.3934C49.8753 15.4425 50.3373 15.251 50.6778 14.9104C54.3592 11.2291 54.3592 5.23933 50.6779 1.55806Z" fill="#934B27"/>
<path id="Vector_2" d="M40.7175 11.1904L39.6768 2.62329C39.6132 2.09954 39.325 1.62931 38.8871 1.33492C38.4495 1.04053 37.9056 0.950794 37.396 1.08982C34.1206 1.98243 30.8476 3.5859 27.9313 5.72692C24.85 7.98905 22.3991 10.6985 20.8427 13.5636L8.34084 36.0127C8.0852 36.4719 8.04076 37.0193 8.21938 37.5136C8.398 38.0079 8.78188 38.4007 9.27197 38.5904L17.59 41.811C17.804 41.8939 18.0259 41.9337 18.2454 41.9337C18.8168 41.9337 19.3709 41.6633 19.7201 41.1784L40.3885 12.4708C40.6552 12.1005 40.7725 11.6433 40.7175 11.1904Z" fill="#4A5860"/>
<path id="Vector_3" d="M60.6163 26.3066C60.6159 26.3064 60.6157 26.3061 60.6153 26.3058L60.5835 26.2739C57.3756 23.0617 55.0027 18.9494 53.7216 14.3814C53.1723 12.4225 52.1194 10.6213 50.6765 9.17237C48.7627 7.2503 46.3062 6.0622 43.6403 5.74504C43.2092 4.17148 42.3734 2.72169 41.2097 1.55793L40.1838 0.532107C39.8433 0.191457 39.3811 0 38.8994 0C38.4177 0 37.9557 0.191457 37.615 0.531986L36.5891 1.55793C34.5833 3.56369 33.6003 6.33394 33.8652 9.12381C33.5712 9.444 33.2429 9.8251 33.0149 10.1582C32.1279 11.4546 30.935 13.2532 30.2931 14.453L18.4077 36.4552C18.1315 36.9666 18.1167 37.5791 18.3676 38.1032C18.6187 38.6273 19.1054 38.9997 19.6769 39.1049L42.6159 43.3298L44.6632 31.545C46.9284 32.7713 49.0723 34.2647 50.863 36.0554C52.7116 37.9041 55.7193 37.9039 57.5675 36.0554L60.6138 33.0091C62.4611 31.1617 62.4622 28.1551 60.6163 26.3066Z" fill="#C9885B"/>
<path id="Vector_4" d="M60.6154 26.3058L60.5836 26.2739C57.3757 23.0617 55.0028 18.9494 53.7217 14.3814C53.1724 12.4225 52.1195 10.6213 50.6766 9.17237C48.7628 7.2503 46.3063 6.0622 43.6404 5.74504C43.2093 4.17148 42.3735 2.72169 41.2098 1.55793L40.1839 0.532107C39.8434 0.191457 39.3812 0 38.8995 0C38.8884 0 38.8774 0.00145318 38.8662 0.00169537V42.6391L42.616 43.3297L44.6633 31.5449C46.9285 32.7712 49.0724 34.2646 50.8631 36.0553C52.7117 37.904 55.7194 37.9038 57.5676 36.0553L60.6139 33.0089C62.4612 31.1617 62.4623 28.1551 60.6164 26.3065C60.616 26.3063 60.6158 26.306 60.6154 26.3058Z" fill="#A05F4B"/>
<path id="Vector_5" d="M22.3813 30.2124H9.16535L0 39.3776V50.6954L9.16535 59.8606H35.5621L44.7274 50.6954V39.3776L22.3813 30.2124Z" fill="#81E584"/>
<g id="Group_2">
<path id="Vector_6" d="M9.16523 30.2124H1.81018C0.810513 30.2124 0 31.0228 0 32.0226V39.3776C5.40887 40.2455 10.0331 35.6213 9.16523 30.2124Z" fill="#00CA74"/>
<path id="Vector_7" d="M9.16523 59.8605C10.0331 54.4515 5.40887 49.8274 0 50.6953V58.0503C0 59.0501 0.810513 59.8605 1.81018 59.8605H9.16523Z" fill="#00CA74"/>
<path id="Vector_8" d="M22.3813 30.2124V59.8606H35.5621L44.7274 50.6954V39.3776L35.5621 30.2124H22.3813Z" fill="#00CA74"/>
<path id="Vector_9" d="M24.1816 43.1834C23.2214 42.8439 22.045 42.3956 21.4392 41.9294C21.4124 41.8718 21.3768 41.6743 21.4675 41.4308C21.5253 41.276 21.6433 41.0764 21.8783 41.0055C22.716 40.7532 23.2715 41.0736 23.4715 41.223C24.2749 41.8238 25.4133 41.6594 26.014 40.8559C26.6147 40.0524 26.4504 38.914 25.6469 38.3133C25.4186 38.1427 24.914 37.8085 24.1972 37.5662V37.5339C24.1972 36.5307 23.3839 35.7174 22.3807 35.7174C21.3775 35.7174 20.5642 36.5307 20.5642 37.5339V37.6176C19.1702 38.1422 18.1431 39.3808 17.8544 40.9124C17.5686 42.4291 18.0764 43.9089 19.18 44.7745C20.1879 45.5649 21.5976 46.1232 22.971 46.6085C23.1785 46.6819 23.8102 46.9052 23.6741 47.7154C23.6014 48.1473 23.2294 48.8801 22.2953 48.8864C21.2342 48.8928 21.0085 48.8584 20.2476 48.3606C19.408 47.8114 18.2823 48.0468 17.7331 48.8863C17.1839 49.7259 17.4193 50.8516 18.2588 51.4008C19.1263 51.9684 19.818 52.2572 20.5646 52.3979C20.5684 53.3979 21.3798 54.2076 22.3807 54.2076C23.3839 54.2076 24.1972 53.3943 24.1972 52.3911V52.1444C25.772 51.5013 26.9598 50.0836 27.2568 48.3176C27.6408 46.0327 26.4049 43.9694 24.1816 43.1834Z" fill="#00CA74"/>
</g>
<g id="Group_3">
<path id="Vector_10" d="M24.1817 43.1835C23.6025 42.9787 22.9452 42.7342 22.3813 42.4701V46.3955C22.5778 46.4683 22.7748 46.5394 22.971 46.6088C23.1785 46.6821 23.8102 46.9054 23.6741 47.7156C23.6037 48.1339 23.2512 48.8319 22.3813 48.8818V54.2078C23.3843 54.2075 24.1972 53.3944 24.1972 52.3913V52.1447C25.772 51.5015 26.9598 50.0838 27.2568 48.3178C27.6409 46.0328 26.4051 43.9695 24.1817 43.1835Z" fill="#00AA59"/>
<path id="Vector_11" d="M22.3813 35.7177V40.9161C22.9391 40.8854 23.3149 41.1062 23.4716 41.2233C24.2751 41.824 25.4134 41.6596 26.0142 40.8561C26.6148 40.0526 26.4505 38.9143 25.647 38.3135C25.4187 38.1429 24.9141 37.8088 24.1973 37.5665V37.5341C24.1972 36.5311 23.3843 35.7179 22.3813 35.7177Z" fill="#00AA59"/>
</g>
<path id="Vector_12" d="M42.9174 30.2124H35.5623C34.6944 35.6213 39.3187 40.2455 44.7276 39.3776V32.0226C44.7277 31.0228 43.9172 30.2124 42.9174 30.2124Z" fill="#00AA59"/>
<path id="Vector_13" d="M44.7276 50.6955C39.3187 49.8276 34.6944 54.4519 35.5623 59.8608H42.9174C43.9172 59.8608 44.7276 59.0502 44.7276 58.0506V50.6955Z" fill="#00AA59"/>
</g>
</g>
</svg>
