<svg width="58" height="58" viewBox="0 0 58 58" fill="none" xmlns="http://www.w3.org/2000/svg">
<g id="innovative-solution">
<g id="Hand">
<g id="Group">
<path id="Vector" d="M57.022 35.4577C55.3283 33.0387 51.9822 32.4487 49.5632 34.1425L39.8459 40.9466C38.981 39.3627 37.3005 38.2882 35.3687 38.2882H27.1834C25.7315 38.2882 24.3171 37.8713 23.0703 37.1271C19.7806 35.1638 15.7578 34.9805 12.3022 36.6382L11.5546 36.9969V35.9107C11.5546 34.9723 10.7938 34.2115 9.85536 34.2115H1.69922C0.760797 34.2115 0 34.9723 0 35.9107V56.3014C0 57.2398 0.760797 58.0006 1.69922 58.0006H33.8714C37.824 58.0006 41.5749 56.4972 44.4332 53.7675L56.3339 42.4028C58.2615 40.5619 58.551 37.6411 57.022 35.4577ZM8.15625 54.6021H3.39844V37.61H8.15625V54.6021ZM53.9868 39.9449L42.0863 51.3097C39.863 53.4328 36.9457 54.6021 33.8714 54.6021H11.5547V40.766L13.7721 39.7024C16.2179 38.5293 19.068 38.67 21.3872 40.0806C23.1418 41.1477 25.1669 41.6866 27.2205 41.6866H35.3686C36.3072 41.6866 37.0681 42.4475 37.0681 43.3862C37.0681 44.3248 36.3071 45.0858 35.3684 45.0857L24.3962 45.085C24.3961 45.085 24.3961 45.085 24.3961 45.085C23.4305 45.085 22.653 45.8906 22.6988 46.8664C22.7418 47.7802 23.529 48.4834 24.4439 48.4835L35.3682 48.4842C37.6929 48.4843 39.6527 46.928 40.2662 44.8009L51.5124 36.9264C52.3964 36.3073 53.6192 36.523 54.2382 37.4071C54.797 38.2049 54.6912 39.2722 53.9868 39.9449Z" fill="#1D1068"/>
<path id="Vector_2" d="M22.9797 23.0705C24.016 23.9249 24.6104 25.1006 24.6104 26.2963V31.1523C24.6104 33.3386 26.389 35.1172 28.5752 35.1172H33.9561C36.1423 35.1172 37.9209 33.3386 37.9209 31.1523V26.2963C37.9209 25.1006 38.5152 23.9249 39.5516 23.0705C42.5647 20.5861 44.293 16.9256 44.293 13.0273C44.293 5.84407 38.4489 0 31.2656 0C24.0823 0 18.2383 5.84407 18.2383 13.0273C18.2383 16.9256 19.9665 20.5861 22.9797 23.0705ZM34.5225 31.1523C34.5225 31.4647 34.2684 31.7188 33.9561 31.7188H28.5752C28.2629 31.7188 28.0088 31.4647 28.0088 31.1523V28.3203H34.5225V31.1523ZM31.2656 3.39844C36.575 3.39844 40.8945 7.71797 40.8945 13.0273C40.8945 15.9071 39.6171 18.6119 37.3897 20.4484C35.9489 21.6362 34.9941 23.2173 34.6574 24.9219H32.9648V15.9968L35.8655 13.0961C36.5291 12.4325 36.5291 11.3567 35.8655 10.6931C35.202 10.0295 34.1261 10.0295 33.4625 10.6931L31.2656 12.8899L29.0686 10.6931C28.4052 10.0295 27.3292 10.0295 26.6656 10.6931C26.002 11.3567 26.002 12.4325 26.6656 13.0961L29.5664 15.9968V24.9219H27.874C27.5373 23.2173 26.5825 21.6363 25.1416 20.4484C22.9142 18.6119 21.6367 15.9071 21.6367 13.0273C21.6367 7.71797 25.9562 3.39844 31.2656 3.39844Z" fill="#00B7AF"/>
<path id="Vector_3" d="M49.3906 11.3281C48.4522 11.3281 47.6914 12.0889 47.6914 13.0273C47.6914 13.9658 48.4522 14.7266 49.3906 14.7266H52.7891C53.7275 14.7266 54.4883 13.9658 54.4883 13.0273C54.4883 12.0889 53.7275 11.3281 52.7891 11.3281H49.3906Z" fill="#1D1068"/>
<path id="Vector_4" d="M49.1077 7.13582L52.0507 5.4366C52.8634 4.96739 53.1418 3.92815 52.6726 3.11547C52.2034 2.30279 51.1642 2.02434 50.3515 2.49356L47.4084 4.19277C46.5958 4.66198 46.3173 5.70123 46.7865 6.51391C47.2557 7.32659 48.295 7.60503 49.1077 7.13582Z" fill="#1D1068"/>
<path id="Vector_5" d="M47.4084 21.8624L50.3515 23.5616C51.1642 24.0308 52.2034 23.7524 52.6726 22.9397C53.1418 22.127 52.8634 21.0878 52.0507 20.6186L49.1077 18.9193C48.295 18.4501 47.2557 18.7286 46.7865 19.5413C46.3173 20.3539 46.5958 21.3932 47.4084 21.8624Z" fill="#1D1068"/>
<path id="Vector_6" d="M9.74219 14.7266H13.1406C14.079 14.7266 14.8398 13.9658 14.8398 13.0273C14.8398 12.0889 14.079 11.3281 13.1406 11.3281H9.74219C8.80377 11.3281 8.04297 12.0889 8.04297 13.0273C8.04297 13.9658 8.80377 14.7266 9.74219 14.7266Z" fill="#1D1068"/>
<path id="Vector_7" d="M10.4807 5.4366L13.4238 7.13582C14.2365 7.60503 15.2757 7.32659 15.7449 6.51391C16.2141 5.70123 15.9357 4.66198 15.123 4.19277L12.1799 2.49356C11.3673 2.02434 10.328 2.30279 9.85881 3.11547C9.3896 3.92815 9.66794 4.96739 10.4807 5.4366Z" fill="#1D1068"/>
<path id="Vector_8" d="M13.4238 18.9193L10.4807 20.6186C9.66802 21.0878 9.38958 22.127 9.85879 22.9397C10.328 23.7524 11.3672 24.0308 12.1799 23.5616L15.123 21.8624C15.9356 21.3932 16.2141 20.3539 15.7449 19.5413C15.2757 18.7286 14.2364 18.4501 13.4238 18.9193Z" fill="#1D1068"/>
</g>
</g>
</g>
</svg>
