<svg width="173" height="172" viewBox="0 0 173 172" fill="none" xmlns="http://www.w3.org/2000/svg">
<path d="M29.3532 24.3299C29.9657 25.0795 30.5874 25.8291 31.1999 26.5788C31.2456 26.6428 31.2913 26.7067 31.337 26.7707C31.5016 27.045 31.657 27.3284 31.8215 27.6026C32.0775 28.1603 32.3426 28.7271 32.5986 29.2847C32.2238 29.6961 32.2695 29.8515 32.9003 30.1258C33.0282 30.336 33.2476 30.528 33.2751 30.7474C33.4213 32.073 33.4488 33.4168 33.6682 34.7241C34.0156 36.7719 33.2751 38.6368 32.69 40.4926C32.3517 41.5622 31.4833 42.4763 30.8434 43.4545C30.7702 43.5734 30.6788 43.6831 30.5965 43.8019C29.1613 45.6668 27.2598 46.9467 25.2029 48.0254C25.1389 48.0711 25.084 48.1168 25.02 48.1625C24.5721 48.3362 24.1241 48.5191 23.6853 48.7019C22.634 48.9305 21.5004 48.8847 20.6228 49.6527C20.4491 49.5978 20.2663 49.5338 20.0926 49.479C19.6995 49.4058 19.3064 49.2961 18.9042 49.2596C18.0723 49.1956 17.2312 49.1681 16.3993 49.1224C16.381 49.0676 16.3719 49.0219 16.3627 48.967C16.253 48.8025 16.1433 48.6379 16.0336 48.4734C15.9057 48.5831 15.7777 48.7019 15.6405 48.8116L15.668 48.8665C15.0098 48.7659 14.7081 49.1499 14.4795 49.6984C14.2967 50.1372 14.059 50.5394 13.8396 50.9599C13.7116 51.3073 13.5836 51.6547 13.4557 52.0021C12.9894 53.2728 12.5232 54.5435 12.0661 55.8142C11.9747 55.9422 11.8833 56.0702 11.801 56.1982C11.1702 58.4014 10.5394 60.6045 9.89949 62.8077C9.89949 62.8808 9.91777 62.954 9.92692 63.0363C9.92692 63.1368 9.9452 63.2374 9.9452 63.3471C9.69837 64.3618 9.38755 65.3674 9.20471 66.4004C8.91218 68.0277 8.67449 69.6732 8.44594 71.3096C8.40024 71.6113 8.5008 71.9404 8.52822 72.2512C8.49165 72.5437 8.45509 72.8454 8.42766 73.1379L8.49165 74.3538C8.45509 74.4726 8.42766 74.6006 8.39109 74.7195C7.998 78.1202 8.83904 81.457 8.94874 84.8212C8.97617 85.1137 9.00359 85.3971 9.03102 85.6896C9.04016 85.8085 9.0493 85.9182 9.05844 86.037C9.06759 86.1559 9.07673 86.2656 9.08587 86.3844C9.16815 86.6678 9.25042 86.9512 9.34184 87.2346C9.42412 87.4631 9.51554 87.6825 9.59781 87.9111L9.67095 88.9533C9.76236 89.3555 9.86292 89.7577 9.95434 90.1508C10.1006 90.6079 10.2469 91.065 10.3931 91.5221C10.4114 91.6318 10.4297 91.7506 10.4389 91.8603C10.5394 92.2626 10.64 92.6557 10.7405 93.0579C10.8228 93.3413 10.9051 93.6247 10.9874 93.9081C11.1153 94.1915 11.2433 94.4749 11.3622 94.7583C11.3896 94.8131 11.3896 94.868 11.3622 94.9228C11.2159 95.0143 11.0696 95.1057 10.9142 95.1971C11.0788 95.3342 11.2525 95.4805 11.417 95.6176C11.5084 95.7822 11.609 95.9467 11.7004 96.1204C11.7736 96.285 11.8467 96.4587 11.9107 96.6232C12.1209 97.1992 12.3404 97.7751 12.5506 98.351C12.7792 98.9087 13.0077 99.4663 13.2362 100.015C13.2362 100.07 13.2454 100.125 13.2545 100.179C13.6202 100.883 13.995 101.578 14.3424 102.282C15.0463 103.699 15.7411 105.125 16.445 106.542C16.5821 106.716 16.7101 106.889 16.8473 107.063C16.9021 107.045 16.9478 107.017 17.0027 106.999C17.1215 106.926 17.2312 106.862 17.3501 106.789C17.4049 106.743 17.4598 106.688 17.5146 106.643C17.6335 106.725 17.7523 106.807 17.862 106.889C17.9077 106.716 17.9534 106.542 18.0083 106.368C19.4344 105.317 20.8605 104.266 22.2866 103.224C24.4898 101.743 26.6838 100.262 28.887 98.7807C28.9693 98.7624 29.0516 98.735 29.1338 98.7167C29.1704 98.7167 29.207 98.6984 29.2344 98.6801L29.3807 98.5796C29.8286 98.4059 30.048 97.6197 30.7337 98.0859C31.0628 98.5247 31.401 98.9544 31.7301 99.3932C31.9404 99.6674 32.1506 99.9326 32.37 100.207L32.7266 100.71C32.9825 100.984 33.2385 101.258 33.4945 101.523C33.6042 101.633 33.723 101.733 33.8327 101.843C34.3264 102.483 34.7835 103.141 35.3137 103.745C35.6062 104.074 35.6062 104.339 35.3411 104.641C35.0669 104.787 34.7835 104.933 34.5092 105.079C34.3995 105.153 34.2807 105.226 34.171 105.299C33.7322 105.582 33.3025 105.866 32.8637 106.149C32.5894 106.35 32.3152 106.551 32.0409 106.743C31.8764 106.862 31.7118 106.981 31.5473 107.1C31.3827 107.219 31.2273 107.328 31.0628 107.447C30.9531 107.529 30.8342 107.612 30.7245 107.694C30.1212 108.06 29.5087 108.425 28.9053 108.782C28.2836 108.462 28.0551 108.718 28.0825 109.349C27.9545 109.477 27.8266 109.605 27.6986 109.733C27.6437 109.76 27.6072 109.797 27.598 109.861C26.8758 110.308 26.1628 110.747 25.4405 111.195C25.1023 111.342 24.7641 111.488 24.4258 111.634L23.9961 111.991C23.1551 112.658 22.3232 113.325 21.4822 113.993C21.3176 114.111 21.153 114.23 20.9794 114.349C20.8696 114.422 20.7599 114.495 20.6502 114.569C20.3668 114.77 20.0926 114.962 19.8092 115.163C19.3247 115.501 18.831 115.83 18.3465 116.168C17.3043 116.625 16.3993 117.476 15.1286 117.329C15.0098 117.284 14.8909 117.238 14.7629 117.183C14.3973 117.037 14.0407 116.9 13.6751 116.753C13.5471 116.653 13.4191 116.552 13.2911 116.452C13.0443 116.242 12.7883 116.031 12.5415 115.821C12.3312 115.611 12.1301 115.391 11.9198 115.181C11.7279 114.898 11.545 114.623 11.353 114.34C11.2708 114.175 11.1793 114.011 11.0971 113.856C10.9874 113.691 10.8685 113.517 10.7588 113.353C10.6034 113.078 10.4389 112.804 10.2834 112.53C9.81721 111.753 9.35098 110.976 8.88475 110.199L8.41852 109.367C8.30882 109.193 8.19912 109.029 8.08941 108.855L7.13867 106.853C7.00154 106.633 6.87356 106.414 6.73643 106.186C6.5993 105.838 6.46217 105.491 6.33419 105.143C6.17878 104.869 6.02337 104.604 5.8771 104.33C5.73083 103.992 5.58456 103.653 5.42915 103.315C5.30117 103.032 5.16404 102.757 5.03605 102.474C4.95378 102.191 4.8715 101.907 4.78923 101.624C4.53325 100.892 4.27728 100.152 4.03046 99.4206L3.49109 98.3967C3.46366 98.287 3.4271 98.1773 3.39967 98.0768C3.24426 97.5648 3.09799 97.0529 2.94258 96.5409C2.90601 96.3124 2.86945 96.0839 2.84202 95.8553C2.77803 95.6816 2.71404 95.5079 2.65004 95.3434C2.58605 95.2337 2.52206 95.124 2.45807 95.0143C2.2478 94.1001 2.0284 93.1859 1.81814 92.2809L1.79071 91.9335C1.79071 91.8786 1.79071 91.8146 1.78157 91.7598C1.71758 91.5861 1.66273 91.4215 1.59874 91.2478C1.5256 91.1381 1.46161 91.0193 1.38848 90.9096L0.949669 88.3408C0.931385 88.1579 0.913101 87.9842 0.90396 87.8014C0.885676 87.7465 0.867393 87.6917 0.858251 87.6368C0.593139 84.748 0.264034 81.8501 0.0720559 78.9521C-0.0467874 77.206 0.0172051 75.4508 0.0172051 73.6956C0.0172051 72.6443 0.0354887 71.593 0.0537723 70.5508L0.236608 70.0114C0.264034 69.8926 0.291459 69.7646 0.318885 69.6458C0.373735 68.7133 0.419444 67.7717 0.474295 66.8392C0.50172 66.7204 0.538288 66.5924 0.565713 66.4736C0.748549 65.6965 0.931385 64.9286 1.10508 64.1516C1.23306 64.0876 1.37019 64.0236 1.49818 63.9596C1.39762 63.9047 1.29706 63.8407 1.1965 63.7859L1.51646 61.3085C1.56217 61.1896 1.59874 61.0616 1.64445 60.9428C1.69015 60.6502 1.73586 60.3577 1.78157 60.0652C1.81814 59.8915 1.84557 59.7086 1.88213 59.5349C1.88213 59.4892 1.88213 59.4344 1.88213 59.3887C1.99183 59.1327 2.09239 58.8767 2.2021 58.6116C2.23866 58.5476 2.27523 58.4745 2.3118 58.4105C2.3118 58.3008 2.33008 58.1911 2.33008 58.0723C2.41236 57.8894 2.50377 57.7066 2.58605 57.5238C2.58605 57.4689 2.59519 57.4049 2.60433 57.3501C2.6409 57.2861 2.67747 57.2129 2.71404 57.1489C2.8146 56.7924 2.91516 56.445 3.01572 56.0885L3.12542 55.8874C3.31739 55.2292 3.50023 54.5801 3.69221 53.9219C3.72878 53.8579 3.76534 53.7939 3.80191 53.7299C3.80191 53.675 3.80191 53.6202 3.82019 53.5653C3.85676 53.5014 3.89333 53.4282 3.93904 53.3642C4.43269 52.9986 4.46012 52.77 4.03046 52.5049C3.99389 52.4775 3.95732 52.4501 3.9299 52.4135C3.9299 52.4043 3.94818 52.3495 3.95732 52.3495C4.61553 52.2124 4.52411 51.7096 4.50583 51.2342C4.6521 51.0605 4.79837 50.8777 4.94464 50.704C5.03605 50.3749 5.11833 50.0458 5.20975 49.7167L5.19146 49.6618C5.84053 48.3545 6.49874 47.0472 7.14781 45.74C7.23923 45.612 7.33065 45.484 7.42206 45.3652C7.47691 45.1915 7.53176 45.0086 7.58662 44.8349C7.64147 44.7161 7.68717 44.5972 7.74203 44.4784C7.70546 44.3047 7.65975 44.1219 7.62318 43.9482C7.55005 43.7836 7.48606 43.6099 7.41292 43.4454C7.28494 43.226 7.15695 42.9974 7.02897 42.778C6.75471 42.3392 6.4896 41.8913 6.21535 41.4525C6.07822 41.2331 5.95023 41.0045 5.81311 40.7851C5.73083 40.5657 5.63941 40.3372 5.55714 40.1178C5.40173 39.7795 5.24632 39.4504 5.08176 39.1122C4.92635 37.2015 4.77094 35.2909 4.61553 33.3803C4.99949 32.0547 5.39258 30.7291 5.77654 29.4036C6.23363 29.303 6.49874 29.1385 6.06908 28.6814C6.06908 28.5717 6.07822 28.462 6.08736 28.3431C6.13307 28.2791 6.18792 28.2243 6.23363 28.1603C6.69072 27.4198 7.15695 26.6793 7.61404 25.9388C7.77859 25.7469 7.94315 25.5549 8.1077 25.372C8.15341 25.3172 8.19912 25.2532 8.24482 25.1983C8.62878 24.8235 8.99445 24.4213 9.39669 24.0739C11.4445 22.3095 13.7208 20.984 16.3719 20.3898C16.4907 20.3806 16.6004 20.3715 16.7193 20.3532C17.1855 20.3075 17.6426 20.2618 18.1088 20.2161C18.3374 20.1978 18.5751 20.1795 18.8036 20.1612C18.9773 20.1521 19.151 20.1429 19.3247 20.1338C19.8549 20.2161 20.3851 20.2983 20.9154 20.3715C21.0982 20.3898 21.2719 20.408 21.4547 20.4355C21.9301 20.536 22.3963 20.6457 22.8717 20.7463C23.1734 20.8286 23.4751 20.9108 23.7767 20.9931C23.9596 21.0754 24.1424 21.1577 24.3344 21.2308L24.8555 21.4045C24.9195 21.4502 24.9926 21.4868 25.0566 21.5325C25.1754 21.5873 25.2851 21.6513 25.404 21.7062C25.468 21.7427 25.5411 21.7793 25.6051 21.8159C26.2085 22.1816 26.821 22.5472 27.4243 22.9129C27.4975 22.9586 27.5706 23.0043 27.6437 23.05C27.6986 23.0592 27.7534 23.0774 27.8174 23.0866C28.0094 23.2329 28.2014 23.3791 28.3934 23.5345C28.695 23.7997 29.0059 24.0739 29.3075 24.339L29.3532 24.3299ZM14.7081 30.528C13.4465 31.7256 12.9254 33.2888 13.0626 34.9252C13.1448 35.812 13.2545 36.7719 13.8579 37.6769C14.6167 38.8105 15.284 39.8892 16.637 40.3554C16.9387 40.4926 17.2495 40.6206 17.5512 40.7577C18.6391 41.1782 19.6904 40.9222 20.7782 40.6846C22.4695 40.3189 23.6305 39.3316 24.4807 37.8963L25.2211 36.0771C25.2211 36.0771 25.3126 36.0588 25.3491 36.0497C25.4497 35.9491 25.5503 35.8394 25.6508 35.7388C25.5503 35.6657 25.4405 35.6017 25.34 35.5286C25.3583 35.2909 25.3766 35.0623 25.3857 34.8247C25.34 34.3036 25.2943 33.7825 25.2486 33.2614C24.8463 32.4752 24.4441 31.6982 24.0327 30.912C23.5208 30.4914 23.018 30.0618 22.506 29.6413C21.2353 28.7545 19.7818 28.4894 18.2917 28.6631C17.0027 28.8185 15.8417 29.3853 14.8726 30.2903C14.8178 30.3726 14.7629 30.4457 14.6989 30.528H14.7081Z" fill="white"/>
<path d="M150.135 31.2502C149.367 31.8353 148.59 32.4204 147.822 33.0146C147.758 33.0603 147.694 33.106 147.63 33.1517C147.346 33.298 147.063 33.4534 146.78 33.5996C146.213 33.8373 145.637 34.075 145.07 34.3127C144.668 33.9196 144.512 33.9653 144.22 34.5778C144.01 34.6967 143.809 34.9069 143.589 34.9252C142.264 35.0258 140.92 34.9983 139.594 35.172C137.528 35.4371 135.7 34.6327 133.871 33.9836C132.811 33.5996 131.933 32.7038 130.983 32.0273C130.864 31.945 130.754 31.8536 130.644 31.7713C128.834 30.2629 127.628 28.3157 126.631 26.2222C126.585 26.1582 126.54 26.0942 126.494 26.0394C126.329 25.5914 126.165 25.1435 126 24.6864C125.808 23.6259 125.9 22.5015 125.168 21.5873C125.232 21.4136 125.296 21.2399 125.36 21.0571C125.452 20.664 125.58 20.2709 125.626 19.8778C125.726 19.0459 125.781 18.214 125.854 17.3729C125.909 17.3547 125.955 17.3455 126.009 17.3455C126.174 17.245 126.348 17.1353 126.512 17.0347C126.403 16.8976 126.293 16.7696 126.192 16.6325L126.137 16.6507C126.265 15.9925 125.891 15.6817 125.351 15.4349C124.922 15.2338 124.529 14.9778 124.117 14.7493C123.779 14.6121 123.431 14.4659 123.093 14.3287C121.841 13.8168 120.588 13.3048 119.336 12.7929C119.208 12.7015 119.089 12.6009 118.961 12.5095C116.785 11.7965 114.601 11.0834 112.425 10.3612C112.352 10.3612 112.269 10.3703 112.196 10.3795C112.087 10.3795 111.986 10.3795 111.876 10.3795C110.871 10.0869 109.874 9.74869 108.85 9.52014C107.232 9.16361 105.605 8.87108 103.978 8.57854C103.676 8.52369 103.347 8.60596 103.036 8.62425C102.744 8.57854 102.451 8.53283 102.159 8.48712L100.943 8.5054C100.824 8.46884 100.705 8.43227 100.586 8.3957C97.2037 7.87462 93.8395 8.58768 90.4662 8.57854C90.1736 8.59682 89.8811 8.60596 89.5977 8.62425C89.4789 8.62425 89.3691 8.63339 89.2503 8.64253C89.1315 8.64253 89.0218 8.65167 88.9029 8.66081C88.6195 8.73395 88.327 8.80708 88.0436 8.88022C87.815 8.95335 87.5865 9.03563 87.358 9.10876L86.3158 9.14533C85.9135 9.22761 85.5113 9.30074 85.1091 9.38302C84.652 9.511 84.1857 9.63899 83.7287 9.77611C83.619 9.78526 83.5001 9.80354 83.3904 9.81268C82.9882 9.89496 82.5859 9.97723 82.1837 10.0687C81.9003 10.1418 81.6078 10.2149 81.3244 10.2881C81.041 10.4069 80.7484 10.5166 80.465 10.6354C80.4102 10.6629 80.3553 10.6629 80.3005 10.6354C80.2182 10.48 80.1268 10.3338 80.0445 10.1784C79.8982 10.3429 79.752 10.5075 79.6057 10.672C79.432 10.7634 79.2675 10.8457 79.0938 10.9371C78.9201 11.0011 78.7555 11.0651 78.5818 11.1291C77.9967 11.3211 77.4208 11.5131 76.8357 11.705C76.2689 11.9153 75.7113 12.1164 75.1445 12.3267C75.0897 12.3267 75.0348 12.3267 74.98 12.3358C74.2669 12.6741 73.563 13.0215 72.8408 13.3506C71.3964 13.9996 69.952 14.6487 68.4984 15.2886C68.3247 15.4166 68.1419 15.5446 67.9682 15.6726C67.9865 15.7274 68.0048 15.7823 68.023 15.828C68.087 15.9468 68.151 16.0657 68.215 16.1754C68.2607 16.2302 68.3064 16.2942 68.3521 16.3491C68.2699 16.4588 68.1785 16.5776 68.0962 16.6873C68.2699 16.7422 68.4344 16.797 68.6081 16.8519C69.6046 18.3146 70.601 19.7864 71.5975 21.2491C72.9962 23.5071 74.3949 25.756 75.7936 28.014C75.8119 28.0963 75.8301 28.1786 75.8484 28.2608C75.8484 28.2974 75.8576 28.334 75.8759 28.3614L75.9764 28.5168C76.1318 28.9739 76.9089 29.2207 76.4152 29.8881C75.9673 30.208 75.5193 30.5189 75.0714 30.8388C74.7971 31.0399 74.5137 31.2411 74.2395 31.4422L73.7275 31.7804C73.4441 32.0273 73.1607 32.2741 72.8773 32.5209C72.7676 32.6306 72.6579 32.7403 72.5482 32.85C71.8992 33.3162 71.2227 33.7551 70.601 34.2579C70.2536 34.5413 69.9977 34.5321 69.7051 34.2579C69.568 33.9745 69.44 33.6911 69.3029 33.4077C69.2389 33.2888 69.1658 33.1791 69.1018 33.0603C68.8367 32.6123 68.5716 32.1644 68.2973 31.7164C68.1053 31.433 67.9225 31.1496 67.7305 30.8754C67.6208 30.7017 67.502 30.5371 67.3923 30.3634C67.2826 30.1989 67.1729 30.0343 67.0632 29.8606C66.99 29.7418 66.9077 29.6321 66.8346 29.5133C66.4964 28.8916 66.1581 28.27 65.8107 27.6575C66.149 27.045 65.9022 26.8073 65.2714 26.8164C65.1434 26.6884 65.0245 26.5513 64.8966 26.4233C64.8783 26.3685 64.8326 26.3319 64.7777 26.3228C64.3572 25.5914 63.9458 24.8509 63.5253 24.1196C63.3882 23.7814 63.2602 23.434 63.123 23.0957L62.7848 22.6569C62.154 21.7976 61.5141 20.9291 60.8833 20.0698C60.7736 19.8961 60.6548 19.7315 60.5451 19.5578C60.4811 19.4481 60.4079 19.3293 60.3439 19.2196C60.1611 18.9362 59.9691 18.6437 59.7863 18.3603C59.4663 17.8575 59.1555 17.3547 58.8355 16.8519C58.415 15.7914 57.6014 14.8498 57.7934 13.5974C57.8482 13.4785 57.8939 13.3597 57.9488 13.2409C58.1042 12.8843 58.2596 12.5278 58.4242 12.1713C58.5339 12.0524 58.6344 11.9244 58.7441 11.8056C58.9635 11.5679 59.1829 11.3211 59.4023 11.0834C59.6217 10.8823 59.8411 10.6903 60.0697 10.4892C60.3531 10.3155 60.6456 10.1326 60.929 9.95895C61.0936 9.87667 61.2581 9.7944 61.4227 9.72126C61.5964 9.61156 61.7701 9.511 61.9438 9.4013C62.2271 9.25503 62.5014 9.10876 62.7848 8.96249C63.5801 8.52369 64.3755 8.08488 65.1617 7.64607L66.0119 7.20727C66.1855 7.10671 66.3592 6.99701 66.5329 6.89645L68.5716 6.02798C68.8001 5.89999 69.0286 5.78115 69.248 5.65316C69.5954 5.53432 69.952 5.40633 70.2994 5.28749C70.5736 5.14122 70.8479 5.00409 71.1221 4.85783C71.4604 4.7207 71.8078 4.58357 72.146 4.45559C72.4294 4.33674 72.7128 4.2179 73.0053 4.09906C73.2887 4.02592 73.5813 3.95279 73.8647 3.87965C74.6051 3.65111 75.3548 3.4317 76.0953 3.20316L77.1374 2.70036C77.2471 2.67293 77.3568 2.64551 77.4665 2.61808C77.9876 2.4901 78.4996 2.35297 79.0206 2.22499C79.2492 2.19756 79.4777 2.17014 79.7063 2.14271C79.88 2.08786 80.0537 2.03301 80.2274 1.96902C80.3371 1.91417 80.4559 1.85017 80.5656 1.79532C81.4889 1.61249 82.4031 1.43879 83.3264 1.25596L83.6738 1.23767C83.7287 1.23767 83.7927 1.23767 83.8475 1.23767C84.0212 1.18282 84.1949 1.12797 84.3686 1.07312C84.4874 1.00913 84.5971 0.945134 84.716 0.881142L87.3031 0.542895C87.4859 0.533753 87.6596 0.524611 87.8425 0.51547C87.8973 0.497186 87.9522 0.488044 88.007 0.469761C90.905 0.305208 93.8121 0.0949468 96.71 0.0126706C98.4561 -0.0421802 100.211 0.0949468 101.967 0.158939C103.018 0.195507 104.06 0.259499 105.111 0.31435L105.642 0.51547C105.76 0.552037 105.888 0.579462 106.007 0.616029C106.94 0.707447 107.872 0.789724 108.805 0.881142C108.923 0.917709 109.042 0.954276 109.161 0.990843C109.929 1.2011 110.697 1.41137 111.456 1.62163C111.511 1.75875 111.575 1.88674 111.629 2.02387C111.693 1.92331 111.748 1.82275 111.812 1.72219L114.271 2.13357C114.39 2.17928 114.509 2.22499 114.637 2.2707C114.93 2.32555 115.213 2.3804 115.506 2.44439C115.679 2.48096 115.853 2.52667 116.036 2.56323C116.081 2.56323 116.136 2.56323 116.182 2.56323C116.438 2.68208 116.685 2.79178 116.941 2.91062C117.005 2.94719 117.069 2.9929 117.133 3.02946C117.243 3.03861 117.352 3.04775 117.462 3.06603C117.645 3.15745 117.818 3.24887 118.001 3.34029C118.056 3.34029 118.12 3.35857 118.175 3.36771C118.239 3.40428 118.303 3.44999 118.376 3.48655C118.723 3.59626 119.071 3.7151 119.427 3.8248L119.619 3.94365C120.268 4.15391 120.917 4.37331 121.567 4.58357C121.631 4.62014 121.695 4.66585 121.759 4.70241C121.813 4.70241 121.868 4.70241 121.923 4.72984C121.987 4.76641 122.051 4.81212 122.115 4.84868C122.472 5.35148 122.7 5.38805 122.974 4.96753C123.002 4.93096 123.038 4.89439 123.075 4.87611C123.084 4.87611 123.139 4.89439 123.139 4.90353C123.249 5.56174 123.761 5.49775 124.236 5.48861C124.41 5.64402 124.583 5.79943 124.748 5.95484C125.068 6.0554 125.397 6.15596 125.717 6.25652H125.772C127.052 6.94216 128.341 7.64607 129.62 8.34085C129.739 8.44141 129.867 8.53283 129.986 8.63339C130.16 8.69738 130.334 8.76137 130.507 8.81622C130.626 8.87107 130.745 8.92593 130.864 8.98078C131.037 8.94421 131.22 8.91678 131.394 8.88022C131.568 8.81623 131.732 8.75223 131.906 8.69738C132.134 8.57854 132.363 8.45969 132.592 8.34085C133.049 8.08488 133.497 7.82891 133.954 7.58208C134.182 7.4541 134.411 7.33525 134.639 7.20727C134.868 7.12499 135.087 7.05186 135.316 6.96958C135.654 6.82331 136.001 6.67704 136.34 6.53077C138.25 6.4485 140.17 6.35708 142.081 6.2748C143.388 6.71361 144.704 7.14328 146.012 7.58208C146.094 8.03917 146.249 8.31343 146.725 7.90204C146.835 7.91119 146.944 7.92033 147.063 7.92947C147.118 7.98432 147.182 8.03003 147.237 8.08488C147.959 8.5694 148.681 9.06305 149.403 9.54757C149.586 9.72126 149.769 9.89496 149.952 10.0595C150.007 10.1052 150.062 10.1601 150.116 10.2058C150.482 10.5989 150.866 10.9828 151.195 11.4034C152.877 13.5151 154.121 15.8371 154.614 18.5157C154.614 18.6345 154.623 18.7442 154.632 18.8631C154.66 19.3293 154.687 19.7955 154.715 20.2526C154.724 20.4812 154.733 20.7188 154.742 20.9474C154.742 21.1211 154.742 21.2948 154.751 21.4685C154.651 21.9987 154.55 22.5198 154.45 23.05C154.422 23.2237 154.395 23.4065 154.367 23.5802C154.249 24.0465 154.13 24.5127 154.002 24.9789C153.91 25.2806 153.81 25.5731 153.718 25.8748C153.627 26.0577 153.545 26.2405 153.453 26.4233L153.261 26.9444C153.215 27.0084 153.17 27.0724 153.124 27.1364C153.06 27.2461 152.996 27.3649 152.932 27.4746C152.896 27.5386 152.85 27.6026 152.813 27.6758C152.429 28.27 152.036 28.8642 151.652 29.4493C151.607 29.5224 151.561 29.5955 151.506 29.6595C151.488 29.7144 151.479 29.7692 151.46 29.8241C151.305 30.0069 151.149 30.1989 150.994 30.3817C150.711 30.6743 150.436 30.9668 150.153 31.2685L150.135 31.2502ZM144.485 16.3856C143.333 15.0784 141.797 14.4933 140.152 14.5847C139.256 14.6304 138.296 14.7035 137.373 15.2795C136.212 16.0017 135.106 16.6233 134.594 17.9489C134.447 18.2506 134.301 18.5522 134.155 18.8539C133.698 19.9235 133.908 20.984 134.1 22.081C134.402 23.7814 135.343 24.9789 136.742 25.884L138.534 26.6884C138.534 26.6884 138.543 26.7799 138.552 26.8164C138.653 26.917 138.753 27.0267 138.854 27.1272C138.927 27.0267 139 26.9261 139.073 26.8256C139.311 26.853 139.539 26.8804 139.777 26.8987C140.298 26.8713 140.819 26.8439 141.349 26.8256C142.145 26.4508 142.949 26.0759 143.745 25.7011C144.193 25.2075 144.631 24.7138 145.079 24.2202C146.012 22.9769 146.341 21.5416 146.213 20.0424C146.103 18.7534 145.582 17.5649 144.714 16.5593C144.64 16.4953 144.558 16.4405 144.485 16.3765V16.3856Z" fill="white"/>
<path d="M143.352 149.059C142.739 148.309 142.127 147.551 141.523 146.801C141.477 146.737 141.432 146.673 141.386 146.609C141.231 146.335 141.066 146.051 140.911 145.777C140.655 145.219 140.399 144.653 140.143 144.095C140.527 143.684 140.472 143.528 139.85 143.254C139.722 143.044 139.503 142.852 139.485 142.632C139.347 141.307 139.329 139.963 139.119 138.646C138.79 136.59 139.53 134.734 140.134 132.887C140.481 131.818 141.359 130.912 141.999 129.934C142.072 129.815 142.163 129.706 142.245 129.587C143.69 127.731 145.6 126.46 147.666 125.4C147.73 125.354 147.785 125.309 147.849 125.263C148.297 125.089 148.745 124.915 149.193 124.733C150.244 124.504 151.378 124.568 152.265 123.8C152.439 123.855 152.621 123.919 152.795 123.974C153.188 124.056 153.581 124.166 153.983 124.202C154.815 124.276 155.656 124.312 156.488 124.358C156.507 124.413 156.516 124.458 156.525 124.513C156.635 124.678 156.744 124.842 156.854 125.007C156.982 124.897 157.119 124.778 157.247 124.669L157.22 124.614C157.878 124.714 158.18 124.34 158.417 123.791C158.6 123.361 158.847 122.95 159.066 122.529C159.194 122.182 159.322 121.835 159.459 121.487C159.935 120.217 160.401 118.955 160.876 117.684C160.968 117.556 161.059 117.428 161.151 117.3C161.8 115.097 162.449 112.903 163.089 110.7C163.089 110.627 163.07 110.554 163.061 110.471C163.061 110.371 163.043 110.27 163.043 110.161C163.299 109.146 163.61 108.14 163.802 107.116C164.113 105.489 164.35 103.853 164.588 102.216C164.634 101.915 164.542 101.586 164.506 101.275C164.542 100.982 164.579 100.69 164.615 100.388L164.561 99.1721C164.597 99.0533 164.625 98.9253 164.661 98.8065C165.082 95.4057 164.259 92.069 164.167 88.6956C164.14 88.4031 164.122 88.1197 164.094 87.8272C164.085 87.7083 164.076 87.5986 164.067 87.4798C164.058 87.3609 164.049 87.2512 164.039 87.1324C163.957 86.849 163.875 86.5656 163.793 86.2822C163.71 86.0537 163.628 85.8251 163.546 85.6057L163.473 84.5635C163.381 84.1613 163.29 83.7591 163.198 83.366C163.052 82.9089 162.906 82.4518 162.769 81.9947C162.75 81.885 162.741 81.7662 162.723 81.6565C162.622 81.2542 162.531 80.852 162.43 80.4589C162.348 80.1755 162.266 79.8921 162.184 79.5995C162.056 79.3162 161.937 79.0328 161.809 78.7494C161.781 78.6945 161.781 78.6397 161.809 78.5848C161.955 78.4934 162.111 78.402 162.257 78.3197C162.092 78.1734 161.919 78.0363 161.754 77.89C161.663 77.7255 161.571 77.5518 161.471 77.3872C161.397 77.2135 161.333 77.049 161.26 76.8753C161.05 76.2994 160.84 75.7234 160.63 75.1475C160.401 74.5898 160.182 74.0322 159.953 73.4745C159.953 73.4197 159.944 73.3648 159.935 73.31C159.578 72.6061 159.203 71.9113 158.856 71.1982C158.161 69.7721 157.476 68.346 156.781 66.9199C156.644 66.7462 156.516 66.5725 156.379 66.3988C156.324 66.4171 156.278 66.4445 156.223 66.4628C156.104 66.5359 155.995 66.5999 155.876 66.673C155.821 66.7188 155.766 66.7645 155.711 66.8193C155.592 66.737 155.474 66.6548 155.364 66.5725C155.318 66.7462 155.263 66.9199 155.218 67.0936C153.782 68.1357 152.347 69.1687 150.912 70.2109C148.7 71.6827 146.487 73.1454 144.284 74.6173C144.202 74.6355 144.119 74.663 144.037 74.6813C144.001 74.6813 143.964 74.6995 143.937 74.7178L143.79 74.8184C143.342 74.9921 143.114 75.7691 142.437 75.3029C142.108 74.8641 141.779 74.4253 141.45 73.9956C141.24 73.7214 141.03 73.4563 140.819 73.182L140.463 72.6792C140.207 72.4049 139.951 72.1307 139.695 71.8564C139.585 71.7467 139.466 71.6462 139.357 71.5365C138.872 70.8966 138.415 70.2383 137.885 69.6258C137.592 69.2876 137.592 69.0316 137.857 68.7299C138.132 68.5837 138.415 68.4466 138.689 68.3003C138.799 68.2271 138.918 68.154 139.027 68.09C139.466 67.8066 139.905 67.5324 140.344 67.249C140.618 67.0479 140.892 66.8559 141.167 66.6548C141.331 66.5359 141.505 66.4171 141.669 66.2982C141.834 66.1794 141.999 66.0697 142.154 65.9508C142.264 65.8686 142.383 65.7863 142.492 65.7132C143.105 65.3566 143.708 64.9909 144.321 64.6344C144.942 64.9544 145.171 64.6984 145.143 64.0676C145.271 63.9396 145.399 63.8117 145.527 63.6837C145.582 63.6562 145.619 63.6197 145.628 63.5557C146.35 63.1169 147.072 62.6781 147.794 62.2393C148.133 62.093 148.471 61.9467 148.809 61.8096L149.239 61.4531C150.08 60.7949 150.921 60.1367 151.762 59.4693C151.927 59.3505 152.1 59.2316 152.265 59.1128C152.375 59.0396 152.484 58.9665 152.594 58.8934C152.877 58.7014 153.161 58.5003 153.435 58.3083C153.929 57.9792 154.413 57.6409 154.907 57.3118C155.958 56.8639 156.863 56.0137 158.125 56.1691C158.244 56.2148 158.362 56.2697 158.49 56.3154C158.856 56.4617 159.213 56.6079 159.578 56.7542C159.706 56.8547 159.834 56.9553 159.962 57.0559C160.209 57.2661 160.456 57.4855 160.712 57.6958C160.913 57.9152 161.123 58.1255 161.324 58.3449C161.507 58.6283 161.699 58.9117 161.882 59.1859C161.964 59.3505 162.056 59.515 162.138 59.6704C162.248 59.8441 162.357 60.0087 162.467 60.1824C162.622 60.4566 162.778 60.7309 162.933 61.0051C163.4 61.7822 163.857 62.5592 164.323 63.3454L164.78 64.1773C164.89 64.351 164.999 64.5156 165.109 64.6893L166.042 66.7005C166.169 66.9199 166.307 67.1484 166.435 67.3678C166.572 67.7152 166.7 68.0626 166.837 68.41C166.992 68.6842 167.139 68.9493 167.294 69.2236C167.44 69.5618 167.586 69.9001 167.733 70.2383C167.861 70.5217 167.989 70.8051 168.117 71.0794C168.199 71.3628 168.281 71.6462 168.364 71.9387C168.61 72.6792 168.857 73.4105 169.113 74.151L169.643 75.1749C169.671 75.2846 169.707 75.3943 169.735 75.504C169.881 76.016 170.027 76.537 170.183 77.049C170.219 77.2775 170.247 77.5061 170.283 77.7346C170.347 77.9083 170.411 78.082 170.466 78.2466C170.53 78.3563 170.594 78.466 170.658 78.5848C170.868 79.499 171.079 80.4132 171.28 81.3273L171.307 81.6747C171.307 81.7296 171.307 81.7936 171.316 81.8484C171.38 82.0221 171.435 82.1867 171.499 82.3604C171.563 82.4701 171.636 82.5889 171.7 82.6986L172.121 85.2675C172.139 85.4503 172.148 85.624 172.167 85.8068C172.185 85.8617 172.203 85.9165 172.212 85.9714C172.459 88.8693 172.761 91.7581 172.944 94.6561C173.053 96.4022 172.971 98.1574 172.962 99.9126C172.962 100.964 172.925 102.015 172.907 103.057L172.715 103.597C172.688 103.716 172.66 103.844 172.624 103.962C172.569 104.895 172.505 105.827 172.45 106.769C172.413 106.888 172.386 107.016 172.349 107.135C172.167 107.903 171.975 108.68 171.792 109.448C171.664 109.512 171.527 109.576 171.399 109.64C171.499 109.694 171.6 109.758 171.7 109.813L171.362 112.291C171.316 112.409 171.28 112.537 171.234 112.656C171.188 112.949 171.143 113.241 171.088 113.525C171.051 113.698 171.015 113.881 170.978 114.055C170.978 114.101 170.978 114.156 170.978 114.201C170.868 114.457 170.759 114.713 170.658 114.969C170.622 115.033 170.585 115.106 170.548 115.17C170.548 115.28 170.53 115.39 170.521 115.509C170.439 115.691 170.347 115.874 170.265 116.057C170.265 116.112 170.247 116.176 170.247 116.231C170.21 116.295 170.174 116.368 170.128 116.432C170.027 116.788 169.927 117.136 169.817 117.492L169.707 117.684C169.515 118.342 169.323 118.992 169.122 119.65C169.086 119.714 169.049 119.778 169.013 119.842C169.013 119.897 169.013 119.951 168.994 120.006C168.958 120.07 168.921 120.143 168.875 120.207C168.373 120.573 168.345 120.802 168.775 121.067C168.811 121.094 168.848 121.122 168.875 121.158C168.875 121.167 168.857 121.222 168.848 121.222C168.19 121.359 168.281 121.862 168.29 122.328C168.144 122.502 167.989 122.685 167.842 122.859C167.751 123.188 167.66 123.517 167.568 123.837L167.586 123.892C166.928 125.199 166.27 126.497 165.603 127.804C165.511 127.932 165.42 128.051 165.319 128.179C165.264 128.353 165.21 128.526 165.146 128.709C165.091 128.828 165.045 128.947 164.99 129.066C165.027 129.24 165.063 129.422 165.109 129.596C165.173 129.77 165.246 129.934 165.31 130.108C165.438 130.337 165.566 130.556 165.694 130.784C165.959 131.232 166.233 131.671 166.499 132.119C166.627 132.339 166.764 132.567 166.892 132.787C166.974 133.006 167.065 133.234 167.148 133.454C167.303 133.792 167.458 134.13 167.614 134.459C167.76 136.37 167.906 138.281 168.044 140.191C167.65 141.517 167.248 142.843 166.855 144.159C166.398 144.25 166.133 144.424 166.553 144.881C166.553 144.991 166.544 145.101 166.535 145.219C166.489 145.283 166.435 145.338 166.389 145.402C165.923 146.143 165.456 146.883 164.99 147.615C164.826 147.807 164.661 147.989 164.497 148.181C164.451 148.236 164.405 148.3 164.359 148.355C163.975 148.73 163.61 149.123 163.198 149.47C161.142 151.216 158.856 152.533 156.196 153.109C156.077 153.118 155.967 153.127 155.848 153.136C155.382 153.182 154.925 153.218 154.459 153.264C154.23 153.282 153.993 153.301 153.764 153.31C153.59 153.319 153.417 153.328 153.243 153.337C152.713 153.255 152.183 153.173 151.652 153.09C151.469 153.072 151.296 153.045 151.113 153.026C150.647 152.917 150.171 152.816 149.705 152.707C149.403 152.624 149.102 152.533 148.8 152.451C148.617 152.368 148.434 152.286 148.252 152.204L147.73 152.03C147.666 151.984 147.602 151.948 147.529 151.902C147.411 151.838 147.301 151.783 147.182 151.719C147.118 151.683 147.045 151.646 146.981 151.6C146.377 151.235 145.774 150.86 145.171 150.494C145.098 150.448 145.025 150.403 144.951 150.357C144.897 150.348 144.842 150.33 144.778 150.321C144.586 150.174 144.394 150.019 144.202 149.873C143.9 149.598 143.598 149.333 143.297 149.059H143.352ZM158.033 142.952C159.304 141.764 159.834 140.21 159.706 138.564C159.633 137.668 159.533 136.718 158.929 135.812C158.17 134.67 157.512 133.591 156.168 133.116C155.867 132.979 155.556 132.841 155.254 132.704C154.166 132.275 153.115 132.521 152.027 132.75C150.336 133.106 149.166 134.085 148.306 135.511L147.557 137.33C147.557 137.33 147.465 137.339 147.429 137.357C147.328 137.458 147.228 137.568 147.127 137.668C147.228 137.741 147.337 137.805 147.438 137.879C147.42 138.116 147.401 138.345 147.383 138.582C147.429 139.104 147.465 139.625 147.511 140.146C147.913 140.932 148.306 141.718 148.709 142.504C149.211 142.934 149.723 143.364 150.226 143.793C151.497 144.689 152.95 144.963 154.431 144.799C155.72 144.653 156.891 144.086 157.86 143.19C157.914 143.108 157.978 143.034 158.033 142.952Z" fill="white"/>
<path d="M23.1093 143.063C23.8407 142.432 24.572 141.792 25.3034 141.161C25.3673 141.115 25.4222 141.061 25.4862 141.015C25.7604 140.85 26.0347 140.677 26.309 140.512C26.8666 140.238 27.4151 139.964 27.9728 139.689C28.3933 140.055 28.5487 140 28.8047 139.369C29.0058 139.232 29.1978 139.013 29.4172 138.985C30.7336 138.803 32.0774 138.739 33.3847 138.483C35.4233 138.08 37.3065 138.766 39.1715 139.305C40.2502 139.616 41.1827 140.466 42.1791 141.07C42.298 141.143 42.4168 141.225 42.5357 141.307C44.4463 142.697 45.7718 144.562 46.8963 146.591C46.942 146.646 46.9968 146.71 47.0426 146.765C47.2345 147.195 47.4265 147.643 47.6276 148.081C47.8836 149.124 47.8653 150.257 48.6607 151.117C48.6058 151.299 48.551 151.473 48.5052 151.656C48.4413 152.058 48.3407 152.451 48.3224 152.854C48.2767 153.685 48.2767 154.526 48.2493 155.368C48.1944 155.386 48.1487 155.395 48.0939 155.404C47.9293 155.523 47.7739 155.633 47.6093 155.751C47.7282 155.879 47.8379 156.007 47.9567 156.135L48.0116 156.108C47.9293 156.766 48.3224 157.059 48.8709 157.278C49.3097 157.443 49.7211 157.68 50.1508 157.882C50.4982 158 50.8547 158.119 51.2021 158.238C52.4819 158.668 53.7618 159.097 55.0416 159.527C55.1696 159.609 55.2976 159.701 55.4347 159.783C57.6562 160.359 59.8776 160.935 62.0991 161.502C62.1722 161.493 62.2454 161.483 62.3276 161.474C62.4282 161.474 62.5379 161.465 62.6385 161.447C63.6623 161.675 64.6771 161.95 65.7101 162.105C67.3465 162.361 68.992 162.544 70.6375 162.736C70.9392 162.772 71.2683 162.663 71.5791 162.626C71.8717 162.654 72.1734 162.681 72.4659 162.708L73.6818 162.608C73.8006 162.635 73.9286 162.663 74.0474 162.699C77.4573 163.01 80.7667 162.078 84.1308 161.876C84.4234 161.84 84.7068 161.812 84.9993 161.776C85.1181 161.767 85.2279 161.748 85.3467 161.739C85.4655 161.73 85.5752 161.712 85.6941 161.703C85.9775 161.611 86.2609 161.52 86.5443 161.429C86.7637 161.337 86.9922 161.246 87.2116 161.154L88.2538 161.054C88.6469 160.953 89.0491 160.843 89.4422 160.743C89.8902 160.587 90.3473 160.423 90.7952 160.268C90.9049 160.249 91.0238 160.231 91.1335 160.213C91.5266 160.103 91.9288 159.993 92.3219 159.884C92.6053 159.792 92.8887 159.701 93.1721 159.609C93.4555 159.472 93.7297 159.344 94.0131 159.207C94.068 159.18 94.1228 159.171 94.1777 159.198C94.2691 159.344 94.3697 159.49 94.4611 159.637C94.5982 159.463 94.7353 159.289 94.8725 159.116C95.037 159.015 95.2016 158.915 95.3661 158.823C95.5307 158.75 95.6952 158.668 95.8689 158.595C96.4357 158.366 97.0025 158.137 97.5784 157.909C98.1269 157.662 98.6754 157.424 99.224 157.178C99.2788 157.178 99.3337 157.159 99.3885 157.15C100.074 156.766 100.76 156.373 101.464 156.007C102.862 155.267 104.27 154.536 105.669 153.795C105.843 153.658 106.007 153.521 106.181 153.375C106.163 153.32 106.135 153.274 106.117 153.219C106.044 153.109 105.971 152.991 105.897 152.881C105.852 152.826 105.797 152.771 105.751 152.716C105.833 152.598 105.907 152.479 105.989 152.36C105.815 152.314 105.641 152.278 105.468 152.232C104.38 150.833 103.292 149.434 102.204 148.036C100.668 145.878 99.1234 143.712 97.5876 141.554C97.5601 141.472 97.5419 141.39 97.5144 141.317C97.5144 141.28 97.4961 141.243 97.4779 141.216L97.3682 141.07C97.1853 140.631 96.39 140.421 96.8379 139.735C97.2676 139.388 97.6881 139.049 98.1178 138.702C98.3829 138.483 98.648 138.263 98.9131 138.044L99.4068 137.678C99.6719 137.413 99.937 137.148 100.202 136.892C100.303 136.773 100.403 136.663 100.513 136.545C101.135 136.042 101.784 135.557 102.369 135.009C102.698 134.707 102.954 134.698 103.265 134.954C103.42 135.228 103.566 135.502 103.722 135.777C103.795 135.886 103.868 135.996 103.95 136.106C104.243 136.535 104.535 136.965 104.837 137.395C105.047 137.66 105.248 137.934 105.459 138.199C105.577 138.364 105.705 138.528 105.824 138.684C105.943 138.839 106.062 139.004 106.19 139.159C106.272 139.269 106.355 139.379 106.446 139.488C106.821 140.082 107.205 140.686 107.58 141.28C107.278 141.911 107.543 142.13 108.174 142.084C108.311 142.212 108.439 142.331 108.576 142.459C108.603 142.514 108.649 142.542 108.704 142.551C109.17 143.255 109.627 143.968 110.094 144.672C110.249 145.001 110.404 145.339 110.56 145.668L110.925 146.089C111.611 146.911 112.297 147.725 112.992 148.548C113.119 148.712 113.238 148.877 113.366 149.032C113.439 149.142 113.522 149.252 113.595 149.352C113.796 149.626 114.006 149.901 114.207 150.175C114.555 150.659 114.902 151.135 115.25 151.619C115.734 152.652 116.612 153.53 116.502 154.801C116.456 154.92 116.411 155.048 116.374 155.166C116.237 155.532 116.109 155.898 115.972 156.263C115.871 156.391 115.78 156.519 115.679 156.657C115.478 156.912 115.268 157.168 115.067 157.424C114.856 157.635 114.646 157.845 114.445 158.055C114.171 158.247 113.897 158.448 113.622 158.64C113.458 158.732 113.302 158.823 113.138 158.915C112.973 159.033 112.809 159.152 112.644 159.262C112.37 159.426 112.105 159.591 111.83 159.756C111.063 160.24 110.304 160.734 109.536 161.218L108.722 161.703C108.558 161.822 108.393 161.931 108.219 162.05C107.561 162.379 106.903 162.718 106.245 163.047C106.025 163.184 105.806 163.321 105.596 163.467C105.258 163.613 104.91 163.76 104.572 163.897C104.307 164.061 104.042 164.217 103.777 164.381C103.447 164.537 103.109 164.692 102.78 164.857C102.506 164.994 102.222 165.131 101.948 165.268C101.665 165.359 101.381 165.451 101.098 165.542C100.367 165.817 99.6445 166.091 98.9131 166.365L97.9075 166.932C97.7978 166.968 97.6973 167.005 97.5876 167.032C97.0756 167.197 96.5728 167.362 96.0609 167.526C95.8323 167.563 95.6038 167.608 95.3753 167.645C95.2016 167.709 95.037 167.782 94.8633 167.846C94.7536 167.91 94.6439 167.983 94.5342 168.047C93.6292 168.285 92.7241 168.523 91.8191 168.76L91.4717 168.797C91.4169 168.797 91.3529 168.806 91.298 168.815C91.1335 168.879 90.9598 168.943 90.7952 169.016C90.6855 169.089 90.5758 169.162 90.4661 169.236L87.9064 169.738C87.7327 169.757 87.5499 169.784 87.3762 169.802C87.3213 169.821 87.2665 169.839 87.2116 169.857C84.3228 170.205 81.4431 170.598 78.5543 170.872C76.8083 171.037 75.053 171.018 73.2978 171.064C72.2465 171.091 71.1952 171.101 70.153 171.11L69.6045 170.936C69.4765 170.909 69.3577 170.881 69.2297 170.863C68.2972 170.835 67.3556 170.808 66.4232 170.781C66.3043 170.753 66.1763 170.726 66.0575 170.698C65.2804 170.534 64.5034 170.378 63.7263 170.214C63.6623 170.086 63.5892 169.958 63.5252 169.83C63.4704 169.93 63.4155 170.04 63.3607 170.141L60.8741 169.885C60.7461 169.848 60.6273 169.812 60.4993 169.775C60.2067 169.738 59.9142 169.702 59.6217 169.656C59.448 169.629 59.2651 169.601 59.0914 169.565C59.0457 169.565 58.9909 169.565 58.9452 169.574C58.6892 169.473 58.4241 169.373 58.1681 169.272C58.1041 169.236 58.031 169.199 57.967 169.162C57.8573 169.162 57.7476 169.162 57.6288 169.153C57.4459 169.071 57.2539 168.989 57.0711 168.916C57.0163 168.916 56.9523 168.907 56.8974 168.897C56.8243 168.861 56.7603 168.824 56.6872 168.788C56.3306 168.696 55.9741 168.605 55.6176 168.513L55.4164 168.404C54.7582 168.23 54.1 168.056 53.4327 167.883C53.3687 167.846 53.2955 167.81 53.2316 167.773C53.1767 167.773 53.1219 167.773 53.067 167.755C53.003 167.718 52.9299 167.682 52.8659 167.645C52.4819 167.16 52.2442 167.142 51.9974 167.581C51.97 167.618 51.9426 167.654 51.906 167.682C51.8969 167.682 51.842 167.672 51.842 167.654C51.6866 166.996 51.1838 167.106 50.7176 167.133C50.5347 166.987 50.3519 166.85 50.1782 166.703C49.8491 166.621 49.52 166.548 49.1909 166.466L49.136 166.484C47.8105 165.871 46.4849 165.25 45.1593 164.637C45.0314 164.546 44.9034 164.454 44.7754 164.372C44.6017 164.317 44.4189 164.272 44.2452 164.217C44.1263 164.171 43.9983 164.125 43.8795 164.08C43.7058 164.125 43.5321 164.171 43.3584 164.208C43.1939 164.281 43.0202 164.354 42.8556 164.427C42.6362 164.564 42.4168 164.692 42.1974 164.829C41.7586 165.113 41.3289 165.396 40.8901 165.679C40.6707 165.817 40.4513 165.954 40.2319 166.091C40.0125 166.182 39.7931 166.274 39.5737 166.365C39.2446 166.53 38.9155 166.694 38.5772 166.868C36.6758 167.078 34.7651 167.279 32.8636 167.49C31.5289 167.142 30.1942 166.786 28.8595 166.438C28.7498 165.981 28.567 165.725 28.1282 166.164C28.0185 166.164 27.9088 166.164 27.7899 166.164C27.7259 166.118 27.6619 166.073 27.6071 166.027C26.8575 165.588 26.0987 165.14 25.3491 164.701C25.1571 164.546 24.956 164.381 24.764 164.226C24.7091 164.18 24.6451 164.134 24.5903 164.089C24.2063 163.714 23.795 163.367 23.4293 162.964C21.6192 160.971 20.2297 158.732 19.5623 156.09C19.544 155.971 19.5349 155.861 19.5166 155.742C19.4617 155.285 19.4069 154.819 19.3429 154.362C19.3155 154.133 19.2972 153.896 19.2698 153.667C19.2515 153.493 19.2423 153.32 19.2241 153.146C19.2881 152.616 19.352 152.086 19.4252 151.546C19.4435 151.363 19.4526 151.19 19.4709 151.007C19.5623 150.531 19.6537 150.056 19.7451 149.59C19.8183 149.288 19.8914 148.987 19.9737 148.676C20.0468 148.493 20.12 148.301 20.2022 148.118L20.3668 147.588C20.4034 147.524 20.4491 147.451 20.4856 147.387C20.5405 147.268 20.5953 147.149 20.6502 147.03C20.6867 146.966 20.7233 146.893 20.7599 146.829C21.1073 146.217 21.4547 145.595 21.802 144.982C21.8478 144.909 21.8843 144.836 21.93 144.763C21.9392 144.708 21.9483 144.644 21.9666 144.589C22.1129 144.397 22.25 144.196 22.3963 144.004C22.6522 143.693 22.9173 143.383 23.1733 143.072L23.1093 143.063ZM29.7006 157.534C30.9347 158.759 32.5071 159.244 34.1435 159.061C35.0302 158.96 35.981 158.823 36.8677 158.192C37.983 157.397 39.0435 156.702 39.4731 155.349C39.6011 155.038 39.7291 154.728 39.848 154.426C40.2411 153.329 39.9577 152.287 39.6925 151.199C39.2812 149.517 38.2664 148.383 36.8129 147.579L34.9662 146.884C34.9662 146.884 34.948 146.793 34.9388 146.756C34.8291 146.655 34.7286 146.564 34.6189 146.463C34.5549 146.573 34.4817 146.674 34.4177 146.783C34.18 146.774 33.9515 146.765 33.7138 146.756C33.1927 146.811 32.6716 146.875 32.1506 146.93C31.3827 147.35 30.6056 147.78 29.8377 148.2C29.4263 148.721 29.0149 149.242 28.6035 149.764C27.7534 151.062 27.5248 152.524 27.7351 154.005C27.9271 155.285 28.5213 156.437 29.4537 157.379C29.536 157.434 29.6183 157.488 29.6914 157.543L29.7006 157.534Z" fill="white"/>
<path d="M86.4164 138.085C115.495 138.085 139.068 114.512 139.068 85.4334C139.068 56.3549 115.495 32.7822 86.4164 32.7822C57.338 32.7822 33.7652 56.3549 33.7652 85.4334C33.7652 114.512 57.338 138.085 86.4164 138.085ZM144.381 85.4334C144.381 117.446 118.429 143.398 86.4164 143.398C54.4034 143.398 28.4518 117.446 28.4518 85.4334C28.4518 53.4204 54.4034 27.4688 86.4164 27.4688C118.429 27.4688 144.381 53.4204 144.381 85.4334Z" fill="white" stroke="white" stroke-width="2"/>
<path fill-rule="evenodd" clip-rule="evenodd" d="M86.4164 113.316C101.815 113.316 114.299 100.832 114.299 85.4332C114.299 70.0342 101.815 57.5507 86.4164 57.5507C71.0173 57.5507 58.5339 70.0342 58.5339 85.4332C58.5339 100.832 71.0173 113.316 86.4164 113.316ZM86.4164 120.629C105.855 120.629 121.612 104.871 121.612 85.4332C121.612 65.9951 105.855 50.2373 86.4164 50.2373C66.9782 50.2373 51.2205 65.9951 51.2205 85.4332C51.2205 104.871 66.9782 120.629 86.4164 120.629Z" fill="#00ACBA"/>
</svg>
