<svg id="Layer_1" height="512" viewBox="0 0 512 512" width="512" xmlns="http://www.w3.org/2000/svg" data-name="Layer 1"><path d="m315.504 361.265c-13.207 7.469-27.802 12.461-43.021 14.565-16.786 2.321-34.341 1.126-51.636-4.134-31.93-9.711-56.903-31.448-71.464-58.74-14.56-27.291-18.713-60.138-9.005-92.072 2.296-7.552 5.247-14.69 8.771-21.369 3.629-6.88 7.874-13.308 12.641-19.236 1.726-2.146 4.865-2.487 7.012-.762 2.146 1.726 2.487 4.865.762 7.011-4.367 5.429-8.258 11.323-11.587 17.634-3.261 6.182-5.976 12.734-8.067 19.612-8.908 29.306-5.098 59.45 8.263 84.494 13.361 25.043 36.272 44.987 65.565 53.897 15.853 4.821 31.96 5.914 47.378 3.782 14.16-1.958 27.734-6.642 39.989-13.66l-5.985-.753c-2.74-.334-4.69-2.827-4.355-5.566s2.827-4.69 5.566-4.355l19.634 2.469c3.161.388 5.183 3.688 4.062 6.699l-7.116 19.153c-.96 2.578-3.828 3.889-6.406 2.93s-3.889-3.828-2.93-6.406l1.929-5.192zm-126.416-219.107-7.116 19.153c-.96 2.578.352 5.446 2.93 6.406.43.16.868.257 1.304.295l19.462 2.447c2.729.334 5.213-1.607 5.547-4.336s-1.607-5.213-4.336-5.547l-6.011-.756c12.233-7.009 25.775-11.693 39.9-13.661 15.454-2.153 31.603-1.067 47.493 3.766 29.293 8.91 52.204 28.854 65.565 53.897 13.362 25.044 17.172 55.188 8.263 84.494-2.091 6.878-4.806 13.43-8.067 19.612-3.329 6.312-7.22 12.205-11.587 17.634-1.726 2.146-1.385 5.286.762 7.011 2.146 1.726 5.286 1.385 7.011-.762 4.768-5.927 9.012-12.356 12.641-19.236 3.523-6.679 6.475-13.817 8.771-21.369 9.707-31.933 5.555-64.781-9.005-92.072-14.561-27.292-39.533-49.029-71.464-58.741-17.337-5.272-34.931-6.461-51.752-4.118-15.182 2.115-29.736 7.101-42.907 14.55l1.929-5.193c.96-2.578-.352-5.446-2.93-6.406s-5.446.352-6.406 2.93z" fill="#7986bf" fill-rule="evenodd"/><g><g fill-rule="evenodd"><path d="m144.909 385.609c-29.464-3.611-52.371 13.145-94.909 13.709l-18.865.111-.12 92.075 18.986.08c44.455-12.009 91.089 2.446 130.241 6.798 21.818 2.425 31.122 3.17 58.946-8.767l133.772-58.08c10.497-4.915 22.483-11.446 27.499-15.336 7.876-18.123-7.368-35.725-52.692-18.804-29.916 11.169-67.403 22.244-84.434 25.393 1.304-2.922 1.921-6.286 1.702-10.154-.628-11.111-9.416-18.828-29.108-19.352-31.352-.835-59.505-3.811-91.018-7.672z" fill="#f2c496"/><path d="m144.909 385.608c-29.464-3.611-52.371 13.145-94.909 13.709l-18.865.11-.099 76.093 18.965.058c44.455-12.009 91.089 2.446 130.241 6.799 21.818 2.425 31.122 3.17 58.945-8.768l133.773-58.08c8.972-4.202 19.034-9.584 24.899-13.487.472-.314 1.658-1.105 2.855-1.912-5.157-9.767-22.069-14.264-52.946-2.736-29.916 11.169-67.403 22.244-84.434 25.393 1.305-2.922 1.921-6.286 1.703-10.153-.628-11.111-9.416-18.829-29.108-19.353-31.352-.835-59.505-3.811-91.018-7.672z" fill="#fdd7ad"/><path d="m277.62 419.546c-3.842.928-11.451 2.716-14.288 3.241l.002-.005c-5.804 9.888-22.383 13.391-39.642 14.367-13.875.784-28.286-.088-38.567-.711-1.73-.105-3.342-.203-4.868-.286-7.941-.43-9.22 11.208-.356 11.686 1.626.088 3.528.203 5.589.328 10.474.634 25.158 1.523 39.533.711 23.206-1.312 46.897-7.539 52.596-29.33z" fill="#f2c496"/></g><path d="m19.686 391.862h23.063c4.001 0 7.25 3.248 7.25 7.25v94.589c0 4.001-3.249 7.25-7.25 7.25h-23.062c-4.001 0-7.25-3.248-7.25-7.25v-94.589c0-4.001 3.248-7.249 7.249-7.249z" fill="#2a93fc"/><path d="m33.308 391.862h9.442c4.001 0 7.25 3.248 7.25 7.25v94.589c0 4.001-3.248 7.25-7.25 7.25h-9.442c-4.001 0-7.249-3.248-7.249-7.249v-94.59c0-4.001 3.248-7.249 7.249-7.249z" fill="#5caeff"/></g><g><g fill-rule="evenodd"><path d="m367.091 126.391c29.464 3.611 52.371-13.144 94.909-13.709l18.865-.11.12-92.075-18.986-.08c-44.455 12.009-91.089-2.446-130.241-6.798-21.818-2.425-31.122-3.17-58.946 8.768l-133.772 58.08c-10.497 4.915-22.484 11.446-27.499 15.336-7.876 18.123 7.368 35.725 52.692 18.804 29.916-11.169 67.403-22.244 84.434-25.393-1.304 2.922-1.921 6.286-1.703 10.154.628 11.111 9.416 18.828 29.108 19.352 31.352.835 59.505 3.811 91.018 7.672z" fill="#f2c496"/><path d="m367.091 126.391c29.464 3.611 52.371-13.145 94.909-13.709l18.865-.11.099-76.093-18.965-.058c-44.455 12.009-91.089-2.446-130.241-6.799-21.818-2.425-31.122-3.17-58.945 8.768l-133.773 58.08c-8.972 4.202-19.034 9.584-24.899 13.488-.472.314-1.658 1.105-2.855 1.912 5.157 9.767 22.069 14.264 52.946 2.736 29.916-11.169 67.403-22.244 84.434-25.393-1.305 2.922-1.921 6.286-1.703 10.153.628 11.111 9.416 18.828 29.108 19.353 31.352.835 59.505 3.811 91.018 7.672z" fill="#fdd7ad"/><path d="m234.38 92.454c3.842-.928 11.451-2.716 14.288-3.241l-.002.005c5.804-9.888 22.383-13.39 39.642-14.366 13.875-.784 28.286.088 38.566.711 1.73.105 3.342.203 4.868.286 7.941.43 9.22-11.208.356-11.686-1.626-.088-3.528-.203-5.589-.328-10.474-.634-25.158-1.523-39.533-.711-23.206 1.312-46.897 7.539-52.596 29.33z" fill="#f2c496"/></g><path d="m469.25 11.05h23.063c4.001 0 7.25 3.248 7.25 7.25v94.588c0 4.001-3.249 7.25-7.25 7.25h-23.063c-4.001 0-7.25-3.248-7.25-7.25v-94.589c0-4.001 3.248-7.249 7.249-7.249z" fill="#2a93fc"/><path d="m469.25 11.05h9.442c4.001 0 7.25 3.248 7.25 7.25v94.589c0 4.001-3.248 7.25-7.25 7.25h-9.442c-4.001 0-7.249-3.248-7.249-7.249v-94.591c0-4.001 3.248-7.249 7.249-7.249z" fill="#5caeff"/></g><g><circle cx="256.036" cy="256.022" fill="#fdc72e" r="82" transform="matrix(.707 -.707 .707 .707 -106.044 256.032)"/><path d="m264.181 174.424c41.463 4.089 73.854 39.059 73.854 81.598s-32.391 77.509-73.854 81.598c-41.463-4.089-73.854-39.06-73.854-81.598s32.391-77.509 73.854-81.598z" fill="#fcdb35" fill-rule="evenodd"/><circle cx="256.036" cy="239.143" fill="#dea368" r="31.281" transform="matrix(.707 -.707 .707 .707 -94.108 251.088)"/><g fill-rule="evenodd"><path d="m262.757 208.587c14.046 3.076 24.56 15.587 24.56 30.555s-10.515 27.48-24.56 30.555c-14.046-3.076-24.56-15.587-24.56-30.555s10.514-27.48 24.56-30.555z" fill="#e6b17c"/><path d="m256.035 270.424h.001c27.255 0 50.948 16.029 62.118 39.126-15.037 17.435-37.288 28.472-62.118 28.472s-47.081-11.037-62.118-28.472c11.17-23.097 34.863-39.126 62.117-39.126z" fill="#2a93fc"/><path d="m264.088 270.897c23.811 2.802 44.012 17.862 54.066 38.653-15.037 17.434-37.288 28.472-62.118 28.472-18.132 0-34.889-5.888-48.465-15.852 10.592-32.864 33.121-48.456 56.517-51.272z" fill="#5caeff"/></g></g></svg>