<svg width="59" height="58" viewBox="0 0 59 58" fill="none" xmlns="http://www.w3.org/2000/svg">
<g id="maintenance">
<path id="Vector" d="M39.3675 17.5757C38.741 17.5757 38.2324 18.0819 38.2324 18.7081C38.2324 19.3338 38.741 19.8409 39.3675 19.8409C39.9953 19.8409 40.5025 19.3338 40.5025 18.7081C40.5025 18.0819 39.9953 17.5757 39.3675 17.5757Z" fill="#1D1068"/>
<path id="Vector_2" d="M18.7439 38.1577C18.1161 38.1577 17.6089 38.6653 17.6089 39.2905C17.6089 39.9171 18.1161 40.4233 18.7439 40.4233C19.3704 40.4233 19.8789 39.9171 19.8789 39.2905C19.8789 38.6653 19.3704 38.1577 18.7439 38.1577Z" fill="#1D1068"/>
<path id="Vector_3" d="M56.7014 6.96912C56.3183 6.88018 55.9157 6.99567 55.6391 7.27445L50.9336 12.0079H48.6777L46.1944 9.44007V7.15719L50.8325 2.45911C51.1069 2.18122 51.2187 1.78163 51.1278 1.40152C51.0373 1.02185 50.7571 0.715639 50.3865 0.590852C49.2213 0.198792 48.002 0.000107472 46.7619 0.000107472C43.0651 0.000107472 39.7065 1.72057 37.5473 4.72031C35.5264 7.52845 34.9035 10.9698 35.796 14.2634L27.4354 22.6077L13.5064 8.6741V5.93941C13.5064 5.5416 13.2971 5.17255 12.9553 4.96811L4.92984 0.161622C4.48292 -0.106094 3.91142 -0.0357354 3.54342 0.331987L0.333415 3.53528C-0.034583 3.903 -0.105079 4.47339 0.162717 4.91944L4.97773 12.9292C5.18256 13.2704 5.55189 13.4788 5.95048 13.4793L8.68963 13.4801L22.6199 27.4138L14.2912 35.7262C10.9912 34.8359 7.5413 35.4585 4.72634 37.4768C1.7225 39.6304 0 42.9815 0 46.6711C0 47.9084 0.199074 49.1257 0.5919 50.2882C0.717374 50.6603 1.02729 50.9413 1.41036 51.0298C1.79388 51.1188 2.19602 51.0033 2.47312 50.7245L7.17818 45.9915H9.44646L12.0309 48.5708V50.8347L7.28858 55.5305C7.00925 55.8071 6.89353 56.2085 6.98265 56.5912C7.07132 56.9736 7.35287 57.2829 7.72574 57.4081C8.89048 57.8002 10.1102 57.9988 11.3499 57.9988C15.0467 57.9988 18.4039 56.2793 20.5622 53.2813C22.5844 50.4718 23.2083 47.0291 22.3162 43.7356L29.0053 37.0595L30.5376 38.7206L29.8344 39.422C29.3911 39.8645 29.3911 40.5818 29.8344 41.0243C30.2778 41.4664 30.9961 41.4664 31.4399 41.0243L32.0766 40.3889L46.4533 55.9748C46.464 55.9863 46.475 55.9974 46.4861 56.0084C49.1464 58.6635 53.4564 58.6644 56.1179 56.008C58.7719 53.3578 58.7719 49.0456 56.1179 46.3955C56.1064 46.384 56.0944 46.3729 56.0824 46.3618L40.4416 32.0406L41.0712 31.4122C41.5146 30.9702 41.5146 30.2529 41.0712 29.8104C40.6279 29.3679 39.9096 29.3679 39.4658 29.8104L38.7675 30.5078L37.1 28.9802L43.8215 22.2718C44.7769 22.5267 45.763 22.6559 46.7619 22.6559C53.0205 22.6559 58.1118 17.5742 58.1118 11.3282C58.1118 10.0906 57.9127 8.87367 57.5199 7.71076C57.3944 7.33862 57.0845 7.05762 56.7014 6.96912ZM9.96388 11.5473C9.75106 11.3344 9.46243 11.226 9.16093 11.226L6.59381 11.2251L2.56534 4.51233L4.52194 2.55956L11.2364 6.58105V9.14315C11.2364 9.44317 11.3556 9.7308 11.568 9.9432L25.8304 24.21L24.2249 25.8119L9.96388 11.5473ZM38.8349 33.6442L54.5289 48.0137C56.282 49.782 56.2766 52.645 54.5125 54.4066C52.7443 56.1713 49.8819 56.1766 48.1066 54.4221L33.6829 38.7853L38.8349 33.6442ZM37.1607 32.1109L32.144 37.117L30.6117 35.4558L35.4932 30.5834L37.1607 32.1109ZM46.7619 20.3903C45.7692 20.3903 44.7929 20.2315 43.8609 19.9182C43.4526 19.7814 43.0012 19.8867 42.6962 20.1907C37.006 25.8699 24.745 38.1065 20.2301 42.6129C19.9251 42.9174 19.8191 43.3678 19.957 43.7758C20.9005 46.572 20.4492 49.5545 18.7182 51.9595C16.9922 54.3575 14.3063 55.7332 11.3499 55.7332C11.0178 55.7332 10.6875 55.7151 10.3603 55.6801L13.9653 52.11C14.1799 51.8976 14.3009 51.6082 14.3009 51.3059V48.1013C14.3009 47.8009 14.1812 47.5128 13.9684 47.3004L10.7189 44.0573C10.5061 43.8449 10.2175 43.7254 9.91644 43.7254H6.70554C6.40272 43.7254 6.11276 43.8462 5.8995 44.0604L2.32282 47.6584C2.28735 47.3318 2.26962 47.0021 2.26962 46.6707C2.26962 43.7196 3.64761 41.0394 6.05068 39.3167C8.45996 37.5892 11.4487 37.1383 14.2508 38.0803C14.6592 38.218 15.1105 38.1122 15.4156 37.8078C15.4781 37.7458 37.8657 15.4015 37.8816 15.3856C38.1867 15.0811 38.2922 14.6311 38.1547 14.2231C37.2108 11.4269 37.6613 8.44532 39.3909 6.04208C41.1182 3.64193 43.8046 2.26573 46.7615 2.26573C47.1037 2.26573 47.4438 2.28476 47.7808 2.32193L44.2506 5.89782C44.0414 6.10978 43.9243 6.39519 43.9243 6.69256V9.89718C43.9243 10.191 44.0383 10.4729 44.2427 10.684L47.3786 13.9271C47.5923 14.1483 47.8872 14.2731 48.1953 14.2731H51.4062C51.7086 14.2731 51.9986 14.1528 52.2118 13.9381L55.7885 10.3406C55.824 10.6671 55.8417 10.9968 55.8417 11.3282C55.8417 16.325 51.7684 20.3903 46.7619 20.3903Z" fill="#1D1068"/>
<path id="Vector_4" d="M35.3544 21.1107L21.151 35.2863C20.7081 35.7284 20.7081 36.4457 21.151 36.8882C21.5944 37.3307 22.3131 37.3307 22.7565 36.8882L36.9599 22.7126C37.4033 22.2705 37.4033 21.5532 36.9599 21.1107C36.5165 20.6682 35.7978 20.6682 35.3544 21.1107Z" fill="#00B7AF"/>
<path id="Vector_5" d="M49.6977 51.2033C50.1411 51.6445 50.8598 51.6445 51.3032 51.2007C51.7457 50.7577 51.7443 50.0404 51.3005 49.5988L41.0697 39.4207C40.6259 38.9791 39.9068 38.9804 39.4647 39.4234C39.0218 39.8668 39.0231 40.5836 39.4669 41.0252L49.6977 51.2033Z" fill="#00B7AF"/>
</g>
</svg>
