<svg width="131" height="131" viewBox="0 0 131 131" fill="none" xmlns="http://www.w3.org/2000/svg">
<circle cx="65.5" cy="65.5" r="65.5" fill="#FF8C95"/>
<path fill-rule="evenodd" clip-rule="evenodd" d="M72.469 26.0838C75.7104 26.8552 78.8063 28.1403 81.6435 29.8874L87.6053 27.2396L94.6318 34.2659L91.9848 40.2258C93.7324 43.0634 95.0175 46.1606 95.789 49.403L101.871 51.744V61.6809L95.7875 64.0225C95.016 67.2641 93.7309 70.3598 91.984 73.197L94.6318 79.1588L87.6054 86.1853L81.6455 83.5383C78.808 85.2859 75.7108 86.571 72.4684 87.3426L70.1274 93.4249H60.1905L57.8487 87.3411C54.6071 86.5697 51.5114 85.2846 48.6742 83.5375L42.7124 86.1853L35.6858 79.159L38.3329 73.1991C36.5853 70.3615 35.3002 67.2641 34.5286 64.0221L28.4463 61.6811V51.7442L34.5296 49.4026C35.3011 46.1608 36.5862 43.0645 38.3335 40.2271L35.6858 34.2661L42.7122 27.2396L48.674 29.8874C51.5112 28.1405 54.6071 26.8554 57.8485 26.0838L60.1903 20H70.127L72.469 26.0838Z" fill="#FFE177"/>
<path fill-rule="evenodd" clip-rule="evenodd" d="M48.6739 83.5377L42.7121 86.1855L41.7941 85.2676L47.3835 82.7851C47.808 83.0463 48.2381 83.2972 48.6739 83.5377ZM72.4687 26.0838C75.7101 26.8552 78.806 28.1403 81.6432 29.8874L79.9486 30.64C77.1114 28.8931 72.7254 26.8552 69.484 26.0838L67.1421 20H70.1269L72.4687 26.0838ZM81.6451 83.5385C78.8075 85.2861 75.7103 86.5712 72.4679 87.3428L70.1269 93.4251H67.142L69.483 87.3428C72.7254 86.5714 77.1126 84.5335 79.9501 82.7859L81.6451 83.5385ZM41.7939 28.1575L42.7119 27.2396L48.6737 29.8874C48.2381 30.1279 47.8078 30.3786 47.3835 30.64L41.7939 28.1575ZM85.538 28.1575L87.605 27.2396L94.6315 34.2659L91.9845 40.2258C93.7321 43.0634 95.0172 46.1606 95.7887 49.403L101.871 51.744V61.6809L95.7872 64.0225C95.0157 67.2641 93.7306 70.3598 91.9837 73.197L94.6315 79.1588L87.6052 86.1853L85.5384 85.2674L91.6468 79.1588L88.999 73.197C90.7461 70.3598 92.0312 67.2641 92.8025 64.0225L98.8863 61.6809V51.744L92.804 49.403C92.0325 46.1606 90.7474 43.0636 88.9997 40.2258L91.6468 34.2659L85.538 28.1575Z" fill="#FFD064"/>
<path d="M77.9237 69.487C84.9782 62.4325 84.9782 50.9948 77.9237 43.9402C70.8691 36.8857 59.4314 36.8857 52.3769 43.9402C45.3224 50.9948 45.3224 62.4325 52.3769 69.487C59.4314 76.5415 70.8691 76.5415 77.9237 69.487Z" fill="#ECEFF1"/>
<path fill-rule="evenodd" clip-rule="evenodd" d="M65.1586 38.6458C55.1798 38.6458 47.0918 46.7337 47.0918 56.7128C47.0918 66.6916 55.1798 74.7796 65.1586 74.7796C65.6424 74.7796 66.1216 74.7601 66.5958 74.7228C57.2889 73.9904 49.9659 66.2077 49.9659 56.7128C49.9659 47.2175 57.2891 39.4347 66.5958 38.7026C66.1214 38.6653 65.6424 38.6458 65.1586 38.6458Z" fill="#D1D1D6"/>
<path fill-rule="evenodd" clip-rule="evenodd" d="M69.4171 82.2345C73.3785 83.8989 76.1605 87.8151 76.1605 92.3814C76.1603 96.6694 73.707 100.384 70.1277 102.199L70.1275 91.1379L65.1589 88.269L60.1903 91.1379L60.1901 102.199C56.6108 100.384 54.1572 96.6694 54.1572 92.3814C54.1572 87.8151 56.9393 83.8989 60.9007 82.2345V55.709C56.9393 54.0446 54.1572 50.1284 54.1574 45.5622C54.1572 41.274 56.6108 37.5595 60.1903 35.7444L60.1901 46.8056L65.1587 49.6743L70.1273 46.8055V35.7444C73.7068 37.5595 76.1601 41.274 76.1601 45.5622C76.1601 50.1284 73.3783 54.0446 69.4169 55.709V82.2345H69.4171Z" fill="#9FACBA"/>
<path fill-rule="evenodd" clip-rule="evenodd" d="M69.4172 82.2345C73.3786 83.8988 76.1607 87.8151 76.1607 92.3813C76.1605 96.6693 73.7071 100.384 70.1278 102.199V100.347C72.231 98.3431 73.5419 95.5155 73.5419 92.3813C73.5419 87.8151 70.7599 83.8988 66.7985 82.2345V55.7088C70.7599 54.0444 73.5419 50.1282 73.5417 45.5619C73.5417 42.4278 72.2308 39.6002 70.1276 37.5964V35.7441C73.7071 37.5593 76.1605 41.2737 76.1605 45.5619C76.1605 50.1282 73.3786 54.0444 69.4172 55.7088V82.2345ZM65.1592 88.269L60.1906 91.1378L60.1904 102.199C59.2272 101.711 58.3458 101.084 57.5717 100.347L57.5718 91.1378L63.8499 87.513L65.1592 88.269ZM57.5717 37.5964C58.346 36.8588 59.2272 36.2328 60.1904 35.7443L60.1902 46.8056L65.1588 49.6743L63.8494 50.4302L57.5713 46.8056L57.5717 37.5964Z" fill="#8D9CA8"/>
<path fill-rule="evenodd" clip-rule="evenodd" d="M29.2341 85.4943L46.1397 75.6997C49.3125 73.8615 52.5388 72.5581 56.026 73.6894C59.9143 74.9503 66.2632 77.6577 72.7382 78.8256C75.1415 79.6049 76.6397 82.0114 75.9859 84.4514C75.3321 86.8919 73.2699 88.1501 70.3602 87.7002L72.6238 88.0624C75.2174 88.4773 77.5995 88.1222 79.8695 86.8004L96.1235 77.3334C108.758 69.975 110.614 81.2953 106.413 83.8818L76.9163 102.045C74.2034 103.715 71.2348 104.105 68.1575 103.28L46.7624 97.5468L38.8391 102.121C37.3157 103.001 35.3558 102.476 34.4762 100.952L28.069 89.8549C27.1904 88.3328 27.7135 86.3753 29.2341 85.4943Z" fill="#F6DCCD"/>
<path fill-rule="evenodd" clip-rule="evenodd" d="M75.6002 85.4637C74.6969 87.2293 72.8352 88.0828 70.3601 87.7001C66.8555 86.7733 63.3549 85.8233 59.8533 84.8851C58.9154 84.6338 58.3588 83.6697 58.6102 82.7317C58.8614 81.7939 59.8255 81.2372 60.7634 81.4886L75.6002 85.4637Z" fill="#F1CBBC"/>
<path fill-rule="evenodd" clip-rule="evenodd" d="M29.2341 85.4943L46.1398 75.7C49.3126 73.8618 52.5388 72.5583 56.026 73.6897C58.1063 74.3643 60.891 75.4529 64.0223 76.4983L31.2737 95.4057L28.069 89.8549C27.1904 88.3328 27.7133 86.3754 29.2341 85.4943Z" fill="#F1CBBC"/>
<path fill-rule="evenodd" clip-rule="evenodd" d="M30.9192 80.1597L44.3267 103.85C44.9751 104.995 44.5682 106.463 43.4226 107.111L38.8622 109.692C37.7168 110.341 36.2491 109.934 35.6009 108.789L22.1933 85.098C21.5452 83.9526 21.9518 82.4849 23.0974 81.8365L27.6579 79.2555C28.8033 78.6075 30.271 79.0142 30.9192 80.1597Z" fill="#D1D1D6"/>
<path fill-rule="evenodd" clip-rule="evenodd" d="M37.9718 96.4366L40.3449 100.63L42.6916 104.776C43.3387 105.919 42.9348 107.383 41.7946 108.034L43.4238 107.111C44.5692 106.463 44.976 104.996 44.3277 103.85L41.9731 99.6894L37.2453 91.3356L32.5119 82.9724L30.9201 80.16C30.3586 79.1677 29.182 78.7299 28.1328 79.0519L30.8886 83.9211L35.6165 92.2751L37.971 96.4356L37.9718 96.4366Z" fill="#B1B1B5"/>
<path fill-rule="evenodd" clip-rule="evenodd" d="M27.8549 83.7C26.965 83.8301 26.3493 84.6569 26.4792 85.5466C26.6093 86.4365 27.436 87.0522 28.3259 86.9223C29.2157 86.7921 29.8314 85.9655 29.7015 85.0756C29.5714 84.1856 28.7445 83.5698 27.8549 83.7Z" fill="#685E68"/>
</svg>
