<svg width="40" height="30" viewBox="0 0 40 30" fill="none" xmlns="http://www.w3.org/2000/svg">
<g clip-path="url(#clip0_248_2)">
<path d="M3.78803 21.822V22.953C4.01253 22.55 4.3466 22.2189 4.75153 21.9981C5.15647 21.7772 5.61571 21.6756 6.07603 21.705C6.59653 21.6959 7.10942 21.8309 7.55803 22.095C7.99642 22.3607 8.34161 22.7559 8.54603 23.226C8.78433 22.7632 9.1469 22.3761 9.59303 22.108C10.051 21.8373 10.5751 21.6989 11.107 21.708C11.4819 21.6951 11.8553 21.7595 12.2042 21.8971C12.5531 22.0347 12.8699 22.2427 13.135 22.508C13.4117 22.811 13.6247 23.1664 13.7614 23.5532C13.8982 23.9401 13.9558 24.3504 13.931 24.76V28.985H12.446V24.985C12.4823 24.4493 12.3099 23.9204 11.965 23.509C11.7952 23.335 11.5903 23.1992 11.3639 23.1105C11.1375 23.0219 10.8948 22.9825 10.652 22.995C10.4092 22.9825 10.1666 23.0219 9.94016 23.1105C9.71376 23.1992 9.50884 23.335 9.33903 23.509C8.99413 23.9204 8.82177 24.4493 8.85803 24.985V28.985H7.38903V24.985C7.42634 24.448 7.25392 23.9174 6.90803 23.505C6.73822 23.331 6.5333 23.1952 6.3069 23.1065C6.08051 23.0179 5.83783 22.9785 5.59503 22.991C5.35138 22.979 5.10795 23.0186 4.88065 23.1072C4.65336 23.1957 4.44733 23.3313 4.27603 23.505C3.92593 23.9154 3.75073 24.4468 3.78803 24.985V28.985H2.30603V21.822H3.78803ZM18.831 29.102C18.3605 29.1198 17.8915 29.0384 17.4544 28.8632C17.0173 28.688 16.622 28.4228 16.294 28.085C15.9618 27.7231 15.7046 27.2989 15.5373 26.837C15.3699 26.3752 15.2958 25.8847 15.319 25.394C15.2956 24.9032 15.3709 24.4128 15.5407 23.9517C15.7104 23.4907 15.971 23.0684 16.307 22.71C16.6404 22.3751 17.0395 22.1129 17.4793 21.9399C17.919 21.7669 18.3898 21.687 18.862 21.705C19.3292 21.6856 19.7955 21.7615 20.2325 21.9279C20.6694 22.0943 21.068 22.3478 21.404 22.673C21.7309 23.0054 21.9861 23.4013 22.1538 23.8363C22.3216 24.2714 22.3982 24.7362 22.379 25.202C22.3802 25.4363 22.3628 25.6704 22.327 25.902H16.84C16.8463 26.4368 17.0617 26.9479 17.44 27.326C17.6247 27.5008 17.8422 27.6374 18.0799 27.7279C18.3176 27.8183 18.5708 27.8608 18.825 27.853C19.1762 27.8772 19.5265 27.7947 19.8299 27.6162C20.1333 27.4377 20.3756 27.1717 20.525 26.853H22.125C21.9148 27.5038 21.5025 28.0706 20.948 28.471C20.3296 28.9056 19.5865 29.1271 18.831 29.102ZM20.831 24.89C20.8387 24.6268 20.7905 24.365 20.6897 24.1218C20.5889 23.8786 20.4377 23.6595 20.246 23.479C19.8683 23.1296 19.3694 22.9409 18.855 22.953C18.6029 22.9458 18.3519 22.9886 18.1165 23.0788C17.881 23.1691 17.6657 23.3051 17.483 23.479C17.1038 23.8539 16.879 24.3574 16.853 24.89H20.831ZM25.316 21.822V22.953C25.5405 22.55 25.8746 22.2189 26.2795 21.9981C26.6845 21.7772 27.1437 21.6756 27.604 21.705C27.9751 21.6928 28.3447 21.7582 28.689 21.897C29.0334 22.0358 29.3451 22.2449 29.604 22.511C29.8776 22.815 30.088 23.1704 30.223 23.5565C30.3579 23.9426 30.4147 24.3517 30.39 24.76V28.985H28.917V24.985C28.953 24.4473 28.7787 23.9167 28.431 23.505C28.2612 23.331 28.0563 23.1952 27.8299 23.1065C27.6035 23.0179 27.3608 22.9785 27.118 22.991C26.8744 22.979 26.6309 23.0186 26.4037 23.1072C26.1764 23.1957 25.9703 23.3313 25.799 23.505C25.4507 23.9162 25.2773 24.4475 25.316 24.985V28.985H23.831V21.822H25.316ZM37.276 21.822H38.758V28.985H37.276V27.854C37.0503 28.2547 36.7155 28.5832 36.3105 28.8011C35.9054 29.019 35.4468 29.1175 34.988 29.085C34.6175 29.0972 34.2484 29.0324 33.9042 28.8947C33.5599 28.757 33.248 28.5494 32.988 28.285C32.7139 27.9825 32.5031 27.6282 32.3679 27.243C32.2328 26.8578 32.176 26.4494 32.201 26.042V21.822H33.67V25.822C33.6338 26.3576 33.8061 26.8865 34.151 27.298C34.3209 27.4718 34.5259 27.6074 34.7523 27.6959C34.9787 27.7843 35.2213 27.8236 35.464 27.811C35.7076 27.8231 35.951 27.7837 36.1783 27.6953C36.4056 27.6069 36.6116 27.4715 36.783 27.298C37.1318 26.8884 37.3065 26.3587 37.27 25.822L37.276 21.822Z" fill="white"/>
<path d="M37.617 10H1.529C1.12348 10 0.734577 10.1611 0.447834 10.4478C0.161091 10.7346 0 11.1235 0 11.529C0 11.9345 0.161091 12.3234 0.447834 12.6102C0.734577 12.8969 1.12348 13.058 1.529 13.058H37.617C38.0225 13.058 38.4114 12.8969 38.6982 12.6102C38.9849 12.3234 39.146 11.9345 39.146 11.529C39.146 11.1235 38.9849 10.7346 38.6982 10.4478C38.4114 10.1611 38.0225 10 37.617 10Z" fill="white"/>
<path d="M37.617 0H1.529C1.12348 0 0.734577 0.161087 0.447834 0.44783C0.161091 0.734573 0 1.12349 0 1.52901C0 1.93452 0.161091 2.32343 0.447834 2.61017C0.734577 2.89691 1.12348 3.058 1.529 3.058H37.617C38.0225 3.058 38.4114 2.89691 38.6982 2.61017C38.9849 2.32343 39.146 1.93452 39.146 1.52901C39.146 1.12349 38.9849 0.734573 38.6982 0.44783C38.4114 0.161087 38.0225 0 37.617 0Z" fill="white"/>
</g>
<defs>
<clipPath id="clip0_248_2">
<rect width="39.146" height="29.102" fill="white"/>
</clipPath>
</defs>
</svg>
