<svg width="131" height="131" viewBox="0 0 131 131" fill="none" xmlns="http://www.w3.org/2000/svg">
<circle cx="65.5" cy="65.5" r="65.5" fill="#E0E0E0"/>
<path d="M66.5944 76.4198C66.5313 79.6938 63.8587 82.3277 60.57 82.3277H58.5344V91.7765C58.5344 92.4911 57.9556 93.0699 57.241 93.0699H50.3129C44.6996 85.4935 43.2827 75.8891 44.2628 66.0704C46.0639 65.0598 47.1004 62.9451 47.1004 60.5553V58.6733L58.5346 59.5351V70.2773H60.4506C63.8297 70.2775 66.6591 73.0423 66.5944 76.4198Z" fill="#7293DF"/>
<path d="M50.3131 93.0699H28.7349C26.6718 93.0699 25 91.3981 25 89.3351V59.5351L36.3923 58.6733V60.675C36.3923 63.9637 38.3761 66.6363 41.6503 66.6993C42.6399 66.7187 43.5178 66.4891 44.2632 66.0704C44.9226 75.9574 46.9728 85.4822 50.3131 93.0699Z" fill="#5C85DA"/>
<path d="M57.3237 48.2077H59.3254L58.5347 59.5352H49.0859C48.3729 59.5352 47.7925 60.114 47.7925 60.8286V61.5367C47.7925 63.949 46.3762 66.03 44.3293 66.9919C40.9998 53.3738 43.0467 35.5034 50.2517 26.0002H58.5347L59.3803 37.2583H57.4984C54.1192 37.2583 51.2897 39.5074 51.3544 42.8849C51.4173 46.1591 54.035 48.2077 57.3237 48.2077Z" fill="#FBF198"/>
<path d="M44.3292 66.9919C43.5855 67.3411 42.7577 67.5432 41.8846 67.561C38.5071 67.6256 35.7422 64.7962 35.7422 61.417V60.8284C35.7422 60.1138 35.1634 59.535 34.4488 59.535H25V29.7353C25 27.6722 26.6718 26.0002 28.7349 26.0002H50.2516C45.1102 37.2745 43.2378 52.5746 44.3292 66.9919Z" fill="#F4E74D"/>
<path d="M104.063 72.4635H94.615V70.5813C94.615 67.2025 91.8499 64.3731 88.4718 64.4376C85.198 64.5002 82.5635 67.1735 82.5635 70.4622V72.4634H73.1152C72.4008 72.4634 71.8218 73.0425 71.8218 73.7568V81.9122C71.8218 82.6266 72.4009 83.2056 73.1152 83.2056H73.7007C76.9924 83.2056 79.7681 85.7944 79.8466 89.0851C79.8876 90.8064 79.2069 92.37 78.083 93.4908C76.9944 94.5823 75.4846 95.2561 73.8216 95.2561H73.1152C72.4008 95.2561 71.8218 95.8353 71.8218 96.5495V104.705C71.8218 105.419 72.4009 105.998 73.1152 105.998H101.622C103.685 105.998 105.357 104.326 105.357 102.264V73.7569C105.357 73.0427 104.778 72.4635 104.063 72.4635Z" fill="#FD7A6E"/>
<path d="M58.5348 26V35.4483C58.5348 36.1628 57.9557 36.7417 57.2414 36.7417H56.6526C53.2738 36.7417 50.4444 39.5068 50.5089 42.8849C50.5715 46.1587 53.2448 48.7932 56.5334 48.7932H57.2413C57.9557 48.7932 58.5347 49.3723 58.5347 50.0866V59.5349H67.983C68.6974 59.5349 69.2764 58.9558 69.2764 58.2415V57.656C69.2764 54.3643 71.8653 51.5886 75.156 51.5101C76.8772 51.4691 78.4408 52.1498 79.5616 53.2737C80.6532 54.3623 81.3269 55.8721 81.3269 57.5351V58.2415C81.3269 58.956 81.9061 59.5349 82.6203 59.5349H90.7762C91.4906 59.5349 92.0696 58.9558 92.0696 58.2415V29.7345C92.0696 27.672 90.3977 26 88.3351 26H58.5348Z" fill="#80E0B7"/>
</svg>
