<svg width="58" height="58" viewBox="0 0 58 58" fill="none" xmlns="http://www.w3.org/2000/svg">
<g id="proven-expertise">
<g id="Group">
<path id="Vector" d="M41.3685 32.4275H40.7225V28.5997C40.7225 24.4576 37.3527 21.0878 33.2107 21.0878C30.9479 21.0878 29.1069 22.9289 29.1069 25.1917V30.2734L27.0201 32.7575L25.6226 33.4372V32.8394C25.6226 28.68 22.7072 25.1909 18.813 24.3022C21.5281 22.4031 23.3074 19.2538 23.3074 15.6964C23.3074 9.90876 18.599 5.2002 12.8112 5.2002C7.02363 5.2002 2.31506 9.90876 2.31506 15.6964C2.31506 19.2538 4.09447 22.4031 6.80955 24.3022C2.91543 25.191 0 28.68 0 32.8394V44.8784H14.5018V55.7298H23.4805L27.2962 58.0002H41.3685C45.4774 58.0002 48.8203 54.6574 48.8203 50.5484V39.8793C48.8204 35.7703 45.4775 32.4275 41.3685 32.4275ZM12.8112 8.60542C16.7211 8.60542 19.9021 11.7864 19.9021 15.6963C19.9021 19.6061 16.7212 22.7871 12.8112 22.7871C8.90134 22.7871 5.72041 19.6061 5.72041 15.6963C5.72041 11.7864 8.90134 8.60542 12.8112 8.60542ZM3.40534 41.4731V32.8394C3.40534 29.8877 5.80679 27.4862 8.75854 27.4862H16.8639C19.8157 27.4862 22.2171 29.8877 22.2171 32.8394V34.4417H14.5018V41.4731H3.40534ZM17.9072 37.847H22.2463V52.3243H17.9072V37.847ZM45.4151 50.5483C45.4151 52.7795 43.5998 54.5948 41.3687 54.5948H28.2328L25.6516 53.0589V37.2096L29.1614 35.5027L32.5124 31.5138V25.1916C32.5124 24.8064 32.8258 24.493 33.2108 24.493C35.4751 24.493 37.3173 26.3352 37.3173 28.5995V35.8327H41.3687C43.5998 35.8327 45.4151 37.648 45.4151 39.8792V50.5483Z" fill="#1D1068"/>
<path id="Vector_2" d="M33.3719 15.2358H36.4511C37.7084 12.5734 39.867 10.4148 42.5294 9.15753V6.07831C39.867 4.82105 37.7084 2.66241 36.4511 0H33.3719C32.1146 2.66241 29.956 4.82105 27.2935 6.07831V9.15753C29.956 10.4148 32.1146 12.5734 33.3719 15.2358ZM34.9115 4.0502C35.9067 5.41778 37.1117 6.62282 38.4793 7.61797C37.1117 8.61313 35.9067 9.81817 34.9115 11.1858C33.9163 9.81817 32.7114 8.61313 31.3438 7.61797C32.7114 6.62271 33.9163 5.41778 34.9115 4.0502Z" fill="#00B7AF"/>
<path id="Vector_3" d="M51.6805 12.2148H48.6013C47.344 14.8773 45.1854 17.0359 42.5229 18.2932V21.3724C45.1854 22.6295 47.344 24.7882 48.6013 27.4506H51.6805C52.9377 24.7882 55.0964 22.6295 57.7588 21.3724V18.2932C55.0964 17.0359 52.9377 14.8773 51.6805 12.2148ZM50.1409 23.4005C49.1459 22.0331 47.9405 20.8279 46.5731 19.8328C47.9405 18.8377 49.1459 17.6324 50.1409 16.265C51.136 17.6324 52.3413 18.8377 53.7087 19.8328C52.3412 20.8279 51.1359 22.0331 50.1409 23.4005Z" fill="#00B7AF"/>
</g>
</g>
</svg>
