<svg width="58" height="58" viewBox="0 0 58 58" fill="none" xmlns="http://www.w3.org/2000/svg">
<g id="Quality">
<g id="Group">
<path id="Vector" d="M28.9976 10.313C18.6935 10.313 10.3105 18.696 10.3105 29C10.3105 39.304 18.6935 47.687 28.9976 47.687C39.3016 47.687 47.6846 39.304 47.6846 29C47.6846 18.696 39.3017 10.313 28.9976 10.313ZM28.9976 44.2894C20.567 44.2894 13.7082 37.4306 13.7082 29C13.7082 20.5694 20.567 13.7106 28.9976 13.7106C37.4281 13.7106 44.287 20.5694 44.287 29C44.287 37.4306 37.4283 44.2894 28.9976 44.2894Z" fill="#00B7AF"/>
<path id="Vector_2" d="M36.2906 22.7022L27.2988 31.6938L21.7047 26.0998C21.0414 25.4364 19.9657 25.4364 19.3023 26.0998C18.6388 26.7633 18.6388 27.8388 19.3023 28.5023L26.0976 35.2976C26.4293 35.6293 26.8641 35.7952 27.2987 35.7952C27.7334 35.7952 28.1683 35.6294 28.4999 35.2976L38.6928 25.1046C39.3563 24.4412 39.3563 23.3656 38.6928 22.7022C38.0296 22.0387 36.9539 22.0387 36.2906 22.7022Z" fill="#1D1068"/>
<path id="Vector_3" d="M55.5674 17.0887C55.5617 17.0852 49.634 13.5369 49.634 13.5369L48.3033 8.02619C47.7129 5.58091 45.4645 3.94653 42.956 4.1411L36.2011 4.66389C36.2011 4.66389 32.31 1.22978 32.3023 1.22332C30.3874 -0.407774 27.6075 -0.407774 25.6926 1.22332C25.685 1.22978 21.7938 4.66389 21.7938 4.66389L15.0388 4.1411C12.5505 3.94789 10.3193 5.55373 9.70659 7.96526L7.8542 13.8676C7.8542 13.8676 2.43983 17.0843 2.43269 17.0887C0.289575 18.4059 -0.569462 21.0496 0.390258 23.3749L2.70156 28.9759L0.390258 34.5768C-0.569462 36.9022 0.289575 39.5459 2.43281 40.863C2.43938 40.8671 8.35558 44.3923 8.35558 44.3923L9.69175 49.9256C10.2503 52.2392 12.2932 53.8265 14.636 53.8263C14.9943 53.8263 14.5918 53.8399 21.7237 53.2933C21.7237 53.2933 25.6864 56.7707 25.6927 56.776C26.6502 57.5915 27.8238 57.9994 28.9976 57.9994C30.1713 57.9994 31.345 57.5915 32.3025 56.776C32.3088 56.7706 36.2715 53.2933 36.2715 53.2933L42.9561 53.8107C45.4638 54.0044 47.7132 52.3708 48.3035 49.9256L49.6341 44.4147C56.8877 40.0727 55.3497 40.9974 55.5675 40.8629C57.7105 39.5458 58.5695 36.9021 57.6098 34.5767L55.2985 28.9757L57.6098 23.3747C58.5694 21.0496 57.7105 18.406 55.5674 17.0887ZM51.8902 29.624L54.469 35.873C54.788 36.6457 54.5045 37.5238 53.7952 37.9643L47.2775 41.8658C46.8863 42.0999 46.6057 42.4814 46.4986 42.9246L45.0006 49.1284C44.8039 49.9433 44.0555 50.4878 43.2182 50.4233L35.82 49.8507C35.3643 49.8155 34.9123 49.9657 34.5684 50.2676L30.0912 54.1965C29.4557 54.7313 28.5393 54.7313 27.9038 54.1963L23.4268 50.2676C23.0828 49.9657 22.6307 49.8151 22.1753 49.8507L14.777 50.4233C13.9404 50.4879 13.1913 49.9433 12.9946 49.1283L11.4907 42.9C11.3834 42.4557 11.1015 42.0734 10.7089 41.8394L4.20366 37.9633C3.49536 37.5225 3.21245 36.6451 3.53115 35.8729L6.10996 29.6239C6.28132 29.2088 6.28132 28.7429 6.10996 28.3278L3.53081 22.0787C3.21234 21.307 3.49491 20.4301 4.20241 19.9891L10.1483 16.4568C10.508 16.243 10.7762 15.9042 10.9014 15.505C13.0927 8.51862 12.969 8.92872 12.9944 8.8235C13.1911 8.00852 13.9381 7.46332 14.7768 7.52855L22.2482 8.10683C22.7066 8.14216 23.159 7.99063 23.5034 7.68677L27.9054 3.80168C28.5399 3.2687 29.4546 3.2687 30.0893 3.80145L34.4915 7.68677C34.8359 7.99086 35.2894 8.14216 35.7467 8.10683L43.2181 7.52855C44.0538 7.46399 44.8038 8.00841 45.0005 8.82362L46.4985 15.0273C46.6055 15.4704 46.8862 15.852 47.2774 16.0862L53.7951 19.9876C54.5044 20.428 54.788 21.3061 54.4689 22.0787L51.8901 28.3278C51.7189 28.743 51.7189 29.2089 51.8902 29.624Z" fill="#1D1068"/>
</g>
</g>
</svg>
