<svg enable-background="new 0 0 64 64" height="512" viewBox="0 0 64 64" width="512" xmlns="http://www.w3.org/2000/svg"><g id="Icons"><g><g><path d="m16 56h4v4l8-8-4-4z" fill="#fa6450"/></g><g><path d="m24 48-8 8h2l7-7z" fill="#dc4632"/></g><g><path d="m22 56h-2v4l2-2z" fill="#dc4632"/></g><g><path d="m48 56h-4v4l-8-8 4-4z" fill="#fa6450"/></g><g><path d="m38 52 3-3-1-1-4 4 8 8v-2z" fill="#dc4632"/></g><g><path d="m42.151 13.667c-2.312-.47-4.508-1.436-6.417-2.867l-3.734-2.8-3.733 2.8c-2.77 2.077-6.138 3.2-9.6 3.2h-6.667v16.397c0 10.631 6.473 20.192 16.344 24.14l3.656 1.463 3.656-1.462c9.871-3.949 16.344-13.509 16.344-24.141v-8.397c-4.945 0-9.052-3.611-9.849-8.333z" fill="#3cc8b4"/></g><g><path d="m32.344 54.538c-9.871-3.949-16.344-13.509-16.344-24.141v-16.397h-4v16.397c0 10.631 6.473 20.192 16.344 24.14l3.656 1.463 2-.8z" fill="#1eaa96"/></g><g><path d="m52 20c-4.418 0-8-3.582-8-8 0-4.418 3.582-8 8-8 4.418 0 8 3.582 8 8 0 4.418-3.582 8-8 8z" fill="#fab400"/></g><g><path d="m46 12c0-4.079 3.055-7.438 7-7.931-.328-.041-.661-.069-1-.069-4.418 0-8 3.582-8 8s3.582 8 8 8c.339 0 .672-.028 1-.069-3.945-.493-7-3.852-7-7.931z" fill="#dc9600"/></g><g><path d="m56 12.8v-1.6h-.905c-.076-.293-.191-.569-.341-.823l.64-.64-1.131-1.131-.64.64c-.254-.15-.53-.265-.823-.341v-.905h-1.6v.905c-.293.076-.569.191-.823.341l-.64-.64-1.131 1.131.64.64c-.15.254-.265.53-.341.823h-.905v1.6h.905c.076.293.191.569.341.823l-.64.64 1.131 1.131.64-.64c.254.15.53.265.823.341v.905h1.6v-.905c.293-.076.569-.191.823-.341l.64.64 1.131-1.131-.64-.64c.15-.254.265-.53.341-.823zm-4 .8c-.882 0-1.6-.718-1.6-1.6s.718-1.6 1.6-1.6 1.6.718 1.6 1.6-.718 1.6-1.6 1.6z" fill="#f0f0f0"/></g><g><path d="m32 44c-6.627 0-12-5.373-12-12 0-6.627 5.373-12 12-12 6.627 0 12 5.373 12 12 0 6.627-5.373 12-12 12z" fill="#008c78"/></g><g><path d="m39.5 29-9 9-6-6 3-3 3 3 6-6z" fill="#3cc8b4"/></g></g></g></svg>