<svg viewBox="0 1 511 511.99999" xmlns="http://www.w3.org/2000/svg"><path d="m131.515625 62.160156h318.195313v320.59375h-318.195313zm0 0" fill="#fff4ca"/><path d="m449.710938 62.777344v319.976562h-318.195313v-1.769531zm0 0" fill="#ffe1ba"/><path d="m402.863281 220.636719-30 .097656-.210937-59.167969-152.765625 153.347656-11.171875-11.128906-10.078125-10.039062 153.054687-153.648438-59.296875.097656-.050781-29.996093 110.128906-.191407v.011719zm0 0" fill="#7985eb"/><path d="m402.472656 110.019531.390625 110.617188-30 .097656-.210937-59.167969-152.765625 153.347656-11.171875-11.128906zm0 0" fill="#4b5be6"/><path d="m69.726562 142.140625h29.996094v41.980469h-29.996094zm0 0" fill="#ff7a53"/><path d="m69.726562 70.8125h29.996094v41.972656h-29.996094zm0 0" fill="#ff7a53"/><path d="m69.726562 0h29.996094v41.976562h-29.996094zm0 0" fill="#ff7a53"/><path d="m69.726562 212.8125h29.996094v41.980469h-29.996094zm0 0" fill="#ff7a53"/><path d="m482.492188 142.140625h29.996093v41.980469h-29.996093zm0 0" fill="#ff4f19"/><path d="m482.492188 70.8125h29.996093v41.972656h-29.996093zm0 0" fill="#ff4f19"/><path d="m482.492188 0h29.996093v41.980469h-29.996093zm0 0" fill="#ff7a53"/><path d="m482.492188 212.8125h29.996093v41.980469h-29.996093zm0 0" fill="#ff4f19"/><path d="m482.492188 283.488281h29.996093v41.976563h-29.996093zm0 0" fill="#ff4f19"/><path d="m482.492188 354.160156h29.996093v41.976563h-29.996093zm0 0" fill="#ff4f19"/><g fill="#ff7a53"><path d="m269.730469 0h41.976562v30h-41.976562zm0 0"/><path d="m198.398438 0h41.976562v30h-41.976562zm0 0"/><path d="m127.589844 0h41.976562v30h-41.976562zm0 0"/><path d="m340.402344 0h41.976562v30h-41.976562zm0 0"/><path d="m411.074219 0h41.980469v30h-41.980469zm0 0"/></g><path d="m259.980469 415.75h41.976562v30h-41.976562zm0 0" fill="#ff4f19"/><path d="m330.652344 415.75h41.976562v30h-41.976562zm0 0" fill="#ff4f19"/><path d="m401.324219 415.75h41.980469v30h-41.980469zm0 0" fill="#ff4f19"/><path d="m472.867188 415.75h39.621093v30h-39.621093zm0 0" fill="#ff4f19"/><path d="m.5 280.824219h231.175781v231.175781h-231.175781zm0 0" fill="#00e8f2"/><path d="m231.675781 280.824219v231.175781h-231.175781zm0 0" fill="#00cef5"/><path d="m512.488281 0v41.980469h-29.996093v-11.980469zm0 0" fill="#ff4f19"/></svg>