<svg id="Layer_1" enable-background="new 0 0 512 512" height="512" viewBox="0 0 512 512" width="512" xmlns="http://www.w3.org/2000/svg"><g clip-rule="evenodd" fill-rule="evenodd"><g><g><path d="m147.969 309.386c-31.993 15.672-64.286 30.73-96.481 45.981l45.438 108.882 66.832-32.556c9.663-4.707 19.534-5.555 29.859-2.566l70.904 20.53c22.469 6.506 50.289-5.449 71.194-13.523l133.005-51.367c35.024-13.526 43.459-83.816-39.257-59.534l-94.893 27.857c-2.761-10-10.598-18.347-21.292-21.203l-64.289-17.175c-43.817-31.025-66.111-22.429-101.02-5.326z" fill="#efc7a4"/><path d="m334.637 368.817-143.726-38.397c-4.282 16.029 5.329 32.647 21.358 36.93l85.438 22.825c16.029 4.281 32.648-5.33 36.93-21.358z" fill="#d5a889"/></g><path d="m129.137 480.007-34.16 13.96c-7.411 3.029-15.926-.54-18.962-7.949-18.976-46.301-37.954-92.602-56.93-138.903-3.069-7.487.466-15.92 7.957-18.981l34.16-13.96c7.411-3.029 15.926.54 18.962 7.949 18.977 46.301 37.954 92.602 56.93 138.903 3.069 7.487-.466 15.92-7.957 18.981z" fill="#e4e8eb"/></g><g><path d="m333.973 193.363-50.156-24.254-51.149 88.593 36.311-7.329 11.808 35.111zm19.281 0 50.156-24.254 51.149 88.593-36.311-7.329-11.808 35.111z" fill="#f76c82"/><ellipse cx="343.613" cy="115.464" fill="#fdcd56" rx="98.51" ry="98.51" transform="matrix(.707 -.707 .707 .707 18.997 276.79)"/><ellipse cx="343.613" cy="115.464" fill="#f5b945" rx="54.115" ry="54.115" transform="matrix(.383 -.924 .924 .383 105.443 388.735)"/><path d="m324.98 144.029c-2.809-2.643-2.943-7.062-.301-9.871 2.643-2.809 7.062-2.943 9.871-.301 1.688 1.592 3.131 2.822 4.53 3.529 1.167.59 2.574.909 4.533.909 2.819 0 5.309-.965 7.055-2.524 1.542-1.377 2.496-3.238 2.496-5.256s-.954-3.879-2.496-5.256c-1.746-1.559-4.236-2.524-7.055-2.524-6.322 0-12.108-2.344-16.352-6.134-4.448-3.972-7.199-9.501-7.199-15.646h.027c0-6.161 2.741-11.69 7.172-15.646 2.587-2.31 5.748-4.083 9.254-5.116l-.071-2.965c-.09-3.851 2.958-7.046 6.809-7.137 3.851-.09 7.046 2.958 7.137 6.809l.082 3.432c1.572.463 3.151 1.052 4.633 1.741 3.667 1.706 7.088 4.169 9.017 7.104 2.114 3.216 1.22 7.538-1.996 9.652-3.217 2.114-7.539 1.22-9.653-1.996-.381-.58-1.653-1.345-3.22-2.073-2.123-.987-4.295-1.612-5.639-1.612v.027c-2.818 0-5.308.965-7.055 2.524-1.559 1.392-2.524 3.255-2.524 5.256h.027c0 2.018.954 3.879 2.496 5.255 1.746 1.559 4.236 2.524 7.055 2.524 6.322 0 12.108 2.344 16.352 6.134 4.448 3.972 7.199 9.502 7.199 15.646 0 6.145-2.751 11.674-7.199 15.646-2.584 2.308-5.741 4.079-9.242 5.112l.059 2.425c.09 3.851-2.958 7.046-6.809 7.137-3.851.09-7.046-2.958-7.137-6.809l-.063-2.612c-1.399-.394-2.712-.917-3.982-1.56-2.899-1.464-5.254-3.412-7.811-5.824z" fill="#daa33b"/></g></g></svg>