<svg width="62" height="53" viewBox="0 0 62 53" fill="none" xmlns="http://www.w3.org/2000/svg">
<g id="Soccer">
<path id="Vector" d="M39.617 49.8905C51.9791 49.8905 62.0006 39.8689 62.0006 27.5069C62.0006 15.1447 51.9791 5.12317 39.617 5.12317C27.2549 5.12317 17.2334 15.1447 17.2334 27.5068C17.2334 39.8689 27.2548 49.8905 39.617 49.8905Z" fill="url(#paint0_linear_279_742)"/>
<path id="Vector_2" d="M61.5125 22.8403L52.0455 24.8646C50.67 25.1587 49.2349 24.8189 48.1368 23.9403L41.1478 18.347C40.0365 17.4569 39.3895 16.1104 39.3887 14.6876V14.6788L39.4036 5.12414C39.4747 5.12329 39.5459 5.12329 39.617 5.12329C50.3786 5.12305 59.3671 12.7187 61.5125 22.8403Z" fill="url(#paint1_linear_279_742)"/>
<path id="Vector_3" d="M39.3883 14.6787V14.6875C39.3883 16.1103 38.7404 17.4569 37.63 18.3469L30.6411 23.9402C29.6877 24.702 28.4816 25.0593 27.2809 24.9479C27.0975 24.9312 26.914 24.9031 26.7314 24.8645L18.726 23.1528L17.7007 22.9333C19.7959 12.8414 28.6871 5.23806 39.3733 5.12476L39.3883 14.6787Z" fill="url(#paint2_linear_279_742)"/>
<path id="Vector_4" d="M31.6422 38.7442L31.5825 38.8118L26.2289 44.7439C26.1016 44.8851 25.9647 45.0151 25.8208 45.1336C20.5927 41.036 17.2334 34.6642 17.2334 27.5068C17.2334 26.0453 17.373 24.6171 17.6407 23.2346C17.9944 23.1564 18.3596 23.1284 18.7265 23.1529C18.9056 23.1652 19.0863 23.1897 19.2654 23.2284L27.0803 24.8989C27.1479 24.9138 27.2155 24.9296 27.2813 24.948C28.526 25.2851 29.5223 26.2287 29.9226 27.4646L32.383 35.0671C32.7948 36.3399 32.5121 37.7339 31.6422 38.7442Z" fill="url(#paint3_linear_279_742)"/>
<path id="Vector_5" d="M62.0002 27.5067C62.0002 34.6642 58.6409 41.0361 53.4128 45.1336C53.2689 45.0151 53.132 44.8852 53.0047 44.7438L47.6511 38.8118L47.5914 38.7442C46.7215 37.7338 46.4388 36.3399 46.8506 35.0671L49.311 27.4646C49.7323 26.1628 50.8155 25.1849 52.1533 24.8987L59.9682 23.2283C60.5133 23.1124 61.0663 23.1176 61.5929 23.2345C61.8606 24.6171 62.0002 26.0451 62.0002 27.5067Z" fill="url(#paint4_linear_279_742)"/>
<path id="Vector_6" d="M53.2207 45.2838C49.4506 48.1735 44.7343 49.8904 39.6167 49.8904C34.4992 49.8904 29.7828 48.1735 26.0127 45.2838C26.1716 44.9941 26.3638 44.7193 26.5886 44.4648L31.5822 38.8118L31.6419 38.7442L31.727 38.6486C32.5916 37.6698 33.8355 37.1089 35.1416 37.1089H44.0915C45.3977 37.1089 46.6416 37.6698 47.5062 38.6486L47.5914 38.7442L47.6511 38.8118L52.6447 44.4648C52.8696 44.7193 53.0618 44.9941 53.2207 45.2838Z" fill="url(#paint5_linear_279_742)"/>
<path id="Vector_7" d="M37.1594 18.7031L31.4588 22.8448C29.9937 23.9093 29.3806 25.7963 29.9402 27.5186L32.1176 34.2201C32.6772 35.9425 34.2824 37.1087 36.0934 37.1087H43.1398C44.9508 37.1087 46.5558 35.9425 47.1155 34.2201L49.293 27.5186C49.8525 25.7963 49.2395 23.9094 47.7743 22.8448L42.0737 18.7031C40.6086 17.6385 38.6246 17.6385 37.1594 18.7031Z" fill="url(#paint6_linear_279_742)"/>
<path id="Vector_8" d="M45.4328 5.88601L42.0735 8.32626C40.6085 9.39096 38.6247 9.39096 37.1596 8.32626L33.8003 5.88601C35.6551 5.38831 37.6047 5.12317 39.6165 5.12317C41.6285 5.12317 43.5781 5.38831 45.4328 5.88601Z" fill="url(#paint7_linear_279_742)"/>
<path id="Vector_9" d="M61.9844 26.6649L60.4781 25.615C58.992 24.5801 58.3415 22.7052 58.8673 20.9725L59.8144 17.8484C61.1013 20.5344 61.8686 23.5163 61.9844 26.6649Z" fill="url(#paint8_linear_279_742)"/>
<path id="Vector_10" d="M18.7544 25.615L17.248 26.6649C17.3639 23.5163 18.1311 20.5344 19.4179 17.8484L20.3651 20.9725C20.891 22.7052 20.2405 24.5801 18.7544 25.615Z" fill="url(#paint9_linear_279_742)"/>
<path id="Vector_11" d="M31.1847 48.2481C27.6717 46.819 24.6039 44.5227 22.2461 41.6251L26.5507 41.8859C28.3589 41.9957 29.8907 43.2561 30.3445 45.0091L31.1847 48.2481Z" fill="url(#paint10_linear_279_742)"/>
<path id="Vector_12" d="M56.9863 41.6251C54.6286 44.5227 51.5607 46.819 48.0479 48.2481L48.8879 45.009C49.3417 43.2561 50.8735 41.9955 52.6817 41.8858L56.9863 41.6251Z" fill="url(#paint11_linear_279_742)"/>
<path id="Vector_13" d="M41.6839 7.19067C29.3218 7.19067 19.3003 17.2122 19.3003 29.5743C19.3003 35.2291 21.3982 40.3934 24.857 44.3335C28.7971 47.7923 33.9614 49.8902 39.6162 49.8902C51.9783 49.8902 61.9998 39.8687 61.9998 27.5066C61.9998 21.8517 59.9019 16.6875 56.4432 12.7473C52.503 9.28858 47.3388 7.19067 41.6839 7.19067Z" fill="url(#paint12_linear_279_742)"/>
<path id="Vector_14" d="M51.5596 8.57336C53.7443 12.0296 55.0097 16.1247 55.0097 20.5159C55.0097 32.878 44.9882 42.8995 32.6261 42.8995C28.235 42.8995 24.1399 41.634 20.6836 39.4494C24.6493 45.7233 31.646 49.8904 39.6169 49.8904C51.9791 49.8904 62.0006 39.8689 62.0006 27.5068C62.0006 19.5358 57.8334 12.5391 51.5596 8.57336Z" fill="url(#paint13_linear_279_742)"/>
<path id="Vector_15" d="M17.7359 46.0065H0.593255C0.265627 46.0065 0 45.7409 0 45.4132V42.6684C0 42.3408 0.265627 42.0752 0.593255 42.0752H17.7358C18.0634 42.0752 18.329 42.3408 18.329 42.6684V45.4132C18.3291 45.7409 18.0635 46.0065 17.7359 46.0065Z" fill="url(#paint14_linear_279_742)"/>
<path id="Vector_16" d="M15.5601 46.0066H2.7696C2.48513 46.0066 2.25439 45.776 2.25439 45.4914V42.5904C2.25439 42.3059 2.48501 42.0752 2.7696 42.0752H15.56C15.8444 42.0752 16.0752 42.3058 16.0752 42.5904V45.4914C16.0753 45.776 15.8446 46.0066 15.5601 46.0066Z" fill="url(#paint15_linear_279_742)"/>
<path id="Vector_17" d="M11.367 46.0065H6.96258C6.79105 46.0065 6.65186 45.8674 6.65186 45.6957V42.3858C6.65186 42.2143 6.79093 42.0752 6.96258 42.0752H11.367C11.5385 42.0752 11.6777 42.2143 11.6777 42.3858V45.6957C11.6776 45.8674 11.5385 46.0065 11.367 46.0065Z" fill="url(#paint16_linear_279_742)"/>
<path id="Vector_18" d="M1.11083 42.5536C0.783206 42.5536 0.517578 42.8192 0.517578 43.1468V45.8916C0.517578 45.9297 0.521468 45.9667 0.528398 46.0029C0.549794 46.0052 0.571555 46.0066 0.593559 46.0066H17.7361C18.0637 46.0066 18.3293 45.741 18.3293 45.4134V42.6686C18.3293 42.6305 18.3254 42.5935 18.3185 42.5574C18.2971 42.555 18.2754 42.5536 18.2533 42.5536H1.11083Z" fill="url(#paint17_linear_279_742)"/>
<path id="Vector_19" d="M17.7359 42.0752H0.593255C0.265627 42.0752 0 41.8096 0 41.482V38.7372C0 38.4095 0.265627 38.1439 0.593255 38.1439H17.7358C18.0634 38.1439 18.329 38.4095 18.329 38.7372V41.482C18.3291 41.8096 18.0635 42.0752 17.7359 42.0752Z" fill="url(#paint18_linear_279_742)"/>
<path id="Vector_20" d="M15.5601 42.0753H2.7696C2.48513 42.0753 2.25439 41.8447 2.25439 41.5601V38.6591C2.25439 38.3745 2.48501 38.1439 2.7696 38.1439H15.56C15.8444 38.1439 16.0752 38.3745 16.0752 38.6591V41.5601C16.0753 41.8447 15.8446 42.0753 15.5601 42.0753Z" fill="url(#paint19_linear_279_742)"/>
<path id="Vector_21" d="M11.367 42.0752H6.96258C6.79105 42.0752 6.65186 41.9361 6.65186 41.7645V38.4545C6.65186 38.283 6.79093 38.1439 6.96258 38.1439H11.367C11.5385 38.1439 11.6777 38.283 11.6777 38.4545V41.7645C11.6776 41.9361 11.5385 42.0752 11.367 42.0752Z" fill="url(#paint20_linear_279_742)"/>
<path id="Vector_22" d="M1.11083 38.6221C0.783206 38.6221 0.517578 38.8877 0.517578 39.2153V41.9601C0.517578 41.9982 0.521468 42.0352 0.528398 42.0713C0.549794 42.0736 0.571555 42.0751 0.593559 42.0751H17.7361C18.0637 42.0751 18.3293 41.8095 18.3293 41.4819V38.7371C18.3293 38.699 18.3254 38.6619 18.3185 38.6258C18.2971 38.6235 18.2754 38.6221 18.2533 38.6221H1.11083Z" fill="url(#paint21_linear_279_742)"/>
<path id="Vector_23" d="M17.7359 38.1438H0.593255C0.265627 38.1438 0 37.8782 0 37.5506V34.8058C0 34.4782 0.265627 34.2125 0.593255 34.2125H17.7358C18.0634 34.2125 18.329 34.4782 18.329 34.8058V37.5506C18.3291 37.8782 18.0635 38.1438 17.7359 38.1438Z" fill="url(#paint22_linear_279_742)"/>
<path id="Vector_24" d="M15.5601 38.1438H2.7696C2.48513 38.1438 2.25439 37.9132 2.25439 37.6286V34.7277C2.25439 34.4431 2.48501 34.2125 2.7696 34.2125H15.56C15.8444 34.2125 16.0752 34.4431 16.0752 34.7277V37.6286C16.0753 37.9132 15.8446 38.1438 15.5601 38.1438Z" fill="url(#paint23_linear_279_742)"/>
<path id="Vector_25" d="M11.367 38.1438H6.96258C6.79105 38.1438 6.65186 38.0047 6.65186 37.8331V34.5231C6.65186 34.3516 6.79093 34.2125 6.96258 34.2125H11.367C11.5385 34.2125 11.6777 34.3516 11.6777 34.5231V37.8331C11.6776 38.0047 11.5385 38.1438 11.367 38.1438Z" fill="url(#paint24_linear_279_742)"/>
<path id="Vector_26" d="M1.11083 34.6908C0.783206 34.6908 0.517578 34.9564 0.517578 35.2841V38.0288C0.517578 38.0669 0.521468 38.104 0.528398 38.1401C0.549794 38.1424 0.571555 38.1438 0.593559 38.1438H17.7361C18.0637 38.1438 18.3293 37.8782 18.3293 37.5506V34.8058C18.3293 34.7677 18.3254 34.7307 18.3185 34.6946C18.2971 34.6923 18.2754 34.6908 18.2533 34.6908H1.11083Z" fill="url(#paint25_linear_279_742)"/>
<path id="Vector_27" d="M17.7359 34.2125H0.593255C0.265627 34.2125 0 33.9469 0 33.6193V30.8745C0 30.5469 0.265627 30.2812 0.593255 30.2812H17.7358C18.0634 30.2812 18.329 30.5469 18.329 30.8745V33.6193C18.3291 33.9469 18.0635 34.2125 17.7359 34.2125Z" fill="url(#paint26_linear_279_742)"/>
<path id="Vector_28" d="M15.5601 34.2125H2.7696C2.48513 34.2125 2.25439 33.9819 2.25439 33.6973V30.7965C2.25439 30.5119 2.48501 30.2812 2.7696 30.2812H15.56C15.8444 30.2812 16.0752 30.5119 16.0752 30.7965V33.6973C16.0753 33.9818 15.8446 34.2125 15.5601 34.2125Z" fill="url(#paint27_linear_279_742)"/>
<path id="Vector_29" d="M11.367 34.2127H6.96258C6.79105 34.2127 6.65186 34.0736 6.65186 33.9019V30.592C6.65186 30.4204 6.79093 30.2812 6.96258 30.2812H11.367C11.5385 30.2812 11.6777 30.4203 11.6777 30.592V33.9019C11.6776 34.0736 11.5385 34.2127 11.367 34.2127Z" fill="url(#paint28_linear_279_742)"/>
<path id="Vector_30" d="M1.11083 30.7595C0.783206 30.7595 0.517578 31.0251 0.517578 31.3528V34.0976C0.517578 34.1356 0.521468 34.1727 0.528398 34.2088C0.549794 34.2111 0.571555 34.2126 0.593559 34.2126H17.7361C18.0637 34.2126 18.3293 33.9469 18.3293 33.6193V30.8745C18.3293 30.8365 18.3254 30.7994 18.3185 30.7633C18.2971 30.761 18.2754 30.7595 18.2533 30.7595H1.11083Z" fill="url(#paint29_linear_279_742)"/>
<path id="Vector_31" d="M17.7359 30.2814H0.593255C0.265627 30.2814 0 30.0158 0 29.6881V26.9435C0 26.6158 0.265627 26.3502 0.593255 26.3502H17.7358C18.0634 26.3502 18.329 26.6158 18.329 26.9435V29.6881C18.3291 30.0158 18.0635 30.2814 17.7359 30.2814Z" fill="url(#paint30_linear_279_742)"/>
<path id="Vector_32" d="M15.5601 30.2814H2.7696C2.48513 30.2814 2.25439 30.0508 2.25439 29.7662V26.8652C2.25439 26.5807 2.48501 26.35 2.7696 26.35H15.56C15.8444 26.35 16.0752 26.5806 16.0752 26.8652V29.7662C16.0753 30.0506 15.8446 30.2814 15.5601 30.2814Z" fill="url(#paint31_linear_279_742)"/>
<path id="Vector_33" d="M11.367 30.2813H6.96258C6.79105 30.2813 6.65186 30.1422 6.65186 29.9705V26.6606C6.65186 26.4891 6.79093 26.35 6.96258 26.35H11.367C11.5385 26.35 11.6777 26.4891 11.6777 26.6606V29.9705C11.6776 30.1421 11.5385 30.2813 11.367 30.2813Z" fill="url(#paint32_linear_279_742)"/>
<path id="Vector_34" d="M1.11083 26.8282C0.783206 26.8282 0.517578 27.0939 0.517578 27.4215V30.1663C0.517578 30.2043 0.521468 30.2414 0.528398 30.2775C0.549794 30.2798 0.571555 30.2813 0.593559 30.2813H17.7361C18.0637 30.2813 18.3293 30.0157 18.3293 29.688V26.9432C18.3293 26.9052 18.3254 26.8681 18.3185 26.832C18.2971 26.8297 18.2754 26.8282 18.2533 26.8282H1.11083Z" fill="url(#paint33_linear_279_742)"/>
<path id="Vector_35" d="M17.7359 26.35H0.593255C0.265627 26.35 0 26.0844 0 25.7567V23.012C0 22.6843 0.265627 22.4187 0.593255 22.4187H17.7358C18.0634 22.4187 18.329 22.6843 18.329 23.012V25.7567C18.3291 26.0844 18.0635 26.35 17.7359 26.35Z" fill="url(#paint34_linear_279_742)"/>
<path id="Vector_36" d="M15.5601 26.3499H2.7696C2.48513 26.3499 2.25439 26.1192 2.25439 25.8347V22.9337C2.25439 22.6492 2.48501 22.4185 2.7696 22.4185H15.56C15.8444 22.4185 16.0752 22.6491 16.0752 22.9337V25.8347C16.0753 26.1192 15.8446 26.3499 15.5601 26.3499Z" fill="url(#paint35_linear_279_742)"/>
<path id="Vector_37" d="M11.367 26.3499H6.96258C6.79105 26.3499 6.65186 26.2108 6.65186 26.0393V22.7293C6.65186 22.5578 6.79093 22.4187 6.96258 22.4187H11.367C11.5385 22.4187 11.6777 22.5578 11.6777 22.7293V26.0393C11.6776 26.2108 11.5385 26.3499 11.367 26.3499Z" fill="url(#paint36_linear_279_742)"/>
<path id="Vector_38" d="M1.11083 22.897C0.783206 22.897 0.517578 23.1626 0.517578 23.4902V26.2349C0.517578 26.2729 0.521468 26.31 0.528398 26.3461C0.549794 26.3484 0.571555 26.3499 0.593559 26.3499H17.7361C18.0637 26.3499 18.3293 26.0843 18.3293 25.7566V23.012C18.3293 22.9739 18.3254 22.9368 18.3185 22.9007C18.2971 22.8984 18.2754 22.897 18.2533 22.897H1.11083Z" fill="url(#paint37_linear_279_742)"/>
<path id="Vector_39" d="M51.9219 46.2051C55.0936 44.1135 57.7014 41.2372 59.469 37.852L51.9219 30.3049V46.2051Z" fill="url(#paint38_linear_279_742)"/>
<path id="Vector_40" d="M50.9893 51.938H12.8728C12.2543 51.938 11.7529 51.4366 11.7529 50.8181V30.9227C11.7529 30.3043 12.2543 29.8029 12.8728 29.8029H50.9893C51.6079 29.8029 52.1092 30.3042 52.1092 30.9227V50.8181C52.1092 51.4366 51.6079 51.938 50.9893 51.938Z" fill="url(#paint39_linear_279_742)"/>
<path id="Vector_41" d="M50.1605 51.1705H13.7012C13.1179 51.1705 12.645 50.6976 12.645 50.1143V31.6265C12.645 31.0432 13.1179 30.5703 13.7012 30.5703H50.1604C50.7437 30.5703 51.2166 31.0432 51.2166 31.6265V50.1143C51.2167 50.6977 50.7438 51.1705 50.1605 51.1705Z" fill="url(#paint40_linear_279_742)"/>
<path id="Vector_42" d="M48.7245 36.5725C46.8551 36.5725 45.3397 35.0572 45.3397 33.1878C45.3397 33.111 45.3423 33.0349 45.3474 32.9594C45.372 32.5971 45.0859 32.2898 44.7228 32.2898H19.1394C18.7763 32.2898 18.4902 32.5971 18.5148 32.9594C18.5199 33.0349 18.5224 33.111 18.5224 33.1878C18.5224 35.0572 17.0071 36.5725 15.1377 36.5725C15.1355 36.5725 15.1333 36.5725 15.131 36.5725C14.7799 36.5718 14.4917 36.8481 14.4917 37.1992V44.542C14.4917 44.8931 14.7799 45.1694 15.131 45.1687H15.1377C17.0071 45.1687 18.5224 46.684 18.5224 48.5534C18.5224 48.6302 18.5199 48.7063 18.5148 48.7818C18.4902 49.1441 18.7763 49.4514 19.1394 49.4514H44.7228C45.0859 49.4514 45.372 49.1441 45.3474 48.7818C45.3423 48.7063 45.3397 48.6302 45.3397 48.5534C45.3397 46.684 46.8551 45.1687 48.7245 45.1687H48.731C49.0821 45.1694 49.3703 44.8931 49.3703 44.542V37.1992C49.3703 36.8481 49.0821 36.5718 48.731 36.5725C48.7288 36.5724 48.7266 36.5725 48.7245 36.5725Z" fill="url(#paint41_linear_279_742)"/>
<path id="Vector_43" d="M31.9302 48.5811C36.1886 48.5811 39.6407 45.129 39.6407 40.8706C39.6407 36.6123 36.1886 33.1602 31.9302 33.1602C27.6718 33.1602 24.2197 36.6123 24.2197 40.8706C24.2197 45.129 27.6718 48.5811 31.9302 48.5811Z" fill="url(#paint42_linear_279_742)"/>
<path id="Vector_44" d="M34.9586 36.2153C34.8411 36.0318 34.6143 35.8791 34.2763 35.7576C33.9121 35.6269 33.5239 35.538 33.1127 35.4893C33.0906 35.4753 33.0682 35.463 33.0454 35.4526L32.4362 34.7999C32.3406 34.7297 32.2376 34.6943 32.1271 34.6943C32.0064 34.6943 31.9032 34.7297 31.8179 34.7999C31.7325 34.8704 31.6897 34.9507 31.6897 35.0412V35.4786C30.8753 35.569 30.194 35.8406 29.646 36.293C29.0978 36.7454 28.8241 37.4086 28.8241 38.2819C28.8241 38.593 28.8592 38.8765 28.9296 39.1324C28.9999 39.3883 29.1156 39.6115 29.2766 39.8022C29.4373 39.9928 29.5907 40.1559 29.7366 40.2914C29.7375 40.2923 29.7388 40.2933 29.7399 40.2942C29.7399 40.2942 31.6363 42.1907 31.6374 42.1917C31.655 42.2106 31.6723 42.2282 31.6898 42.2463V44.7691C31.2441 44.7389 30.8518 44.6237 30.5124 44.4229C30.1731 44.2223 29.9065 44.0342 29.7124 43.8584C29.5182 43.6829 29.3615 43.595 29.2423 43.595C29.0622 43.595 28.9025 43.6904 28.7624 43.881C28.6224 44.0717 28.5527 44.2624 28.5527 44.453C28.5527 44.7578 28.7245 45.0582 29.0679 45.3542L35.6515 51.9378H50.6813L34.9586 36.2153Z" fill="url(#paint43_linear_279_742)"/>
<path id="Vector_45" d="M28.5518 44.4534C28.5518 44.2628 28.6215 44.0721 28.7615 43.8814C28.9014 43.6908 29.0613 43.5954 29.2413 43.5954C29.3606 43.5954 29.5173 43.6832 29.7114 43.8588C29.9057 44.0346 30.1721 44.2226 30.5114 44.4232C30.8509 44.6241 31.2432 44.7393 31.6888 44.7695V41.2324C31.3872 41.1222 31.1558 41.0343 30.995 40.969C30.8341 40.9039 30.6204 40.8085 30.3541 40.683C30.0877 40.5577 29.8814 40.4271 29.7357 40.2916C29.5898 40.1562 29.4364 39.993 29.2757 39.8024C29.1147 39.6118 28.999 39.3886 28.9287 39.1327C28.8584 38.8768 28.8232 38.5933 28.8232 38.2822C28.8232 37.4088 29.097 36.7457 29.6451 36.2932C30.1931 35.8407 30.8743 35.5693 31.6887 35.4788V35.0414C31.6887 34.9508 31.7314 34.8705 31.817 34.8001C31.9023 34.7298 32.0055 34.6946 32.1261 34.6946C32.2366 34.6946 32.3397 34.73 32.4353 34.8001C32.5307 34.8705 32.5786 34.951 32.5786 35.0414V35.4487C33.1918 35.469 33.7573 35.5719 34.2753 35.7578C34.7931 35.9439 35.052 36.2028 35.052 36.5345C35.052 36.7155 34.991 36.9041 34.8694 37.1001C34.7479 37.2961 34.5855 37.3941 34.3828 37.3941C34.3027 37.3941 34.0824 37.3088 33.7223 37.1377C33.362 36.9668 32.9806 36.8663 32.5786 36.8361V39.8926C32.9786 40.0432 33.311 40.1862 33.5759 40.3217C33.8408 40.4573 34.1211 40.6454 34.4161 40.8862C34.7112 41.127 34.9336 41.4306 35.0835 41.7967C35.2334 42.163 35.3085 42.592 35.3085 43.0837C35.3085 43.9819 35.0635 44.696 34.5734 45.2258C34.0833 45.7556 33.4185 46.0811 32.5786 46.2021V46.706C32.5786 46.7949 32.5307 46.8738 32.4353 46.9431C32.3396 47.0122 32.2366 47.0468 32.1261 47.0468C32.0055 47.0468 31.9022 47.0122 31.817 46.9433C31.7314 46.8741 31.6887 46.7952 31.6887 46.7063V46.2475C30.814 46.2374 30.0723 46.0373 29.4641 45.6471C28.8558 45.2567 28.5518 44.8589 28.5518 44.4534ZM30.3164 38.1317C30.3164 38.5231 30.4383 38.8217 30.6821 39.0272C30.9257 39.2329 31.2915 39.4262 31.7793 39.6067V36.8648C30.8039 36.9854 30.3164 37.4077 30.3164 38.1317ZM32.4883 44.7392C33.3729 44.5787 33.8156 44.082 33.8156 43.2491C33.8156 42.8077 33.6998 42.4615 33.4686 42.2108C33.2371 41.96 32.9106 41.7442 32.4883 41.5634V44.7392Z" fill="url(#paint44_linear_279_742)"/>
<path id="Vector_46" d="M15.4974 35.5328C16.3816 35.5328 17.0984 34.816 17.0984 33.9319C17.0984 33.0477 16.3816 32.3309 15.4974 32.3309C14.6132 32.3309 13.8965 33.0477 13.8965 33.9319C13.8965 34.816 14.6132 35.5328 15.4974 35.5328Z" fill="url(#paint45_linear_279_742)"/>
<path id="Vector_47" d="M48.3631 35.5328C49.2473 35.5328 49.9641 34.816 49.9641 33.9319C49.9641 33.0477 49.2473 32.3309 48.3631 32.3309C47.479 32.3309 46.7622 33.0477 46.7622 33.9319C46.7622 34.816 47.479 35.5328 48.3631 35.5328Z" fill="url(#paint46_linear_279_742)"/>
<path id="Vector_48" d="M15.4974 49.4102C16.3816 49.4102 17.0984 48.6935 17.0984 47.8093C17.0984 46.9251 16.3816 46.2084 15.4974 46.2084C14.6132 46.2084 13.8965 46.9251 13.8965 47.8093C13.8965 48.6935 14.6132 49.4102 15.4974 49.4102Z" fill="url(#paint47_linear_279_742)"/>
<path id="Vector_49" d="M48.3631 49.4102C49.2473 49.4102 49.9641 48.6935 49.9641 47.8093C49.9641 46.9251 49.2473 46.2084 48.3631 46.2084C47.479 46.2084 46.7622 46.9251 46.7622 47.8093C46.7622 48.6935 47.479 49.4102 48.3631 49.4102Z" fill="url(#paint48_linear_279_742)"/>
<path id="Vector_50" d="M36.7964 51.938H50.9886C51.6071 51.938 52.1084 51.4366 52.1084 50.8181V42.4113L39.4998 29.8029H36.7964V51.938Z" fill="url(#paint49_linear_279_742)"/>
<path id="Vector_51" d="M38.4892 52.5375H25.3713C24.7353 52.5375 24.2197 52.0219 24.2197 51.3859V30.3551C24.2197 29.7191 24.7353 29.2035 25.3713 29.2035H38.4892C39.1253 29.2035 39.6408 29.7191 39.6408 30.3551V51.386C39.6408 52.0219 39.1253 52.5375 38.4892 52.5375Z" fill="url(#paint50_linear_279_742)"/>
<path id="Vector_52" d="M26.4724 30.3049C25.8364 30.3049 25.3208 30.8205 25.3208 31.4566V52.4874C25.3208 52.5036 25.3225 52.5193 25.3232 52.5352C25.3392 52.5358 25.3548 52.5376 25.371 52.5376H38.4889C39.1249 52.5376 39.6405 52.0221 39.6405 51.386V30.3551C39.6405 30.339 39.6388 30.3233 39.6381 30.3074C39.6221 30.3068 39.6065 30.3049 39.5903 30.3049H26.4724Z" fill="url(#paint51_linear_279_742)"/>
<path id="Vector_53" d="M39.6415 51.386V40.8982L34.9586 36.2153C34.8411 36.0318 34.6143 35.8791 34.2763 35.7576C33.9121 35.6269 33.5239 35.538 33.1127 35.4893C33.0906 35.4753 33.0682 35.463 33.0454 35.4526L32.4362 34.7999C32.3406 34.7297 32.2376 34.6943 32.1271 34.6943C32.0064 34.6943 31.9032 34.7297 31.8179 34.7999C31.7325 34.8704 31.6897 34.9507 31.6897 35.0412V35.4786C30.8753 35.569 30.194 35.8406 29.646 36.293C29.0978 36.7454 28.8241 37.4086 28.8241 38.2819C28.8241 38.593 28.8592 38.8765 28.9296 39.1324C28.9999 39.3883 29.1156 39.6115 29.2766 39.8022C29.4373 39.9928 29.5907 40.1559 29.7366 40.2914C29.7375 40.2923 29.7388 40.2933 29.7399 40.2942C29.7399 40.2942 31.6363 42.1907 31.6374 42.1917C31.655 42.2106 31.6723 42.2282 31.6898 42.2463V44.7691C31.2441 44.7389 30.8518 44.6237 30.5124 44.4229C30.1731 44.2223 29.9065 44.0342 29.7124 43.8584C29.5182 43.6829 29.3615 43.595 29.2423 43.595C29.0622 43.595 28.9025 43.6904 28.7624 43.881C28.6224 44.0717 28.5527 44.2624 28.5527 44.453C28.5527 44.7578 28.7245 45.0582 29.0679 45.3542L36.2509 52.5373H38.49C39.1259 52.5375 39.6415 52.0219 39.6415 51.386Z" fill="url(#paint52_linear_279_742)"/>
<path id="Vector_54" d="M28.5518 44.4534C28.5518 44.2628 28.6215 44.0721 28.7615 43.8814C28.9014 43.6908 29.0613 43.5954 29.2413 43.5954C29.3606 43.5954 29.5173 43.6832 29.7114 43.8588C29.9057 44.0346 30.1721 44.2226 30.5114 44.4232C30.8509 44.6241 31.2432 44.7393 31.6888 44.7695V41.2324C31.3872 41.1222 31.1558 41.0343 30.995 40.969C30.8341 40.9039 30.6204 40.8085 30.3541 40.683C30.0877 40.5577 29.8814 40.4271 29.7357 40.2916C29.5898 40.1562 29.4364 39.993 29.2757 39.8024C29.1147 39.6118 28.999 39.3886 28.9287 39.1327C28.8584 38.8768 28.8232 38.5933 28.8232 38.2822C28.8232 37.4088 29.097 36.7457 29.6451 36.2932C30.1931 35.8407 30.8743 35.5693 31.6887 35.4788V35.0414C31.6887 34.9508 31.7314 34.8705 31.817 34.8001C31.9023 34.7298 32.0055 34.6946 32.1261 34.6946C32.2366 34.6946 32.3397 34.73 32.4353 34.8001C32.5307 34.8705 32.5786 34.951 32.5786 35.0414V35.4487C33.1918 35.469 33.7573 35.5719 34.2753 35.7578C34.7931 35.9439 35.052 36.2028 35.052 36.5345C35.052 36.7155 34.991 36.9041 34.8694 37.1001C34.7479 37.2961 34.5855 37.3941 34.3828 37.3941C34.3027 37.3941 34.0824 37.3088 33.7223 37.1377C33.362 36.9668 32.9806 36.8663 32.5786 36.8361V39.8926C32.9786 40.0432 33.311 40.1862 33.5759 40.3217C33.8408 40.4573 34.1211 40.6454 34.4161 40.8862C34.7112 41.127 34.9336 41.4306 35.0835 41.7967C35.2334 42.163 35.3085 42.592 35.3085 43.0837C35.3085 43.9819 35.0635 44.696 34.5734 45.2258C34.0833 45.7556 33.4185 46.0811 32.5786 46.2021V46.706C32.5786 46.7949 32.5307 46.8738 32.4353 46.9431C32.3396 47.0122 32.2366 47.0468 32.1261 47.0468C32.0055 47.0468 31.9022 47.0122 31.817 46.9433C31.7314 46.8741 31.6887 46.7952 31.6887 46.7063V46.2475C30.814 46.2374 30.0723 46.0373 29.4641 45.6471C28.8558 45.2567 28.5518 44.8589 28.5518 44.4534ZM30.3164 38.1317C30.3164 38.5231 30.4383 38.8217 30.6821 39.0272C30.9257 39.2329 31.2915 39.4262 31.7793 39.6067V36.8648C30.8039 36.9854 30.3164 37.4077 30.3164 38.1317ZM32.4883 44.7392C33.3729 44.5787 33.8156 44.082 33.8156 43.2491C33.8156 42.8077 33.6998 42.4615 33.4686 42.2108C33.2371 41.96 32.9106 41.7442 32.4883 41.5634V44.7392Z" fill="url(#paint53_linear_279_742)"/>
<path id="Vector_55" d="M18.6882 15.4889C17.1489 16.4921 15.8356 17.8133 14.8409 19.3591C14.6172 19.7066 14.101 19.7057 13.8787 19.3574C12.8897 17.8081 11.5813 16.482 10.0456 15.4734C9.70473 15.2495 9.7057 14.7403 10.0473 14.5177C11.5866 13.5147 12.8999 12.1933 13.8945 10.6477C14.1182 10.3002 14.6343 10.301 14.8567 10.6494C15.8457 12.1987 17.1542 13.5248 18.6899 14.5334C19.0307 14.7572 19.0298 15.2662 18.6882 15.4889Z" fill="url(#paint54_linear_279_742)"/>
<path id="Vector_56" d="M11.2408 8.0348C10.1523 8.74415 9.22354 9.67852 8.52014 10.7715C8.36198 11.0174 7.99691 11.0166 7.83972 10.7703C7.14034 9.67476 6.21508 8.73698 5.12911 8.02373C4.88804 7.86545 4.88877 7.50536 5.13032 7.34793C6.21885 6.63858 7.14763 5.7042 7.85091 4.61118C8.00907 4.36537 8.37414 4.3661 8.53133 4.6124C9.23071 5.70797 10.1561 6.64575 11.2421 7.359C11.4831 7.51728 11.4825 7.87736 11.2408 8.0348Z" fill="url(#paint55_linear_279_742)"/>
<path id="Vector_57" d="M27.2755 4.20313C26.187 4.91248 25.2582 5.84686 24.5548 6.93988C24.3967 7.1857 24.0316 7.18497 23.8744 6.93867C23.175 5.84309 22.2497 4.90531 21.1638 4.19207C20.9227 4.03379 20.9234 3.6737 21.165 3.51627C22.2535 2.80692 23.1823 1.87254 23.8856 0.779515C24.0437 0.533703 24.4088 0.534433 24.566 0.780731C25.2654 1.87631 26.1908 2.81409 27.2767 3.52733C27.5177 3.68573 27.5171 4.0457 27.2755 4.20313Z" fill="url(#paint56_linear_279_742)"/>
</g>
<defs>
<linearGradient id="paint0_linear_279_742" x1="35.7082" y1="23.5981" x2="48.8178" y2="36.7077" gradientUnits="userSpaceOnUse">
<stop stop-color="#E4F2FF"/>
<stop offset="1" stop-color="#B2CBFF"/>
</linearGradient>
<linearGradient id="paint1_linear_279_742" x1="38.7231" y1="5.46028" x2="58.7941" y2="25.5311" gradientUnits="userSpaceOnUse">
<stop stop-color="#E4F2FF"/>
<stop offset="1" stop-color="#B2CBFF"/>
</linearGradient>
<linearGradient id="paint2_linear_279_742" x1="27.1514" y1="12.6434" x2="36.2964" y2="21.7885" gradientUnits="userSpaceOnUse">
<stop stop-color="#E4F2FF"/>
<stop offset="1" stop-color="#B2CBFF"/>
</linearGradient>
<linearGradient id="paint3_linear_279_742" x1="21.9819" y1="30.2283" x2="28.2155" y2="36.4621" gradientUnits="userSpaceOnUse">
<stop stop-color="#E4F2FF"/>
<stop offset="1" stop-color="#B2CBFF"/>
</linearGradient>
<linearGradient id="paint4_linear_279_742" x1="49.6464" y1="26.3404" x2="61.0341" y2="37.728" gradientUnits="userSpaceOnUse">
<stop stop-color="#E4F2FF"/>
<stop offset="1" stop-color="#B2CBFF"/>
</linearGradient>
<linearGradient id="paint5_linear_279_742" x1="33.1259" y1="38.3263" x2="44.4752" y2="49.6756" gradientUnits="userSpaceOnUse">
<stop stop-color="#E4F2FF"/>
<stop offset="1" stop-color="#B2CBFF"/>
</linearGradient>
<linearGradient id="paint6_linear_279_742" x1="37.9033" y1="26.7755" x2="43.6494" y2="32.5216" gradientUnits="userSpaceOnUse">
<stop stop-color="#8A7889"/>
<stop offset="1" stop-color="#6E566E"/>
</linearGradient>
<linearGradient id="paint7_linear_279_742" x1="38.8984" y1="5.16778" x2="41.3072" y2="7.57655" gradientUnits="userSpaceOnUse">
<stop stop-color="#8A7889"/>
<stop offset="1" stop-color="#6E566E"/>
</linearGradient>
<linearGradient id="paint8_linear_279_742" x1="60.0839" y1="21.7157" x2="62.3588" y2="23.9906" gradientUnits="userSpaceOnUse">
<stop stop-color="#8A7889"/>
<stop offset="1" stop-color="#6E566E"/>
</linearGradient>
<linearGradient id="paint9_linear_279_742" x1="18.0261" y1="21.9498" x2="19.5162" y2="23.4397" gradientUnits="userSpaceOnUse">
<stop stop-color="#8A7889"/>
<stop offset="1" stop-color="#6E566E"/>
</linearGradient>
<linearGradient id="paint10_linear_279_742" x1="26.5168" y1="43.2137" x2="29.7391" y2="46.436" gradientUnits="userSpaceOnUse">
<stop stop-color="#8A7889"/>
<stop offset="1" stop-color="#6E566E"/>
</linearGradient>
<linearGradient id="paint11_linear_279_742" x1="51.4031" y1="43.8226" x2="52.583" y2="45.0024" gradientUnits="userSpaceOnUse">
<stop stop-color="#8A7889"/>
<stop offset="1" stop-color="#6E566E"/>
</linearGradient>
<linearGradient id="paint12_linear_279_742" x1="45.0766" y1="34.3457" x2="14.7229" y2="-5.46255" gradientUnits="userSpaceOnUse">
<stop stop-color="white" stop-opacity="0"/>
<stop offset="1" stop-color="white"/>
</linearGradient>
<linearGradient id="paint13_linear_279_742" x1="40.9875" y1="28.9915" x2="107.888" y2="32.7469" gradientUnits="userSpaceOnUse">
<stop stop-color="#3F3CED" stop-opacity="0"/>
<stop offset="0.2796" stop-color="#3C3DE4" stop-opacity="0.28"/>
<stop offset="0.7305" stop-color="#3541CC" stop-opacity="0.731"/>
<stop offset="1" stop-color="#2F43BB"/>
</linearGradient>
<linearGradient id="paint14_linear_279_742" x1="9.16457" y1="42.1563" x2="9.16457" y2="47.2533" gradientUnits="userSpaceOnUse">
<stop stop-color="#FFD945"/>
<stop offset="0.3043" stop-color="#FFCD3E"/>
<stop offset="0.8558" stop-color="#FFAD2B"/>
<stop offset="1" stop-color="#FFA325"/>
</linearGradient>
<linearGradient id="paint15_linear_279_742" x1="9.16484" y1="42.2303" x2="9.16484" y2="50.8025" gradientUnits="userSpaceOnUse">
<stop stop-color="#E87264" stop-opacity="0"/>
<stop offset="1" stop-color="#FF7044"/>
</linearGradient>
<linearGradient id="paint16_linear_279_742" x1="9.1648" y1="42.2302" x2="9.1648" y2="50.8024" gradientUnits="userSpaceOnUse">
<stop stop-color="#E87264" stop-opacity="0"/>
<stop offset="1" stop-color="#FF7044"/>
</linearGradient>
<linearGradient id="paint17_linear_279_742" x1="9.1436" y1="43.6035" x2="7.11122" y2="38.6886" gradientUnits="userSpaceOnUse">
<stop stop-color="#FFD945" stop-opacity="0"/>
<stop offset="1" stop-color="#FBED21"/>
</linearGradient>
<linearGradient id="paint18_linear_279_742" x1="9.16457" y1="38.2249" x2="9.16457" y2="43.322" gradientUnits="userSpaceOnUse">
<stop stop-color="#FFD945"/>
<stop offset="0.3043" stop-color="#FFCD3E"/>
<stop offset="0.8558" stop-color="#FFAD2B"/>
<stop offset="1" stop-color="#FFA325"/>
</linearGradient>
<linearGradient id="paint19_linear_279_742" x1="9.16484" y1="38.2989" x2="9.16484" y2="46.8711" gradientUnits="userSpaceOnUse">
<stop stop-color="#E87264" stop-opacity="0"/>
<stop offset="1" stop-color="#FF7044"/>
</linearGradient>
<linearGradient id="paint20_linear_279_742" x1="9.1648" y1="38.2988" x2="9.1648" y2="46.871" gradientUnits="userSpaceOnUse">
<stop stop-color="#E87264" stop-opacity="0"/>
<stop offset="1" stop-color="#FF7044"/>
</linearGradient>
<linearGradient id="paint21_linear_279_742" x1="9.1436" y1="39.6719" x2="7.11122" y2="34.7572" gradientUnits="userSpaceOnUse">
<stop stop-color="#FFD945" stop-opacity="0"/>
<stop offset="1" stop-color="#FBED21"/>
</linearGradient>
<linearGradient id="paint22_linear_279_742" x1="9.16457" y1="34.2935" x2="9.16457" y2="39.3906" gradientUnits="userSpaceOnUse">
<stop stop-color="#FFD945"/>
<stop offset="0.3043" stop-color="#FFCD3E"/>
<stop offset="0.8558" stop-color="#FFAD2B"/>
<stop offset="1" stop-color="#FFA325"/>
</linearGradient>
<linearGradient id="paint23_linear_279_742" x1="9.16484" y1="34.3674" x2="9.16484" y2="42.9396" gradientUnits="userSpaceOnUse">
<stop stop-color="#E87264" stop-opacity="0"/>
<stop offset="1" stop-color="#FF7044"/>
</linearGradient>
<linearGradient id="paint24_linear_279_742" x1="9.1648" y1="34.3674" x2="9.1648" y2="42.9396" gradientUnits="userSpaceOnUse">
<stop stop-color="#E87264" stop-opacity="0"/>
<stop offset="1" stop-color="#FF7044"/>
</linearGradient>
<linearGradient id="paint25_linear_279_742" x1="9.1436" y1="35.7407" x2="7.11122" y2="30.8258" gradientUnits="userSpaceOnUse">
<stop stop-color="#FFD945" stop-opacity="0"/>
<stop offset="1" stop-color="#FBED21"/>
</linearGradient>
<linearGradient id="paint26_linear_279_742" x1="9.16457" y1="30.3622" x2="9.16457" y2="35.4593" gradientUnits="userSpaceOnUse">
<stop stop-color="#FFD945"/>
<stop offset="0.3043" stop-color="#FFCD3E"/>
<stop offset="0.8558" stop-color="#FFAD2B"/>
<stop offset="1" stop-color="#FFA325"/>
</linearGradient>
<linearGradient id="paint27_linear_279_742" x1="9.16484" y1="30.4361" x2="9.16484" y2="39.0083" gradientUnits="userSpaceOnUse">
<stop stop-color="#E87264" stop-opacity="0"/>
<stop offset="1" stop-color="#FF7044"/>
</linearGradient>
<linearGradient id="paint28_linear_279_742" x1="9.1648" y1="30.4362" x2="9.1648" y2="39.0084" gradientUnits="userSpaceOnUse">
<stop stop-color="#E87264" stop-opacity="0"/>
<stop offset="1" stop-color="#FF7044"/>
</linearGradient>
<linearGradient id="paint29_linear_279_742" x1="9.1436" y1="31.8094" x2="7.11122" y2="26.8945" gradientUnits="userSpaceOnUse">
<stop stop-color="#FFD945" stop-opacity="0"/>
<stop offset="1" stop-color="#FBED21"/>
</linearGradient>
<linearGradient id="paint30_linear_279_742" x1="9.16457" y1="26.4311" x2="9.16457" y2="31.5281" gradientUnits="userSpaceOnUse">
<stop stop-color="#FFD945"/>
<stop offset="0.3043" stop-color="#FFCD3E"/>
<stop offset="0.8558" stop-color="#FFAD2B"/>
<stop offset="1" stop-color="#FFA325"/>
</linearGradient>
<linearGradient id="paint31_linear_279_742" x1="9.16484" y1="26.505" x2="9.16484" y2="35.0771" gradientUnits="userSpaceOnUse">
<stop stop-color="#E87264" stop-opacity="0"/>
<stop offset="1" stop-color="#FF7044"/>
</linearGradient>
<linearGradient id="paint32_linear_279_742" x1="9.1648" y1="26.5049" x2="9.1648" y2="35.077" gradientUnits="userSpaceOnUse">
<stop stop-color="#E87264" stop-opacity="0"/>
<stop offset="1" stop-color="#FF7044"/>
</linearGradient>
<linearGradient id="paint33_linear_279_742" x1="9.1436" y1="27.8781" x2="7.11122" y2="22.9632" gradientUnits="userSpaceOnUse">
<stop stop-color="#FFD945" stop-opacity="0"/>
<stop offset="1" stop-color="#FBED21"/>
</linearGradient>
<linearGradient id="paint34_linear_279_742" x1="9.16457" y1="22.4997" x2="9.16457" y2="27.5968" gradientUnits="userSpaceOnUse">
<stop stop-color="#FFD945"/>
<stop offset="0.3043" stop-color="#FFCD3E"/>
<stop offset="0.8558" stop-color="#FFAD2B"/>
<stop offset="1" stop-color="#FFA325"/>
</linearGradient>
<linearGradient id="paint35_linear_279_742" x1="9.16484" y1="22.5735" x2="9.16484" y2="31.1457" gradientUnits="userSpaceOnUse">
<stop stop-color="#E87264" stop-opacity="0"/>
<stop offset="1" stop-color="#FF7044"/>
</linearGradient>
<linearGradient id="paint36_linear_279_742" x1="9.1648" y1="22.5735" x2="9.1648" y2="31.1457" gradientUnits="userSpaceOnUse">
<stop stop-color="#E87264" stop-opacity="0"/>
<stop offset="1" stop-color="#FF7044"/>
</linearGradient>
<linearGradient id="paint37_linear_279_742" x1="9.1436" y1="23.947" x2="7.11122" y2="19.0321" gradientUnits="userSpaceOnUse">
<stop stop-color="#FFD945" stop-opacity="0"/>
<stop offset="1" stop-color="#FBED21"/>
</linearGradient>
<linearGradient id="paint38_linear_279_742" x1="59.3901" y1="40.6054" x2="48.9679" y2="37.3253" gradientUnits="userSpaceOnUse">
<stop stop-color="#3F3CED" stop-opacity="0"/>
<stop offset="0.2796" stop-color="#3C3DE4" stop-opacity="0.28"/>
<stop offset="0.7305" stop-color="#3541CC" stop-opacity="0.731"/>
<stop offset="1" stop-color="#2F43BB"/>
</linearGradient>
<linearGradient id="paint39_linear_279_742" x1="29.8106" y1="35.5056" x2="41.1252" y2="64.1308" gradientUnits="userSpaceOnUse">
<stop stop-color="#4AB272"/>
<stop offset="1" stop-color="#077565"/>
</linearGradient>
<linearGradient id="paint40_linear_279_742" x1="33.6328" y1="44.5314" x2="11.8738" y2="-2.27449" gradientUnits="userSpaceOnUse">
<stop stop-color="#92F37F" stop-opacity="0"/>
<stop offset="1" stop-color="#FFEE83"/>
</linearGradient>
<linearGradient id="paint41_linear_279_742" x1="30.5337" y1="36.6317" x2="36.8358" y2="55.7483" gradientUnits="userSpaceOnUse">
<stop stop-color="#91F27F"/>
<stop offset="1" stop-color="#00B302"/>
</linearGradient>
<linearGradient id="paint42_linear_279_742" x1="37.8448" y1="44.7151" x2="14.6412" y2="29.6328" gradientUnits="userSpaceOnUse">
<stop stop-color="#92F37F"/>
<stop offset="1" stop-color="#4AB272"/>
</linearGradient>
<linearGradient id="paint43_linear_279_742" x1="37.369" y1="44.8334" x2="21.0578" y2="37.6126" gradientUnits="userSpaceOnUse">
<stop stop-color="#4AB272" stop-opacity="0"/>
<stop offset="1" stop-color="#009245"/>
</linearGradient>
<linearGradient id="paint44_linear_279_742" x1="31.1975" y1="40.21" x2="37.5156" y2="44.4652" gradientUnits="userSpaceOnUse">
<stop stop-color="#4AB272"/>
<stop offset="1" stop-color="#077565"/>
</linearGradient>
<linearGradient id="paint45_linear_279_742" x1="14.9896" y1="33.3834" x2="18.006" y2="36.6411" gradientUnits="userSpaceOnUse">
<stop stop-color="#91F27F"/>
<stop offset="1" stop-color="#00B302"/>
</linearGradient>
<linearGradient id="paint46_linear_279_742" x1="47.8554" y1="33.3834" x2="50.8718" y2="36.6412" gradientUnits="userSpaceOnUse">
<stop stop-color="#91F27F"/>
<stop offset="1" stop-color="#00B302"/>
</linearGradient>
<linearGradient id="paint47_linear_279_742" x1="14.9896" y1="47.2608" x2="18.006" y2="50.5186" gradientUnits="userSpaceOnUse">
<stop stop-color="#91F27F"/>
<stop offset="1" stop-color="#00B302"/>
</linearGradient>
<linearGradient id="paint48_linear_279_742" x1="47.8554" y1="47.2608" x2="50.8718" y2="50.5186" gradientUnits="userSpaceOnUse">
<stop stop-color="#91F27F"/>
<stop offset="1" stop-color="#00B302"/>
</linearGradient>
<linearGradient id="paint49_linear_279_742" x1="48.6837" y1="41.1715" x2="28.4985" y2="40.5947" gradientUnits="userSpaceOnUse">
<stop stop-color="#005A01" stop-opacity="0"/>
<stop offset="1" stop-color="#005A01"/>
</linearGradient>
<linearGradient id="paint50_linear_279_742" x1="26.6934" y1="36.8624" x2="45.8585" y2="51.5307" gradientUnits="userSpaceOnUse">
<stop stop-color="#FFD945"/>
<stop offset="0.3043" stop-color="#FFCD3E"/>
<stop offset="0.8558" stop-color="#FFAD2B"/>
<stop offset="1" stop-color="#FFA325"/>
</linearGradient>
<linearGradient id="paint51_linear_279_742" x1="38.4599" y1="45.4891" x2="20.8701" y2="33.5222" gradientUnits="userSpaceOnUse">
<stop stop-color="#FFD945" stop-opacity="0"/>
<stop offset="1" stop-color="#FBED21"/>
</linearGradient>
<linearGradient id="paint52_linear_279_742" x1="35.9426" y1="44.4861" x2="24.1019" y2="38.3765" gradientUnits="userSpaceOnUse">
<stop stop-color="#E87264" stop-opacity="0"/>
<stop offset="1" stop-color="#FF7044"/>
</linearGradient>
<linearGradient id="paint53_linear_279_742" x1="24.9679" y1="36.5459" x2="33.1862" y2="41.4661" gradientUnits="userSpaceOnUse">
<stop stop-color="#FFD945"/>
<stop offset="0.3043" stop-color="#FFCD3E"/>
<stop offset="0.8558" stop-color="#FFAD2B"/>
<stop offset="1" stop-color="#FFA325"/>
</linearGradient>
<linearGradient id="paint54_linear_279_742" x1="12.8719" y1="13.0087" x2="17.7149" y2="19.4931" gradientUnits="userSpaceOnUse">
<stop stop-color="#FFD945"/>
<stop offset="0.3043" stop-color="#FFCD3E"/>
<stop offset="0.8558" stop-color="#FFAD2B"/>
<stop offset="1" stop-color="#FFA325"/>
</linearGradient>
<linearGradient id="paint55_linear_279_742" x1="7.12817" y1="6.28055" x2="10.553" y2="10.8661" gradientUnits="userSpaceOnUse">
<stop stop-color="#FFD945"/>
<stop offset="0.3043" stop-color="#FFCD3E"/>
<stop offset="0.8558" stop-color="#FFAD2B"/>
<stop offset="1" stop-color="#FFA325"/>
</linearGradient>
<linearGradient id="paint56_linear_279_742" x1="23.1635" y1="2.45213" x2="26.5883" y2="7.03763" gradientUnits="userSpaceOnUse">
<stop stop-color="#FFD945"/>
<stop offset="0.3043" stop-color="#FFCD3E"/>
<stop offset="0.8558" stop-color="#FFAD2B"/>
<stop offset="1" stop-color="#FFA325"/>
</linearGradient>
</defs>
</svg>
