<svg width="131" height="131" viewBox="0 0 131 131" fill="none" xmlns="http://www.w3.org/2000/svg">
<circle cx="65.5" cy="65.5" r="65.5" fill="#FECBD2"/>
<path d="M100.441 37.9942C100.041 34.627 97.3722 31.9583 94.0035 31.5585C53.5017 26.7467 26.7462 53.4879 31.5583 94.0052C31.9581 97.3724 34.6253 100.041 37.994 100.441C78.4226 105.242 105.262 78.588 100.441 37.9942Z" fill="#CBE3FA"/>
<path d="M45.1356 74.3467C44.2745 77.4513 43.5095 81.7862 43.2197 86.1967C39.6262 82.9125 35.4746 80.3072 31.249 78.8635C31.5598 75.2368 32.1572 71.7701 33.0231 68.4768C37.1672 69.6143 41.2963 71.663 45.1356 74.3467Z" fill="#EEF7FF"/>
<path d="M82.5442 38.5707C79.1103 39.3407 75.6357 40.4578 72.3054 41.9454C70.6157 39.0504 69.3048 36.0408 68.4766 33.0236C71.7683 32.1577 75.2366 31.5603 78.8617 31.2495C79.7156 33.7493 80.9768 36.2233 82.5442 38.5707Z" fill="#EEF7FF"/>
<path d="M53.1356 100.75C48.3504 101.159 43.2905 101.07 37.9939 100.441C34.6252 100.041 31.958 97.3725 31.5582 94.0053C30.9291 88.7086 30.8401 83.6488 31.249 78.8635C40.7576 82.1115 49.8876 91.24 53.1356 100.75Z" fill="#FF6D7A"/>
<path d="M43.7869 100.921C42.0558 100.843 39.9332 100.675 37.9939 100.441C34.6252 100.041 31.958 97.3725 31.5582 94.0053C30.9291 88.7086 30.8401 83.6488 31.249 78.8635C35.4745 80.3072 39.6262 82.9126 43.2196 86.1968C42.7998 92.5726 43.4127 99.4 43.7869 100.921Z" fill="#FF8C95"/>
<path d="M98.9756 63.5209C94.2477 81.4943 81.4941 94.2479 63.5207 98.9759C59.8201 85.5041 46.4932 72.1772 33.0229 68.4766C37.7509 50.5048 50.5045 37.7511 68.4764 33.0232C72.177 46.4934 85.5039 59.8203 98.9756 63.5209Z" fill="#FF6D7A"/>
<path d="M72.3052 41.945C58.7354 47.993 49.1302 59.3406 45.1354 74.3466C41.2961 71.6628 37.1671 69.6141 33.0229 68.4766C37.7509 50.5048 50.5045 37.7511 68.4764 33.0232C69.3046 36.0404 70.6156 39.05 72.3052 41.945Z" fill="#FF8C95"/>
<path d="M100.441 37.9941C101.07 43.2908 101.159 48.3506 100.75 53.1359C91.2398 49.8879 82.1113 40.7579 78.8618 31.2492C83.6471 30.8404 88.7084 30.9294 94.0036 31.5585C97.3723 31.9582 100.041 34.6269 100.441 37.9941Z" fill="#FF6D7A"/>
<path d="M100.281 37.1131C94.351 36.8435 88.3822 37.2534 82.5443 38.5704C80.9769 36.223 79.7157 33.7489 78.8618 31.2492C83.6471 30.8404 88.7084 30.9294 94.0036 31.5585C97.0721 31.922 99.5612 34.1698 100.281 37.1131Z" fill="#FF8C95"/>
<path d="M75.0626 62.9815L72.8935 60.8123L75.0627 58.6431C75.5338 58.1716 75.5337 57.4075 75.0623 56.9362C74.591 56.4651 73.8269 56.4653 73.3556 56.9367L71.1868 59.1056L69.0178 56.9365C68.5463 56.4653 67.7824 56.4653 67.311 56.9365C66.8397 57.4078 66.8397 58.1721 67.311 58.6434L69.48 60.8124L65.9995 64.2929L64.9672 63.2606C64.4958 62.7893 63.7318 62.7893 63.2604 63.2606C62.7891 63.7319 62.7891 64.4961 63.2604 64.9674L64.2927 65.9997L60.8122 69.4802L58.6432 67.3111C58.1717 66.8399 57.4078 66.8399 56.9364 67.3111C56.4651 67.7824 56.4651 68.5465 56.9364 69.018L59.1054 71.187L56.9367 73.3558C56.1736 74.1184 56.7244 75.4162 57.7898 75.4162C58.0986 75.4162 58.4074 75.2984 58.6429 75.0629L60.8121 72.8937L62.9811 75.0627C63.2168 75.2984 63.5256 75.4162 63.8346 75.4162C64.8995 75.4162 65.4512 74.1191 64.688 73.3559L62.5188 71.1869L65.9992 67.7064L67.0316 68.7387C67.2672 68.9744 67.576 69.0922 67.885 69.0922C68.9514 69.0922 69.5001 67.7936 68.7384 67.0319L67.7061 65.9996L71.1865 62.5191L73.3556 64.6882C73.5912 64.9238 73.9 65.0416 74.209 65.0416C75.2741 65.0418 75.8258 63.7447 75.0626 62.9815Z" fill="#E84857"/>
<path d="M87.0775 73.158C94.7668 73.158 100.999 79.39 100.999 87.0793C100.999 94.767 94.7668 100.999 87.0775 100.999C79.3897 100.999 73.1577 94.767 73.1577 87.0793C73.1577 79.39 79.3897 73.158 87.0775 73.158Z" fill="#FFF0A6"/>
<path d="M79.1921 90.0964C79.1921 94.328 81.0793 98.1176 84.0603 100.67C77.8238 99.2928 73.1577 93.7306 73.1577 87.0793C73.1577 79.39 79.3897 73.158 87.0775 73.158C90.5337 73.158 93.6972 74.4176 96.1306 76.504C87.445 74.5753 79.1921 81.1938 79.1921 90.0964Z" fill="#FFF8D6"/>
<path d="M91.92 89.8658C91.92 86.8299 89.151 86.2682 87.3185 85.8965C85.1238 85.4513 84.6501 85.1664 84.6501 84.2915C84.6501 83.4502 85.7844 82.712 87.0774 82.712C87.98 82.712 88.8349 83.0669 89.2555 83.6161C89.6607 84.1455 90.4182 84.2461 90.9475 83.8409C91.4768 83.4357 91.5774 82.6782 91.1722 82.149C90.5051 81.2777 89.474 80.6705 88.2903 80.4229V79.3888C88.2903 78.7223 87.7499 78.1819 87.0834 78.1819C86.4169 78.1819 85.8766 78.7223 85.8766 79.3888V80.4229C83.7863 80.8646 82.2363 82.4316 82.2363 84.2917C82.2363 87.3286 85.006 87.8904 86.8387 88.2623C89.0327 88.7073 89.5064 88.992 89.5064 89.8659C89.5064 90.7073 88.3715 91.4454 87.0774 91.4454C86.1756 91.4454 85.3214 91.0906 84.901 90.5413C84.4956 90.012 83.7383 89.9113 83.2089 90.3166C82.6797 90.7218 82.5791 91.4792 82.9843 92.0084C83.6535 92.8827 84.6888 93.4906 85.8766 93.7367V94.7687C85.8766 95.4352 86.4169 95.9756 87.0834 95.9756C87.7499 95.9756 88.2903 95.4352 88.2903 94.7687V93.7322C90.3755 93.287 91.92 91.7224 91.92 89.8658Z" fill="#FADA86"/>
</svg>
