<svg width="131" height="131" viewBox="0 0 131 131" fill="none" xmlns="http://www.w3.org/2000/svg">
<circle cx="65.5" cy="65.5" r="65.5" fill="#B2CBFF"/>
<path fill-rule="evenodd" clip-rule="evenodd" d="M76.9598 26C85.7361 26 98.6583 41.362 98.6583 60.3101C98.6583 79.2581 85.7361 94.6201 76.9598 94.6201C68.1833 94.6201 55.2612 79.2581 55.2612 60.3101C55.2612 41.362 68.1833 26 76.9598 26Z" fill="#FFA471"/>
<path fill-rule="evenodd" clip-rule="evenodd" d="M84.2692 28.8577C91.5327 34.1498 98.6586 46.2369 98.6586 60.3103C98.6586 79.2584 85.7363 94.6204 76.96 94.6204C73.4759 94.6204 69.34 92.2011 65.6216 88.0956C67.7863 89.4098 69.9309 90.128 71.8817 90.128C80.8921 90.128 94.166 74.7658 94.166 55.8178C94.166 44.882 89.7448 35.1379 84.2692 28.8577Z" fill="#F2956A"/>
<path fill-rule="evenodd" clip-rule="evenodd" d="M89.6886 34.1602H64.2309C62.7589 36.0039 61.3785 38.1178 60.1611 40.4456H93.7584C92.5408 38.1178 91.1605 36.0039 89.6886 34.1602ZM89.6886 86.5322H64.2309C62.7589 84.6883 61.3785 82.5744 60.1611 80.2468H93.7584C92.5408 82.5743 91.1605 84.6883 89.6886 86.5322Z" fill="#FF6471"/>
<path fill-rule="evenodd" clip-rule="evenodd" d="M89.6887 86.532C91.1605 84.6881 92.5409 82.5743 93.7582 80.2466H93.7227H86.2809C84.4522 82.778 82.43 84.9073 80.3774 86.532H89.6326H89.6887Z" fill="#FF4255"/>
<path fill-rule="evenodd" clip-rule="evenodd" d="M88.9095 63.1729H106.564C107.353 63.1729 108 63.8199 108 64.6143V93.1841C108 93.9736 107.353 94.6203 106.564 94.6203H88.9095C88.115 94.6203 87.4683 93.9734 87.4683 93.1841V64.6143C87.4681 63.8197 88.115 63.1729 88.9095 63.1729Z" fill="#FFE363"/>
<path fill-rule="evenodd" clip-rule="evenodd" d="M41.249 94.6203C55.1544 94.6203 66.4925 83.2772 66.4925 69.3717C66.4925 55.4662 55.1543 44.1279 41.249 44.1279C27.3437 44.1279 16 55.4664 16 69.3719C16 83.2773 27.3435 94.6203 41.249 94.6203Z" fill="#F2956A"/>
<path fill-rule="evenodd" clip-rule="evenodd" d="M56.713 49.4204C62.6623 54.0353 66.4927 61.2579 66.4927 69.372C66.4927 83.3181 55.1902 94.6206 41.2491 94.6206C33.1299 94.6206 25.9072 90.7904 21.2925 84.8361C25.5662 88.1519 30.9297 90.1283 36.7566 90.1283C50.6976 90.1281 62.0001 78.8254 62.0001 64.8793C62.0001 59.0574 60.029 53.6887 56.713 49.4204Z" fill="#E4835B"/>
<path fill-rule="evenodd" clip-rule="evenodd" d="M66.4568 68.0269H42.5936V58.9196C45.6344 58.7973 48.5836 58.2778 51.39 57.4018C54.6348 56.3882 57.6909 54.9009 60.477 53.0164C59.8862 52.3183 59.2598 51.6613 58.5974 51.0348C56.1271 52.6546 53.4375 53.9435 50.5852 54.8346C48.0435 55.6292 45.3642 56.103 42.5934 56.2202V44.1635C42.1503 44.138 41.6969 44.1279 41.2488 44.1279C40.7956 44.1279 40.3471 44.1382 39.899 44.1635V56.2202C37.1278 56.103 34.4537 55.6292 31.907 54.8346C29.0547 53.9434 26.3653 52.6545 23.8949 51.0348C23.2324 51.6613 22.606 52.3184 22.0152 53.0164C24.8016 54.9009 27.8578 56.3884 31.1074 57.4018C33.9138 58.2778 36.8579 58.7974 39.899 58.9196V68.0269H16.0356C16.0102 68.4702 16 68.9235 16 69.3719C16 69.825 16.0102 70.2734 16.0356 70.7217H39.8992V79.829C36.8581 79.9459 33.9139 80.4706 31.1076 81.3468C27.8579 82.3604 24.8018 83.8479 22.0154 85.7324C22.6062 86.4251 23.2326 87.0873 23.8951 87.7136C26.3655 86.0887 29.0548 84.8052 31.9072 83.914C34.4539 83.1194 37.128 82.6454 39.8992 82.5234V94.5851C40.3473 94.6104 40.7956 94.6205 41.249 94.6205C41.6971 94.6205 42.1506 94.6102 42.5936 94.5851V82.5232C45.3643 82.6454 48.0437 83.1192 50.5854 83.9138C53.4377 84.8052 56.1273 86.0886 58.5976 87.7135C59.2599 87.0871 59.8863 86.4248 60.4771 85.7322C57.6911 83.8477 54.6348 82.36 51.3902 81.3466C48.5838 80.4704 45.6346 79.9458 42.5937 79.8288V70.7215H66.457C66.4827 70.2732 66.4927 69.825 66.4927 69.3717C66.4925 68.9235 66.4823 68.4702 66.4568 68.0269Z" fill="#024C67"/>
<path fill-rule="evenodd" clip-rule="evenodd" d="M71.031 92.0482C71.031 93.4643 69.8747 94.6203 68.4588 94.6203H53.7435C52.3324 94.6203 51.1763 93.4641 51.1763 92.0482V77.3381C51.1763 75.922 52.3326 74.7659 53.7435 74.7659H68.4588C69.8749 74.7659 71.031 75.9222 71.031 77.3381V92.0482Z" fill="#FAF7F8"/>
<path fill-rule="evenodd" clip-rule="evenodd" d="M71.031 92.0482C71.031 93.4643 69.8747 94.6203 68.4588 94.6203H53.7435C52.3324 94.6203 51.1763 93.4641 51.1763 92.0482V90.1281H63.8441C65.3261 90.1281 66.5385 88.9157 66.5385 87.4337V74.7659H68.4588C69.8749 74.7659 71.031 75.9222 71.031 77.3381V92.0482Z" fill="#EEE9FB"/>
<path d="M59.7537 84.2399C59.7537 83.491 60.3599 82.8899 61.1035 82.8899C61.8472 82.8899 62.4481 83.491 62.4481 84.2399V85.1464C62.4481 85.8901 61.847 86.4964 61.1035 86.4964C60.3599 86.4964 59.7537 85.8901 59.7537 85.1464V84.2399ZM63.9253 88.1059C63.9253 87.3623 64.5314 86.7561 65.2751 86.7561C66.0188 86.7561 66.6197 87.3623 66.6197 88.1059V89.0176C66.6197 89.7613 66.0186 90.3622 65.2751 90.3622C64.5314 90.3622 63.9253 89.7612 63.9253 89.0176V88.1059ZM55.582 80.3687C55.582 79.625 56.1881 79.0239 56.9318 79.0239C57.6756 79.0239 58.2766 79.6252 58.2766 80.3687V81.2804C58.2766 82.024 57.6754 82.6249 56.9318 82.6249C56.1881 82.6249 55.582 82.0238 55.582 81.2804V80.3687ZM63.9253 80.3687C63.9253 79.625 64.5314 79.0239 65.2751 79.0239C66.0188 79.0239 66.6197 79.6252 66.6197 80.3687V81.2804C66.6197 82.024 66.0186 82.6249 65.2751 82.6249C64.5314 82.6249 63.9253 82.0238 63.9253 81.2804V80.3687ZM55.582 88.1059C55.582 87.3623 56.1881 86.7561 56.9318 86.7561C57.6756 86.7561 58.2766 87.3623 58.2766 88.1059V89.0176C58.2766 89.7613 57.6754 90.3622 56.9318 90.3622C56.1881 90.3622 55.582 89.7612 55.582 89.0176V88.1059Z" fill="#025F80"/>
<path d="M76.9599 75.5783C76.2158 75.5783 75.6126 74.9751 75.6126 74.231V72.4764H74.5099C73.7658 72.4764 73.1626 71.8732 73.1626 71.1291C73.1626 70.385 73.7658 69.7818 74.5099 69.7818H75.6126V67.0824H74.5099C73.7658 67.0824 73.1626 66.4792 73.1626 65.7351C73.1626 64.991 73.7658 64.3878 74.5099 64.3878H75.6126V61.6934H74.5099C73.7658 61.6934 73.1626 61.0901 73.1626 60.3461C73.1626 59.602 73.7658 58.9988 74.5099 58.9988H75.6126V56.3045H74.5099C73.7658 56.3045 73.1626 55.7013 73.1626 54.9572C73.1626 54.2131 73.7658 53.6099 74.5099 53.6099H75.6126V50.9105H74.5099C73.7658 50.9105 73.1626 50.3073 73.1626 49.5632C73.1626 48.8191 73.7658 48.2159 74.5099 48.2159H75.6126V46.4611C75.6126 45.717 76.2158 45.1138 76.9599 45.1138C77.704 45.1138 78.3072 45.717 78.3072 46.4611V48.2159H79.41C80.1541 48.2159 80.7573 48.8191 80.7573 49.5632C80.7573 50.3073 80.1541 50.9105 79.41 50.9105H78.3072V53.6099H79.41C80.1541 53.6099 80.7573 54.2131 80.7573 54.9572C80.7573 55.7013 80.1541 56.3045 79.41 56.3045H78.3072V58.9986H79.41C80.1541 58.9986 80.7573 59.6018 80.7573 60.3459C80.7573 61.09 80.1541 61.6932 79.41 61.6932H78.3072V64.3876H79.41C80.1541 64.3876 80.7573 64.9908 80.7573 65.7349C80.7573 66.479 80.1541 67.0822 79.41 67.0822H78.3072V69.7816H79.41C80.1541 69.7816 80.7573 70.3848 80.7573 71.1289C80.7573 71.873 80.1541 72.4762 79.41 72.4762H78.3072V74.2309C78.3072 74.975 77.704 75.5783 76.9599 75.5783Z" fill="#024C67"/>
<path fill-rule="evenodd" clip-rule="evenodd" d="M87.4678 68.1138H108V70.8132H87.4678V68.1138ZM87.4678 86.9854H108V89.6797H87.4678V86.9854ZM87.4678 80.6946H108V83.3892H87.4678V80.6946ZM87.4678 74.4041H108V77.0985H87.4678V74.4041Z" fill="#FFD15B"/>
<path fill-rule="evenodd" clip-rule="evenodd" d="M103.508 63.1729H106.564C107.353 63.1729 108 63.8199 108 64.6143V93.1841C108 93.9736 107.353 94.6203 106.564 94.6203H88.9095C88.115 94.6203 87.4683 93.9734 87.4683 93.1841V90.128H100.813C102.296 90.128 103.508 88.9156 103.508 87.4335V63.1729Z" fill="#FFD15B"/>
<path fill-rule="evenodd" clip-rule="evenodd" d="M88.1094 34.1602C89.2757 36.0905 90.3251 38.1994 91.2113 40.4456H93.7582C92.5408 38.1178 91.1605 36.0037 89.6886 34.1602H88.1094Z" fill="#FF4255"/>
<path fill-rule="evenodd" clip-rule="evenodd" d="M103.507 68.1138H108V70.8134H103.507V68.1138Z" fill="#FFC344"/>
<path fill-rule="evenodd" clip-rule="evenodd" d="M103.507 74.4041H108V77.0985H103.507V74.4041Z" fill="#FFC344"/>
<path fill-rule="evenodd" clip-rule="evenodd" d="M103.507 80.6946H108V83.3892H103.507V80.6946Z" fill="#FFC344"/>
<path fill-rule="evenodd" clip-rule="evenodd" d="M108 86.9856H103.507V87.4337C103.507 88.366 103.029 89.1961 102.3 89.6798H108V86.9856Z" fill="#FFC344"/>
</svg>
