<svg width="96" height="100" viewBox="0 0 96 100" fill="none" xmlns="http://www.w3.org/2000/svg">
<path d="M95.7031 52.1484C95.7031 61.7352 92.884 70.6635 88.0295 78.1494C87.0662 79.635 62.7902 64.859 47.8516 64.859C32.9129 64.859 9.81504 81.1973 9.34609 80.5629C3.47246 72.6168 0 62.7881 0 52.1484C0 25.7207 21.4238 4.29688 47.8516 4.29688C74.2793 4.29688 95.7031 25.7207 95.7031 52.1484Z" fill="#004B94"/>
<path d="M92.9688 52.1484C92.9688 73.7221 75.4799 91.2109 53.9062 91.2109C32.3326 91.2109 14.8438 73.7221 14.8438 52.1484C14.8438 30.5748 32.3326 13.0859 53.9062 13.0859C75.4799 13.0859 92.9688 30.5748 92.9688 52.1484Z" fill="#005AAF"/>
<path d="M76.6371 13.6431V90.377C74.365 92.0905 71.9355 93.6061 69.374 94.8983H30.1346C28.5186 94.0831 26.9551 93.179 25.4504 92.1923C25.2127 92.0364 24.0211 91.8786 22.833 91.7186V13.6431C22.833 12.6106 23.6699 11.7739 24.7021 11.7739H74.7678C75.8002 11.7737 76.6371 12.6106 76.6371 13.6431Z" fill="#9AE7FD"/>
<path d="M24.8645 92.0226C23.5537 91.7653 20.9396 91.7282 20.5609 91.4603C20.4674 91.394 20.0527 91.1021 19.9598 91.0353C15.9002 88.1183 12.316 84.5813 9.3457 80.563V13.6431C9.3457 12.6106 10.1826 11.7739 11.2148 11.7739H26.7336C25.7012 11.7739 24.8645 12.6108 24.8645 13.6431V92.0226Z" fill="#64DCFC"/>
<path d="M29.541 96.3714C26.3604 95.053 23.3525 93.4015 20.5615 91.46V23.3628C20.5615 22.3304 21.3984 21.4937 22.4307 21.4937H34.8695C33.8371 21.4937 33.0004 22.3306 33.0004 23.3628V94.0507C33.0004 95.8339 31.1883 97.0542 29.541 96.3714Z" fill="#C9F0FF"/>
<path d="M88.0295 23.3628V78.1495C79.5016 91.3003 64.6926 100 47.8516 100C46.0416 100 44.2551 99.8995 42.4973 99.7038C42.2531 99.6767 42.0094 98.7628 41.7662 98.7319C38.5303 98.3212 35.3953 97.5874 32.3945 96.5638V23.3628C32.3945 22.3304 33.2314 21.4937 34.2637 21.4937H86.1602C87.1926 21.4937 88.0295 22.3306 88.0295 23.3628Z" fill="#FFF5F5"/>
<path d="M41.7969 64.4531H30.0781C29.5389 64.4531 29.1016 64.0158 29.1016 63.4766V51.7578C29.1016 51.2186 29.5389 50.7812 30.0781 50.7812H41.7969C42.3361 50.7812 42.7734 51.2186 42.7734 51.7578V63.4766C42.7734 64.0158 42.3361 64.4531 41.7969 64.4531ZM42.7734 81.0547V69.3359C42.7734 68.7967 42.3361 68.3594 41.7969 68.3594H30.0781C29.5389 68.3594 29.1016 68.7967 29.1016 69.3359V81.0547C29.1016 81.5939 29.5389 82.0312 30.0781 82.0312H41.7969C42.3361 82.0312 42.7734 81.5939 42.7734 81.0547ZM41.7969 86.3281H30.0781C29.5389 86.3281 29.1016 86.7654 29.1016 87.3047V96.1869C33.2934 97.9738 37.7924 99.1799 42.4973 99.7037C42.6682 99.5279 42.7734 99.2879 42.7734 99.0234V87.3047C42.7734 86.7654 42.3361 86.3281 41.7969 86.3281Z" fill="#9AE7FD"/>
<path d="M31.0544 61.0209C30.5365 61.0209 30.0396 60.8151 29.6734 60.4489L25.5302 56.3055C24.7675 55.5428 24.7675 54.3061 25.5302 53.5432C26.2933 52.7807 27.5296 52.7809 28.2925 53.5432L31.0544 56.3055L37.9597 49.4002C38.7226 48.6377 39.9589 48.6377 40.722 49.4002C41.4847 50.1629 41.4847 51.3997 40.722 52.1625L32.4355 60.4491C32.0693 60.8151 31.5724 61.0209 31.0544 61.0209ZM32.4355 78.027L40.722 69.7405C41.4847 68.9778 41.4847 67.7411 40.722 66.9782C39.9591 66.2157 38.7228 66.2157 37.9597 66.9782L31.0544 73.8836L28.2923 71.1213C27.5296 70.359 26.2933 70.3588 25.53 71.1213C24.7673 71.884 24.7673 73.1207 25.53 73.8836L29.6732 78.027C30.0394 78.3932 30.5363 78.5991 31.0542 78.5991C31.5724 78.5991 32.0693 78.3932 32.4355 78.027Z" fill="#00C53B"/>
<path d="M36.8158 92.8428C37.5785 93.6055 37.5785 94.8422 36.8158 95.6051C36.4343 95.9863 35.9345 96.1772 35.4347 96.1772C34.9349 96.1772 34.4351 95.9863 34.0537 95.6051L31.3332 92.8846L28.5294 95.6883C28.148 96.0695 27.648 96.2604 27.1484 96.2604C26.6484 96.2604 26.1488 96.0695 25.7673 95.6883C25.0046 94.9256 25.0046 93.6889 25.7673 92.926L28.571 90.1223L25.7673 87.3186C25.0046 86.5559 25.0046 85.3192 25.7673 84.5563C26.5302 83.7938 27.7666 83.7938 28.5296 84.5563L31.3334 87.36L34.0539 84.6395C34.8169 83.877 36.0533 83.8774 36.8162 84.6395C37.5789 85.4022 37.5789 86.6389 36.8162 87.4018L34.0957 90.1223L36.8158 92.8428ZM45.4334 29.7852H28.7302C27.6515 29.7852 26.7771 30.6596 26.7771 31.7383C26.7771 32.817 27.6515 33.6914 28.7302 33.6914H45.4334C46.5121 33.6914 47.3865 32.817 47.3865 31.7383C47.3865 30.6596 46.5121 29.7852 45.4334 29.7852ZM36.4113 37.5977H28.7302C27.6515 37.5977 26.7771 38.4721 26.7771 39.5508C26.7771 40.6295 27.6515 41.5039 28.7302 41.5039H36.4113C37.49 41.5039 38.3644 40.6295 38.3644 39.5508C38.3644 38.4721 37.49 37.5977 36.4113 37.5977Z" fill="#FF5757"/>
<path d="M66.043 51.7578H49.3398C48.2611 51.7578 47.3867 52.6322 47.3867 53.7109C47.3867 54.7896 48.2611 55.6641 49.3398 55.6641H66.043C67.1217 55.6641 67.9961 54.7896 67.9961 53.7109C67.9961 52.6322 67.1217 51.7578 66.043 51.7578ZM57.0209 59.5703H49.3398C48.2611 59.5703 47.3867 60.4447 47.3867 61.5234C47.3867 62.6022 48.2611 63.4766 49.3398 63.4766H57.0209C58.0996 63.4766 58.974 62.6022 58.974 61.5234C58.974 60.4447 58.0996 59.5703 57.0209 59.5703ZM66.043 86.1631H49.3398C48.2611 86.1631 47.3867 87.0375 47.3867 88.1162C47.3867 89.1949 48.2611 90.0693 49.3398 90.0693H66.043C67.1217 90.0693 67.9961 89.1949 67.9961 88.1162C67.9961 87.0375 67.1217 86.1631 66.043 86.1631ZM52.2039 93.9756H49.3398C48.2611 93.9756 47.3867 94.85 47.3867 95.9287C47.3867 97.0074 48.2611 97.8818 49.3398 97.8818H52.2039C53.2826 97.8818 54.157 97.0074 54.157 95.9287C54.157 94.85 53.2824 93.9756 52.2039 93.9756ZM67.9961 79.1016C67.9961 78.0229 67.1217 77.1484 66.043 77.1484H49.3398C48.2611 77.1484 47.3867 78.0229 47.3867 79.1016C47.3867 80.1803 48.2611 81.0547 49.3398 81.0547H66.043C67.1217 81.0547 67.9961 80.1803 67.9961 79.1016ZM72.3072 71.2891C72.3072 70.2104 71.4328 69.3359 70.3541 69.3359H49.3398C48.2611 69.3359 47.3867 70.2104 47.3867 71.2891C47.3867 72.3678 48.2611 73.2422 49.3398 73.2422H70.3541C71.4328 73.2422 72.3072 72.3678 72.3072 71.2891Z" fill="#9AE7FD"/>
<path d="M78.9699 9.77734H77.0098C75.9311 9.77734 75.0566 8.90293 75.0566 7.82422V1.95313C75.0566 0.874414 75.9311 0 77.0098 0H78.9699C80.0486 0 80.923 0.874414 80.923 1.95313V7.82422C80.923 8.90293 80.0486 9.77734 78.9699 9.77734Z" fill="#FFC143"/>
<path d="M77.9893 68.3828C76.9105 68.3828 76.0361 67.5084 76.0361 66.4297V60.5586C76.0361 59.4799 76.9105 58.6055 77.9893 58.6055C79.068 58.6055 79.9424 59.4799 79.9424 60.5586V66.4297C79.9424 67.5084 79.068 68.3828 77.9893 68.3828Z" fill="#003C79"/>
<path d="M80.3281 60.5586H75.6514C74.5727 60.5586 73.6982 59.6842 73.6982 58.6055V50.7813C73.6982 49.7025 74.5727 48.8281 75.6514 48.8281H80.3281C81.4068 48.8281 82.2812 49.7025 82.2812 50.7813V58.6055C82.2812 59.6842 81.4068 60.5586 80.3281 60.5586Z" fill="#FFF261"/>
<path d="M79.5623 60.5586H75.6514C74.5727 60.5586 73.6982 59.6842 73.6982 58.6055V50.7813C73.6982 49.7025 74.5727 48.8281 75.6514 48.8281H79.5623C78.4836 48.8281 77.6092 49.7025 77.6092 50.7813V58.6055C77.6092 59.6842 78.4836 60.5586 79.5623 60.5586Z" fill="#FFEA00"/>
<path d="M79.9471 56.6406H75.0537C73.975 56.6406 73.1006 55.7662 73.1006 54.6875V5.86401C73.1006 4.7853 73.975 3.91089 75.0537 3.91089H79.9471C81.0258 3.91089 81.9002 4.7853 81.9002 5.86401V54.6875C81.9002 55.7662 81.0258 56.6406 79.9471 56.6406Z" fill="#FF4343"/>
<path d="M80.9244 56.6406H79.5566C78.4779 56.6406 77.6035 55.7662 77.6035 54.6875V5.86401C77.6035 4.7853 78.4779 3.91089 79.5566 3.91089H80.9244C82.0031 3.91089 82.8775 4.7853 82.8775 5.86401V54.6875C82.8775 55.7662 82.0031 56.6406 80.9244 56.6406Z" fill="#FF5757"/>
<path d="M82.8801 29.3321H80.9199C79.8412 29.3321 78.9668 28.4577 78.9668 27.379V7.81958C78.9668 6.74087 79.8412 5.86646 80.9199 5.86646H82.8801C83.9588 5.86646 84.8332 6.74087 84.8332 7.81958V27.379C84.8332 28.4577 83.9586 29.3321 82.8801 29.3321Z" fill="#FFEA00"/>
</svg>
