<svg width="51" height="58" viewBox="0 0 51 58" fill="none" xmlns="http://www.w3.org/2000/svg">
<g id="user-approach">
<path id="Vector" d="M47.7295 23.1545L50.0336 14.5566L41.4357 12.253L40.5569 15.5328L43.5553 16.3364L38.7913 19.0866C36.0177 15.2434 31.6776 12.6017 26.7145 12.1065V6.49995L28.9097 8.69522L31.3108 6.29419L25.0166 0L18.7228 6.29375L21.1239 8.69522L23.3187 6.49995V12.1065C18.3555 12.6017 14.0155 15.2434 11.2418 19.0866L6.47783 16.3364L9.47668 15.5328L8.59743 12.253L0 14.5566L2.30368 23.1545L5.58353 22.2753L4.78038 19.2768L9.53864 22.0244C8.5753 24.1532 8.03854 26.5149 8.03854 29C8.03854 31.4851 8.5753 33.8468 9.53864 35.9756L4.78038 38.7232L5.58353 35.7247L2.30368 34.8455L0 43.4434L8.59743 45.747L9.47668 42.4672L6.47783 41.6636L11.2418 38.9134C14.0155 42.7566 18.3555 45.3983 23.3187 45.8935V51.5L21.1239 49.3048L18.7228 51.7058L25.0166 58L31.3103 51.7058L28.9093 49.3048L26.7145 51.5V45.8935C31.6776 45.3983 36.0177 42.7566 38.7913 38.9134L43.5553 41.6636L40.5569 42.4672L41.4357 45.747L50.0331 43.4434L47.7295 34.8455L44.4496 35.7247L45.2532 38.7232L40.4945 35.9756C41.4578 33.8468 41.9946 31.4851 41.9946 29C41.9946 26.5149 41.4578 24.1532 40.4945 22.0244L45.2532 19.2768L44.4496 22.2753L47.7295 23.1545ZM18.4396 40.8804C19.1954 37.9174 21.862 35.7911 25.0166 35.7911C28.1712 35.7911 30.8377 37.9174 31.5935 40.8804C29.6434 41.9641 27.4012 42.5827 25.0166 42.5827C22.6319 42.5827 20.3897 41.9641 18.4396 40.8804ZM34.4574 38.755C32.9117 34.9424 29.2013 32.3958 25.0166 32.3958C20.834 32.3958 17.1223 34.9411 15.5757 38.755C13.0234 36.2841 11.4339 32.8246 11.4339 29C11.4339 21.5106 17.5272 15.4178 25.0166 15.4178C32.506 15.4178 38.5988 21.5106 38.5988 29C38.5988 32.8246 37.0098 36.2841 34.4574 38.755Z" fill="#1D1068"/>
<path id="Vector_2" d="M31.8083 25.6046C31.8083 21.8601 28.7617 18.8135 25.0172 18.8135C21.2723 18.8135 18.2261 21.8601 18.2261 25.6046C18.2261 29.3495 21.2723 32.3962 25.0172 32.3962C28.7617 32.3962 31.8083 29.3495 31.8083 25.6046ZM25.0172 29.0004C23.145 29.0004 21.6214 27.4773 21.6214 25.6046C21.6214 23.7324 23.145 22.2093 25.0172 22.2093C26.8894 22.2093 28.413 23.7324 28.413 25.6046C28.413 27.4773 26.8894 29.0004 25.0172 29.0004Z" fill="#00B7AF"/>
</g>
</svg>
