<svg width="131" height="131" viewBox="0 0 131 131" fill="none" xmlns="http://www.w3.org/2000/svg">
<circle cx="65.5" cy="65.5" r="65.5" fill="#00ACA5"/>
<path d="M22.8883 74.0929C26.2533 85.5935 35.9528 109.054 52.343 106.948C68.7819 104.836 62.3622 83.6379 77.4109 80.7326C84.0354 79.4535 88.5258 90.9189 95.1651 90.5622C103.716 90.1027 108.068 81.6384 110.458 74.5226C115.525 59.4346 107.937 33.8499 90.1787 29.419C74.6818 25.5523 72.8691 44.4867 59.3943 38.987C51.8207 35.8959 52.5773 26.6648 43.3533 24.8021C15.448 19.1671 18.4107 58.79 22.8883 74.0929Z" fill="url(#paint0_linear_418_5)"/>
<path opacity="0.1" d="M101.843 100.912H30.1582C28.6697 100.912 27.4629 99.7053 27.4629 98.2167V41.7471C27.4629 40.2585 28.6697 39.0518 30.1582 39.0518H101.843C103.331 39.0518 104.538 40.2585 104.538 41.7471V98.2167C104.538 99.7053 103.331 100.912 101.843 100.912Z" fill="#2626BC"/>
<path d="M104.538 37.4351V93.9036C104.538 95.3932 103.331 96.5989 101.843 96.5989H30.1582C28.6704 96.5989 27.4629 95.3932 27.4629 93.9036V37.4351C27.4629 35.9454 28.6704 34.7397 30.1582 34.7397H101.843C103.331 34.7397 104.538 35.9454 104.538 37.4351Z" fill="white"/>
<path d="M104.538 56.0739V93.9035C104.538 95.3931 103.33 96.5988 101.842 96.5988H34.2207C37.1406 91.7868 43.3075 85.0899 54.9423 85.2857C73.0548 85.5894 64.9598 61.204 81.1497 62.9236C96.7771 64.5857 93.9237 53.1396 104.538 56.0739Z" fill="#8399FE"/>
<path d="M93.2286 66.9504C93.2286 71.6205 89.4426 75.4047 84.7725 75.4047C80.1024 75.4047 76.3164 71.6205 76.3164 66.9504C76.3164 65.5542 76.656 64.2353 77.2562 63.0745C78.3756 62.8283 79.6604 62.7655 81.15 62.9236C85.9638 63.4357 89.0239 62.7044 91.2646 61.531C92.4901 62.9991 93.2286 64.8894 93.2286 66.9504Z" fill="#6583FE"/>
<path d="M51.5365 96.5995H34.1719V81.0554C34.1719 80.5593 34.5742 80.157 35.0703 80.157H50.6381C51.1342 80.157 51.5365 80.5593 51.5365 81.0554V96.5995Z" fill="#D2DEFF"/>
<path d="M74.682 96.5995H57.3174V81.0554C57.3174 80.5593 57.7197 80.157 58.2158 80.157H73.7836C74.2797 80.157 74.682 80.5593 74.682 81.0554V96.5995Z" fill="#D2DEFF"/>
<path d="M97.8275 96.5995H80.4629V81.0554C80.4629 80.5593 80.8652 80.157 81.3613 80.157H96.9291C97.4252 80.157 97.8275 80.5593 97.8275 81.0554V96.5995Z" fill="#D2DEFF"/>
<path d="M104.538 47.1939V37.4346C104.538 35.946 103.331 34.7393 101.843 34.7393H30.1582C28.6697 34.7393 27.4629 35.946 27.4629 37.4346V47.1939H104.538Z" fill="#01ECA5"/>
<path d="M101.843 97.498H30.1582C28.1766 97.498 26.5645 95.8858 26.5645 93.9042V37.4346C26.5645 35.453 28.1766 33.8408 30.1582 33.8408H101.843C103.824 33.8408 105.436 35.453 105.436 37.4346V93.9042C105.436 95.8858 103.824 97.498 101.843 97.498ZM30.1582 35.6377C29.1674 35.6377 28.3613 36.4438 28.3613 37.4346V93.9042C28.3613 94.895 29.1674 95.7011 30.1582 95.7011H101.843C102.834 95.7011 103.64 94.895 103.64 93.9042V37.4346C103.64 36.4438 102.834 35.6377 101.843 35.6377H30.1582Z" fill="#2626BC"/>
<path d="M35.3855 43.3287C36.4673 43.3287 37.3443 42.4517 37.3443 41.3699C37.3443 40.2881 36.4673 39.4111 35.3855 39.4111C34.3037 39.4111 33.4268 40.2881 33.4268 41.3699C33.4268 42.4517 34.3037 43.3287 35.3855 43.3287Z" fill="#FF5BA8"/>
<path d="M41.6385 43.3287C42.7203 43.3287 43.5972 42.4517 43.5972 41.3699C43.5972 40.2881 42.7203 39.4111 41.6385 39.4111C40.5567 39.4111 39.6797 40.2881 39.6797 41.3699C39.6797 42.4517 40.5567 43.3287 41.6385 43.3287Z" fill="white"/>
<path d="M47.8914 43.3287C48.9732 43.3287 49.8502 42.4517 49.8502 41.3699C49.8502 40.2881 48.9732 39.4111 47.8914 39.4111C46.8096 39.4111 45.9326 40.2881 45.9326 41.3699C45.9326 42.4517 46.8096 43.3287 47.8914 43.3287Z" fill="#97FFD2"/>
<path d="M97.6749 43.5704H73.209V39.1689H97.6751C98.1712 39.1689 98.5735 39.5713 98.5735 40.0674V42.6721C98.5733 43.1682 98.1712 43.5704 97.6749 43.5704Z" fill="#DCFDEE"/>
<path d="M73.3294 39.2248C72.3796 38.275 70.8341 38.275 69.8842 39.2248C68.9344 40.1747 68.9344 41.7201 69.8842 42.67C70.6096 43.3954 71.6817 43.5648 72.5711 43.1824L73.3524 43.9637C73.7031 44.3145 74.2722 44.3145 74.623 43.9637C74.9737 43.613 74.9737 43.0439 74.623 42.6932L73.8417 41.9119C74.2242 41.0222 74.0548 39.9502 73.3294 39.2248ZM71.1548 40.4954C71.404 40.2462 71.8096 40.2462 72.0588 40.4954C72.308 40.7446 72.308 41.1502 72.0588 41.3994C71.8096 41.6486 71.404 41.6486 71.1548 41.3994C70.9056 41.1502 70.9056 40.7446 71.1548 40.4954Z" fill="white"/>
<path d="M42.8557 87.839C43.9733 87.839 44.8793 86.933 44.8793 85.8154C44.8793 84.6978 43.9733 83.7917 42.8557 83.7917C41.738 83.7917 40.832 84.6978 40.832 85.8154C40.832 86.933 41.738 87.839 42.8557 87.839Z" fill="white"/>
<path d="M46.3304 90.3577H39.3799C38.8838 90.3577 38.4814 90.76 38.4814 91.2561C38.4814 91.7522 38.8838 92.1545 39.3799 92.1545H46.3304C46.8265 92.1545 47.2288 91.7522 47.2288 91.2561C47.2288 90.76 46.8267 90.3577 46.3304 90.3577Z" fill="#8399FE"/>
<path d="M66.0012 87.839C67.1188 87.839 68.0248 86.933 68.0248 85.8154C68.0248 84.6978 67.1188 83.7917 66.0012 83.7917C64.8836 83.7917 63.9775 84.6978 63.9775 85.8154C63.9775 86.933 64.8836 87.839 66.0012 87.839Z" fill="white"/>
<path d="M69.4757 90.3577H62.5254C62.0293 90.3577 61.627 90.76 61.627 91.2561C61.627 91.7522 62.0293 92.1545 62.5254 92.1545H69.4759C69.972 92.1545 70.3743 91.7522 70.3743 91.2561C70.3743 90.76 69.972 90.3577 69.4757 90.3577Z" fill="#8399FE"/>
<path d="M89.1457 87.839C90.2633 87.839 91.1694 86.933 91.1694 85.8154C91.1694 84.6978 90.2633 83.7917 89.1457 83.7917C88.0281 83.7917 87.1221 84.6978 87.1221 85.8154C87.1221 86.933 88.0281 87.839 89.1457 87.839Z" fill="white"/>
<path d="M92.6214 90.3577H85.6709C85.1748 90.3577 84.7725 90.76 84.7725 91.2561C84.7725 91.7522 85.1748 92.1545 85.6709 92.1545H92.6214C93.1175 92.1545 93.5198 91.7522 93.5198 91.2561C93.5198 90.76 93.1177 90.3577 92.6214 90.3577Z" fill="#8399FE"/>
<path d="M62.559 75.9153H37.9219C36.9295 75.9153 36.125 75.1109 36.125 74.1184V73.0745C36.125 72.082 36.9295 71.2776 37.9219 71.2776H62.5588C63.5512 71.2776 64.3557 72.082 64.3557 73.0745V74.1184C64.3559 75.1109 63.5512 75.9153 62.559 75.9153Z" fill="#FF7EB8"/>
<path d="M55.8323 65.1528H37.0225C36.5263 65.1528 36.124 65.5552 36.124 66.0513C36.124 66.5474 36.5263 66.9497 37.0225 66.9497H55.8323C56.3284 66.9497 56.7308 66.5474 56.7308 66.0513C56.7308 65.5552 56.3284 65.1528 55.8323 65.1528Z" fill="#8399FE"/>
<path d="M51.5198 61.6621H37.0225C36.5263 61.6621 36.124 62.0644 36.124 62.5605C36.124 63.0567 36.5263 63.459 37.0225 63.459H51.5198C52.0159 63.459 52.4183 63.0567 52.4183 62.5605C52.4183 62.0644 52.0159 61.6621 51.5198 61.6621Z" fill="#8399FE"/>
<path d="M39.1214 57.4673H37.0225C36.5263 57.4673 36.124 57.8696 36.124 58.3657C36.124 58.8618 36.5263 59.2642 37.0225 59.2642H39.1214C39.6175 59.2642 40.0198 58.8618 40.0198 58.3657C40.0198 57.8696 39.6175 57.4673 39.1214 57.4673Z" fill="#FF7EB8"/>
<path d="M49.9026 51.3428H37.0225C36.5263 51.3428 36.124 51.7451 36.124 52.2412C36.124 52.7373 36.5263 53.1396 37.0225 53.1396H49.9026C50.3988 53.1396 50.8011 52.7373 50.8011 52.2412C50.8011 51.7451 50.3988 51.3428 49.9026 51.3428Z" fill="#02FFB3"/>
<path d="M84.7721 72.1197C89.4421 72.1197 93.2279 68.334 93.2279 63.664C93.2279 58.994 89.4421 55.2083 84.7721 55.2083C80.1022 55.2083 76.3164 58.994 76.3164 63.664C76.3164 68.334 80.1022 72.1197 84.7721 72.1197Z" fill="#02FFB3"/>
<path d="M87.1498 69.9646C87.6462 69.9646 88.0486 69.5622 88.0486 69.0658C88.0486 68.5694 87.6462 68.167 87.1498 68.167C86.6534 68.167 86.251 68.5694 86.251 69.0658C86.251 69.5622 86.6534 69.9646 87.1498 69.9646Z" fill="white"/>
<path d="M91.2982 69.9646C91.7946 69.9646 92.197 69.5622 92.197 69.0658C92.197 68.5694 91.7946 68.167 91.2982 68.167C90.8018 68.167 90.3994 68.5694 90.3994 69.0658C90.3994 69.5622 90.8018 69.9646 91.2982 69.9646Z" fill="white"/>
<path d="M95.4467 69.9646C95.943 69.9646 96.3454 69.5622 96.3454 69.0658C96.3454 68.5694 95.943 68.167 95.4467 68.167C94.9503 68.167 94.5479 68.5694 94.5479 69.0658C94.5479 69.5622 94.9503 69.9646 95.4467 69.9646Z" fill="white"/>
<path d="M89.224 66.6255C89.7204 66.6255 90.1228 66.2231 90.1228 65.7267C90.1228 65.2303 89.7204 64.8279 89.224 64.8279C88.7276 64.8279 88.3252 65.2303 88.3252 65.7267C88.3252 66.2231 88.7276 66.6255 89.224 66.6255Z" fill="white"/>
<path d="M93.3724 66.6255C93.8688 66.6255 94.2712 66.2231 94.2712 65.7267C94.2712 65.2303 93.8688 64.8279 93.3724 64.8279C92.876 64.8279 92.4736 65.2303 92.4736 65.7267C92.4736 66.2231 92.876 66.6255 93.3724 66.6255Z" fill="white"/>
<path d="M89.224 73.3037C89.7204 73.3037 90.1228 72.9013 90.1228 72.4049C90.1228 71.9085 89.7204 71.5061 89.224 71.5061C88.7276 71.5061 88.3252 71.9085 88.3252 72.4049C88.3252 72.9013 88.7276 73.3037 89.224 73.3037Z" fill="white"/>
<path d="M93.3724 73.3037C93.8688 73.3037 94.2712 72.9013 94.2712 72.4049C94.2712 71.9085 93.8688 71.5061 93.3724 71.5061C92.876 71.5061 92.4736 71.9085 92.4736 72.4049C92.4736 72.9013 92.876 73.3037 93.3724 73.3037Z" fill="white"/>
<path d="M100.594 30.1201C99.1785 30.1201 98.0264 28.9682 98.0264 27.552C98.0264 26.1361 99.1783 24.9841 100.594 24.9841C102.011 24.9841 103.163 26.1361 103.163 27.552C103.162 28.9682 102.01 30.1201 100.594 30.1201ZM100.594 26.781C100.169 26.781 99.8232 27.1269 99.8232 27.552C99.8232 27.9772 100.169 28.3233 100.594 28.3233C101.02 28.3233 101.366 27.9772 101.366 27.552C101.366 27.1269 101.02 26.781 100.594 26.781Z" fill="#FF5BA8"/>
<path d="M38.074 107.717C36.658 107.717 35.5059 106.565 35.5059 105.149C35.5059 103.733 36.6578 102.581 38.074 102.581C39.4901 102.581 40.642 103.733 40.642 105.149C40.6419 106.565 39.4899 107.717 38.074 107.717ZM38.074 104.378C37.6488 104.378 37.3027 104.724 37.3027 105.149C37.3027 105.574 37.6486 105.92 38.074 105.92C38.4993 105.92 38.8452 105.574 38.8452 105.149C38.8452 104.724 38.4991 104.378 38.074 104.378Z" fill="#6583FE"/>
<path d="M46.9197 107.717C45.5037 107.717 44.3516 106.565 44.3516 105.149C44.3516 103.733 45.5035 102.581 46.9197 102.581C48.3358 102.581 49.4877 103.733 49.4877 105.149C49.4877 106.565 48.3356 107.717 46.9197 107.717ZM46.9197 104.378C46.4945 104.378 46.1484 104.724 46.1484 105.149C46.1484 105.574 46.4943 105.92 46.9197 105.92C47.345 105.92 47.6909 105.574 47.6909 105.149C47.6909 104.724 47.3448 104.378 46.9197 104.378Z" fill="#01ECA5"/>
<path d="M63.5547 28.75C63.0586 28.75 62.6562 28.3479 62.6562 27.8516C62.6562 27.257 62.1727 26.7734 61.5781 26.7734C61.082 26.7734 60.6797 26.3713 60.6797 25.875C60.6797 25.3787 61.082 24.9766 61.5781 24.9766C62.1727 24.9766 62.6562 24.493 62.6562 23.8984C62.6562 23.4021 63.0586 23 63.5547 23C64.0508 23 64.4531 23.4021 64.4531 23.8984C64.4531 24.493 64.9367 24.9766 65.5312 24.9766C66.0274 24.9766 66.4297 25.3787 66.4297 25.875C66.4297 26.3713 66.0274 26.7734 65.5312 26.7734C64.9367 26.7734 64.4531 27.257 64.4531 27.8516C64.4531 28.3479 64.0508 28.75 63.5547 28.75Z" fill="#01ECA5"/>
<path d="M71.8115 30.9585C71.3154 30.9585 70.9131 30.5564 70.9131 30.0601C70.9131 29.4655 70.4295 28.9819 69.835 28.9819C69.3388 28.9819 68.9365 28.5798 68.9365 28.0835C68.9365 27.5872 69.3388 27.1851 69.835 27.1851C70.4295 27.1851 70.9131 26.7015 70.9131 26.1069C70.9131 25.6106 71.3154 25.2085 71.8115 25.2085C72.3076 25.2085 72.71 25.6106 72.71 26.1069C72.71 26.7015 73.1935 27.1851 73.7881 27.1851C74.2842 27.1851 74.6865 27.5872 74.6865 28.0835C74.6865 28.5798 74.2842 28.9819 73.7881 28.9819C73.1935 28.9819 72.71 29.4655 72.71 30.0601C72.71 30.5564 72.3076 30.9585 71.8115 30.9585Z" fill="#FF5BA8"/>
<defs>
<linearGradient id="paint0_linear_418_5" x1="24.2803" y1="81.3503" x2="102.572" y2="36.1485" gradientUnits="userSpaceOnUse">
<stop stop-color="#DCFDEE" stop-opacity="0"/>
<stop offset="0.6288" stop-color="#D2F3E4"/>
</linearGradient>
</defs>
</svg>
