<svg width="58" height="58" viewBox="0 0 58 58" fill="none" xmlns="http://www.w3.org/2000/svg">
<g id="Web development">
<path id="Vector" d="M52.9023 0.113281H5.09766C2.28681 0.113281 0 2.40009 0 5.21094V52.7891C0 55.5999 2.28681 57.8867 5.09766 57.8867H52.9023C55.7132 57.8867 58 55.5999 58 52.7891V5.21094C58 2.40009 55.7132 0.113281 52.9023 0.113281ZM5.09766 3.51172H52.9023C53.8393 3.51172 54.6016 4.27399 54.6016 5.21094V13.707H3.39844V5.21094C3.39844 4.27399 4.16071 3.51172 5.09766 3.51172ZM52.9023 54.4883H5.09766C4.16071 54.4883 3.39844 53.726 3.39844 52.7891V17.1055H54.6016V52.7891C54.6016 53.726 53.8393 54.4883 52.9023 54.4883Z" fill="#1D1068"/>
<path id="Vector_2" d="M34.7675 22.3404C33.905 21.9708 32.9059 22.3704 32.5363 23.2329L22.341 47.0219C21.9712 47.8845 22.3709 48.8835 23.2334 49.2531C24.0963 49.6229 25.0951 49.223 25.4646 48.3607L35.6599 24.5716C36.0297 23.709 35.63 22.7101 34.7675 22.3404Z" fill="#1D1068"/>
<path id="Vector_3" d="M20.1311 27.9385C19.5448 27.2057 18.4753 27.087 17.7428 27.6732L9.24671 34.4701C8.39721 35.1494 8.39665 36.4439 9.24671 37.1238L17.7428 43.9207C18.4756 44.507 19.5451 44.3881 20.1311 43.6554C20.7173 42.9226 20.5986 41.8532 19.8657 41.2671L13.0283 35.797L19.8657 30.3269C20.5986 29.7407 20.7173 28.6715 20.1311 27.9385Z" fill="#00B7AF"/>
<path id="Vector_4" d="M48.7529 34.4701L40.2568 27.6733C39.524 27.0869 38.4546 27.2058 37.8685 27.9386C37.2823 28.6714 37.401 29.7408 38.1339 30.3269L44.9714 35.797L38.1339 41.267C37.401 41.8532 37.2823 42.9225 37.8685 43.6553C38.4555 44.3889 39.525 44.5063 40.2568 43.9206L48.7529 37.1238C49.6024 36.4444 49.603 35.1501 48.7529 34.4701Z" fill="#00B7AF"/>
<path id="Vector_5" d="M8.60938 10.3086C9.54783 10.3086 10.3086 9.54783 10.3086 8.60938C10.3086 7.67092 9.54783 6.91016 8.60938 6.91016C7.67092 6.91016 6.91016 7.67092 6.91016 8.60938C6.91016 9.54783 7.67092 10.3086 8.60938 10.3086Z" fill="#1D1068"/>
<path id="Vector_6" d="M15.4062 10.3086C16.3447 10.3086 17.1055 9.54783 17.1055 8.60938C17.1055 7.67092 16.3447 6.91016 15.4062 6.91016C14.4678 6.91016 13.707 7.67092 13.707 8.60938C13.707 9.54783 14.4678 10.3086 15.4062 10.3086Z" fill="#1D1068"/>
<path id="Vector_7" d="M22.2031 10.3086C23.1416 10.3086 23.9023 9.54783 23.9023 8.60938C23.9023 7.67092 23.1416 6.91016 22.2031 6.91016C21.2647 6.91016 20.5039 7.67092 20.5039 8.60938C20.5039 9.54783 21.2647 10.3086 22.2031 10.3086Z" fill="#1D1068"/>
<path id="Vector_8" d="M39.1953 10.3086H49.3906C50.329 10.3086 51.0898 9.5478 51.0898 8.60938C51.0898 7.67095 50.329 6.91016 49.3906 6.91016H39.1953C38.2569 6.91016 37.4961 7.67095 37.4961 8.60938C37.4961 9.5478 38.2569 10.3086 39.1953 10.3086Z" fill="#00B7AF"/>
</g>
</svg>
